<?xml version="1.0" encoding="utf-8"?>
<!-- Generator: Adobe Illustrator 25.4.1, SVG Export Plug-In . SVG Version: 6.00 Build 0)  -->
<svg version="1.1" id="Camada_1" xmlns="http://www.w3.org/2000/svg" xmlns:xlink="http://www.w3.org/1999/xlink" x="0px" y="0px"
	 viewBox="0 0 546 473" style="enable-background:new 0 0 546 473;" xml:space="preserve">
<style type="text/css">
	.st0{fill:#F5EBF3;}
</style>
<g>
	<g>
		<path class="st0" d="M518.65,58.05c-12.81-17.57-29.55-32.1-48.94-42.26C449.96,5.38,427.47-0.49,403.59-0.49
			c-28.28,0-54.65,8.25-76.8,22.47c-4.86,3.12-9.54,6.54-13.96,10.22c-17.14,14.19-30.88,32.32-39.85,53.02
			c-22.73-52.35-75.99-88.36-137.3-85.55C62.68,3,3.42,62.34,0.16,135.35c-0.67,14.92,0.96,29.35,4.58,42.98
			c41.21-38.09,96.32-61.35,156.85-61.35c51.87,0,99.74,17.07,138.32,45.9l7.03-1.73l21.53-5.27l5.74-1.41l10.88-2.67
			c0.84-0.34,1.74-0.56,2.67-0.67c0.03,0,0.07,0,0.11-0.01l11.72-2.88c2.65-0.65,5.03,1.78,4.32,4.41l-5.56,20.74l-9.46,37.02
			l-0.4,1.59c27.89,38.2,44.37,85.29,44.37,136.23c0,12.33-0.96,24.41-2.82,36.21c33.28-29.08,59.4-56.29,79.9-81.03
			c12.29-14.82,22.58-28.77,31.17-41.7c4.29-6.47,8.16-12.67,11.65-18.6c14.37-24.41,22.32-44.32,26.71-58.6
			c0.03-0.1,0.07-0.19,0.09-0.3c0.66-2.16,1.24-4.18,1.74-6.07c2.86-10.6,3.47-17.03,3.57-18.64c0.02-0.05,0.02-0.1,0.02-0.16
			c0.02-0.14,0.02-0.23,0.02-0.23c0.7-5.65,1.05-11.4,1.05-17.24C545.94,110.52,535.81,81.55,518.65,58.05z"/>
		<path class="st0" d="M197.2,206.05c1.7,1.01-3.42-0.03-5.04-7.33c-0.49-2.21,0.37-10.06,7.43-12.58c0.04-0.02,0.09-0.04,0.12-0.05
			c0.98-0.42,2.02-0.7,3.14-0.84c0.14-0.02,0.28-0.04,0.4-0.04c0.04-0.02,0.07-0.02,0.1-0.02l38.34-8.61l27.16-6.1l4.11-1.01
			l4.85-1.19l22.09-5.4c-38.58-28.84-86.46-45.9-138.32-45.9c-60.53,0-115.64,23.26-156.85,61.35C8.92,194.21,15.79,209,24.82,222.2
			c25.65,37.45,68.72,62.03,117.54,62.03c0,0,48.52,0,73.61-37.92C231.04,206.82,197.2,206.05,197.2,206.05z"/>
		<path class="st0" d="M348.48,212l-9.85,38.46l-0.16,0.61L335,264.61v0.02l-11.58,45.31c0,0.02,0,0.04-0.02,0.05
			c-0.1,1.08-0.38,2.13-0.8,3.1c0.02,0.02,0,0.04-0.02,0.05c-1.55,3.75-5.02,6.55-9.33,7.08c-2.81,0.35-5.49-0.33-7.69-1.76
			l-0.02-0.02c-0.02-0.01-0.03-0.03-0.04-0.04c-2.08-2.01-3.52-4.61-4.09-7.45c-1.61-8.03-7.49-25.22-27.96-20.05
			c-0.15,0.04-4.02,0.55-9.78,5.3c-25.51,23.5-38.25,69.49-34.69,107.29c0.19,1.94,1.71,11.02,2.16,12.92
			c2.39,9.73,8.65,31.71,29.5,48.41c3.78,3.02,8.07,5.44,12.19,8.18c0,0,0.01,0,0.01,0c25.02-16.61,47.76-32.85,68.39-48.68
			c17.77-13.63,34-26.95,48.8-39.89c1.87-11.8,2.82-23.88,2.82-36.21C392.85,297.28,376.37,250.19,348.48,212z"/>
	</g>
</g>
</svg>
