<?xml version="1.0" encoding="utf-8"?>
<!-- Generator: Adobe Illustrator 25.4.1, SVG Export Plug-In . SVG Version: 6.00 Build 0)  -->
<svg version="1.1" id="Camada_1" xmlns="http://www.w3.org/2000/svg" xmlns:xlink="http://www.w3.org/1999/xlink" x="0px" y="0px"
	 viewBox="0 0 427 53" style="enable-background:new 0 0 427 53;" xml:space="preserve">
<style type="text/css">
	.st0{fill:#E5E5E5;}
	.st1{fill:#FEFEFE;}
	.st2{fill:#F8B34C;}
	.st3{fill:#E2133A;}
</style>
<ellipse class="st0" cx="213.7" cy="40.2" rx="27.2" ry="3.1"/>
<path class="st1" d="M213.9,7.2c-1.3,0-2.5,0-3.8,0c-0.3,0-0.4-0.1-0.3-0.3c0-0.3,0-0.7,0-1c0-0.8,0.6-1.4,1.4-1.4
	c1.8,0,3.7,0,5.5,0c0.8,0,1.4,0.6,1.4,1.4c0,0.3,0,0.7,0,1s-0.1,0.3-0.3,0.3C216.4,7.2,215.1,7.2,213.9,7.2z"/>
<g>
	<path class="st2" d="M213.4,40.4c-5.3,0-10.6,0-15.9,0c-2.2,0-3.6-1.4-3.5-3.6c0.1-2.1,0.6-4,1.6-5.9c0.5-1,1.3-1.7,2.4-2.2
		c2.5-1.1,5.1-1.9,7.7-2.7c0.3-0.1,0.4,0.1,0.6,0.2c1.6,1.5,3.4,2.4,5.5,2.8c3.3,0.5,6.1-0.5,8.5-2.7c0.3-0.3,0.6-0.3,1-0.2
		c2.5,0.8,5,1.6,7.4,2.6c1.2,0.5,2.1,1.4,2.6,2.6c0.9,1.8,1.3,3.6,1.4,5.6c0.1,2.1-1.3,3.5-3.4,3.5
		C224.1,40.4,218.8,40.4,213.4,40.4z"/>
	<path class="st2" d="M223.2,11.5c-0.2,3.8-1.1,7.4-3.3,10.5c-1.2,1.7-2.7,3.1-4.8,3.6c-2.8,0.7-5-0.2-7-2.2c-1.4-1.4-2.3-3.1-3-5
		c-0.9-2.4-1.4-4.9-1.4-7.6c0.1-4.7,3.8-8.7,8.4-9.3c5.3-0.6,9.8,2.8,10.8,8C223.1,10.3,223.2,10.9,223.2,11.5z"/>
</g>
<g>
	<path class="st3" d="M234.4,15.6c6,0,10.9,4.9,10.9,10.9s-4.9,10.9-10.9,10.9s-10.9-4.9-10.9-10.9S228.4,15.6,234.4,15.6z"/>
	<path class="st1" d="M229.3,30.1c0-0.4,0.2-0.8,0.5-1.1c0.8-0.8,1.6-1.6,2.4-2.4c0.1-0.1,0.1-0.2,0-0.3c-0.8-0.8-1.6-1.6-2.5-2.5
		c-0.8-0.8-0.5-2.1,0.6-2.4c0.6-0.2,1.1,0,1.5,0.4c0.8,0.8,1.6,1.6,2.4,2.4c0.1,0.1,0.2,0.1,0.3,0c0.8-0.8,1.6-1.6,2.4-2.4
		c0.8-0.8,2.1-0.5,2.4,0.6c0.2,0.6,0,1.1-0.4,1.5c-0.8,0.8-1.6,1.6-2.4,2.4c-0.1,0.1-0.1,0.2,0,0.3c0.8,0.8,1.6,1.6,2.4,2.4
		c0.4,0.4,0.5,0.9,0.4,1.5c-0.2,0.6-0.6,0.9-1.2,1c-0.5,0.1-0.9-0.1-1.3-0.4c-0.8-0.8-1.6-1.6-2.4-2.4c-0.1-0.2-0.2-0.1-0.3,0
		c-0.8,0.8-1.6,1.6-2.4,2.4c-0.8,0.8-2.1,0.5-2.4-0.6C229.4,30.4,229.3,30.3,229.3,30.1z"/>
</g>
</svg>
