<?xml version="1.0" encoding="utf-8"?>
<!-- Generator: Adobe Illustrator 25.4.1, SVG Export Plug-In . SVG Version: 6.00 Build 0)  -->
<svg version="1.1" id="Camada_1" xmlns="http://www.w3.org/2000/svg" xmlns:xlink="http://www.w3.org/1999/xlink" x="0px" y="0px"
	 viewBox="0 0 427 53" style="enable-background:new 0 0 427 53;" xml:space="preserve">
<style type="text/css">
	.st0{fill:#E5E5E5;}
	.st1{fill:#F8B34C;}
</style>
<ellipse class="st0" cx="212.8" cy="40.2" rx="19.2" ry="3.1"/>
<g>
	<path class="st1" d="M192.9,13.2c0.2-4.2,2-7.9,6.1-10.2c4.2-2.3,9.2-1.5,12.6,1.9c0.6,0.6,1.1,1.1,1.6,1.7c0.2,0.2,0.3,0.3,0.6,0
		c0.9-0.9,1.7-1.9,2.7-2.6c4.9-3.6,11.5-2.7,15.2,2.2c3.6,4.8,3.2,11.5-0.9,15.9c-5.7,6-11.3,12-16.9,18c-0.2,0.2-0.4,0.3-0.6,0
		c-5.7-6-11.3-12-16.9-17.9C194,19.6,193,16.8,192.9,13.2z"/>
</g>
</svg>
