<?xml version="1.0" encoding="utf-8"?>
<!-- Generator: Adobe Illustrator 25.4.1, SVG Export Plug-In . SVG Version: 6.00 Build 0)  -->
<svg version="1.1" id="Camada_1" xmlns="http://www.w3.org/2000/svg" xmlns:xlink="http://www.w3.org/1999/xlink" x="0px" y="0px"
	 viewBox="0 0 200 200" style="enable-background:new 0 0 200 200;" xml:space="preserve">
<style type="text/css">
	.st0{fill:#E95374;}
	.st1{fill:#7A2D6C;}
	.st2{fill:#9C3586;}
	.st3{fill:#082947;}
	.st4{fill:url(#SVGID_1_);}
	.st5{fill:url(#SVGID_00000079486227001734294970000014047439997439747006_);}
	.st6{fill:url(#SVGID_00000103953435260341420220000012037761158723467174_);}
</style>
<g>
	<g>
		<rect x="-23" y="-16.5" class="st0" width="246" height="233"/>
		<path class="st0" d="M222.5-16v232h-245V-16H222.5 M223.5-17h-247v234h247V-17L223.5-17z"/>
	</g>
</g>
<path class="st1" d="M58.19,153.87c12.55-25.62,47.63-31.31,77.93-10.87c38.3,25.83,91.16,69.46,91.16,69.46s1.68,12.66-14.19,37.51
	c-10.58,16.54-19.78,20.51-19.78,20.51s-91.14-46.81-115.13-65.26C64.78,194.93,47.91,174.86,58.19,153.87z"/>
<path class="st2" d="M65.44,130.55c-38.42,2.53-59.14,23.29-63.26,46.5c-15.71,88.47-35.63,207.09-35.63,207.09
	s9.62,27.58,106.47,28.58c74.58,0.76,99.31-13.23,99.31-13.23s-10.48-106.87-22.82-187.03c-5.34-34.7-5.99-76.75-52.85-81.04
	C85.1,130.36,76.4,129.83,65.44,130.55z"/>
<path class="st3" d="M92.96,91.05c-17.66,6.73-20.69,34.87-26.53,31.21c-13.47-8.44-24.8-25.15-25.76-41.56
	c-1.53-26.5,9.58-46.97,42.77-43.63c15.24,1.54,20.76-25.54,45.27-12.04c19.85,10.93,9.54,52.48-6.61,63.43
	C122.1,88.46,110.61,84.32,92.96,91.05z"/>
<path class="st3" d="M79.25,128.02c-9.77-0.85-25.06-6.84-30.21,3.36c-2.27,4.48,5.12,44.76,43.85,47.62
	c32.97,2.44,23.96-28.37,21.69-42.28C112.64,124.93,89.02,128.89,79.25,128.02z"/>
<linearGradient id="SVGID_1_" gradientUnits="userSpaceOnUse" x1="9403.5762" y1="-1744.6481" x2="9403.5762" y2="-2365.864" gradientTransform="matrix(0.9958 -0.0915 -0.0915 -0.9958 -9456.9473 -923.1951)">
	<stop  offset="0" style="stop-color:#F8B37F"/>
	<stop  offset="1" style="stop-color:#EB8744"/>
</linearGradient>
<path class="st4" d="M90.58,168.65c24.84,1.13,16.5-24,15.5-33.03c-3.05-0.97-6.37-1.73-9.99-2.28c-11.45-1.74-20.1-2.78-31.09-2.7
	c-1.97,0.02-3.88,0.09-5.76,0.2C58.48,139.45,65.1,167.47,90.58,168.65z"/>
<linearGradient id="SVGID_00000105392794689414164540000008924766549565668783_" gradientUnits="userSpaceOnUse" x1="9417.8838" y1="-1746.8595" x2="9417.8838" y2="-2360.5999" gradientTransform="matrix(0.9958 -0.0915 -0.0915 -0.9958 -9456.9473 -923.1951)">
	<stop  offset="0" style="stop-color:#F8B37F"/>
	<stop  offset="1" style="stop-color:#EB8744"/>
</linearGradient>
<path style="fill:url(#SVGID_00000105392794689414164540000008924766549565668783_);" d="M85.21,160.56
	c6.61-0.37,15.55-5.2,12.77-18.86c-1.39-6.77-2.26-15.98-2.81-23.55c15.08,9.05,20.62,0.75,24.71-15.1
	c4.35-16.78,3.95-37.52,3.95-37.52c-9.42,15.08-40.09,7.07-40.17,7.84c-9.82,19.84-16.68,34.85-18.41,60.24
	C63.47,159.41,78.6,160.93,85.21,160.56z"/>
<linearGradient id="SVGID_00000127723692742516700600000005437052975739065998_" gradientUnits="userSpaceOnUse" x1="9401.1973" y1="-1746.8127" x2="9401.1973" y2="-2360.7385" gradientTransform="matrix(0.9958 -0.0915 -0.0915 -0.9958 -9456.9473 -923.1951)">
	<stop  offset="0" style="stop-color:#F8B37F"/>
	<stop  offset="1" style="stop-color:#EB8744"/>
</linearGradient>
<path style="fill:url(#SVGID_00000127723692742516700600000005437052975739065998_);" d="M80.93,78.62
	c5.4,3.95,7.59,10.09,4.92,13.74c-2.68,3.62-9.21,3.37-14.59-0.57c-5.38-3.95-7.58-10.11-4.9-13.75
	C69.01,74.41,75.55,74.66,80.93,78.62z"/>
</svg>
