<?xml version="1.0" encoding="utf-8"?>
<!-- Generator: Adobe Illustrator 25.4.1, SVG Export Plug-In . SVG Version: 6.00 Build 0)  -->
<svg version="1.1" id="Camada_1" xmlns="http://www.w3.org/2000/svg" xmlns:xlink="http://www.w3.org/1999/xlink" x="0px" y="0px"
	 viewBox="0 0 1037 351" style="enable-background:new 0 0 1037 351;" xml:space="preserve">
<style type="text/css">
	.st0{fill:#E4E6EA;}
	.st1{fill:#F2F5F9;}
	.st2{fill:#ACB1B7;}
	.st3{fill:#CACCCE;}
	.st4{fill:#BEC4CE;}
	.st5{opacity:0.31;fill:url(#SVGID_1_);enable-background:new    ;}
	.st6{opacity:0.31;fill:url(#SVGID_00000021809153822358029040000008572808472345926286_);enable-background:new    ;}
	.st7{opacity:0.31;fill:url(#SVGID_00000096047463965461490660000013965796507163463563_);enable-background:new    ;}
	.st8{opacity:0.31;fill:url(#SVGID_00000057859234543823951780000011072769526087885484_);enable-background:new    ;}
	.st9{opacity:0.31;fill:url(#SVGID_00000152986460796782492460000009684066463638967172_);enable-background:new    ;}
	.st10{opacity:0.31;fill:url(#SVGID_00000089534760451695105890000009147015586467268030_);enable-background:new    ;}
	.st11{fill:#F8B24C;}
	.st12{fill:#F7DA4D;}
	.st13{fill:#FFFFFF;}
</style>
<rect x="-26" y="-6.43" class="st0" width="1082" height="366.23"/>
<path class="st1" d="M651.66-76.43c-42.19,14.98-7.23,44.81-54.93,69.38c-47.7,24.57-80.95,63.01-49.15,97.28
	c31.81,34.27,148.89-45.82,179.25,0.01s124.34,46.93,176.37,8.79C955.22,60.9,1046.35,111.5,1036.21,45
	c-10.15-66.5-86.76-20.24-130.13-62.16c-43.36-41.93-108.41-59.27-138.76-40.48C736.95-38.84,692.39-90.89,651.66-76.43z"/>
<path class="st2" d="M646.07,278.73c-3.85-0.31-8.26-0.35-11.41-2.12c-3.16-1.79-5.11-4.05-6.11-6.72c-1-2.64-1.05-5.69-0.39-8.64
	c0.66-2.96,1.9-5.27,3.9-6.15c1.96-0.89,4.68-0.32,8.18,2.35c3.51,2.7,6.97,8.38,9.33,13.2c0.29,0.57,0.56,1.13,0.82,1.68
	c-0.02-8.32,0.77-16.55,2.33-24.53c-1.19-0.48-2.68-1.05-4.31-1.65c-3.72-1.41-8.06-2.78-10.74-5.39c-2.67-2.66-4.05-5.38-4.39-8.19
	c-0.35-2.8,0.35-5.65,1.73-8.23c1.37-2.57,3.16-4.34,5.31-4.56c2.17-0.21,4.68,1.14,7.49,4.7c2.79,3.55,4.84,9.9,6.03,15.1
	c0.14,0.58,0.26,1.17,0.38,1.72c1.93-7.58,4.59-14.85,7.92-21.63c0.55-6.17,2.43-15.03,6.44-20.11c6.56-8.41,11.56-7.71,14.41-4.54
	c2.99,3.34,3.06,7.69-2.59,14.99c-3.37,4.22-9.34,9.07-13.55,12.64c-1.62,3.29-3.07,6.7-4.35,10.2c3.66-2.74,8.8-4.42,12.69-3.68
	c3.98,0.71,6.38,2.3,7.69,4.01c1.33,1.72,1.6,3.62,1.34,5.58c-0.26,1.94-1,3.57-2.49,4.63c-1.49,1.07-3.7,1.58-6.99,1.46
	c-3.28-0.11-7.52-1.85-11.23-3.25c-1.24-0.47-2.41-0.89-3.42-1.27c-1.94,6.81-3.25,13.89-3.91,21.12c2.78-3.72,7.17-6.79,10.99-7.09
	c3.9-0.37,6.56,0.61,8.22,1.99c1.67,1.39,2.4,3.25,2.62,5.27c0.22,2.01-0.08,3.83-1.22,5.28c-1.13,1.45-3.1,2.53-6.24,3.26
	c-3.13,0.75-7.54,0.15-11.38-0.22c-1.27-0.12-2.45-0.23-3.48-0.29c-0.19,7.29,0.29,14.67,1.4,21.97c1.73-4.43,5.11-8.65,8.63-9.98
	c3.6-1.39,6.33-1.11,8.24-0.17c1.91,0.96,3.05,2.63,3.76,4.56c0.7,1.95,0.85,3.83,0.13,5.53c-0.72,1.73-2.31,3.28-5.09,4.82
	c-2.78,1.54-7.08,2.12-10.8,2.81c-1.23,0.22-2.35,0.45-3.34,0.66c1.58,7.26,3.79,14.4,6.58,21.24c0.57-4.83,2.75-9.94,5.77-12.16
	c3.05-2.33,5.72-2.73,7.75-2.29c2.05,0.44,3.52,1.8,4.65,3.54c1.15,1.75,1.73,3.53,1.46,5.38c-0.27,1.87-1.41,3.77-3.68,5.99
	c-2.26,2.2-6.2,3.88-9.54,5.57c-1.11,0.55-2.14,1.09-3.02,1.57c4.69,9.68,10.57,18.65,17.36,26.51c-1.28,1.13-2.54,2.29-3.8,3.46
	c-4.96-5.73-9.44-12.01-13.39-18.75c-1.08,0.53-2.39,1.25-3.81,2.06c-3.28,1.84-6.86,4.29-10.21,4.54
	c-3.35,0.23-5.95-0.59-7.99-2.36c-2.03-1.75-3.47-4.41-4.31-7.43c-0.84-3.01-0.92-5.82,0.26-7.78c1.17-1.97,3.6-3.06,7.68-2.66
	c4.07,0.4,9.54,3.59,13.7,6.58c0.49,0.34,0.95,0.7,1.39,1.03c-3.82-7.38-6.97-15.19-9.38-23.23c-1.2,0.2-2.69,0.52-4.32,0.89
	c-3.69,0.8-7.83,2.07-11.22,1.29c-3.37-0.79-5.75-2.38-7.33-4.71c-1.58-2.29-2.36-5.25-2.45-8.37c-0.11-3.1,0.51-5.77,2.15-7.25
	c1.64-1.49,4.33-1.76,8.26-0.18c3.93,1.6,8.56,6.21,11.97,10.26c0.4,0.5,0.79,0.97,1.17,1.43c-2.01-8.16-3.24-16.51-3.69-24.86
	C649.35,278.98,647.77,278.85,646.07,278.73z"/>
<path class="st1" d="M-18.36-107.67c-48.7,17.29-8.34,51.72-63.4,80.08s-93.43,72.73-56.73,112.28
	c36.71,39.55,171.85-52.88,206.89,0.01s143.51,54.17,203.56,10.15c60.05-44.02,165.23,14.38,153.52-62.37
	c-11.72-76.75-100.14-23.36-150.2-71.74c-50.05-48.39-125.13-68.41-160.16-46.72C80.08-64.29,28.65-124.36-18.36-107.67z"/>
<path class="st3" d="M131.65,99.5c-11.47,22.36-17.34,44.26-20.06,54.4c-5.83-14.59-13.11-28.4-21.22-40.97
	c5.38-7.29,16.89-24.52,20.1-48.63c4.58-32.5-10.03-63.62-10.11-63.43c-0.21-0.04-12.02,24.81-14.95,56.68
	c-1.88,19.93-0.49,37.93,0.57,48.78C76.28,92.25,65.66,79.9,55.29,69.57c3.08-6.29,8.87-20.15,7.98-37.48
	C62.19,8.15,47.75-12.13,47.73-12c-0.13,0-6.82,19.51-4.96,42.85c1.06,13.68,4.54,25.74,7.14,33.53
	c-10.41-9.82-20.36-17.59-28.66-23.44c2.01-5.17,4.81-14.93,2.18-25.74C19.56-0.79,4.93-11.89,4.93-11.81
	C4.86-11.79-0.46,2.93,3.7,18.35c1.63,6.04,4.39,11.34,7.16,15.63C2.98,28.99-1.85,26.5-2.08,26.35
	c0.13-0.04-16.45-14.8-31.82-20.06C-55.61-1.42-75.7,4.96-75.55,4.94C-75.4,5-60.77,18.85-40.69,26.03
	c14.02,4.77,35.2,6.08,35.26,6.21c0.53,0.3,1.03,0.57,1.56,0.87c3.65,2.05,7.33,4.2,11.04,6.53c-5.36-1.27-12.23-1.9-19.09-0.19
	C-26.81,43.2-35.91,56.1-35.96,56.02c0.06-0.02,13.47,5.15,28.17,1.92c11-2.45,19.83-9.27,23.57-12.67
	c5.89,4.03,11.89,8.51,17.89,13.47c2.91,2.45,5.93,5.05,9,7.86c-7.54-2.7-18.31-5.22-29.86-4.37
	c-22.24,1.63-38.24,14.34-38.24,14.23c0.08,0,17.27,5.66,38.94,4.6c15.56-0.82,29.52-5.22,36.22-7.75
	c3.99,3.93,8.02,8.15,12.02,12.67c0.02,0.02,0.04,0.06,0.06,0.08c0.93,1.03,1.84,2.09,2.77,3.17c4.6,5.43,9.14,11.23,13.58,17.48
	c-9.02-6.23-23.36-13.83-40.04-16.49c-29.84-4.77-53.87,7.29-53.78,7.14c0.15,0.11,20.63,10.43,49.01,15.52
	c21.29,3.72,41.83,3.38,50.98,2.91c4.18,6.44,8.24,13.35,12.1,20.65c2.3,4.48,4.48,9.02,6.5,13.7c-8.38-8.02-24.69-20.5-45.38-25.99
	c-31.78-8.47-59.02,2.13-58.92,1.96c0.15,0.13,20.93,12.52,51.02,21.18c23.67,6.65,47.03,9.12,56.19,9.8
	c3.63,9.16,6.65,18.62,9,28.25c2.24-0.06,4.48-0.11,6.72-0.15c-1.37-5.76-2.96-11.47-4.77-17.1c0.04-0.02,0.08-0.02,0.15-0.04
	c-0.49-1.33-0.99-2.62-1.48-3.93c-0.68-2.01-1.39-3.97-2.15-5.93c7.37-4.6,27.58-17.46,41.68-41.18
	c18.08-29.86,15.92-66.48,15.71-66.39C170.42,50.38,147.3,68.77,131.65,99.5z"/>
<path class="st4" d="M1030.52,55.2c1.91-5.6,4.52-11.86,4.02-17.09c-0.53-5.26-2.43-9.01-5.48-11.61c-3-2.58-7.14-4-11.56-4.36
	c-4.44-0.38-8.35,0.37-10.76,2.82c-2.4,2.39-3.27,6.48-1.75,12.62c1.56,6.15,7.22,13.56,12.37,19.03c0.6,0.67,1.21,1.29,1.8,1.9
	c-11.35-3.69-23.07-6.2-34.92-7.5c0.06-1.89,0.18-4.26,0.35-6.84c0.32-5.89,1.09-12.64-0.86-17.58c-2.02-4.95-4.89-8.1-8.52-9.81
	c-3.62-1.73-7.93-2-12.28-1.18c-4.33,0.81-7.84,2.56-9.44,5.51c-1.61,2.98-1.28,7.12,1.88,12.67c3.17,5.52,10.59,11.22,16.98,15.19
	c0.7,0.45,1.44,0.88,2.13,1.29c-11.53-0.61-23.06-0.04-34.35,1.69c-8.77-1.94-22-3.18-31.37,0.27
	c-15.46,5.58-17.54,12.98-14.93,18.41c2.76,5.7,8.65,7.72,22.05,2.93c7.81-2.92,18.05-9.23,25.47-13.63
	c5.47-0.84,11.02-1.39,16.57-1.67c-5.96,3.97-11.37,10.51-12.71,16.36c-1.44,5.94-0.72,10.04,0.82,12.66
	c1.55,2.64,3.98,3.86,6.81,4.36c2.81,0.48,5.48,0.15,7.83-1.5c2.37-1.63,4.4-4.54,6.23-9.26c1.83-4.69,2.03-11.46,2.36-17.34
	c0.11-1.96,0.24-3.81,0.33-5.4c10.47,0.26,20.94,1.52,31.22,3.76c-6.77,2.31-13.62,7.16-16.35,12.45
	c-2.87,5.36-3.14,9.56-2.26,12.52c0.89,2.97,2.99,4.82,5.62,6.03c2.62,1.19,5.28,1.57,7.95,0.59c2.66-0.96,5.33-3.27,8.23-7.4
	c2.92-4.1,4.77-10.61,6.59-16.21c0.61-1.85,1.16-3.57,1.72-5.06c10.07,2.94,19.86,6.87,29.16,11.65c-7.1,0.5-14.92,3.43-18.87,7.83
	c-4.08,4.49-5.35,8.48-5.22,11.59c0.16,3.14,1.74,5.48,3.95,7.34c2.24,1.85,4.72,2.9,7.48,2.61c2.79-0.25,5.88-1.83,9.67-5.08
	c3.78-3.27,7.19-9.1,10.38-14.06c1.04-1.65,2.04-3.14,2.93-4.44c8.95,5.43,17.36,11.71,25.02,18.67
	c-6.94-1.32-15.25-0.48-20.11,2.82c-5.03,3.3-7.19,6.9-7.82,9.97c-0.63,3.1,0.33,5.78,2.02,8.15c1.69,2.4,3.77,4,6.46,4.43
	c2.71,0.43,6-0.33,10.41-2.57c4.37-2.23,9.06-7.07,13.39-11.06c1.42-1.33,2.78-2.55,3.98-3.59c10.38,10.91,19.07,23.18,25.69,36.25
	c2.33-1.32,4.67-2.59,7.03-3.86c-4.83-9.55-10.69-18.66-17.5-27.21c1.38-1.29,3.15-2.84,5.11-4.49c4.51-3.83,10.02-7.83,12.38-12.46
	c2.35-4.65,2.8-8.68,1.61-12.35c-1.16-3.64-3.93-6.86-7.53-9.38s-7.4-3.86-10.78-3.05c-3.4,0.79-6.35,3.76-8.29,9.71
	c-1.92,5.94-0.88,15.09,0.69,22.29c0.17,0.84,0.38,1.65,0.57,2.42c-7.77-8.65-16.53-16.55-26.05-23.51c1-1.6,2.34-3.58,3.83-5.73
	c3.33-4.87,7.57-10.18,8.56-15.33c0.96-5.12,0.23-9.2-1.99-12.46c-2.18-3.24-5.75-5.66-9.95-7.15c-4.17-1.52-8.18-1.82-11.21-0.15
	c-3.03,1.67-5.03,5.35-5.25,11.62c-0.19,6.27,3.29,14.85,6.76,21.47c0.43,0.79,0.84,1.55,1.25,2.28
	c-9.93-6.44-20.59-11.86-31.72-16.17C1028.87,59.94,1029.65,57.65,1030.52,55.2z"/>
<path class="st4" d="M771.23,230.12c-3.85-5.21-8.65-10.82-9.89-16.77c-1.22-5.99-0.52-10.98,1.75-15.25
	c2.23-4.23,6.01-7.71,10.45-10.19c4.45-2.49,8.74-3.52,12.04-1.97c3.28,1.48,5.55,5.54,6.05,12.96c0.46,7.45-2.89,18.2-6.36,26.59
	c-0.39,1.01-0.81,1.97-1.22,2.92c10.46-9.36,21.71-17.6,33.48-24.6c-0.7-2.04-1.62-4.56-2.66-7.3c-2.31-6.28-5.37-13.3-5.02-19.6
	c0.42-6.35,2.32-11.14,5.49-14.72c3.15-3.59,7.51-5.91,12.27-7.05c4.74-1.16,8.94-0.89,11.59,1.58c2.66,2.5,3.72,7.18,2.32,14.72
	c-1.41,7.51-7.15,17.22-12.4,24.56c-0.57,0.83-1.18,1.64-1.76,2.41c11.68-6.08,23.76-10.87,35.98-14.29
	c8.39-6.23,21.61-13.8,32.43-14.44c17.82-1.17,22.45,5.94,21.58,13.09c-0.92,7.52-6.32,12.49-21.74,13.56
	c-9.03,0.48-21.71-1.6-30.84-2.91c-5.92,1.65-11.83,3.65-17.64,5.96c7.48,1.53,15.26,6.14,18.6,11.89
	c3.49,5.81,4.11,10.63,3.41,14.21c-0.71,3.61-2.81,6.09-5.55,7.96c-2.74,1.85-5.6,2.74-8.58,2.05c-2.99-0.67-6.06-2.89-9.54-7.18
	c-3.47-4.26-5.94-11.57-8.26-17.83c-0.77-2.09-1.53-4.05-2.16-5.74c-10.71,5.2-21.08,11.49-30.93,18.78
	c7.75-0.66,16.45,1.43,21.04,5.91c4.77,4.51,6.45,8.96,6.54,12.61c0.08,3.67-1.46,6.67-3.77,9.22c-2.3,2.53-4.91,4.19-8,4.38
	c-3.06,0.2-6.6-1.07-10.97-4.22c-4.39-3.1-8.49-9.35-12.24-14.61c-1.25-1.73-2.4-3.35-3.47-4.71c-9.39,7.94-18.17,16.83-26.14,26.42
	c7.48-2.79,16.53-3.26,22.08-0.32c5.72,2.99,8.36,6.75,9.28,10.2c0.89,3.5,0.04,6.81-1.61,9.87c-1.68,3.07-3.89,5.38-6.84,6.37
	c-2.97,1.04-6.67,0.76-11.68-1.01c-5-1.79-10.47-6.56-15.43-10.48c-1.63-1.31-3.16-2.47-4.51-3.47
	c-7.41,10.14-13.97,20.94-19.52,32.14c6.71-4.7,15.56-7.69,21.68-6.37c6.3,1.24,9.73,4.16,11.41,7.21c1.69,3.08,1.61,6.47,0.66,9.85
	c-0.93,3.41-2.55,6.14-5.17,7.88c-2.65,1.75-6.3,2.45-11.6,2.08c-5.25-0.38-11.72-3.46-17.52-5.79c-1.91-0.79-3.73-1.48-5.31-2.05
	c-7.04,16.79-11.87,34.27-14.31,51.65c-2.84-0.35-5.68-0.64-8.55-0.91c1.77-12.7,4.75-25.4,8.9-37.93c-1.85-0.76-4.2-1.62-6.78-2.5
	c-5.93-2.07-12.96-3.84-16.96-7.79c-3.98-3.97-5.8-8.17-5.81-12.73c-0.03-4.52,1.74-9.34,4.61-13.78c2.87-4.44,6.33-7.69,10.09-8.4
	c3.77-0.73,7.81,1.12,11.81,6.71c3.97,5.59,5.98,16.07,6.78,24.67c0.1,1,0.17,1.98,0.23,2.91c5.1-13.1,11.48-25.84,18.96-37.91
	c-1.57-1.28-3.62-2.81-5.88-4.46c-5.07-3.76-11.23-7.56-13.97-12.72c-2.71-5.15-3.33-9.94-2.14-14.54
	c1.15-4.57,4.02-8.88,7.85-12.48c3.79-3.61,7.83-5.83,11.51-5.43c3.68,0.4,6.98,3.48,9.32,10.22c2.3,6.76,1.6,17.77,0.24,26.63
	c-0.18,1.07-0.34,2.09-0.52,3.08c8.07-11.7,17.24-22.62,27.27-32.56C774.53,234.52,772.96,232.39,771.23,230.12z"/>
<path class="st3" d="M-44.54,365.09c0,0-30.36-10.35-50.23-31.56c-11.29-12.05-13.96-23.68-13.96-23.68s0.99-8.49,7.58-21.71
	c6.61-13.2,12.29-17.53,12.29-17.53s17.75,25.5,36.43,36.88c18.66,11.39,28.69,12.29,28.69,12.29s-24.55-26.15-34.98-43.67
	c-12.07-20.25-11.92-32.15-11.92-32.15s-0.99-11.35,13.79-23.75c11.05-9.28,22.64-8.13,22.64-8.13s-3.95,23.35,5.15,44.28
	c7.85,18.05,14.42,21.97,14.42,21.97s-12.98-59.2,7.97-81.74s59.42-15.47,59.42-15.47s6.83,31.85,3.64,64.05
	c-2.91,29.4-6.06,42.18-6.06,42.18s15.02-14.88,22-47.36c7-32.49,8.05-66.47,8.05-66.47s19.56-3.35,42.5,8.56
	c20.57,10.68,29.82,25.18,29.82,25.18s-6.43,22.12-27.1,52.18c-15.03,21.83-30.65,34.9-30.65,34.9s29.58-8.82,51.9-33.99
	c20.95-23.62,28.82-38.25,28.82-38.25s11.96,4.5,20.04,18.82c5.25,9.33,3.64,18.21,3.64,18.21s-8.96,16.98-34.15,37.02
	c-19.56,15.55-45.68,27.34-45.68,27.34s28.05-3.14,50.99-18.84c25.35-17.31,39.15-36.11,39.15-36.11s10.36,28.87,1.51,49.17
	c-14.79,34-54.55,47.35-54.55,47.35L-44.54,365.09L-44.54,365.09z"/>
<linearGradient id="SVGID_1_" gradientUnits="userSpaceOnUse" x1="-63.1498" y1="765.406" x2="10.2427" y2="730.6159" gradientTransform="matrix(1 0 0 -1 0 1082)">
	<stop  offset="0" style="stop-color:#F2F5F9"/>
	<stop  offset="1" style="stop-color:#BEC4CE"/>
</linearGradient>
<path class="st5" d="M27.49,354.16c0,0-0.04,0-0.07,0c-74.2-2.31-107.52-50.14-107.84-50.62c-0.6-0.88-0.36-2.06,0.51-2.66
	c0.88-0.59,2.06-0.36,2.66,0.51c0.32,0.47,32.64,46.7,104.81,48.94c1.04,0.04,1.88,0.92,1.84,1.98
	C29.37,353.34,28.52,354.16,27.49,354.16z"/>
<linearGradient id="SVGID_00000005243668111897972060000004436300778254578363_" gradientUnits="userSpaceOnUse" x1="-16.9498" y1="803.7809" x2="9.8182" y2="773.5589" gradientTransform="matrix(1 0 0 -1 0 1082)">
	<stop  offset="0" style="stop-color:#F2F5F9"/>
	<stop  offset="1" style="stop-color:#BEC4CE"/>
</linearGradient>
<path style="opacity:0.31;fill:url(#SVGID_00000005243668111897972060000004436300778254578363_);enable-background:new    ;" d="
	M17.7,318.89c-0.28,0-0.56-0.07-0.82-0.21c-55.05-29.86-63.77-83.23-63.86-83.75c-0.15-0.94,0.51-1.83,1.45-1.97
	c0.96-0.16,1.83,0.5,1.97,1.44c0.08,0.51,8.6,52.24,62.08,81.24c0.85,0.46,1.15,1.5,0.7,2.35C18.91,318.57,18.32,318.89,17.7,318.89
	z"/>
<linearGradient id="SVGID_00000070078710303139040950000009765333487238209696_" gradientUnits="userSpaceOnUse" x1="22.9048" y1="844.0071" x2="18.587" y2="783.989" gradientTransform="matrix(1 0 0 -1 0 1082)">
	<stop  offset="0" style="stop-color:#F2F5F9"/>
	<stop  offset="1" style="stop-color:#BEC4CE"/>
</linearGradient>
<path style="opacity:0.31;fill:url(#SVGID_00000070078710303139040950000009765333487238209696_);enable-background:new    ;" d="
	M21.16,307.48h-0.02c-0.96-0.02-1.72-0.8-1.71-1.75l1.6-109.04c0.01-0.94,0.81-1.66,1.75-1.71c0.96,0.01,1.72,0.8,1.71,1.75
	l-1.61,109.05C22.88,306.72,22.1,307.48,21.16,307.48z"/>
<linearGradient id="SVGID_00000036940853245532787650000007718047257106239873_" gradientUnits="userSpaceOnUse" x1="104.0824" y1="833.9908" x2="60.7139" y2="788.7159" gradientTransform="matrix(1 0 0 -1 0 1082)">
	<stop  offset="0" style="stop-color:#F2F5F9"/>
	<stop  offset="1" style="stop-color:#BEC4CE"/>
</linearGradient>
<path style="opacity:0.31;fill:url(#SVGID_00000036940853245532787650000007718047257106239873_);enable-background:new    ;" d="
	M59.9,317.67c-0.6,0-1.17-0.27-1.54-0.79c-0.63-0.84-0.44-2.04,0.41-2.66c47.46-34.4,69.11-116.98,69.32-117.82
	c0.27-1.01,1.31-1.62,2.32-1.36c1.01,0.25,1.63,1.31,1.37,2.32c-0.23,0.84-22.23,84.76-70.79,119.96
	C60.68,317.55,60.29,317.67,59.9,317.67z"/>
<linearGradient id="SVGID_00000052104571920569861290000009218384798095115683_" gradientUnits="userSpaceOnUse" x1="148.8089" y1="798.9506" x2="71.6057" y2="768.4507" gradientTransform="matrix(1 0 0 -1 0 1082)">
	<stop  offset="0" style="stop-color:#F2F5F9"/>
	<stop  offset="1" style="stop-color:#BEC4CE"/>
</linearGradient>
<path style="opacity:0.31;fill:url(#SVGID_00000052104571920569861290000009218384798095115683_);enable-background:new    ;" d="
	M74.33,329.38c-0.83,0-1.59-0.55-1.83-1.39c-0.29-1,0.31-2.07,1.32-2.35c90.67-25.67,122.32-79.12,122.64-79.66
	c0.52-0.92,1.68-1.23,2.6-0.71c0.91,0.53,1.23,1.7,0.71,2.6c-0.32,0.55-32.63,55.31-124.9,81.43
	C74.68,329.35,74.51,329.38,74.33,329.38z"/>
<linearGradient id="SVGID_00000134964065566047246930000016091523889035275694_" gradientUnits="userSpaceOnUse" x1="143.4337" y1="747.3079" x2="77.6682" y2="738.7298" gradientTransform="matrix(1 0 0 -1 0 1082)">
	<stop  offset="0" style="stop-color:#F2F5F9"/>
	<stop  offset="1" style="stop-color:#BEC4CE"/>
</linearGradient>
<path style="opacity:0.31;fill:url(#SVGID_00000134964065566047246930000016091523889035275694_);enable-background:new    ;" d="
	M81.95,351.85c-2.51,0-5.06-0.03-7.66-0.07c-1.05-0.03-1.9-0.89-1.87-1.95c0.03-1.04,0.87-1.87,1.9-1.87h0.04
	c96.78,1.82,134.43-33.21,134.8-33.57c0.76-0.73,1.96-0.71,2.7,0.05c0.72,0.76,0.71,1.98-0.05,2.7
	C210.31,318.59,174.69,351.85,81.95,351.85z"/>
<g>
	<path class="st11" d="M218.97,287.13c11.71-20.02,34.86-28.65,65.39-18.65c-12.6-44.21-1.31-75.48,23.46-88.6
		c12.47-6.61,26.42-7.56,40.53-2.15c0.43-34.41,18.45-54.73,40.22-59.26c26.27-5.47,51.84,13.84,62.85,61.22
		c15.63-7.5,31.24-7.12,45.04,0.19c24.76,13.14,36.04,44.4,23.46,88.6c30.53-10,53.68-1.38,65.37,18.65
		c15.5,26.47,5.15,62.84-40.98,92.87c-8.13,5.29-16.81,10.01-25.71,14.1H418.8h-33.32h-99.8c-8.89-4.08-17.57-8.81-25.68-14.1
		C213.84,349.97,203.49,313.59,218.97,287.13z"/>
	<path class="st12" d="M251.23,299.32c0.25,0.27,13.9,14.99,41.1,37.1c0.09,0.11,0.17,0.23,0.31,0.32c0.04,0,0.07,0,0.09,0.03
		c4.99,4.03,10.43,8.32,16.31,12.82c-5.11,2.98-16.95,9.08-30.36,10.45c-1.23,0.12-2.14,1.23-2,2.47c0.12,1.15,1.09,2.03,2.26,2.03
		c0.08,0,0.16,0,0.23-0.01c16.07-1.64,29.61-9.38,33.79-11.99c5.99,4.5,12.43,9.2,19.3,14.04c0.08,0.08,0.2,0.16,0.29,0.21
		c12.4,8.72,26.22,17.9,41.45,27.33h8.73c-17.25-10.45-32.83-20.66-46.56-30.3c0.61-3.71,1.83-13.67-0.25-24.48
		c-0.25-1.21-1.47-2-2.66-1.79c-1.23,0.24-2.02,1.43-1.78,2.66c1.62,8.36,1.08,16.3,0.53,20.71c-13.51-9.61-25.23-18.58-35.19-26.63
		c11.53-19.78,5.27-42.49,4.99-43.48c-0.33-1.2-1.58-1.88-2.79-1.54c-1.2,0.33-1.88,1.58-1.55,2.79c0.07,0.21,5.86,21.37-4.19,39.35
		c-25.64-21-38.46-34.84-38.7-35.11c-0.84-0.92-2.28-0.99-3.19-0.13C250.46,296.97,250.39,298.4,251.23,299.32z M474.09,366.76
		c-12.44,8.73-26.33,17.91-41.62,27.34h8.49c13.35-8.37,25.67-16.55,36.74-24.35c0.11-0.07,0.2-0.13,0.31-0.21
		c6.87-4.85,13.31-9.54,19.3-14.04c4.17,2.6,17.7,10.33,33.79,11.99c0.07,0.01,0.15,0.01,0.23,0.01c1.16,0,2.12-0.87,2.23-2.03
		c0.13-1.24-0.76-2.34-2-2.47c-13.42-1.38-25.26-7.46-30.34-10.45c5.9-4.49,11.32-8.78,16.31-12.83c0.01-0.03,0.05-0.01,0.09-0.03
		c0.12-0.08,0.2-0.19,0.31-0.29c27.21-22.12,40.86-36.84,41.1-37.11c0.84-0.92,0.77-2.35-0.13-3.19c-0.91-0.84-2.35-0.79-3.2,0.13
		c-0.23,0.25-13.06,14.11-38.69,35.11c-10.09-18.05-4.27-39.15-4.21-39.37c0.35-1.19-0.35-2.44-1.54-2.8
		c-1.19-0.35-2.46,0.35-2.79,1.56c-0.28,0.99-6.54,23.68,4.99,43.48c-9.97,8.05-21.67,17.01-35.18,26.62
		c-0.55-4.41-1.07-12.35,0.53-20.69c0.24-1.23-0.56-2.4-1.78-2.64c-1.21-0.23-2.42,0.55-2.66,1.78
		C472.26,353.09,473.49,363.05,474.09,366.76z M390.67,323.42c0.25,0.12,5.7,2.92,11.13,4.63c1.67,21.41,3.76,43.61,6.35,66.05h4.58
		c-1.74-15.03-3.3-30-4.61-44.67c5.53-1.67,11.16-4.58,11.41-4.71c1.11-0.59,1.54-1.94,0.96-3.06c-0.57-1.11-1.95-1.52-3.03-0.96
		c-0.05,0.04-4.91,2.54-9.75,4.14c-1.46-16.75-2.66-33.09-3.64-48.82c7.86-3.08,15.97-8.64,16.33-8.89
		c1.03-0.71,1.28-2.11,0.57-3.14c-0.71-1.04-2.11-1.29-3.14-0.59c-0.08,0.07-7.1,4.87-14.06,7.86c-0.84-13.52-1.5-26.55-2.06-38.91
		c10.49-4.74,21.27-12.87,21.73-13.23c0.99-0.75,1.17-2.18,0.43-3.16c-0.76-0.99-2.18-1.19-3.16-0.43
		c-0.09,0.08-9.69,7.32-19.2,11.95c-0.68-16.58-1.16-31.87-1.48-45.43c14.91-7.18,30.65-21.08,31.32-21.69
		c0.93-0.84,1.01-2.26,0.17-3.19c-0.81-0.93-2.26-1.01-3.18-0.19c-0.16,0.13-14.62,12.92-28.45,20.08
		c-0.75-36-0.37-58.75-0.36-59.38c0.01-1.24-0.97-2.26-2.23-2.28c-1.23,0.04-2.27,0.96-2.28,2.22c0,0.47-0.24,14.58,0.01,37.94
		c-13.84-7.14-28.37-20.01-28.53-20.13c-0.93-0.84-2.36-0.75-3.18,0.17c-0.83,0.95-0.75,2.36,0.19,3.2
		c0.68,0.6,16.61,14.68,31.58,21.8c0.09,6.11,0.2,12.75,0.36,19.9c-0.01,0.13-0.01,0.27,0.01,0.4c0.16,7.57,0.37,15.74,0.67,24.32
		c-9.65-4.62-19.49-12.05-19.58-12.13c-0.99-0.73-2.4-0.56-3.16,0.44c-0.75,0.99-0.56,2.4,0.43,3.18
		c0.47,0.35,11.73,8.88,22.43,13.55c0.03,0.01,0.04,0,0.05,0.01c0.47,13.22,1.08,27.49,1.87,42.49c-6.87-3-13.7-7.7-13.78-7.74
		c-1-0.71-2.42-0.47-3.14,0.57c-0.69,1.01-0.45,2.44,0.57,3.15c0.35,0.25,8.64,5.93,16.59,9c0.8,14.51,1.79,29.76,2.99,45.41
		c-4.46-1.59-8.62-3.72-8.68-3.75c-1.09-0.57-2.47-0.16-3.04,0.96C389.13,321.48,389.57,322.84,390.67,323.42z M446.72,333.99
		c-8.29,20.37-17.75,40.96-28.33,60.1h5.11c4.82-8.84,9.44-17.93,13.8-27.19c1.92,0.24,5.26,0.59,8.68,0.59
		c2.75,0,5.54-0.23,7.66-0.91c1.19-0.37,1.83-1.64,1.47-2.83c-0.37-1.19-1.66-1.84-2.83-1.47c-3.22,1.03-9.06,0.72-13,0.29
		c4.41-9.61,8.57-19.3,12.44-28.95c0.01-0.03,0.07-0.04,0.08-0.09c0.03-0.04,0-0.08,0.01-0.11c4.08-10.16,7.88-20.21,11.39-30.01
		c1.64,0.33,4.19,0.69,7.54,0.69c5.37,0,12.74-0.95,21.44-4.46c1.15-0.47,1.72-1.78,1.24-2.94c-0.47-1.16-1.78-1.72-2.94-1.25
		c-12.39,5.02-21.71,4.34-25.74,3.66c3.84-10.93,7.3-21.45,10.4-31.3c0.03-0.05,0.07-0.07,0.09-0.09c0.04-0.12,0.03-0.25,0.07-0.37
		c2.75-8.76,5.19-16.95,7.33-24.42c3.02,0.64,9,1.71,16.46,1.71c5.39,0,11.55-0.56,17.86-2.22c1.2-0.31,1.94-1.54,1.62-2.75
		c-0.29-1.2-1.51-1.96-2.75-1.62c-13.76,3.59-26.91,1.56-31.95,0.51c6.3-22.36,9.58-36.98,9.68-37.39c0.27-1.21-0.49-2.42-1.72-2.68
		c-1.23-0.27-2.42,0.49-2.7,1.71c-0.11,0.55-6.06,26.99-17.42,63.53c-5.05-2.59-17.37-10.09-23.21-24.35
		c-0.48-1.15-1.82-1.71-2.95-1.23c-1.15,0.47-1.71,1.79-1.23,2.95c6.73,16.39,20.83,24.48,26.02,26.99
		c-5.94,18.84-13.26,40.06-21.91,61.67c-2.94-1.71-8.56-6.29-12.32-17.3c-0.4-1.17-1.67-1.8-2.87-1.42c-1.17,0.4-1.8,1.68-1.4,2.86
		C436.2,326.75,443.14,332.04,446.72,333.99z M372.95,363.93c4.81,10.28,9.95,20.41,15.37,30.17h4.99c-0.05-0.21-0.09-0.41-0.2-0.6
		c-11.09-19.81-20.95-41.26-29.56-62.48c3.56-1.95,10.51-7.24,14.88-20.05c0.4-1.17-0.24-2.47-1.4-2.87
		c-1.19-0.39-2.47,0.23-2.87,1.4c-3.74,11.01-9.37,15.59-12.31,17.31c-8.62-21.63-15.97-42.85-21.91-61.67
		c5.21-2.51,19.29-10.6,26.03-27.01c0.48-1.16-0.08-2.47-1.23-2.94c-1.13-0.48-2.47,0.07-2.95,1.23
		c-5.83,14.24-18.16,21.75-23.21,24.34c-11.37-36.54-17.31-62.98-17.45-63.53c-0.27-1.21-1.48-1.98-2.7-1.72
		c-1.21,0.27-1.98,1.48-1.7,2.7c0.08,0.4,3.38,15.02,9.67,37.38c-5.02,1.05-18.21,3.07-31.93-0.51c-1.21-0.33-2.44,0.4-2.76,1.63
		c-0.32,1.2,0.4,2.44,1.62,2.75c6.33,1.67,12.47,2.2,17.87,2.2c7.48,0,13.42-1.05,16.45-1.71c2.14,7.46,4.57,15.66,7.33,24.42
		c0.03,0.13,0.01,0.25,0.07,0.39c0.01,0.04,0.05,0.05,0.07,0.09c3.1,9.85,6.57,20.37,10.41,31.29c-4.06,0.68-13.43,1.33-25.75-3.64
		c-1.15-0.45-2.46,0.09-2.95,1.25c-0.47,1.16,0.11,2.47,1.25,2.94c8.7,3.51,16.07,4.46,21.44,4.46c3.35,0,5.89-0.36,7.54-0.68
		c3.51,9.8,7.29,19.86,11.39,30.05c0,0.03,0,0.04,0,0.07c0.01,0.04,0.05,0.04,0.07,0.08c3.88,9.65,8.04,19.36,12.46,28.97
		c-3.92,0.43-9.77,0.73-13-0.31c-1.19-0.37-2.46,0.29-2.83,1.48c-0.39,1.17,0.28,2.46,1.46,2.82c2.12,0.68,4.91,0.91,7.65,0.91
		C367.68,364.52,371.02,364.17,372.95,363.93z"/>
</g>
<g>
	<g>
		<path class="st13" d="M1014,150.27c-1.81-2.49-4.18-4.54-6.93-5.98c-2.8-1.47-5.98-2.3-9.36-2.3c-4,0-7.74,1.17-10.87,3.18
			c-0.69,0.44-1.35,0.93-1.98,1.45c-2.43,2.01-4.37,4.58-5.64,7.51c-3.22-7.41-10.76-12.51-19.44-12.11
			c-10.34,0.47-18.73,8.87-19.19,19.21c-0.09,2.11,0.14,4.16,0.65,6.09c5.83-5.39,13.64-8.69,22.21-8.69
			c7.34,0,14.12,2.42,19.58,6.5l1-0.24l3.05-0.75l0.81-0.2l1.54-0.38c0.12-0.05,0.25-0.08,0.38-0.09c0,0,0.01,0,0.02,0l1.66-0.41
			c0.38-0.09,0.71,0.25,0.61,0.62l-0.79,2.94l-1.34,5.24l-0.06,0.23c3.95,5.41,6.28,12.08,6.28,19.29c0,1.75-0.14,3.46-0.4,5.13
			c4.71-4.12,8.41-7.97,11.31-11.47c1.74-2.1,3.2-4.07,4.41-5.9c0.61-0.92,1.16-1.79,1.65-2.63c2.03-3.46,3.16-6.27,3.78-8.3
			c0-0.01,0.01-0.03,0.01-0.04c0.09-0.31,0.18-0.59,0.25-0.86c0.4-1.5,0.49-2.41,0.51-2.64c0-0.01,0-0.01,0-0.02
			c0-0.02,0-0.03,0-0.03c0.1-0.8,0.15-1.61,0.15-2.44C1017.87,157.7,1016.43,153.6,1014,150.27z"/>
		<path class="st13" d="M968.49,171.22c0.24,0.14-0.48,0-0.71-1.04c-0.07-0.31,0.05-1.42,1.05-1.78c0.01,0,0.01-0.01,0.02-0.01
			c0.14-0.06,0.29-0.1,0.44-0.12c0.02,0,0.04-0.01,0.06-0.01c0.01,0,0.01,0,0.01,0l5.43-1.22l3.85-0.86l0.58-0.14l0.69-0.17
			l3.13-0.76c-5.46-4.08-12.24-6.5-19.58-6.5c-8.57,0-16.37,3.29-22.21,8.69c0.59,2.25,1.57,4.34,2.84,6.21
			c3.63,5.3,9.73,8.78,16.64,8.78c0,0,6.87,0,10.42-5.37C973.28,171.33,968.49,171.22,968.49,171.22z"/>
		<path class="st13" d="M989.91,172.07l-1.39,5.45l-0.02,0.09l-0.49,1.92v0l-1.64,6.42c0,0,0,0.01,0,0.01
			c-0.01,0.15-0.05,0.3-0.11,0.44c0,0,0,0.01,0,0.01c-0.22,0.53-0.71,0.93-1.32,1c-0.4,0.05-0.78-0.05-1.09-0.25l0,0
			c0,0,0,0-0.01-0.01c-0.29-0.28-0.5-0.65-0.58-1.05c-0.23-1.14-1.06-3.57-3.96-2.84c-0.02,0.01-0.57,0.08-1.38,0.75
			c-3.61,3.33-5.42,9.84-4.91,15.19c0.03,0.27,0.24,1.56,0.31,1.83c0.34,1.38,1.22,4.49,4.18,6.85c0.54,0.43,1.14,0.77,1.73,1.16h0
			c3.54-2.35,6.76-4.65,9.68-6.89c2.52-1.93,4.81-3.82,6.91-5.65c0.26-1.67,0.4-3.38,0.4-5.13
			C996.19,184.14,993.86,177.47,989.91,172.07z"/>
	</g>
</g>
</svg>
