<?xml version="1.0" encoding="utf-8"?>
<!-- Generator: Adobe Illustrator 25.4.1, SVG Export Plug-In . SVG Version: 6.00 Build 0)  -->
<svg version="1.1" id="Camada_1" xmlns="http://www.w3.org/2000/svg" xmlns:xlink="http://www.w3.org/1999/xlink" x="0px" y="0px"
	 viewBox="0 0 1037 351" style="enable-background:new 0 0 1037 351;" xml:space="preserve">
<style type="text/css">
	.st0{fill:#E4E6EA;}
	.st1{fill:#FFFFFF;}
	.st2{fill:#CACCCE;}
	.st3{opacity:0.5;}
	.st4{fill:#ACB1B7;}
	.st5{fill:#BEC4CE;}
	.st6{fill:#E4E6EA;fill-opacity:0.6;}
	.st7{opacity:0.31;fill:url(#SVGID_1_);enable-background:new    ;}
	.st8{opacity:0.31;fill:url(#SVGID_00000051359647672545109100000005582452080427426495_);enable-background:new    ;}
	.st9{opacity:0.31;fill:url(#SVGID_00000176038781992668089730000003439117153558647436_);enable-background:new    ;}
	.st10{opacity:0.31;fill:url(#SVGID_00000114070566345371018210000001351025896313425316_);enable-background:new    ;}
	.st11{opacity:0.31;fill:url(#SVGID_00000021112714790195725670000000043711871326678684_);enable-background:new    ;}
	.st12{opacity:0.31;fill:url(#SVGID_00000049209305231469405670000000148886438553721255_);enable-background:new    ;}
	.st13{fill:#F8B24C;}
	.st14{fill:#F7DA4D;}
</style>
<rect x="-26" y="-6.4" class="st0" width="1082" height="366.2"/>
<path class="st1" d="M651.7-76.4c-42.2,15-7.2,44.8-54.9,69.4s-81,63-49.2,97.3c31.8,34.3,148.9-45.8,179.2,0s124.3,46.9,176.4,8.8
	c52-38.1,143.2,12.5,133-54c-10.2-66.5-86.8-20.2-130.1-62.2c-43.4-41.9-108.4-59.3-138.8-40.5C737-38.8,692.4-90.9,651.7-76.4z"/>
<path class="st1" d="M-18.4-107.7c-48.7,17.3-8.3,51.7-63.4,80.1s-93.4,72.7-56.7,112.3c36.7,39.6,171.9-52.9,206.9,0
	S211.9,138.9,272,94.9s165.2,14.4,153.5-62.4C413.8-44.3,325.3,9.1,275.3-39.3C225.2-87.6,150.1-107.7,115.1-86
	C80.1-64.3,28.6-124.4-18.4-107.7z"/>
<path class="st2" d="M131.6,99.5c-11.5,22.4-17.3,44.3-20.1,54.4c-5.8-14.6-13.1-28.4-21.2-41c5.4-7.3,16.9-24.5,20.1-48.6
	c4.6-32.5-10-63.6-10.1-63.4c-0.2,0-12,24.8-14.9,56.7c-1.9,19.9-0.5,37.9,0.6,48.8c-9.7-14.1-20.3-26.4-30.7-36.8
	c3.1-6.3,8.9-20.2,8-37.5C62.2,8.1,47.8-12.1,47.7-12c-0.1,0-6.8,19.5-5,42.8c1.1,13.7,4.5,25.7,7.1,33.5
	c-10.4-9.8-20.4-17.6-28.7-23.4c2-5.2,4.8-14.9,2.2-25.7c-3.9-16-18.5-27.1-18.5-27c-0.1,0-5.4,14.7-1.2,30.2
	c1.6,6,4.4,11.3,7.2,15.6C3,29-1.9,26.5-2.1,26.4c0.1,0-16.5-14.8-31.8-20.1C-55.6-1.4-75.7,5-75.6,4.9C-75.4,5-60.8,18.9-40.7,26
	c14,4.8,35.2,6.1,35.3,6.2c0.5,0.3,1,0.6,1.6,0.9c3.7,2,7.3,4.2,11,6.5c-5.4-1.3-12.2-1.9-19.1-0.2c-14.9,3.8-24,16.6-24,16.6
	c0.1,0,13.5,5.2,28.2,1.9c11-2.5,19.8-9.3,23.6-12.7c5.9,4,11.9,8.5,17.9,13.5c2.9,2.5,5.9,5,9,7.9c-7.5-2.7-18.3-5.2-29.9-4.4
	c-22.2,1.6-38.2,14.3-38.2,14.2c0.1,0,17.3,5.7,38.9,4.6c15.6-0.8,29.5-5.2,36.2-7.8c4,3.9,8,8.2,12,12.7c0,0,0,0.1,0.1,0.1
	c0.9,1,1.8,2.1,2.8,3.2c4.6,5.4,9.1,11.2,13.6,17.5c-9-6.2-23.4-13.8-40-16.5c-29.8-4.8-53.9,7.3-53.8,7.1
	c0.1,0.1,20.6,10.4,49,15.5c21.3,3.7,41.8,3.4,51,2.9c4.2,6.4,8.2,13.4,12.1,20.6c2.3,4.5,4.5,9,6.5,13.7c-8.4-8-24.7-20.5-45.4-26
	c-31.8-8.5-59,2.1-58.9,2c0.1,0.1,20.9,12.5,51,21.2c23.7,6.6,47,9.1,56.2,9.8c3.6,9.2,6.7,18.6,9,28.2c2.2-0.1,4.5-0.1,6.7-0.1
	c-1.4-5.8-3-11.5-4.8-17.1c0,0,0.1,0,0.2,0c-0.5-1.3-1-2.6-1.5-3.9c-0.7-2-1.4-4-2.2-5.9c7.4-4.6,27.6-17.5,41.7-41.2
	c18.1-29.9,15.9-66.5,15.7-66.4C170.4,50.4,147.3,68.8,131.6,99.5z"/>
<g class="st3">
	<path class="st4" d="M646.1,278.7c-3.8-0.3-8.3-0.4-11.4-2.1c-3.2-1.8-5.1-4-6.1-6.7c-1-2.6-1-5.7-0.4-8.6c0.7-3,1.9-5.3,3.9-6.1
		c2-0.9,4.7-0.3,8.2,2.4c3.5,2.7,7,8.4,9.3,13.2c0.3,0.6,0.6,1.1,0.8,1.7c0-8.3,0.8-16.6,2.3-24.5c-1.2-0.5-2.7-1.1-4.3-1.6
		c-3.7-1.4-8.1-2.8-10.7-5.4c-2.7-2.7-4-5.4-4.4-8.2c-0.3-2.8,0.3-5.6,1.7-8.2c1.4-2.6,3.2-4.3,5.3-4.6c2.2-0.2,4.7,1.1,7.5,4.7
		c2.8,3.6,4.8,9.9,6,15.1c0.1,0.6,0.3,1.2,0.4,1.7c1.9-7.6,4.6-14.9,7.9-21.6c0.5-6.2,2.4-15,6.4-20.1c6.6-8.4,11.6-7.7,14.4-4.5
		c3,3.3,3.1,7.7-2.6,15c-3.4,4.2-9.3,9.1-13.5,12.6c-1.6,3.3-3.1,6.7-4.3,10.2c3.7-2.7,8.8-4.4,12.7-3.7c4,0.7,6.4,2.3,7.7,4
		c1.3,1.7,1.6,3.6,1.3,5.6c-0.3,1.9-1,3.6-2.5,4.6c-1.5,1.1-3.7,1.6-7,1.5c-3.3-0.1-7.5-1.9-11.2-3.2c-1.2-0.5-2.4-0.9-3.4-1.3
		c-1.9,6.8-3.2,13.9-3.9,21.1c2.8-3.7,7.2-6.8,11-7.1c3.9-0.4,6.6,0.6,8.2,2c1.7,1.4,2.4,3.2,2.6,5.3c0.2,2-0.1,3.8-1.2,5.3
		c-1.1,1.5-3.1,2.5-6.2,3.3c-3.1,0.8-7.5,0.1-11.4-0.2c-1.3-0.1-2.5-0.2-3.5-0.3c-0.2,7.3,0.3,14.7,1.4,22c1.7-4.4,5.1-8.6,8.6-10
		c3.6-1.4,6.3-1.1,8.2-0.2c1.9,1,3,2.6,3.8,4.6c0.7,2,0.8,3.8,0.1,5.5c-0.7,1.7-2.3,3.3-5.1,4.8s-7.1,2.1-10.8,2.8
		c-1.2,0.2-2.3,0.5-3.3,0.7c1.6,7.3,3.8,14.4,6.6,21.2c0.6-4.8,2.8-9.9,5.8-12.2c3-2.3,5.7-2.7,7.8-2.3c2,0.4,3.5,1.8,4.7,3.5
		c1.2,1.8,1.7,3.5,1.5,5.4c-0.3,1.9-1.4,3.8-3.7,6c-2.3,2.2-6.2,3.9-9.5,5.6c-1.1,0.5-2.1,1.1-3,1.6c4.7,9.7,10.6,18.6,17.4,26.5
		c-1.3,1.1-2.5,2.3-3.8,3.5c-5-5.7-9.4-12-13.4-18.8c-1.1,0.5-2.4,1.2-3.8,2.1c-3.3,1.8-6.9,4.3-10.2,4.5c-3.3,0.2-6-0.6-8-2.4
		c-2-1.8-3.5-4.4-4.3-7.4c-0.8-3-0.9-5.8,0.3-7.8c1.2-2,3.6-3.1,7.7-2.7c4.1,0.4,9.5,3.6,13.7,6.6c0.5,0.3,1,0.7,1.4,1
		c-3.8-7.4-7-15.2-9.4-23.2c-1.2,0.2-2.7,0.5-4.3,0.9c-3.7,0.8-7.8,2.1-11.2,1.3c-3.4-0.8-5.8-2.4-7.3-4.7c-1.6-2.3-2.4-5.2-2.5-8.4
		c-0.1-3.1,0.5-5.8,2.2-7.2c1.6-1.5,4.3-1.8,8.3-0.2c3.9,1.6,8.6,6.2,12,10.3c0.4,0.5,0.8,1,1.2,1.4c-2-8.2-3.2-16.5-3.7-24.9
		C649.3,279,647.8,278.9,646.1,278.7z"/>
	<path class="st5" d="M1030.5,55.2c1.9-5.6,4.5-11.9,4-17.1c-0.5-5.3-2.4-9-5.5-11.6c-3-2.6-7.1-4-11.6-4.4
		c-4.4-0.4-8.3,0.4-10.8,2.8c-2.4,2.4-3.3,6.5-1.8,12.6c1.6,6.2,7.2,13.6,12.4,19c0.6,0.7,1.2,1.3,1.8,1.9
		c-11.3-3.7-23.1-6.2-34.9-7.5c0.1-1.9,0.2-4.3,0.3-6.8c0.3-5.9,1.1-12.6-0.9-17.6c-2-4.9-4.9-8.1-8.5-9.8c-3.6-1.7-7.9-2-12.3-1.2
		c-4.3,0.8-7.8,2.6-9.4,5.5c-1.6,3-1.3,7.1,1.9,12.7c3.2,5.5,10.6,11.2,17,15.2c0.7,0.5,1.4,0.9,2.1,1.3c-11.5-0.6-23.1,0-34.3,1.7
		c-8.8-1.9-22-3.2-31.4,0.3c-15.5,5.6-17.5,13-14.9,18.4c2.8,5.7,8.7,7.7,22,2.9c7.8-2.9,18-9.2,25.5-13.6c5.5-0.8,11-1.4,16.6-1.7
		c-6,4-11.4,10.5-12.7,16.4c-1.4,5.9-0.7,10,0.8,12.7c1.5,2.6,4,3.9,6.8,4.4c2.8,0.5,5.5,0.2,7.8-1.5c2.4-1.6,4.4-4.5,6.2-9.3
		c1.8-4.7,2-11.5,2.4-17.3c0.1-2,0.2-3.8,0.3-5.4c10.5,0.3,20.9,1.5,31.2,3.8c-6.8,2.3-13.6,7.2-16.3,12.4
		c-2.9,5.4-3.1,9.6-2.3,12.5c0.9,3,3,4.8,5.6,6c2.6,1.2,5.3,1.6,8,0.6c2.7-1,5.3-3.3,8.2-7.4c2.9-4.1,4.8-10.6,6.6-16.2
		c0.6-1.8,1.2-3.6,1.7-5.1c10.1,2.9,19.9,6.9,29.2,11.7c-7.1,0.5-14.9,3.4-18.9,7.8c-4.1,4.5-5.3,8.5-5.2,11.6
		c0.2,3.1,1.7,5.5,4,7.3c2.2,1.8,4.7,2.9,7.5,2.6c2.8-0.2,5.9-1.8,9.7-5.1c3.8-3.3,7.2-9.1,10.4-14.1c1-1.7,2-3.1,2.9-4.4
		c8.9,5.4,17.4,11.7,25,18.7c-6.9-1.3-15.2-0.5-20.1,2.8c-5,3.3-7.2,6.9-7.8,10c-0.6,3.1,0.3,5.8,2,8.2c1.7,2.4,3.8,4,6.5,4.4
		c2.7,0.4,6-0.3,10.4-2.6c4.4-2.2,9.1-7.1,13.4-11.1c1.4-1.3,2.8-2.6,4-3.6c10.4,10.9,19.1,23.2,25.7,36.2c2.3-1.3,4.7-2.6,7-3.9
		c-4.8-9.6-10.7-18.7-17.5-27.2c1.4-1.3,3.2-2.8,5.1-4.5c4.5-3.8,10-7.8,12.4-12.5c2.3-4.7,2.8-8.7,1.6-12.3
		c-1.2-3.6-3.9-6.9-7.5-9.4s-7.4-3.9-10.8-3.1c-3.4,0.8-6.3,3.8-8.3,9.7c-1.9,5.9-0.9,15.1,0.7,22.3c0.2,0.8,0.4,1.7,0.6,2.4
		c-7.8-8.7-16.5-16.5-26.1-23.5c1-1.6,2.3-3.6,3.8-5.7c3.3-4.9,7.6-10.2,8.6-15.3c1-5.1,0.2-9.2-2-12.5c-2.2-3.2-5.8-5.7-9.9-7.2
		c-4.2-1.5-8.2-1.8-11.2-0.2c-3,1.7-5,5.3-5.2,11.6c-0.2,6.3,3.3,14.9,6.8,21.5c0.4,0.8,0.8,1.6,1.2,2.3
		c-9.9-6.4-20.6-11.9-31.7-16.2C1028.9,59.9,1029.7,57.7,1030.5,55.2z"/>
	<path class="st5" d="M771.2,230.1c-3.8-5.2-8.7-10.8-9.9-16.8c-1.2-6-0.5-11,1.8-15.2c2.2-4.2,6-7.7,10.5-10.2
		c4.5-2.5,8.7-3.5,12-2c3.3,1.5,5.5,5.5,6,13c0.5,7.4-2.9,18.2-6.4,26.6c-0.4,1-0.8,2-1.2,2.9c10.5-9.4,21.7-17.6,33.5-24.6
		c-0.7-2-1.6-4.6-2.7-7.3c-2.3-6.3-5.4-13.3-5-19.6c0.4-6.4,2.3-11.1,5.5-14.7c3.2-3.6,7.5-5.9,12.3-7.1c4.7-1.2,8.9-0.9,11.6,1.6
		c2.7,2.5,3.7,7.2,2.3,14.7c-1.4,7.5-7.2,17.2-12.4,24.6c-0.6,0.8-1.2,1.6-1.8,2.4c11.7-6.1,23.8-10.9,36-14.3
		c8.4-6.2,21.6-13.8,32.4-14.4c17.8-1.2,22.5,5.9,21.6,13.1c-0.9,7.5-6.3,12.5-21.7,13.6c-9,0.5-21.7-1.6-30.8-2.9
		c-5.9,1.6-11.8,3.6-17.6,6c7.5,1.5,15.3,6.1,18.6,11.9c3.5,5.8,4.1,10.6,3.4,14.2c-0.7,3.6-2.8,6.1-5.5,8c-2.7,1.9-5.6,2.7-8.6,2.1
		c-3-0.7-6.1-2.9-9.5-7.2c-3.5-4.3-5.9-11.6-8.3-17.8c-0.8-2.1-1.5-4.1-2.2-5.7c-10.7,5.2-21.1,11.5-30.9,18.8
		c7.8-0.7,16.5,1.4,21,5.9c4.8,4.5,6.5,9,6.5,12.6c0.1,3.7-1.5,6.7-3.8,9.2c-2.3,2.5-4.9,4.2-8,4.4c-3.1,0.2-6.6-1.1-11-4.2
		c-4.4-3.1-8.5-9.4-12.2-14.6c-1.2-1.7-2.4-3.4-3.5-4.7c-9.4,7.9-18.2,16.8-26.1,26.4c7.5-2.8,16.5-3.3,22.1-0.3
		c5.7,3,8.4,6.8,9.3,10.2c0.9,3.5,0,6.8-1.6,9.9c-1.7,3.1-3.9,5.4-6.8,6.4c-3,1-6.7,0.8-11.7-1c-5-1.8-10.5-6.6-15.4-10.5
		c-1.6-1.3-3.2-2.5-4.5-3.5c-7.4,10.1-14,20.9-19.5,32.1c6.7-4.7,15.6-7.7,21.7-6.4c6.3,1.2,9.7,4.2,11.4,7.2
		c1.7,3.1,1.6,6.5,0.7,9.9c-0.9,3.4-2.5,6.1-5.2,7.9c-2.7,1.8-6.3,2.5-11.6,2.1c-5.2-0.4-11.7-3.5-17.5-5.8c-1.9-0.8-3.7-1.5-5.3-2
		c-7,16.8-11.9,34.3-14.3,51.6c-2.8-0.4-5.7-0.6-8.5-0.9c1.8-12.7,4.8-25.4,8.9-37.9c-1.8-0.8-4.2-1.6-6.8-2.5
		c-5.9-2.1-13-3.8-17-7.8c-4-4-5.8-8.2-5.8-12.7c0-4.5,1.7-9.3,4.6-13.8s6.3-7.7,10.1-8.4c3.8-0.7,7.8,1.1,11.8,6.7
		c4,5.6,6,16.1,6.8,24.7c0.1,1,0.2,2,0.2,2.9c5.1-13.1,11.5-25.8,19-37.9c-1.6-1.3-3.6-2.8-5.9-4.5c-5.1-3.8-11.2-7.6-14-12.7
		c-2.7-5.1-3.3-9.9-2.1-14.5c1.2-4.6,4-8.9,7.8-12.5c3.8-3.6,7.8-5.8,11.5-5.4c3.7,0.4,7,3.5,9.3,10.2c2.3,6.8,1.6,17.8,0.2,26.6
		c-0.2,1.1-0.3,2.1-0.5,3.1c8.1-11.7,17.2-22.6,27.3-32.6C774.5,234.5,773,232.4,771.2,230.1z"/>
</g>
<rect x="-36.4" y="-6.9" class="st6" width="1085.8" height="378.3"/>
<path class="st2" d="M-44.5,365.1c0,0-30.4-10.4-50.2-31.6c-11.3-12-14-23.7-14-23.7s1-8.5,7.6-21.7c6.6-13.2,12.3-17.5,12.3-17.5
	s17.8,25.5,36.4,36.9c18.7,11.4,28.7,12.3,28.7,12.3s-24.6-26.1-35-43.7C-70.8,255.9-70.6,244-70.6,244s-1-11.4,13.8-23.8
	c11-9.3,22.6-8.1,22.6-8.1s-4,23.4,5.1,44.3c7.9,18,14.4,22,14.4,22s-13-59.2,8-81.7s59.4-15.5,59.4-15.5s6.8,31.9,3.6,64.1
	c-2.9,29.4-6.1,42.2-6.1,42.2s15-14.9,22-47.4c7-32.5,8.1-66.5,8.1-66.5s19.6-3.4,42.5,8.6c20.6,10.7,29.8,25.2,29.8,25.2
	s-6.4,22.1-27.1,52.2c-15,21.8-30.7,34.9-30.7,34.9s29.6-8.8,51.9-34c20.9-23.6,28.8-38.2,28.8-38.2s12,4.5,20,18.8
	c5.2,9.3,3.6,18.2,3.6,18.2s-9,17-34.2,37c-19.6,15.5-45.7,27.3-45.7,27.3s28-3.1,51-18.8c25.4-17.3,39.1-36.1,39.1-36.1
	s10.4,28.9,1.5,49.2c-14.8,34-54.6,47.4-54.6,47.4L-44.5,365.1L-44.5,365.1z"/>
<linearGradient id="SVGID_1_" gradientUnits="userSpaceOnUse" x1="-63.152" y1="314.5986" x2="10.2405" y2="349.3887" gradientTransform="matrix(1 0 0 1 0 2)">
	<stop  offset="0" style="stop-color:#F2F5F9"/>
	<stop  offset="1" style="stop-color:#BEC4CE"/>
</linearGradient>
<path class="st7" d="M27.5,354.2C27.5,354.2,27.4,354.2,27.5,354.2c-74.3-2.3-107.6-50.1-107.9-50.6c-0.6-0.9-0.4-2.1,0.5-2.7
	c0.9-0.6,2.1-0.4,2.7,0.5c0.3,0.5,32.6,46.7,104.8,48.9c1,0,1.9,0.9,1.8,2C29.4,353.3,28.5,354.2,27.5,354.2z"/>
<linearGradient id="SVGID_00000049931856980318080270000004918633354857301436_" gradientUnits="userSpaceOnUse" x1="-16.9458" y1="276.2155" x2="9.8222" y2="306.4375" gradientTransform="matrix(1 0 0 1 0 2)">
	<stop  offset="0" style="stop-color:#F2F5F9"/>
	<stop  offset="1" style="stop-color:#BEC4CE"/>
</linearGradient>
<path style="opacity:0.31;fill:url(#SVGID_00000049931856980318080270000004918633354857301436_);enable-background:new    ;" d="
	M17.7,318.9c-0.3,0-0.6-0.1-0.8-0.2c-55-29.9-63.8-83.2-63.9-83.8c-0.2-0.9,0.5-1.8,1.5-2c1-0.2,1.8,0.5,2,1.4
	c0.1,0.5,8.6,52.2,62.1,81.2c0.9,0.5,1.1,1.5,0.7,2.4C18.9,318.6,18.3,318.9,17.7,318.9z"/>
<linearGradient id="SVGID_00000082328923906765141080000012930543397752061568_" gradientUnits="userSpaceOnUse" x1="22.9083" y1="235.9932" x2="18.5905" y2="296.0112" gradientTransform="matrix(1 0 0 1 0 2)">
	<stop  offset="0" style="stop-color:#F2F5F9"/>
	<stop  offset="1" style="stop-color:#BEC4CE"/>
</linearGradient>
<path style="opacity:0.31;fill:url(#SVGID_00000082328923906765141080000012930543397752061568_);enable-background:new    ;" d="
	M21.2,307.5L21.2,307.5c-1,0-1.7-0.8-1.7-1.8l1.6-109c0-0.9,0.8-1.7,1.8-1.7c1,0,1.7,0.8,1.7,1.8l-1.6,109.1
	C22.9,306.7,22.1,307.5,21.2,307.5z"/>
<linearGradient id="SVGID_00000114781357877116877950000014059439491789337750_" gradientUnits="userSpaceOnUse" x1="104.072" y1="245.9992" x2="60.7035" y2="291.2741" gradientTransform="matrix(1 0 0 1 0 2)">
	<stop  offset="0" style="stop-color:#F2F5F9"/>
	<stop  offset="1" style="stop-color:#BEC4CE"/>
</linearGradient>
<path style="opacity:0.31;fill:url(#SVGID_00000114781357877116877950000014059439491789337750_);enable-background:new    ;" d="
	M59.9,317.7c-0.6,0-1.2-0.3-1.5-0.8c-0.6-0.8-0.4-2,0.4-2.7c47.5-34.4,69.1-117,69.3-117.8c0.3-1,1.3-1.6,2.3-1.4
	c1,0.2,1.6,1.3,1.4,2.3c-0.2,0.8-22.2,84.8-70.8,120C60.7,317.5,60.3,317.7,59.9,317.7z"/>
<linearGradient id="SVGID_00000078754220083325045670000017737941300789027759_" gradientUnits="userSpaceOnUse" x1="148.8051" y1="281.0398" x2="71.6019" y2="311.5397" gradientTransform="matrix(1 0 0 1 0 2)">
	<stop  offset="0" style="stop-color:#F2F5F9"/>
	<stop  offset="1" style="stop-color:#BEC4CE"/>
</linearGradient>
<path style="opacity:0.31;fill:url(#SVGID_00000078754220083325045670000017737941300789027759_);enable-background:new    ;" d="
	M74.3,329.4c-0.8,0-1.6-0.5-1.8-1.4c-0.3-1,0.3-2.1,1.3-2.4c90.7-25.7,122.3-79.1,122.6-79.7c0.5-0.9,1.7-1.2,2.6-0.7
	c0.9,0.5,1.2,1.7,0.7,2.6c-0.3,0.6-32.6,55.3-124.9,81.4C74.7,329.4,74.5,329.4,74.3,329.4z"/>
<linearGradient id="SVGID_00000074409057477806998740000014359227939227004309_" gradientUnits="userSpaceOnUse" x1="143.4341" y1="332.6955" x2="77.6686" y2="341.2736" gradientTransform="matrix(1 0 0 1 0 2)">
	<stop  offset="0" style="stop-color:#F2F5F9"/>
	<stop  offset="1" style="stop-color:#BEC4CE"/>
</linearGradient>
<path style="opacity:0.31;fill:url(#SVGID_00000074409057477806998740000014359227939227004309_);enable-background:new    ;" d="
	M81.9,351.9c-2.5,0-5.1,0-7.7-0.1c-1.1,0-1.9-0.9-1.9-2c0-1,0.9-1.9,1.9-1.9h0c96.8,1.8,134.4-33.2,134.8-33.6c0.8-0.7,2-0.7,2.7,0
	c0.7,0.8,0.7,2-0.1,2.7C210.3,318.6,174.7,351.9,81.9,351.9z"/>
<g>
	<path class="st13" d="M147.3,244.8c11.7-20,34.9-28.6,65.4-18.6c-12.6-44.2-1.3-75.5,23.5-88.6c12.5-6.6,26.4-7.6,40.5-2.1
		c0.4-34.4,18.5-54.7,40.2-59.3c26.3-5.5,51.8,13.8,62.9,61.2c15.6-7.5,31.2-7.1,45,0.2c24.8,13.1,36,44.4,23.5,88.6
		c30.5-10,53.7-1.4,65.4,18.6c15.5,26.5,5.2,62.8-41,92.9c-8.1,5.3-16.8,10-25.7,14.1h-99.8h-33.3H214c-8.9-4.1-17.6-8.8-25.7-14.1
		C142.2,307.6,131.8,271.3,147.3,244.8z"/>
	<path class="st14" d="M179.6,257c0.2,0.3,13.9,15,41.1,37.1c0.1,0.1,0.2,0.2,0.3,0.3c0,0,0.1,0,0.1,0c5,4,10.4,8.3,16.3,12.8
		c-5.1,3-17,9.1-30.4,10.5c-1.2,0.1-2.1,1.2-2,2.5c0.1,1.1,1.1,2,2.3,2c0.1,0,0.2,0,0.2,0c16.1-1.6,29.6-9.4,33.8-12
		c6,4.5,12.4,9.2,19.3,14c0.1,0.1,0.2,0.2,0.3,0.2c12.4,8.7,26.2,17.9,41.5,27.3h8.7c-17.2-10.5-32.8-20.7-46.6-30.3
		c0.6-3.7,1.8-13.7-0.2-24.5c-0.2-1.2-1.5-2-2.7-1.8c-1.2,0.2-2,1.4-1.8,2.7c1.6,8.4,1.1,16.3,0.5,20.7
		c-13.5-9.6-25.2-18.6-35.2-26.6c11.5-19.8,5.3-42.5,5-43.5c-0.3-1.2-1.6-1.9-2.8-1.5c-1.2,0.3-1.9,1.6-1.5,2.8
		c0.1,0.2,5.9,21.4-4.2,39.4c-25.6-21-38.5-34.8-38.7-35.1c-0.8-0.9-2.3-1-3.2-0.1C178.8,254.6,178.7,256.1,179.6,257z M402.4,324.4
		c-12.4,8.7-26.3,17.9-41.6,27.3h8.5c13.4-8.4,25.7-16.5,36.7-24.4c0.1-0.1,0.2-0.1,0.3-0.2c6.9-4.9,13.3-9.5,19.3-14
		c4.2,2.6,17.7,10.3,33.8,12c0.1,0,0.2,0,0.2,0c1.2,0,2.1-0.9,2.2-2c0.1-1.2-0.8-2.3-2-2.5c-13.4-1.4-25.3-7.5-30.3-10.5
		c5.9-4.5,11.3-8.8,16.3-12.8c0,0,0,0,0.1,0c0.1-0.1,0.2-0.2,0.3-0.3c27.2-22.1,40.9-36.8,41.1-37.1c0.8-0.9,0.8-2.4-0.1-3.2
		c-0.9-0.8-2.3-0.8-3.2,0.1c-0.2,0.2-13.1,14.1-38.7,35.1c-10.1-18-4.3-39.1-4.2-39.4c0.3-1.2-0.3-2.4-1.5-2.8
		c-1.2-0.4-2.5,0.4-2.8,1.6c-0.3,1-6.5,23.7,5,43.5c-10,8-21.7,17-35.2,26.6c-0.5-4.4-1.1-12.4,0.5-20.7c0.2-1.2-0.6-2.4-1.8-2.6
		c-1.2-0.2-2.4,0.5-2.7,1.8C400.6,310.8,401.8,320.7,402.4,324.4z M319,281.1c0.2,0.1,5.7,2.9,11.1,4.6c1.7,21.4,3.8,43.6,6.4,66.1
		h4.6c-1.7-15-3.3-30-4.6-44.7c5.5-1.7,11.2-4.6,11.4-4.7c1.1-0.6,1.5-1.9,1-3.1c-0.6-1.1-2-1.5-3-1c0,0-4.9,2.5-9.8,4.1
		c-1.5-16.8-2.7-33.1-3.6-48.8c7.9-3.1,16-8.6,16.3-8.9c1-0.7,1.3-2.1,0.6-3.1c-0.7-1-2.1-1.3-3.1-0.6c-0.1,0.1-7.1,4.9-14.1,7.9
		c-0.8-13.5-1.5-26.5-2.1-38.9c10.5-4.7,21.3-12.9,21.7-13.2c1-0.8,1.2-2.2,0.4-3.2c-0.8-1-2.2-1.2-3.2-0.4
		c-0.1,0.1-9.7,7.3-19.2,11.9c-0.7-16.6-1.2-31.9-1.5-45.4c14.9-7.2,30.6-21.1,31.3-21.7c0.9-0.8,1-2.3,0.2-3.2
		c-0.8-0.9-2.3-1-3.2-0.2c-0.2,0.1-14.6,12.9-28.5,20.1c-0.8-36-0.4-58.8-0.4-59.4c0-1.2-1-2.3-2.2-2.3c-1.2,0-2.3,1-2.3,2.2
		c0,0.5-0.2,14.6,0,37.9c-13.8-7.1-28.4-20-28.5-20.1c-0.9-0.8-2.4-0.8-3.2,0.2c-0.8,0.9-0.8,2.4,0.2,3.2
		c0.7,0.6,16.6,14.7,31.6,21.8c0.1,6.1,0.2,12.8,0.4,19.9c0,0.1,0,0.3,0,0.4c0.2,7.6,0.4,15.7,0.7,24.3
		c-9.6-4.6-19.5-12.1-19.6-12.1c-1-0.7-2.4-0.6-3.2,0.4c-0.8,1-0.6,2.4,0.4,3.2c0.5,0.4,11.7,8.9,22.4,13.6c0,0,0,0,0,0
		c0.5,13.2,1.1,27.5,1.9,42.5c-6.9-3-13.7-7.7-13.8-7.7c-1-0.7-2.4-0.5-3.1,0.6c-0.7,1-0.5,2.4,0.6,3.1c0.4,0.2,8.6,5.9,16.6,9
		c0.8,14.5,1.8,29.8,3,45.4c-4.5-1.6-8.6-3.7-8.7-3.8c-1.1-0.6-2.5-0.2-3,1C317.5,279.1,317.9,280.5,319,281.1z M375.1,291.7
		c-8.3,20.4-17.8,41-28.3,60.1h5.1c4.8-8.8,9.4-17.9,13.8-27.2c1.9,0.2,5.3,0.6,8.7,0.6c2.8,0,5.5-0.2,7.7-0.9
		c1.2-0.4,1.8-1.6,1.5-2.8c-0.4-1.2-1.7-1.8-2.8-1.5c-3.2,1-9.1,0.7-13,0.3c4.4-9.6,8.6-19.3,12.4-29c0,0,0.1,0,0.1-0.1
		c0,0,0-0.1,0-0.1c4.1-10.2,7.9-20.2,11.4-30c1.6,0.3,4.2,0.7,7.5,0.7c5.4,0,12.7-1,21.4-4.5c1.1-0.5,1.7-1.8,1.2-2.9
		c-0.5-1.2-1.8-1.7-2.9-1.2c-12.4,5-21.7,4.3-25.7,3.7c3.8-10.9,7.3-21.5,10.4-31.3c0,0,0.1-0.1,0.1-0.1c0-0.1,0-0.2,0.1-0.4
		c2.8-8.8,5.2-16.9,7.3-24.4c3,0.6,9,1.7,16.5,1.7c5.4,0,11.5-0.6,17.9-2.2c1.2-0.3,1.9-1.5,1.6-2.8c-0.3-1.2-1.5-2-2.8-1.6
		c-13.8,3.6-26.9,1.6-32,0.5c6.3-22.4,9.6-37,9.7-37.4c0.3-1.2-0.5-2.4-1.7-2.7c-1.2-0.3-2.4,0.5-2.7,1.7c-0.1,0.6-6.1,27-17.4,63.5
		c-5-2.6-17.4-10.1-23.2-24.4c-0.5-1.1-1.8-1.7-3-1.2c-1.1,0.5-1.7,1.8-1.2,2.9c6.7,16.4,20.8,24.5,26,27
		c-5.9,18.8-13.3,40.1-21.9,61.7c-2.9-1.7-8.6-6.3-12.3-17.3c-0.4-1.2-1.7-1.8-2.9-1.4c-1.2,0.4-1.8,1.7-1.4,2.9
		C364.5,284.4,371.5,289.7,375.1,291.7z M301.3,321.6c4.8,10.3,10,20.4,15.4,30.2h5c0-0.2-0.1-0.4-0.2-0.6
		c-11.1-19.8-21-41.3-29.6-62.5c3.6-2,10.5-7.2,14.9-20c0.4-1.2-0.2-2.5-1.4-2.9c-1.2-0.4-2.5,0.2-2.9,1.4
		c-3.7,11-9.4,15.6-12.3,17.3c-8.6-21.6-16-42.9-21.9-61.7c5.2-2.5,19.3-10.6,26-27c0.5-1.2-0.1-2.5-1.2-2.9c-1.1-0.5-2.5,0.1-3,1.2
		c-5.8,14.2-18.2,21.8-23.2,24.3c-11.4-36.5-17.3-63-17.5-63.5c-0.3-1.2-1.5-2-2.7-1.7c-1.2,0.3-2,1.5-1.7,2.7
		c0.1,0.4,3.4,15,9.7,37.4c-5,1.1-18.2,3.1-31.9-0.5c-1.2-0.3-2.4,0.4-2.8,1.6c-0.3,1.2,0.4,2.4,1.6,2.8c6.3,1.7,12.5,2.2,17.9,2.2
		c7.5,0,13.4-1.1,16.5-1.7c2.1,7.5,4.6,15.7,7.3,24.4c0,0.1,0,0.2,0.1,0.4c0,0,0,0,0.1,0.1c3.1,9.9,6.6,20.4,10.4,31.3
		c-4.1,0.7-13.4,1.3-25.8-3.6c-1.1-0.5-2.5,0.1-3,1.2c-0.5,1.2,0.1,2.5,1.2,2.9c8.7,3.5,16.1,4.5,21.4,4.5c3.4,0,5.9-0.4,7.5-0.7
		c3.5,9.8,7.3,19.9,11.4,30c0,0,0,0,0,0.1c0,0,0,0,0.1,0.1c3.9,9.6,8,19.4,12.5,29c-3.9,0.4-9.8,0.7-13-0.3
		c-1.2-0.4-2.5,0.3-2.8,1.5c-0.4,1.2,0.3,2.5,1.5,2.8c2.1,0.7,4.9,0.9,7.6,0.9C296,322.2,299.4,321.8,301.3,321.6z"/>
</g>
<g>
	<g>
		<path class="st1" d="M1014,150.3c-1.8-2.5-4.2-4.5-6.9-6c-2.8-1.5-6-2.3-9.4-2.3c-4,0-7.7,1.2-10.9,3.2c-0.7,0.4-1.3,0.9-2,1.4
			c-2.4,2-4.4,4.6-5.6,7.5c-3.2-7.4-10.8-12.5-19.4-12.1c-10.3,0.5-18.7,8.9-19.2,19.2c-0.1,2.1,0.1,4.2,0.7,6.1
			c5.8-5.4,13.6-8.7,22.2-8.7c7.3,0,14.1,2.4,19.6,6.5l1-0.2l3-0.8l0.8-0.2l1.5-0.4c0.1-0.1,0.2-0.1,0.4-0.1c0,0,0,0,0,0l1.7-0.4
			c0.4-0.1,0.7,0.2,0.6,0.6l-0.8,2.9l-1.3,5.2l-0.1,0.2c4,5.4,6.3,12.1,6.3,19.3c0,1.8-0.1,3.5-0.4,5.1c4.7-4.1,8.4-8,11.3-11.5
			c1.7-2.1,3.2-4.1,4.4-5.9c0.6-0.9,1.2-1.8,1.7-2.6c2-3.5,3.2-6.3,3.8-8.3c0,0,0,0,0,0c0.1-0.3,0.2-0.6,0.2-0.9
			c0.4-1.5,0.5-2.4,0.5-2.6c0,0,0,0,0,0c0,0,0,0,0,0c0.1-0.8,0.2-1.6,0.2-2.4C1017.9,157.7,1016.4,153.6,1014,150.3z"/>
		<path class="st1" d="M968.5,171.2c0.2,0.1-0.5,0-0.7-1c-0.1-0.3,0-1.4,1-1.8c0,0,0,0,0,0c0.1-0.1,0.3-0.1,0.4-0.1c0,0,0,0,0.1,0
			c0,0,0,0,0,0l5.4-1.2l3.8-0.9l0.6-0.1l0.7-0.2l3.1-0.8c-5.5-4.1-12.2-6.5-19.6-6.5c-8.6,0-16.4,3.3-22.2,8.7
			c0.6,2.2,1.6,4.3,2.8,6.2c3.6,5.3,9.7,8.8,16.6,8.8c0,0,6.9,0,10.4-5.4C973.3,171.3,968.5,171.2,968.5,171.2z"/>
		<path class="st1" d="M989.9,172.1l-1.4,5.4l0,0.1l-0.5,1.9l0,0l-1.6,6.4v0c0,0.1,0,0.3-0.1,0.4v0c-0.2,0.5-0.7,0.9-1.3,1
			c-0.4,0.1-0.8-0.1-1.1-0.2l0,0c0,0,0,0,0,0c-0.3-0.3-0.5-0.6-0.6-1.1c-0.2-1.1-1.1-3.6-4-2.8c0,0-0.6,0.1-1.4,0.8
			c-3.6,3.3-5.4,9.8-4.9,15.2c0,0.3,0.2,1.6,0.3,1.8c0.3,1.4,1.2,4.5,4.2,6.9c0.5,0.4,1.1,0.8,1.7,1.2l0,0c3.5-2.4,6.8-4.6,9.7-6.9
			c2.5-1.9,4.8-3.8,6.9-5.6c0.3-1.7,0.4-3.4,0.4-5.1C996.2,184.1,993.9,177.5,989.9,172.1z"/>
	</g>
</g>
</svg>
