<?xml version="1.0" encoding="utf-8"?>
<!-- Generator: Adobe Illustrator 25.4.1, SVG Export Plug-In . SVG Version: 6.00 Build 0)  -->
<svg version="1.1" xmlns="http://www.w3.org/2000/svg" xmlns:xlink="http://www.w3.org/1999/xlink" x="0px" y="0px"
	 viewBox="0 0 1244.24 874.21" style="enable-background:new 0 0 1244.24 874.21;" xml:space="preserve">
<style type="text/css">
	.st0{fill:#F2F5FF;}
	.st1{fill:#55826F;}
	.st2{fill:#85DDB7;}
	.st3{fill:#6EB398;}
	.st4{fill:url(#SVGID_1_);}
	.st5{fill:#FFFFFF;}
	.st6{fill:url(#SVGID_00000058550883090472940960000004612622761833065651_);}
	.st7{fill:url(#SVGID_00000116216838996893716450000012280978502348925628_);}
	.st8{fill:url(#SVGID_00000076593186826601813130000015193070807263990174_);}
	.st9{fill:url(#SVGID_00000174586102481604209570000014508741313803586203_);}
	.st10{fill:url(#SVGID_00000044888464443195979780000011235824288822502787_);}
	.st11{fill:url(#SVGID_00000162333972028477572950000011577172221766924165_);}
	.st12{fill:url(#SVGID_00000126316592174988670360000008828115560758843544_);}
	.st13{fill:url(#SVGID_00000054266323525199014230000006533521843390648764_);}
	.st14{fill:#DEAC68;}
	.st15{fill:#333333;}
	.st16{fill:#4F354B;}
	.st17{fill:#332331;}
	.st18{fill:#8C5786;}
	.st19{fill:#772968;}
	.st20{fill:#380E30;}
	.st21{fill:#BC57AE;}
	.st22{fill:#F1AB89;}
	.st23{fill:#CC7E58;}
	.st24{fill:#5C5C5C;}
	.st25{fill:url(#SVGID_00000133520776011705480460000017805169391234278048_);}
	.st26{fill:#9E3F58;}
	.st27{fill:#EF7550;}
	.st28{fill:#132C4D;}
	.st29{fill:#183862;}
	.st30{fill:#102642;}
	.st31{fill:#28609E;}
	.st32{fill:#E95374;}
	.st33{fill:#F297B3;}
	.st34{fill:#DE932C;}
	.st35{fill:#DFE7FF;}
	.st36{fill:#6B91E3;}
	.st37{fill:#90B3FF;}
	.st38{fill:#ABC5FF;}
	.st39{fill:url(#SVGID_00000052806335486485925520000016543709565724529060_);}
	.st40{fill:url(#SVGID_00000103969019308022914260000012764885374797598896_);}
	.st41{fill:url(#SVGID_00000160169723804615460640000004548386422336917381_);}
	.st42{fill:url(#SVGID_00000037654636614476681770000002309862263966667439_);}
	.st43{fill:url(#SVGID_00000152958283983265622690000001926183953959666343_);}
	.st44{fill:url(#SVGID_00000098217430853340932090000005618926032704436108_);}
	.st45{fill:url(#SVGID_00000001646335416132012330000002265644729516439947_);}
	.st46{fill:url(#SVGID_00000007428531651028564500000010897475318136083620_);}
	.st47{fill:url(#SVGID_00000141416202103076081030000018198673339599764914_);}
	.st48{fill:#34518A;}
	.st49{fill:url(#SVGID_00000161632220207449093350000007185097256006082209_);}
	.st50{fill:#DE6845;}
</style>
<g id="Background">
</g>
<g id="Objects">
	<path class="st0" d="M86.47,308.98C63,331.27,1.36,296.63,0.02,339.16c-1.34,42.53,83.86,20.67,92.02,44.63
		c8.16,23.96,66.7,30.82,99.85-11.71c14.33-18.38,39.09-21.02,62.25-22.89c30.43-2.45,58.08-3.57,55.61-37.29
		c-2.71-36.95-51.69-34.18-76.35-23.43c-19.29,8.41-34.03,27.73-50.89,20.51C144.09,292.51,113.91,282.91,86.47,308.98z"/>
	<path class="st0" d="M1159.3,460c22.39-23.39,85.61,8.29,84.93-34.26c-0.68-42.54-84.75-16.66-94.03-40.21
		c-9.29-23.55-68.09-27.61-99.18,16.44c-13.44,19.04-38.05,22.85-61.09,25.82c-30.28,3.9-57.84,6.33-53.77,39.89
		c4.46,36.78,53.25,31.69,77.37,19.78c18.87-9.31,32.67-29.32,49.86-22.9C1102.53,479.18,1133.14,487.34,1159.3,460z"/>
	<path class="st0" d="M725.79,2.97c-48.7,17.29-8.34,51.72-63.4,80.08s-93.43,72.73-56.73,112.28
		c36.71,39.55,171.85-52.88,206.89,0.01c35.04,52.89,143.51,54.17,203.56,10.15c60.05-44.02,165.23,14.38,153.52-62.37
		c-11.72-76.75-100.14-23.36-150.2-71.74C969.38,22.99,894.3,2.97,859.27,24.66C824.23,46.35,772.8-13.72,725.79,2.97z"/>
	<g>
		<path class="st1" d="M334.73,535.91c38.19-51.57,94.68-15.11,28.64,94.83c-53.5,89.06-100.6,217.61-100.6,217.61
			S267.74,626.36,334.73,535.91z"/>
		<path class="st2" d="M262.77,848.35c0,0,123.54-149.38,202.54-180.79c78.99-31.41,34.14-96.12-33.37-62.81
			C364.43,638.06,267.71,752.19,262.77,848.35z"/>
		<path class="st2" d="M262.77,848.35c16.77-199.44-26.54-212.94-45.91-190.09s-25.4,0-30.17-33.23s-33.71-76.08-43.2-46.73
			c-9.49,29.35-30.12-65.43-49.85-50.89c-19.73,14.54,10.34,84.09,18.67,104.36c8.33,20.27-34.99-3.22-36.69,20.99
			c-1.71,24.21,72.2,46.56,62.68,69.17c-9.51,22.6-44.02-15.84-25.99,26.7C140.38,814.82,262.77,848.35,262.77,848.35z"/>
		<path class="st1" d="M262.77,848.35c36.4-116.98,64.08-114.67,69.8-97.25c5.73,17.42,14.41,5.85,24.77-11.9
			c10.36-17.75,36.64-35.39,35.26-16.56s32.14-30.18,39.99-17.39c7.84,12.79-25.22,45.31-34.61,54.89
			c-9.39,9.58,20.59,6.23,15.98,20.35c-4.6,14.12-51.67,9.79-51.48,24.8c0.19,15.01,28.61,1.15,8.59,21.13
			C339.91,857.51,262.77,848.35,262.77,848.35z"/>
		<g>
			<path class="st3" d="M175.63,23.81C87.11,44.74,61.25,171.8,118.93,248.06c68.83,91.01-19.71,136.25,16.86,241.03
				c34.93,100.07,165.39,97.22,201.37,18.7c61-133.14-67.42-148.46-4.16-249.25C382.74,179.28,371.51-22.51,175.63,23.81z"/>
			<path class="st1" d="M273.3,321.83c-1.47,13.85-4.13,27.64-8.77,40.8c-3.03,8.59-6.94,16.54-11.24,24.34
				c-0.65-6.89-1.34-13.78-2.12-20.66c-3.8-33.72-9.34-67.14-16.35-100.3c3.43-4.29,6.98-8.46,10.1-13
				c3.84-5.58,7.41-11.32,10.74-17.22c6.78-12.02,12.89-24.19,17.4-37.26c8.94-25.92,12.94-53.47,11.78-80.86
				c-0.67-15.69-3.4-31.2-7.71-46.28c-0.96-3.37-5.88-1.59-5.09,1.72c12.22,51.39,5.44,108.01-18.84,155.02
				c-3.41,6.61-7.29,12.99-11.49,19.13c-2.71,3.96-5.42,7.99-8.38,11.82c-2.12-9.74-4.36-19.45-6.72-29.14
				c-1.31-5.38-9.36-2.57-8.12,2.75c4.15,17.69,7.71,35.52,10.74,53.46c-5-3.33-10.28-6.31-15.15-9.82
				c-6.57-4.74-12.82-9.87-18.78-15.35c-12.03-11.06-22.72-23.27-29.52-38.28c-0.95-2.09-4.33-1-3.42,1.16
				c6.32,14.96,16.29,28.17,28.16,39.2c6.09,5.66,12.67,10.82,19.26,15.89c6.76,5.19,13.27,11.06,20.51,15.58
				c0.11,0.07,0.23,0.11,0.34,0.17c7.06,44.19,11.02,88.96,12.9,133.69c-11.05-14.29-22.13-28.46-32.12-43.63
				c-12.32-18.7-23.71-38.04-33.84-58.01c-1.37-2.7-6.13-0.4-4.79,2.34c9.93,20.39,20.79,40.27,33.01,59.37
				c11.61,18.14,23.99,36.55,38.22,52.82c0.41,12.48,0.68,24.96,0.8,37.42c0.15,15.23,0.07,30.46-0.22,45.69
				c-10.31-9.15-20.12-18.66-28.94-29.57c-12.18-15.07-22.9-31.33-31.26-48.83c-1.88-3.93-8.37-1.82-6.5,2.2
				c8.41,18.11,18.52,35.46,30.95,51.12c10.41,13.12,22.26,26.18,35.48,36.84c-0.57,22.27-1.56,44.53-2.93,66.76
				c-2.44,39.73-6.64,79.42-7.86,119.22c-1.31,42.62,1.46,88.38,19.77,127.59c1.95,4.19,6.14,6.96,10.85,5.36
				c4.2-1.42,7.1-6.55,5.36-10.85c-7.17-17.81-12.6-35.97-15.47-54.98c-2.86-18.97-3.75-38.2-3.63-57.37
				c0.26-39.47,4.44-78.79,6.37-118.19c3.44-70.15,3.63-140.58-2.08-210.6c16.35-22.91,25.18-52.97,26.28-80.79
				C281.16,317.93,273.76,317.45,273.3,321.83z"/>
			<path class="st2" d="M167.04,282.28c-2.05-14.26-9.21-27.85-15.83-40.48c-6.6-12.59-13.9-24.91-19.5-37.99
				c-10.91-25.47-14.2-54.23-10.55-81.62c2.13-15.97,6.52-31.6,13.35-46.2c2.35-5.01-4.79-9.11-7.59-4.21
				c-14.46,25.25-21.58,54.01-20.88,83.09c0.73,30.22,11.36,57.49,25.47,83.77c4.02,7.49,8.09,14.97,11.72,22.67
				c3.57,7.57,5.93,15.46,8.96,23.23c1.37,3.51,4.47,6,8.41,5.34C163.96,289.32,167.59,286.07,167.04,282.28z"/>
			<path class="st2" d="M169.72,499.03c-28.71-39.97-14.89-90.77-6.78-134.96c0.76-4.13-4.77-5.26-6.2-1.5
				c-17.21,45.37-29.93,100.96,0.28,143.99C162.48,514.32,175.25,506.72,169.72,499.03z"/>
		</g>
	</g>
	<g>
		<g>
			<g>
				
					<linearGradient id="SVGID_1_" gradientUnits="userSpaceOnUse" x1="721.0895" y1="460.5439" x2="824.9301" y2="460.5439" gradientTransform="matrix(0.9628 0.2702 -0.2702 0.9628 103.1295 -225.5365)">
					<stop  offset="0" style="stop-color:#FF8455"/>
					<stop  offset="1" style="stop-color:#B12D00"/>
				</linearGradient>
				<path class="st4" d="M733.21,390.18c-10.21-30.56-46.98-24.77-54.61,2.44c-6.76,24.1,4.17,47.64,30.37,83.95
					c41.27-17.38,62.85-31.8,69.61-55.9C786.21,393.47,757.82,369.39,733.21,390.18z"/>
			</g>
			<path class="st5" d="M696.87,428.14c-3.75-7.33-6.84-14.64-7.12-23c-0.26-7.8,1.96-15.33,5.99-21.98
				c0.96-1.58-1.44-3.44-2.65-1.98c-11.5,13.84-9.94,34.94-0.73,49.64C694.17,433.71,698.4,431.13,696.87,428.14z"/>
		</g>
		<g>
			<g>
				
					<linearGradient id="SVGID_00000057125457832539353470000011929710518838762943_" gradientUnits="userSpaceOnUse" x1="497.5252" y1="480.1734" x2="670.7365" y2="480.1734" gradientTransform="matrix(0.9761 -0.2172 0.2172 0.9761 -54.0074 159.7793)">
					<stop  offset="0" style="stop-color:#FF8455"/>
					<stop  offset="1" style="stop-color:#B12D00"/>
				</linearGradient>
				<path style="fill:url(#SVGID_00000057125457832539353470000011929710518838762943_);" d="M606.7,439.77
					c-39.11-36.86-88.58,0.65-78.34,46.66c9.07,40.75,43.7,66.73,110.85,99.44c46.94-58.1,67.29-96.31,58.23-137.06
					C687.19,402.8,626.48,389.8,606.7,439.77z"/>
			</g>
			<path class="st5" d="M555.45,512.42c-4.15-6.18-8.95-11.74-11.68-18.78c-2.15-5.55-3.12-11.49-3.09-17.43
				c0.07-12.79,4.75-24.77,13.85-33.85c1.92-1.91-1.02-4.73-2.99-2.93c-22.17,20.34-21.93,55.67-0.73,76.63
				C553.15,518.39,557.36,515.27,555.45,512.42z"/>
		</g>
		<g>
			<g>
				
					<linearGradient id="SVGID_00000161625665492528881070000005493173000850426549_" gradientUnits="userSpaceOnUse" x1="677.658" y1="458.2403" x2="775.5952" y2="556.1776">
					<stop  offset="0" style="stop-color:#FF8455"/>
					<stop  offset="1" style="stop-color:#B12D00"/>
				</linearGradient>
				<path style="fill:url(#SVGID_00000161625665492528881070000005493173000850426549_);" d="M712.91,461.74
					c-25.61-37.76-73.54-15.8-73.54,24.23c0,35.45,23.91,63.37,73.54,102.86c49.62-39.49,73.54-67.41,73.54-102.86
					C786.45,445.94,738.53,423.97,712.91,461.74z"/>
			</g>
			<path class="st5" d="M660.67,507.04c-4.32-6.39-7.44-12.94-7.83-20.78c-0.38-7.71,1.6-15.21,5.63-21.78
				c0.78-1.27-1.17-2.78-2.13-1.59c-11.05,13.69-12,34-0.09,47.63C658.36,512.93,662.47,509.7,660.67,507.04z"/>
		</g>
		<g>
			<g>
				
					<linearGradient id="SVGID_00000003084486777701692720000002113471168499324567_" gradientUnits="userSpaceOnUse" x1="801.3076" y1="305.6796" x2="801.3076" y2="452.2259">
					<stop  offset="0" style="stop-color:#FF8455"/>
					<stop  offset="1" style="stop-color:#B12D00"/>
				</linearGradient>
				<path style="fill:url(#SVGID_00000003084486777701692720000002113471168499324567_);" d="M788.57,353.29
					c-37.5-18.27-65.48,20.97-47.25,52.7c16.15,28.1,47.82,39.33,105.14,48.03c21.34-53.91,27.58-86.93,11.43-115.02
					C839.66,307.28,791.67,311.69,788.57,353.29z"/>
			</g>
			<path class="st5" d="M767.42,354.43c-5.18,0.14-9.51,1.38-13.3,5.1c-4.01,3.93-6.15,9.42-7.46,14.77
				c-0.86,3.5,4.61,4.84,5.45,1.32c1.76-7.36,6.56-17.24,15.39-17.73C769.71,357.76,769.65,354.37,767.42,354.43z"/>
			<path class="st5" d="M805.99,329.02c-6.38,6.84-12.47,16.18-7.88,25.68c1.25,2.6,5.31,0.7,4.55-1.96
				c-2.29-8.01,1.13-14.78,6.27-20.84C810.62,329.9,807.81,327.07,805.99,329.02z"/>
		</g>
		<g>
			<g>
				
					<linearGradient id="SVGID_00000094578981832201768570000016750458758328355250_" gradientUnits="userSpaceOnUse" x1="906.7497" y1="394.2652" x2="982.3544" y2="394.2652" gradientTransform="matrix(0.9628 0.2702 -0.2702 0.9628 103.1295 -225.5365)">
					<stop  offset="0" style="stop-color:#FF8455"/>
					<stop  offset="1" style="stop-color:#B12D00"/>
				</linearGradient>
				<path style="fill:url(#SVGID_00000094578981832201768570000016750458758328355250_);" d="M913.49,382.66
					c-7.43-22.25-34.2-18.03-39.76,1.78c-4.92,17.54,3.03,34.68,22.11,61.12c30.05-12.66,45.76-23.15,50.68-40.7
					C952.08,385.05,931.41,367.52,913.49,382.66z"/>
			</g>
			<path class="st5" d="M886.42,377.23c1.3-1.64-0.81-3.84-2.37-2.32c-4.7,4.56-8.14,10.23-8.97,16.82
				c-0.89,7.02,1.66,13.77,4.67,19.99c1.27,2.63,5.86,0.69,4.73-2.04c-2.21-5.38-4.98-10.8-4.71-16.79
				C880.03,387.1,882.89,381.68,886.42,377.23z"/>
		</g>
		<g>
			<g>
				
					<linearGradient id="SVGID_00000008118846435617829540000012953355825540966532_" gradientUnits="userSpaceOnUse" x1="905.5265" y1="572.811" x2="1078.7345" y2="572.811" gradientTransform="matrix(0.9633 0.2684 -0.2684 0.9633 142.3286 -299.7536)">
					<stop  offset="0" style="stop-color:#FF8455"/>
					<stop  offset="1" style="stop-color:#B12D00"/>
				</linearGradient>
				<path style="fill:url(#SVGID_00000008118846435617829540000012953355825540966532_);" d="M961.31,457.3
					c-17.12-50.94-78.43-41.17-91.08,4.24c-11.21,40.21,7.1,79.45,50.91,139.94c68.78-29.12,104.74-53.23,115.94-93.44
					C1049.73,462.63,1002.31,422.55,961.31,457.3z"/>
			</g>
			<path class="st5" d="M933.13,433.28c-16.31-7.77-34.08-0.45-44.41,13.34c-10.26,13.7-17.49,35.43-10.55,52
				c1.57,3.75,7.67,2.19,6.22-1.78c-5.32-14.55-0.35-31.62,7.91-44.19c7.97-12.12,24.06-21.59,38.53-15.22
				C933.59,438.64,935.92,434.6,933.13,433.28z"/>
		</g>
		<g>
			<g>
				
					<linearGradient id="SVGID_00000144312356938821611330000006890333348706658720_" gradientUnits="userSpaceOnUse" x1="788.3621" y1="430.9641" x2="887.0688" y2="529.6708">
					<stop  offset="0" style="stop-color:#FF8455"/>
					<stop  offset="1" style="stop-color:#B12D00"/>
				</linearGradient>
				<path style="fill:url(#SVGID_00000144312356938821611330000006890333348706658720_);" d="M816.22,436.16
					c-39.27-34.12-85.65,4.1-73.94,48.21c10.37,39.06,44.89,62.83,111.12,91.83c43.13-58.03,61.31-95.79,50.94-134.85
					C892.62,397.24,833.39,387.05,816.22,436.16z"/>
			</g>
			<path class="st5" d="M785.28,432.49c-17.38,1.21-28.6,17.01-31.81,32.99c-3.42,17.02,2,36.97,17.71,46.23
				c3.61,2.12,6.26-3.21,3.07-5.54c-12.5-9.13-17.55-24.1-14.61-39.2c2.52-12.98,11.07-28.9,25.73-30.53
				C787.86,436.17,787.86,432.32,785.28,432.49z"/>
		</g>
		<g>
			<g>
				
					<linearGradient id="SVGID_00000085957533618164886250000012048851702679038127_" gradientUnits="userSpaceOnUse" x1="988.7146" y1="520.3192" x2="1146.6178" y2="520.3192" gradientTransform="matrix(0.9633 0.2684 -0.2684 0.9633 142.3286 -299.7536)">
					<stop  offset="0" style="stop-color:#FF8455"/>
					<stop  offset="1" style="stop-color:#B12D00"/>
				</linearGradient>
				<path style="fill:url(#SVGID_00000085957533618164886250000012048851702679038127_);" d="M1046.66,432.4
					c-15.61-46.44-71.5-37.53-83.04,3.86c-10.22,36.66,6.47,72.43,46.41,127.58c62.7-26.55,95.48-48.53,105.7-85.19
					C1127.27,437.26,1084.03,400.72,1046.66,432.4z"/>
			</g>
			<path class="st5" d="M997.41,408.79c-15.32,5-27.04,18.68-28.3,34.97c-0.26,3.38,5.56,4.06,5.98,0.64
				c1.68-13.83,10.15-26.31,23.63-31.06C1001.58,412.34,1000.33,407.83,997.41,408.79z"/>
		</g>
		
			<linearGradient id="SVGID_00000147930743176781090170000015273905582173901228_" gradientUnits="userSpaceOnUse" x1="825.4843" y1="627.9368" x2="825.4843" y2="868.9348">
			<stop  offset="0" style="stop-color:#C27926"/>
			<stop  offset="1" style="stop-color:#DC8F2A"/>
		</linearGradient>
		
			<rect x="546.33" y="527.08" style="fill:url(#SVGID_00000147930743176781090170000015273905582173901228_);" width="558.3" height="330.27"/>
		<polygon class="st14" points="1104.64,527.08 546.33,527.08 478.23,642.84 1172.74,642.84 		"/>
	</g>
	<g>
		<g>
			<g>
				<g>
					<path class="st15" d="M848.59,822.17c0,0,13.89,28.78,8.93,49.62c-41.68,0-100.23,0-100.23,0s0-12.9,17.86-17.86
						c17.86-4.96,45.65-22.83,45.65-22.83L848.59,822.17z"/>
					<path class="st15" d="M668.12,822.17c0,0,13.89,28.78,8.93,49.62c-41.68,0-100.23,0-100.23,0s0-12.9,17.86-17.86
						c17.86-4.96,45.65-22.83,45.65-22.83L668.12,822.17z"/>
					<path class="st16" d="M793.36,439.1c4.61,19.85,17.51,51.61,5.61,88.33c-11.91,36.72,3.87,140.92,4.91,148.86
						c1.04,7.94,53.64,113.14,53.64,155.81c0,0-28.78,14.89-45.65,4.96c-32.39-60.68-91.84-200.83-101.23-249.1
						c-16.87,42.67-23.82,87.33-23.82,87.33s11.91,33.74,0,72.45c-11.91,38.7-6.95,86.34-6.95,86.34s-43.93,18.86-49.75-8.93
						c0.13-86.34-5.24-166.73,7.87-255.05c13.11-88.33,19.06-131,19.06-131H793.36z"/>
					<path class="st17" d="M678.12,733.93c8.37-28.08-5.51-60.75-5.51-60.75s10.32-37.83,16.05-68.2c5.73-30.37,6.6-93.42,6.6-93.42
						s6.58,48.14,15.38,76.4c-16.87,42.67-23.82,87.33-23.82,87.33s11.91,33.74,0,72.45c-11.91,38.7-6.95,86.34-6.95,86.34
						s-3.59,1.54-8.86,3.09C658.08,808.09,670.06,760.97,678.12,733.93z"/>
					<path class="st18" d="M751.76,477.66h0.88c0,0.37,0.26,37.03,22.5,47.84c0.25-22.62-0.15-44.43-1.48-56.08l0.88-0.1
						c2.3,20.12,1.85,70.47,0,103.06c-1.84,32.57,4.46,89.99,15.35,115.21c1.25,2.9,2.88,6.59,4.79,10.92
						c15.71,35.59,48.4,109.64,47.34,139.64l-0.88-0.03c1.06-29.81-31.58-103.73-47.26-139.26c-1.91-4.33-3.55-8.03-4.8-10.93
						c-10.94-25.33-17.27-82.95-15.42-115.61c0.76-13.4,1.28-29.8,1.47-45.86C752.03,515.65,751.76,478.04,751.76,477.66z"/>
				</g>
				<g>
					<path class="st19" d="M637.4,444.02c-1.2,7.43,2,14.89,8.23,19.11c15.53,10.5,43.5,22.22,72.05,22.22
						c36.64,0,94.61-15.23,95.57-21.34c0.96-6.11-12.3-49.14-19.05-78.39c19.61-25.07,37.93-59.14,28.93-93.53
						c-9-34.39-35.03-48.21-51.11-51.75l-34.39,5.46c0,0-42.74,6.73-61.72,37.99C660.13,309.77,642.8,410.67,637.4,444.02z"/>
					<path class="st20" d="M681.86,407.72c51.27,21.92,93.15,2.83,112.34-22.1l3.9,15.85C798.1,401.47,738.53,453.48,681.86,407.72z
						"/>
					<path class="st21" d="M705.8,367.96c24.87,0,46.18-7.83,66.63-54.22l-0.81-0.35c-23.05,52.31-47.18,55.11-76.33,53.33
						l-0.05,0.88C698.82,367.81,702.35,367.96,705.8,367.96z"/>
				</g>
			</g>
			<g>
				<g>
					<path class="st22" d="M726.06,160.12c-12.54,16.07-21.86,52.71,0,66.53c19.9,12.58,41.14-1.29,48.53-10.29
						c5.79,6.43,20.25-3.21,18.64-12.21s-9-9.32-13.18-4.18c-3.54-1.61-4.5-9-3.54-13.5c0.96-4.5,1.29-9,0-11.57
						c0,0-1.61-4.5-8.36-4.82c-6.75-0.32-12.68-0.32-15.02-6.11c-2.34-5.79-8.12-6.11-11.34-3.86
						C738.59,162.37,731.2,166.55,726.06,160.12z"/>
					<path class="st15" d="M780.06,199.98c-3.54-1.61-4.5-9-3.54-13.5c0.96-4.5,1.29-9,0-11.57c0,0-1.61-4.5-8.36-4.82
						c-6.75-0.32-12.68-0.32-15.02-6.11c-2.34-5.79-8.12-6.11-11.34-3.86c-3.21,2.25-10.61,6.43-15.75,0
						c-5.14-7.71-12.54-27.96-3.21-40.18c9.32-12.21,26.36-10.61,30.3,0c3.95,10.61,10.2,13.18,16.3,15.11
						c12.45,3.93,27.96,12.54,29.57,27c9.45,6.2,9.39,29.77-6.15,40.53C790.73,195.14,783.98,195.16,780.06,199.98z"/>
					<path class="st22" d="M761.93,225.85c-2.53,5.99,3.34,18.9,10.09,24.23c-4.5,10.16-26.36,14.22-34.39,4.32
						c5.46-15.24,5.33-22.61-1.1-28.46C730.1,220.1,761.93,225.85,761.93,225.85z"/>
					<path class="st23" d="M761.9,233.41c-4.18,3.77-13.66,9.34-20.93,9.43c0.87-4.63,0.75-8.24-0.43-11.26
						c7.71,0.63,15.06-1.64,21.14-4.92C761.15,228.51,761.29,230.88,761.9,233.41z"/>
				</g>
				<path class="st24" d="M747.67,118.18c3.52,2.94,4.34,7.29,6.09,11.3c2.51,5.77,7.73,7.12,13.23,9
					c9.74,3.34,18.57,7.92,25.22,15.94c0.81,0.97-0.57,2.36-1.42,1.39c-7.76-8.86-19.13-11.83-29.77-15.66
					c-3.83-1.38-7.24-3.3-9.37-6.89c-2.47-4.17-2.83-9.19-6.38-12.73C743.68,118.98,746.03,116.82,747.67,118.18z M792.95,191.81
					c7.28-6.19,9.51-16.33,5.78-25.07c-0.49-1.15-2.48-0.36-2.04,0.79c3.02,7.97,0.73,16.68-5.85,22.12
					C789.35,190.89,791.47,193.06,792.95,191.81z"/>
			</g>
		</g>
		
			<linearGradient id="SVGID_00000103245454352053061030000005807459084467748279_" gradientUnits="userSpaceOnUse" x1="466.9325" y1="259.5326" x2="466.9325" y2="407.5329" gradientTransform="matrix(-1 0 0 1 1031.4396 0)">
			<stop  offset="0" style="stop-color:#C27926"/>
			<stop  offset="1" style="stop-color:#DC8F2A"/>
		</linearGradient>
		<polygon style="fill:url(#SVGID_00000103245454352053061030000005807459084467748279_);" points="449.14,423.72 679.88,423.72 
			679.88,240.34 449.14,240.34 		"/>
		<path class="st22" d="M591.43,373.11c5.95,4.09,34.24,14.33,34.24,14.33s31.63,15.07,56.2,20.28c12.28-8.56,13.4-30.14,13.4-40.57
			c0,0-42.43-1.49-50.24-2.98c-7.82-1.49-11.16-35.73-14.14-39.08c-2.98-3.35-6.33,0-5.95,7.44c0.37,7.44-0.37,13.4-3.72,13.4
			c-3.35,0-23.82-32.38-26.8-32.38c-2.98,0,1.86,13.77,7.07,23.45c5.21,9.68-20.84-12.28-23.82-9.3s19.35,16.75,17.49,19.35
			c-1.86,2.61-29.22-8.22-28.66-4.84c1.12,6.7,26.05,10.79,23.82,15.63c-2.23,4.84-26.05-2.61-25.31,2.79
			C565.75,366.03,591.43,373.11,591.43,373.11z"/>
		<g>
			<path class="st22" d="M465.02,336.88c4.96-5.95,10.42-28.28,11.91-33.74c1.49-5.46,5.46,0,6.45,5.46
				c0.99,5.46-1.98,11.91,4.96,13.89s30.76-26.3,34.24-23.82c3.47,2.48-20.84,25.8-18.86,28.28c1.98,2.48,33.74-17.86,37.22-13.4
				c3.47,4.47-33.25,19.85-31.76,23.32c1.49,3.47,30.73-9.71,31.99-4.85s-29.01,11.8-29.01,14.78c0,2.98,24.81,3.09,24.81,6.51
				c0,3.42-26.8,3.42-26.8,3.42s-19.35,16.75-41.68,3.91l-15.88,12.96l-10.92-29.28L465.02,336.88z"/>
			<g>
				<g>
					<path class="st15" d="M312.18,165.69c4.81,16.65-4.96,35.23-19.85,40.19c-14.89,4.96-49.12,48.63,13.4,81.87
						c25.8-10.92,117.6-28.28,117.6-28.28c17.37-20.34-8.44-36.22-0.5-59.54c2.74-8.04,16.87-14.89,13.4-33.25
						c-2.51-13.25-18.02-14.57-16.37-21.34c2.51-10.3,3.97-24.96-9.67-24.64c-13.64,0.32-2.81-14.98-22.24-22.31
						c-17.74-6.69-34.48,1.5-42.24,10.63c-7.48,8.81-10.99,19.64-21.82,22.51S306.21,145.03,312.18,165.69z"/>
					<path class="st24" d="M382.78,102.02c4.13,0.71,7.84,1.86,10.46,5.31c3,3.95,4.44,14.48,10.24,14.92
						c0.98,0.07,1.26,1.61,0.19,1.8c-4.49,0.79-6.94-2.61-8.49-6.4c-1.12-2.73-2.24-5.52-3.95-7.94c-2.31-3.28-5.58-4.04-9.29-4.8
						C380.04,104.51,380.91,101.69,382.78,102.02z M414.92,148.37c0.35,1.22,2.05,0.76,1.88-0.46c-0.83-6.14,4.71-12,0.34-17.73
						c-1.02-1.34-3.21,0.36-2.35,1.75C417.89,136.92,413.34,142.91,414.92,148.37z M419.76,230.82c0.92,1.24,2.74,0.28,2.12-1.17
						c-4.91-11.55-6.35-23.36,0.44-34.59c5.06-8.38,12.62-17.23,8.22-27.56c-0.84-1.96-4.19-0.62-3.48,1.36
						c4.33,12.18-8.54,22.07-11.46,33.19C413.14,211.35,413.85,222.87,419.76,230.82z M355.24,143.35
						c11.34,4.65,19.59-7.54,29.36-10.69c1.08-0.35,0.71-1.97-0.42-1.73c-9.7,2.13-17.54,13.22-28.1,9.48
						C354.19,139.73,353.45,142.62,355.24,143.35z"/>
				</g>
				<path class="st26" d="M284.12,511.61c-2.25,4.76,19.56,22.1,36.9,25.52c3.15-7.62-2.1-32.32-2.1-32.32
					S288.74,501.86,284.12,511.61z"/>
				<g>
					<g>
						<path class="st22" d="M449.14,742.13c0,0-8.94,74.01-4.42,93.22c17.32,20.69,49.42,20.69,52.11,37.69
							c-43.6,0-93.81-4.43-93.81-4.43s-6.72-20.69,7.71-38.43c2.67-54.68-3.37-107.72-3.37-107.72L449.14,742.13z"/>
						<path class="st27" d="M496.83,873.04c0,0,2.93-9.98-9.72-15.76c-12.66-5.78-32.57-15.97-35.51-19.14
							c-2.94-3.18-5.62-5.62-12.66-1.41c-7.03,4.22,0.7,16.49-7.73,17.03c-5.73,0.37-12.67-0.57-19.37-2.56
							c-3.16-0.94-3.87-7.68-7.65-9.73c-3.52,7.31-4.41,22.1-1.18,27.13C422.43,873.04,496.83,873.04,496.83,873.04z"/>
					</g>
					<g>
						<path class="st22" d="M339.79,744.64c0,0-28.82,70.77-27.34,89.98c14.04,20.69,50.99,21.43,50.99,38.43
							c-43.6,0-93.11-4.43-93.11-4.43s-3.45-20.69,13.79-38.43c11.33-54.68,12.07-107.72,12.07-107.72L339.79,744.64z"/>
						<path class="st27" d="M364.5,874.21c0,0,2.93-9.98-9.72-15.76c-12.66-5.78-32.57-15.97-35.51-19.14
							c-2.94-3.18-5.62-5.62-12.66-1.41c-7.03,4.22,0.7,16.49-7.73,17.03c-5.73,0.37-12.67-0.57-19.37-2.56
							c-3.16-0.94-3.87-7.68-7.65-9.73c-3.52,7.31-4.41,22.1-1.18,27.13C290.09,874.21,364.5,874.21,364.5,874.21z"/>
					</g>
					<g>
						<path class="st28" d="M449.6,751.32c0-0.23-2.1,20.02-2.1,20.02s-7.36,3.53-18.86,3.53c-11.5,0-19.01-3.08-19.01-3.08
							l-1.05-19.42L449.6,751.32z"/>
						<path class="st28" d="M340.37,747.7l-9.05,19.61c0,0-28.02,7.2-38.95-12.04c0.66-11.37,2.07-23.53,2.07-23.53L340.37,747.7z"
							/>
						<path class="st29" d="M452.11,505.21c6.22,26.27,11.8,156.04,5.83,232.56c-0.75,9.65-8.2,17.44-17.81,18.57
							c-9.68,1.14-19.01,0.73-26.63-0.14c-10.44-1.19-18.33-10-18.5-20.5c-0.55-35.66-2.55-116.59-9.41-138.86
							c-10.16,48.66-25.35,108.53-32.97,137.92c-2.94,11.34-13.86,18.75-25.47,17.19c-8.31-1.11-17.96-3.4-26.7-7.95
							c-10.13-5.27-15.5-16.64-13.35-27.86c12.82-66.63,26.65-197.36,24.59-222.02C370.82,485.99,452.11,505.21,452.11,505.21z"/>
						<path class="st30" d="M399.52,601.95c1.6,29.91,3.99,67.8,4.39,85.75c0.34,15.31-2.22,49.99-1,64.09
							c-4.75-3.8-7.8-9.62-7.9-16.08c-0.55-35.66-2.55-116.59-9.41-138.86c3.55-15.63,9.53-59.71,9.53-59.71
							S397.92,572.03,399.52,601.95z"/>
						<path class="st31" d="M295.26,722.77c1.24-3.44,2.78-7.73,4.36-14.24l0.42-1.72c5.04-20.7,20.37-83.71,21.55-117.65
							c1.2-34.64,3.71-81.43,3.74-81.9l0.87,0.05c-0.02,0.33-1.26,23.5-2.42,49.27c8.41-2.73,17.54-27.55,17.54-43.2h0.87
							c0,14.99-8.89,41.56-18.46,44.12c-0.47,10.63-0.93,21.67-1.28,31.69c-1.18,34.03-16.53,97.1-21.57,117.83l-0.42,1.72
							c-1.59,6.55-3.14,10.87-4.39,14.33c-2.07,5.74-3.21,8.91-1.97,15.73l-0.86,0.16C291.98,731.9,293.15,728.66,295.26,722.77z"/>
					</g>
				</g>
				<path class="st32" d="M449.14,337.49c0,0,7.44,15.77,8.93,41.07l-6.45,6.95c0,0,13.23,63.73,17.53,105.13
					c1.29,12.42-6.92,23.83-19.11,26.56c-51.11,11.43-93.56,1.22-111.56-3.17c-20.34-4.96-45.15-10.92-55.08-4.96
					c8.93-30.76,20.34-96.26,16.87-118.1c-13.4-8.44-20.84-50.61-12.41-79.89c8.44-29.28,24.31-42.67,40.69-50.61
					c16.37-7.94,48.63-21.4,72.45-20.13c23.82,1.27,48.13,18.41,48.13,18.41V337.49z"/>
				<g>
					<path class="st22" d="M390.09,205.88c-4.17,7.12-3.47,29.77,9.43,39.7c-15.88,14.89-36.81,1.14-36.81,1.14
						s12.5-19.5,3.07-40.84C376.2,200.92,390.09,205.88,390.09,205.88z"/>
					<path class="st23" d="M388.35,224.32c-6.4,2.73-13.17,2.55-19.07-0.73c0.12-5.46-0.76-11.5-3.5-17.71
						c10.42-4.96,24.31,0,24.31,0C388.04,209.39,387.17,216.66,388.35,224.32z"/>
					<path class="st22" d="M330.32,180.94c-0.83,6.07,4.13,13.78,10.65,10.06c4.96,14.39,34.24,33.25,56.57,16.37
						c22.33-16.87,10.42-54.58,0-66c0,0-10.36-8.18-16.42-2.4c-6.06,5.78-12.39,9.91-20.1,7.43c-7.71-2.48-14.87,7.98-14.04,12.11
						c0.83,4.13,2.48,20.1-4.13,22.3c-0.55-0.74-1.05-1.46-1.5-2.13C338.35,174.14,331.06,175.53,330.32,180.94z"/>
				</g>
				<path class="st33" d="M335.11,317.51c0,13.62,9.78,31.69,25.59,37.11c19.1,6.56,65.96-5.85,88-14.29v0.93
					c-17.86,6.8-51.48,16.05-74.02,16.05c-5.56,0-10.46-0.57-14.26-1.87c-16.17-5.55-26.18-24.01-26.18-37.94H335.11z"/>
				<path class="st26" d="M451.13,388.94c-11.45,8.76-97.86,45.94-150.26,5.42c0.58,6.71,0.6,13.08,0.6,13.08
					c21.99,14.08,47.11,19.43,84.14,12.75C417.91,414.37,446.18,393.38,451.13,388.94z"/>
			</g>
		</g>
		
			<rect x="441.7" y="234.75" transform="matrix(-1 -1.224647e-16 1.224647e-16 -1 1129.0142 501.934)" class="st34" width="245.62" height="32.44"/>
	</g>
	<g>
		<path class="st35" d="M-3220.31,472.26c0,0-339.53,0-460.41,0c-73.54-114.69-14.54-165.08-57.47-226.54
			c-42.94-61.46-24.18-139.68,0.29-181.88c41.86-72.19,157.71-77.48,202.33-45.52c59.71,42.76,77.97,68.82,131.65,34.52
			c48.53-31,109-34.52,162.85,27.3c37.64,43.21,21.35,97.41,0,138.94s19.01,91.34,40.14,128.09
			C-3179.29,384.82-3196.52,451.19-3220.31,472.26z"/>
		<path class="st0" d="M-3746.94,82.68c-9.95,9.45-36.09-5.24-36.66,12.8c-0.57,18.03,35.56,8.76,39.02,18.92
			c3.46,10.16,28.28,13.07,42.34-4.96c6.07-7.79,16.58-8.91,26.39-9.7c12.9-1.04,24.63-1.51,23.58-15.81
			c-1.15-15.67-21.91-14.49-32.37-9.94c-8.18,3.56-14.43,11.76-21.58,8.69C-3722.51,75.7-3735.31,71.63-3746.94,82.68z"/>
		<path class="st0" d="M-3384.51,73.54c-20.65,7.33-3.54,21.93-26.88,33.96s-39.62,30.84-24.05,47.61
			c15.56,16.77,72.86-22.42,87.72,0c14.86,22.43,60.85,22.97,86.31,4.3c25.46-18.66,70.06,6.1,65.09-26.45s-42.46-9.9-63.68-30.42
			s-53.06-29-67.91-19.81C-3342.77,91.94-3364.58,66.47-3384.51,73.54z"/>
		<g>
			<path class="st36" d="M-3580.44,330.69c17.84-24.08,44.22-7.06,13.38,44.29c-24.99,41.6-46.98,101.64-46.98,101.64
				S-3611.73,372.93-3580.44,330.69z"/>
			<path class="st37" d="M-3614.05,476.61c0,0,57.7-69.77,94.6-84.44c36.89-14.67,15.94-44.9-15.59-29.34
				S-3611.74,431.7-3614.05,476.61z"/>
			<path class="st37" d="M-3614.05,476.61c7.83-93.15-12.4-99.46-21.44-88.79c-9.05,10.67-11.87,0-14.09-15.52
				c-2.23-15.52-15.74-35.53-20.18-21.83s-14.07-30.56-23.28-23.77c-9.22,6.79,4.83,39.27,8.72,48.74c3.89,9.47-16.34-1.5-17.14,9.8
				c-0.8,11.31,33.72,21.75,29.28,32.31c-4.44,10.56-20.56-7.4-12.14,12.47C-3671.22,460.96-3614.05,476.61-3614.05,476.61z"/>
			<path class="st36" d="M-3614.05,476.61c17-54.64,29.93-53.56,32.6-45.42s6.73,2.73,11.57-5.56c4.84-8.29,17.11-16.53,16.47-7.74
				c-0.64,8.79,15.01-14.09,18.68-8.12c3.66,5.97-11.78,21.16-16.17,25.64c-4.39,4.47,9.62,2.91,7.46,9.5
				c-2.15,6.6-24.13,4.57-24.04,11.58c0.09,7.01,13.36,0.54,4.01,9.87C-3578.02,480.89-3614.05,476.61-3614.05,476.61z"/>
			<g>
				<path class="st37" d="M-3654.75,91.51c-41.34,9.78-53.42,69.12-26.48,104.74c32.15,42.51-9.21,63.64,7.88,112.58
					c16.32,46.74,77.25,45.41,94.05,8.73c28.49-62.18-31.49-69.34-1.94-116.41C-3558.02,164.12-3563.27,69.87-3654.75,91.51z"/>
				<path class="st36" d="M-3609.14,230.7c-0.69,6.47-1.93,12.91-4.1,19.05c-1.41,4.01-3.24,7.72-5.25,11.37
					c-0.31-3.22-0.63-6.44-0.99-9.65c-1.77-15.75-4.36-31.36-7.64-46.84c1.6-2,3.26-3.95,4.72-6.07c1.79-2.61,3.46-5.29,5.02-8.04
					c3.17-5.62,6.02-11.3,8.13-17.4c4.18-12.1,6.05-24.97,5.5-37.77c-0.31-7.33-1.59-14.57-3.6-21.62
					c-0.45-1.57-2.75-0.74-2.38,0.81c5.71,24,2.54,50.45-8.8,72.4c-1.59,3.09-3.41,6.07-5.37,8.93c-1.26,1.85-2.53,3.73-3.91,5.52
					c-0.99-4.55-2.04-9.08-3.14-13.61c-0.61-2.51-4.37-1.2-3.79,1.28c1.94,8.26,3.6,16.59,5.02,24.97c-2.34-1.56-4.8-2.95-7.08-4.59
					c-3.07-2.21-5.99-4.61-8.77-7.17c-5.62-5.17-10.61-10.87-13.79-17.88c-0.44-0.98-2.02-0.47-1.6,0.54
					c2.95,6.99,7.61,13.16,13.15,18.31c2.84,2.64,5.92,5.06,9,7.42c3.16,2.43,6.2,5.17,9.58,7.28c0.05,0.03,0.11,0.05,0.16,0.08
					c3.3,20.64,5.15,41.55,6.02,62.44c-5.16-6.68-10.34-13.29-15-20.38c-5.75-8.74-11.07-17.77-15.81-27.1
					c-0.64-1.26-2.86-0.19-2.24,1.09c4.64,9.52,9.71,18.81,15.42,27.73c5.42,8.47,11.21,17.07,17.85,24.67
					c0.19,5.83,0.32,11.66,0.37,17.48c0.07,7.11,0.03,14.23-0.1,21.34c-4.82-4.27-9.4-8.71-13.52-13.81
					c-5.69-7.04-10.7-14.63-14.6-22.81c-0.88-1.84-3.91-0.85-3.04,1.03c3.93,8.46,8.65,16.56,14.46,23.88
					c4.86,6.13,10.4,12.23,16.57,17.21c-0.27,10.4-0.73,20.8-1.37,31.18c-1.14,18.56-3.1,37.09-3.67,55.68
					c-0.61,19.9,0.68,41.28,9.23,59.59c0.91,1.96,2.87,3.25,5.07,2.5c1.96-0.66,3.31-3.06,2.5-5.07c-3.35-8.32-5.89-16.8-7.23-25.68
					c-1.34-8.86-1.75-17.84-1.69-26.79c0.12-18.44,2.07-36.8,2.97-55.2c1.61-32.76,1.69-65.66-0.97-98.36
					c7.64-10.7,11.76-24.74,12.28-37.73C-3605.46,228.88-3608.92,228.65-3609.14,230.7z"/>
				<path class="st38" d="M-3658.76,212.23c-0.96-6.66-4.3-13.01-7.4-18.91c-3.08-5.88-6.49-11.63-9.11-17.74
					c-5.09-11.9-6.63-25.33-4.93-38.12c0.99-7.46,3.04-14.76,6.24-21.58c1.1-2.34-2.24-4.25-3.55-1.97
					c-6.76,11.79-10.08,25.23-9.75,38.81c0.34,14.11,5.31,26.85,11.9,39.13c1.88,3.5,3.78,6.99,5.47,10.59
					c1.67,3.54,2.77,7.22,4.18,10.85c0.64,1.64,2.09,2.8,3.93,2.49C-3660.2,215.51-3658.51,213.99-3658.76,212.23z"/>
				<path class="st38" d="M-3657.51,313.46c-13.41-18.67-6.96-42.39-3.17-63.03c0.35-1.93-2.23-2.46-2.9-0.7
					c-8.04,21.19-13.98,47.15,0.13,67.25C-3660.9,320.6-3654.93,317.05-3657.51,313.46z"/>
			</g>
		</g>
		<g>
			<g>
				<g>
					
						<linearGradient id="SVGID_00000158714194566292910190000009579745703565923205_" gradientUnits="userSpaceOnUse" x1="-3261.4485" y1="1453.0453" x2="-3217.4194" y2="1453.0453" gradientTransform="matrix(0.9628 0.2702 -0.2702 0.9628 103.1295 -225.5365)">
						<stop  offset="0" style="stop-color:#FF8455"/>
						<stop  offset="1" style="stop-color:#B12D00"/>
					</linearGradient>
					<path style="fill:url(#SVGID_00000158714194566292910190000009579745703565923205_);" d="M-3404.06,282.66
						c-4.33-12.96-19.92-10.5-23.16,1.04c-2.87,10.22,1.77,20.2,12.88,35.6c17.5-7.37,26.65-13.48,29.52-23.7
						C-3381.59,284.05-3393.62,273.84-3404.06,282.66z"/>
				</g>
				<path class="st5" d="M-3419.47,298.75c-1.59-3.11-2.9-6.21-3.02-9.75c-0.11-3.31,0.83-6.5,2.54-9.32
					c0.41-0.67-0.61-1.46-1.13-0.84c-4.87,5.87-4.21,14.81-0.31,21.05C-3420.61,301.11-3418.82,300.02-3419.47,298.75z"/>
			</g>
			<g>
				<g>
					
						<linearGradient id="SVGID_00000178927504589074347780000012044521432907040701_" gradientUnits="userSpaceOnUse" x1="-3390.4988" y1="-571.9885" x2="-3317.0564" y2="-571.9885" gradientTransform="matrix(0.9761 -0.2172 0.2172 0.9761 -54.0074 159.7793)">
						<stop  offset="0" style="stop-color:#FF8455"/>
						<stop  offset="1" style="stop-color:#B12D00"/>
					</linearGradient>
					<path style="fill:url(#SVGID_00000178927504589074347780000012044521432907040701_);" d="M-3457.7,303.68
						c-16.58-15.63-37.56,0.28-33.22,19.79c3.84,17.28,18.53,28.29,47,42.16c19.9-24.63,28.53-40.83,24.69-58.11
						C-3423.57,288.01-3449.31,282.5-3457.7,303.68z"/>
				</g>
				<path class="st5" d="M-3479.43,334.49c-1.76-2.62-3.79-4.98-4.95-7.96c-0.91-2.35-1.32-4.87-1.31-7.39
					c0.03-5.42,2.01-10.5,5.87-14.35c0.81-0.81-0.43-2.01-1.27-1.24c-9.4,8.62-9.3,23.6-0.31,32.49
					C-3480.4,337.02-3478.62,335.7-3479.43,334.49z"/>
			</g>
			<g>
				<g>
					
						<linearGradient id="SVGID_00000181049342891725730300000013839546324509538477_" gradientUnits="userSpaceOnUse" x1="-3427.6121" y1="311.5157" x2="-3386.0862" y2="353.0414">
						<stop  offset="0" style="stop-color:#FF8455"/>
						<stop  offset="1" style="stop-color:#B12D00"/>
					</linearGradient>
					<path style="fill:url(#SVGID_00000181049342891725730300000013839546324509538477_);" d="M-3412.66,313
						c-10.86-16.01-31.18-6.7-31.18,10.27c0,15.03,10.14,26.87,31.18,43.61c21.04-16.75,31.18-28.58,31.18-43.61
						C-3381.48,306.3-3401.8,296.99-3412.66,313z"/>
				</g>
				<path class="st5" d="M-3434.81,332.21c-1.83-2.71-3.16-5.49-3.32-8.81c-0.16-3.27,0.68-6.45,2.39-9.23
					c0.33-0.54-0.5-1.18-0.9-0.67c-4.68,5.81-5.09,14.42-0.04,20.19C-3435.8,334.7-3434.05,333.33-3434.81,332.21z"/>
			</g>
			<g>
				<g>
					
						<linearGradient id="SVGID_00000031917494035760281670000002836410054745177525_" gradientUnits="userSpaceOnUse" x1="-3375.1841" y1="246.8293" x2="-3375.1841" y2="308.9655">
						<stop  offset="0" style="stop-color:#FF8455"/>
						<stop  offset="1" style="stop-color:#B12D00"/>
					</linearGradient>
					<path style="fill:url(#SVGID_00000031917494035760281670000002836410054745177525_);" d="M-3380.58,267.02
						c-15.9-7.74-27.76,8.89-20.03,22.34c6.85,11.91,20.27,16.68,44.58,20.37c9.05-22.86,11.69-36.86,4.85-48.77
						C-3358.92,247.51-3379.27,249.38-3380.58,267.02z"/>
				</g>
				<path class="st5" d="M-3389.55,267.5c-2.19,0.06-4.03,0.59-5.64,2.16c-1.7,1.67-2.61,3.99-3.16,6.26
					c-0.36,1.48,1.95,2.05,2.31,0.56c0.75-3.12,2.78-7.31,6.52-7.52C-3388.58,268.91-3388.61,267.47-3389.55,267.5z"/>
				<path class="st5" d="M-3373.2,256.73c-2.71,2.9-5.29,6.86-3.34,10.89c0.53,1.1,2.25,0.3,1.93-0.83
					c-0.97-3.4,0.48-6.26,2.66-8.84C-3371.24,257.1-3372.43,255.9-3373.2,256.73z"/>
			</g>
			<g>
				<g>
					
						<linearGradient id="SVGID_00000006704498632462740130000004678138473677189534_" gradientUnits="userSpaceOnUse" x1="-3182.7278" y1="1424.9429" x2="-3150.6709" y2="1424.9429" gradientTransform="matrix(0.9628 0.2702 -0.2702 0.9628 103.1295 -225.5365)">
						<stop  offset="0" style="stop-color:#FF8455"/>
						<stop  offset="1" style="stop-color:#B12D00"/>
					</linearGradient>
					<path style="fill:url(#SVGID_00000006704498632462740130000004678138473677189534_);" d="M-3327.62,279.47
						c-3.15-9.43-14.5-7.65-16.86,0.75c-2.09,7.44,1.29,14.71,9.37,25.92c12.74-5.37,19.4-9.82,21.49-17.26
						C-3311.26,280.48-3320.02,273.05-3327.62,279.47z"/>
				</g>
				<path class="st5" d="M-3339.09,277.17c0.55-0.7-0.34-1.63-1.01-0.98c-1.99,1.93-3.45,4.34-3.8,7.13
					c-0.38,2.98,0.7,5.84,1.98,8.47c0.54,1.11,2.48,0.29,2.01-0.87c-0.94-2.28-2.11-4.58-2-7.12
					C-3341.8,281.35-3340.59,279.06-3339.09,277.17z"/>
			</g>
			<g>
				<g>
					
						<linearGradient id="SVGID_00000109008113493764888150000001353780184387757699_" gradientUnits="userSpaceOnUse" x1="-3195.8777" y1="1541.2253" x2="-3122.4368" y2="1541.2253" gradientTransform="matrix(0.9633 0.2684 -0.2684 0.9633 142.3286 -299.7536)">
						<stop  offset="0" style="stop-color:#FF8455"/>
						<stop  offset="1" style="stop-color:#B12D00"/>
					</linearGradient>
					<path style="fill:url(#SVGID_00000109008113493764888150000001353780184387757699_);" d="M-3307.34,311.12
						c-7.26-21.6-33.25-17.46-38.62,1.8c-4.75,17.05,3.01,33.69,21.58,59.34c29.16-12.35,44.41-22.57,49.16-39.62
						C-3269.85,313.38-3289.96,296.38-3307.34,311.12z"/>
				</g>
				<path class="st5" d="M-3319.29,300.93c-6.92-3.29-14.45-0.19-18.83,5.66c-4.35,5.81-7.42,15.02-4.47,22.05
					c0.67,1.59,3.25,0.93,2.64-0.76c-2.26-6.17-0.15-13.41,3.35-18.74c3.38-5.14,10.2-9.15,16.34-6.46
					C-3319.1,303.2-3318.11,301.49-3319.29,300.93z"/>
			</g>
			<g>
				<g>
					
						<linearGradient id="SVGID_00000032623552678007693880000008225820882286915229_" gradientUnits="userSpaceOnUse" x1="-3380.6729" y1="299.9504" x2="-3338.821" y2="341.8025">
						<stop  offset="0" style="stop-color:#FF8455"/>
						<stop  offset="1" style="stop-color:#B12D00"/>
					</linearGradient>
					<path style="fill:url(#SVGID_00000032623552678007693880000008225820882286915229_);" d="M-3368.86,302.15
						c-16.65-14.47-36.32,1.74-31.35,20.44c4.4,16.56,19.03,26.64,47.11,38.94c18.29-24.61,26-40.62,21.6-57.18
						C-3336.47,285.65-3361.58,281.33-3368.86,302.15z"/>
				</g>
				<path class="st5" d="M-3381.98,300.6c-7.37,0.51-12.12,7.21-13.49,13.99c-1.45,7.22,0.85,15.68,7.51,19.6
					c1.53,0.9,2.65-1.36,1.3-2.35c-5.3-3.87-7.44-10.22-6.2-16.62c1.07-5.5,4.69-12.25,10.91-12.95
					C-3380.88,302.16-3380.89,300.52-3381.98,300.6z"/>
			</g>
			<g>
				<g>
					
						<linearGradient id="SVGID_00000120546873364601788100000008353373187118059187_" gradientUnits="userSpaceOnUse" x1="-3160.6055" y1="1518.9686" x2="-3093.6538" y2="1518.9686" gradientTransform="matrix(0.9633 0.2684 -0.2684 0.9633 142.3286 -299.7536)">
						<stop  offset="0" style="stop-color:#FF8455"/>
						<stop  offset="1" style="stop-color:#B12D00"/>
					</linearGradient>
					<path style="fill:url(#SVGID_00000120546873364601788100000008353373187118059187_);" d="M-3271.15,300.56
						c-6.62-19.69-30.32-15.91-35.21,1.64c-4.33,15.54,2.74,30.71,19.68,54.09c26.59-11.26,40.49-20.58,44.82-36.12
						C-3236.98,302.62-3255.31,287.13-3271.15,300.56z"/>
				</g>
				<path class="st5" d="M-3292.04,290.55c-6.49,2.12-11.47,7.92-12,14.83c-0.11,1.43,2.36,1.72,2.53,0.27
					c0.71-5.86,4.3-11.16,10.02-13.17C-3290.27,292.05-3290.8,290.14-3292.04,290.55z"/>
			</g>
			
				<linearGradient id="SVGID_00000167354975224551033920000000501657446353094036_" gradientUnits="userSpaceOnUse" x1="-3364.9331" y1="383.4677" x2="-3364.9331" y2="485.6518">
				<stop  offset="0" style="stop-color:#C27926"/>
				<stop  offset="1" style="stop-color:#DC8F2A"/>
			</linearGradient>
			
				<rect x="-3483.29" y="340.7" style="fill:url(#SVGID_00000167354975224551033920000000501657446353094036_);" width="236.72" height="140.03"/>
			<polygon class="st14" points="-3246.57,340.7 -3483.29,340.7 -3512.17,389.79 -3217.7,389.79 			"/>
		</g>
		<g>
			<g>
				<g>
					<g>
						<path class="st15" d="M-3355.14,465.83c0,0,5.89,12.2,3.79,21.04c-17.67,0-42.5,0-42.5,0s0-5.47,7.57-7.57
							s19.36-9.68,19.36-9.68L-3355.14,465.83z"/>
						<path class="st15" d="M-3431.66,465.83c0,0,5.89,12.2,3.79,21.04c-17.67,0-42.5,0-42.5,0s0-5.47,7.57-7.57
							s19.36-9.68,19.36-9.68L-3431.66,465.83z"/>
						<path class="st48" d="M-3378.55,303.4c1.96,8.42,7.43,21.88,2.38,37.45c-5.05,15.57,1.64,59.75,2.08,63.12
							c0.44,3.37,22.74,47.97,22.74,66.06c0,0-12.2,6.31-19.36,2.1c-13.73-25.73-38.94-85.15-42.92-105.62
							c-7.15,18.09-10.1,37.03-10.1,37.03s5.05,14.31,0,30.72c-5.05,16.41-2.95,36.61-2.95,36.61s-18.63,8-21.1-3.79
							c0.06-36.61-2.22-70.69,3.34-108.14c5.56-37.45,8.08-55.54,8.08-55.54H-3378.55z"/>
						<path class="st29" d="M-3427.42,428.41c3.55-11.91-2.34-25.76-2.34-25.76s4.37-16.04,6.8-28.92
							c2.43-12.88,2.8-39.61,2.8-39.61s2.79,20.41,6.52,32.4c-7.15,18.09-10.1,37.03-10.1,37.03s5.05,14.31,0,30.72
							c-5.05,16.41-2.95,36.61-2.95,36.61s-1.52,0.65-3.76,1.31C-3435.91,459.85-3430.83,439.87-3427.42,428.41z"/>
						<path class="st5" d="M-3396.19,319.75h0.37c0,0.16,0.11,15.7,9.54,20.28c0.11-9.59-0.06-18.84-0.63-23.78l0.37-0.04
							c0.98,8.53,0.78,29.88,0,43.7c-0.78,13.81,1.89,38.16,6.51,48.85c0.53,1.23,1.22,2.8,2.03,4.63
							c6.66,15.09,20.52,46.49,20.07,59.21l-0.37-0.01c0.45-12.64-13.39-43.98-20.04-59.05c-0.81-1.84-1.5-3.41-2.03-4.63
							c-4.64-10.74-7.32-35.17-6.54-49.02c0.32-5.68,0.54-12.64,0.62-19.45C-3396.08,335.86-3396.19,319.91-3396.19,319.75z"/>
					</g>
					<g>
						<path class="st29" d="M-3444.68,305.49c-0.51,3.15,0.85,6.31,3.49,8.1c6.58,4.45,18.45,9.42,30.55,9.42
							c15.54,0,40.11-6.46,40.52-9.05c0.41-2.59-5.22-20.83-8.08-33.24c8.31-10.63,16.08-25.08,12.27-39.66
							s-14.85-20.44-21.67-21.94l-14.58,2.32c0,0-18.12,2.85-26.17,16.11C-3435.04,248.56-3442.39,291.35-3444.68,305.49z"/>
						<path class="st30" d="M-3425.83,290.09c21.74,9.29,39.5,1.2,47.63-9.37l1.65,6.72
							C-3376.54,287.45-3401.8,309.5-3425.83,290.09z"/>
						<path class="st5" d="M-3415.68,273.24c10.54,0,19.58-3.32,28.25-22.99l-0.34-0.15c-9.77,22.18-20,23.37-32.37,22.61
							l-0.02,0.37C-3418.64,273.17-3417.14,273.24-3415.68,273.24z"/>
					</g>
				</g>
				<g>
					<g>
						<path class="st22" d="M-3407.09,185.11c-5.32,6.81-9.27,22.35,0,28.21c8.44,5.33,17.44-0.55,20.58-4.36
							c2.45,2.73,8.59-1.36,7.9-5.18c-0.68-3.82-3.82-3.95-5.59-1.77c-1.5-0.68-1.91-3.82-1.5-5.72c0.41-1.91,0.55-3.82,0-4.91
							c0,0-0.68-1.91-3.54-2.04c-2.86-0.14-5.38-0.14-6.37-2.59c-0.99-2.45-3.44-2.59-4.81-1.64S-3404.91,187.84-3407.09,185.11z"/>
						<path class="st15" d="M-3384.19,202.01c-1.5-0.68-1.91-3.82-1.5-5.72c0.41-1.91,0.54-3.82,0-4.91c0,0-0.68-1.91-3.54-2.04
							c-2.86-0.14-5.38-0.14-6.37-2.59c-0.99-2.45-3.44-2.59-4.81-1.64c-1.36,0.95-4.5,2.73-6.68,0
							c-2.18-3.27-5.31-11.86-1.36-17.04c3.95-5.18,11.18-4.5,12.85,0c1.67,4.5,4.32,5.59,6.91,6.41
							c5.28,1.67,11.86,5.32,12.54,11.45c4.01,2.63,3.98,12.62-2.61,17.19C-3379.67,199.96-3382.53,199.97-3384.19,202.01z"/>
						<path class="st22" d="M-3391.88,212.98c-1.07,2.54,1.42,8.01,4.28,10.28c-1.91,4.31-11.18,6.03-14.58,1.83
							c2.32-6.46,2.26-9.59-0.47-12.07C-3405.38,210.54-3391.88,212.98-3391.88,212.98z"/>
						<path class="st23" d="M-3391.89,216.19c-1.77,1.6-5.79,3.96-8.87,4c0.37-1.96,0.32-3.49-0.18-4.77
							c3.27,0.27,6.39-0.69,8.96-2.09C-3392.21,214.11-3392.15,215.11-3391.89,216.19z"/>
					</g>
					<path class="st24" d="M-3397.93,167.33c1.49,1.25,1.84,3.09,2.58,4.79c1.07,2.45,3.28,3.02,5.61,3.82
						c4.13,1.42,7.87,3.36,10.69,6.76c0.34,0.41-0.24,1-0.6,0.59c-3.29-3.76-8.11-5.02-12.62-6.64c-1.62-0.58-3.07-1.4-3.97-2.92
						c-1.05-1.77-1.2-3.9-2.71-5.4C-3399.62,167.67-3398.62,166.75-3397.93,167.33z M-3378.73,198.55
						c3.09-2.62,4.03-6.92,2.45-10.63c-0.21-0.49-1.05-0.15-0.87,0.34c1.28,3.38,0.31,7.07-2.48,9.38
						C-3380.26,198.16-3379.36,199.08-3378.73,198.55z"/>
				</g>
			</g>
			
				<linearGradient id="SVGID_00000047025767377631828890000011299177618643642506_" gradientUnits="userSpaceOnUse" x1="4507.0278" y1="227.2628" x2="4507.0278" y2="290.0155" gradientTransform="matrix(-1 0 0 1 1031.4396 0)">
				<stop  offset="0" style="stop-color:#C27926"/>
				<stop  offset="1" style="stop-color:#DC8F2A"/>
			</linearGradient>
			<polygon style="fill:url(#SVGID_00000047025767377631828890000011299177618643642506_);" points="-3524.51,296.88 
				-3426.67,296.88 -3426.67,219.12 -3524.51,219.12 			"/>
			<path class="st22" d="M-3464.17,275.42c2.52,1.74,14.52,6.08,14.52,6.08s13.41,6.39,23.83,8.6c5.21-3.63,5.68-12.78,5.68-17.2
				c0,0-17.99-0.63-21.3-1.26c-3.31-0.63-4.73-15.15-6-16.57c-1.26-1.42-2.68,0-2.52,3.16c0.16,3.16-0.16,5.68-1.58,5.68
				s-10.1-13.73-11.36-13.73c-1.26,0,0.79,5.84,3,9.94c2.21,4.1-8.84-5.21-10.1-3.94c-1.26,1.26,8.21,7.1,7.42,8.21
				c-0.79,1.1-12.39-3.49-12.15-2.05c0.47,2.84,11.05,4.58,10.1,6.63c-0.95,2.05-11.05-1.1-10.73,1.18
				C-3475.06,272.42-3464.17,275.42-3464.17,275.42z"/>
			<g>
				<path class="st22" d="M-3517.77,260.06c2.1-2.52,4.42-11.99,5.05-14.31s2.31,0,2.74,2.31c0.42,2.31-0.84,5.05,2.1,5.89
					s13.04-11.15,14.52-10.1c1.47,1.05-8.84,10.94-8,11.99c0.84,1.05,14.31-7.57,15.78-5.68c1.47,1.89-14.1,8.42-13.47,9.89
					c0.63,1.47,13.03-4.12,13.56-2.06c0.53,2.06-12.3,5-12.3,6.27c0,1.26,10.52,1.31,10.52,2.76s-11.36,1.45-11.36,1.45
					s-8.21,7.1-17.67,1.66l-6.73,5.5l-4.63-12.41L-3517.77,260.06z"/>
				<g>
					<g>
						<path class="st15" d="M-3582.57,187.47c2.04,7.06-2.1,14.94-8.42,17.04c-6.31,2.1-20.83,20.62,5.68,34.72
							c10.94-4.63,49.86-11.99,49.86-11.99c7.36-8.63-3.58-15.36-0.21-25.25c1.16-3.41,7.15-6.31,5.68-14.1
							c-1.06-5.62-7.64-6.18-6.94-9.05c1.06-4.37,1.68-10.58-4.1-10.45c-5.78,0.14-1.19-6.35-9.43-9.46
							c-7.52-2.84-14.62,0.64-17.91,4.51c-3.17,3.73-4.66,8.33-9.25,9.54C-3582.2,174.21-3585.11,178.71-3582.57,187.47z"/>
						<path class="st24" d="M-3552.64,160.48c1.75,0.3,3.32,0.79,4.44,2.25c1.27,1.68,1.88,6.14,4.34,6.33
							c0.42,0.03,0.54,0.68,0.08,0.76c-1.9,0.33-2.94-1.11-3.6-2.71c-0.47-1.16-0.95-2.34-1.67-3.37c-0.98-1.39-2.37-1.71-3.94-2.04
							C-3553.8,161.53-3553.43,160.34-3552.64,160.48z M-3539.01,180.13c0.15,0.52,0.87,0.32,0.8-0.19c-0.35-2.6,2-5.09,0.15-7.52
							c-0.43-0.57-1.36,0.15-1,0.74C-3537.75,175.27-3539.68,177.81-3539.01,180.13z M-3536.96,215.09c0.39,0.53,1.16,0.12,0.9-0.5
							c-2.08-4.9-2.69-9.9,0.19-14.67c2.15-3.55,5.35-7.31,3.48-11.69c-0.35-0.83-1.78-0.26-1.48,0.58
							c1.84,5.17-3.62,9.36-4.86,14.07C-3539.77,206.83-3539.47,211.72-3536.96,215.09z M-3564.32,178
							c4.81,1.97,8.31-3.2,12.45-4.53c0.46-0.15,0.3-0.84-0.18-0.73c-4.11,0.9-7.44,5.6-11.92,4.02
							C-3564.76,176.47-3565.08,177.69-3564.32,178z"/>
					</g>
					<path class="st50" d="M-3594.47,334.14c-0.96,2.02,8.29,9.37,15.65,10.82c1.34-3.23-0.89-13.71-0.89-13.71
						S-3592.52,330.01-3594.47,334.14z"/>
					<g>
						<g>
							<path class="st22" d="M-3524.5,431.89c0,0-3.79,31.38-1.87,39.53c7.34,8.77,20.95,8.77,22.09,15.98
								c-18.49,0-39.78-1.88-39.78-1.88s-2.85-8.77,3.27-16.29c1.13-23.19-1.43-45.67-1.43-45.67L-3524.5,431.89z"/>
							<path class="st27" d="M-3504.28,487.39c0,0,1.24-4.23-4.12-6.68c-5.37-2.45-13.81-6.77-15.05-8.12
								c-1.25-1.35-2.39-2.38-5.37-0.6c-2.98,1.79,0.3,6.99-3.28,7.22c-2.43,0.16-5.37-0.24-8.21-1.08
								c-1.34-0.4-1.64-3.26-3.24-4.12c-1.49,3.1-1.87,9.37-0.5,11.5C-3535.83,487.39-3504.28,487.39-3504.28,487.39z"/>
						</g>
						<g>
							<path class="st22" d="M-3570.87,432.95c0,0-12.22,30.01-11.59,38.15c5.95,8.77,21.62,9.09,21.62,16.29
								c-18.49,0-39.48-1.88-39.48-1.88s-1.46-8.77,5.85-16.29c4.8-23.19,5.12-45.67,5.12-45.67L-3570.87,432.95z"/>
							<path class="st27" d="M-3560.39,487.89c0,0,1.24-4.23-4.12-6.68c-5.37-2.45-13.81-6.77-15.05-8.12
								c-1.25-1.35-2.39-2.38-5.37-0.6c-2.98,1.79,0.3,6.99-3.28,7.22c-2.43,0.16-5.37-0.24-8.21-1.08
								c-1.34-0.4-1.64-3.26-3.24-4.12c-1.49,3.1-1.87,9.37-0.5,11.5C-3591.94,487.89-3560.39,487.89-3560.39,487.89z"/>
						</g>
						<g>
							<path class="st28" d="M-3524.31,435.78c0-0.1-0.89,8.49-0.89,8.49s-3.12,1.5-8,1.5c-4.87,0-8.06-1.31-8.06-1.31l-0.45-8.23
								L-3524.31,435.78z"/>
							<path class="st28" d="M-3570.62,434.25l-3.84,8.31c0,0-11.88,3.05-16.52-5.11c0.28-4.82,0.88-9.98,0.88-9.98L-3570.62,434.25
								z"/>
							<path class="st29" d="M-3523.24,331.43c2.64,11.14,5,66.16,2.47,98.61c-0.32,4.09-3.48,7.39-7.55,7.87
								c-4.1,0.48-8.06,0.31-11.29-0.06c-4.42-0.51-7.77-4.24-7.84-8.69c-0.24-15.12-1.08-49.44-3.99-58.88
								c-4.31,20.63-10.75,46.02-13.98,58.48c-1.25,4.81-5.88,7.95-10.8,7.29c-3.52-0.47-7.62-1.44-11.32-3.37
								c-4.3-2.24-6.57-7.06-5.66-11.81c5.44-28.25,11.3-83.68,10.43-94.14C-3557.71,323.28-3523.24,331.43-3523.24,331.43z"/>
							<path class="st30" d="M-3545.54,372.45c0.68,12.68,1.69,28.75,1.86,36.36c0.14,6.49-0.94,21.2-0.42,27.17
								c-2.02-1.61-3.31-4.08-3.35-6.82c-0.24-15.12-1.08-49.44-3.99-58.88c1.5-6.63,4.04-25.32,4.04-25.32
								S-3546.22,359.76-3545.54,372.45z"/>
							<path class="st5" d="M-3589.75,423.68c0.53-1.46,1.18-3.28,1.85-6.04l0.18-0.73c2.14-8.78,8.64-35.49,9.14-49.89
								c0.51-14.69,1.57-34.53,1.58-34.72l0.37,0.02c-0.01,0.14-0.54,9.97-1.02,20.89c3.57-1.16,7.44-11.68,7.44-18.32h0.37
								c0,6.35-3.77,17.62-7.83,18.71c-0.2,4.51-0.4,9.19-0.54,13.43c-0.5,14.43-7.01,41.17-9.15,49.96l-0.18,0.73
								c-0.68,2.78-1.33,4.61-1.86,6.08c-0.88,2.43-1.36,3.78-0.84,6.67l-0.36,0.07C-3591.14,427.55-3590.65,426.17-3589.75,423.68z
								"/>
						</g>
					</g>
					<path class="st27" d="M-3524.51,260.32c0,0,3.16,6.69,3.79,17.42l-2.74,2.95c0,0,5.61,27.02,7.43,44.58
						c0.55,5.27-2.94,10.1-8.1,11.26c-21.67,4.85-39.67,0.52-47.3-1.34c-8.63-2.1-19.15-4.63-23.35-2.1
						c3.79-13.04,8.63-40.82,7.15-50.07c-5.68-3.58-8.84-21.46-5.26-33.87c3.58-12.41,10.31-18.09,17.25-21.46
						c6.94-3.37,20.62-9.08,30.72-8.54c10.1,0.54,20.41,7.81,20.41,7.81V260.32z"/>
					<g>
						<path class="st22" d="M-3549.54,204.52c-1.77,3.02-1.47,12.62,4,16.83c-6.73,6.31-15.61,0.48-15.61,0.48s5.3-8.27,1.3-17.31
							C-3555.43,202.41-3549.54,204.52-3549.54,204.52z"/>
						<path class="st23" d="M-3550.28,212.33c-2.71,1.16-5.59,1.08-8.09-0.31c0.05-2.31-0.32-4.88-1.49-7.51
							c4.42-2.1,10.31,0,10.31,0C-3550.41,206-3550.78,209.08-3550.28,212.33z"/>
						<path class="st22" d="M-3574.89,193.94c-0.35,2.57,1.75,5.84,4.51,4.27c2.1,6.1,14.52,14.1,23.99,6.94
							c9.47-7.15,4.42-23.14,0-27.98c0,0-4.39-3.47-6.96-1.02c-2.57,2.45-5.25,4.2-8.52,3.15s-6.3,3.39-5.95,5.14
							c0.35,1.75,1.05,8.52-1.75,9.45c-0.24-0.31-0.45-0.62-0.63-0.9C-3571.48,191.06-3574.57,191.65-3574.89,193.94z"/>
					</g>
					<path class="st5" d="M-3572.85,251.84c0,5.78,4.15,13.43,10.85,15.74c8.1,2.78,27.97-2.48,37.31-6.06v0.4
						c-7.57,2.88-21.83,6.81-31.38,6.81c-2.36,0-4.43-0.24-6.05-0.79c-6.86-2.35-11.1-10.18-11.1-16.09H-3572.85z"/>
					<path class="st50" d="M-3523.66,282.13c-4.85,3.72-41.49,19.48-63.71,2.3c0.24,2.85,0.25,5.55,0.25,5.55
						c9.32,5.97,19.97,8.24,35.67,5.41C-3537.74,292.92-3525.76,284.01-3523.66,282.13z"/>
				</g>
			</g>
			
				<rect x="-3527.66" y="216.75" transform="matrix(-1 -1.224647e-16 1.224647e-16 -1 -6951.1768 447.2618)" class="st34" width="104.15" height="13.75"/>
		</g>
	</g>
</g>
</svg>
