<?xml version="1.0" encoding="utf-8"?>
<!-- Generator: Adobe Illustrator 25.4.1, SVG Export Plug-In . SVG Version: 6.00 Build 0)  -->
<svg version="1.1" id="Layer_1" xmlns="http://www.w3.org/2000/svg" xmlns:xlink="http://www.w3.org/1999/xlink" x="0px" y="0px"
	 viewBox="0 0 1000 771.3" style="enable-background:new 0 0 1000 771.3;" xml:space="preserve">
<style type="text/css">
	.st0{fill:#F5F5F5;}
	.st1{fill:#DDDDDD;}
	.st2{fill:#E95374;}
	.st3{fill:#FED06E;}
	.st4{fill:#082947;}
	.st5{fill:#F5AB74;}
	.st6{fill:#050505;}
	.st7{fill:#AA435E;}
	.st8{fill:#F5B327;}
	.st9{fill:url(#SVGID_1_);}
	.st10{fill:#FE7D7C;}
	.st11{fill:#7F4E2D;}
	.st12{fill:#D68F3A;}
	.st13{fill:#FECD6C;}
	.st14{fill:#F6A740;}
	.st15{fill:#BD4262;}
	.st16{fill:#963956;}
</style>
<g>
	<g>
		<g>
			
				<image style="overflow:visible;" width="3376" height="3766" xlink:href="82526E2E.png"  transform="matrix(0.24 0 0 0.24 146.4685 -72.0643)">
			</image>
		</g>
		<path class="st0" d="M302.3,0c-39.4,0-71.3,31.9-71.3,71.3v624.8c0,12.8,10.4,23.2,23.2,23.2h504.9c12.8,0,23.2-10.4,23.2-23.2
			V71.3c0-39.4,31.9-71.3,71.3-71.3H302.3z"/>
	</g>
	<rect x="269.4" y="169.2" class="st1" width="465.8" height="36.8"/>
	<rect x="268.3" y="235.4" class="st1" width="465.8" height="36.8"/>
	<rect x="268.3" y="302.2" class="st1" width="465.8" height="36.8"/>
	<rect x="269.4" y="366.2" class="st1" width="465.8" height="36.8"/>
	<rect x="269.4" y="433" class="st1" width="465.8" height="36.8"/>
	<rect x="409.9" y="633.7" class="st2" width="184.8" height="51.8"/>
	<g>
		<path class="st3" d="M629.8,537.1c0,2.4-1.9,4.3-4.3,4.3H348.1c-2.4,0-4.3-1.9-4.3-4.3v-6.5c0-2.4,1.9-4.3,4.3-4.3h277.4
			c2.4,0,4.3,2,4.3,4.3V537.1z"/>
		<path class="st3" d="M675.2,565.3c0,2.4-1.9,4.3-4.3,4.3H348.1c-2.4,0-4.3-1.9-4.3-4.3v-6.5c0-2.4,1.9-4.3,4.3-4.3h322.8
			c2.4,0,4.3,1.9,4.3,4.3V565.3z"/>
		<path class="st3" d="M508.3,593.5c0,2.4-2,4.3-4.3,4.3H348.1c-2.4,0-4.3-1.9-4.3-4.3V587c0-2.4,1.9-4.3,4.3-4.3H504
			c2.4,0,4.3,1.9,4.3,4.3V593.5z"/>
	</g>
</g>
<g>
	<path class="st4" d="M308.5,315.8c0,0,16.1-18.1,28.1-49.5c12-31.4,6.2-75.8-17.8-81.6c-24-5.8-57.6,9.4-60.9,39.8
		c-3.2,30.4,0,32.4,0,32.4s-52.2-5.5-83.1,42.9c-30.9,48.3-13.9,72.6-13.9,72.6s-64.5,42-51.9,113.3c12.6,71.3,134,74.2,171.9-22
		C318.7,367.7,287.9,348.2,308.5,315.8z"/>
	<g>
		<path class="st5" d="M402.9,324.2c58.2-20.2,105.7-47.5,105.7-47.5l10,5.2c0,0-50.6,38.6-108.2,63.3c0,0-7,2.6-11.5-7.7
			c-4.2-9.7,3.4-13.1,3.4-13.1C402.5,324.3,402.7,324.3,402.9,324.2z"/>
		<path class="st5" d="M301.1,286.5c0,0,48.1,22.9,107.8,37.1c0,0,9.7,2.8,7.6,13.1c-2.2,10.9-11.9,8.8-11.9,8.8
			c-0.2,0-0.5-0.1-0.7-0.1c-57.1-9.2-108.1-31.8-113-42.7C286,291.8,292.9,283.8,301.1,286.5z"/>
		<path class="st2" d="M358.6,300.5l-9.1,41.1c0,0-47.5-12.3-65.1-25c-17.6-12.7-4.6-54.9,21.7-39.6
			C333.9,293.2,358.6,300.5,358.6,300.5z"/>
	</g>
	<g>
		<path class="st6" d="M381.1,749.5c0,0-2.2,19.7,10,19.7c13.9,0,47.5,3.6,47.5-1.6c0-10.8-18.5-16.6-31.3-20.1
			C394.5,743.9,382.2,740.2,381.1,749.5z"/>
		<g>
			<g>
				<path class="st5" d="M385.6,751.4c-6-22.8-18.3-60.2-18.4-60.6l11-3.8c0.5,1.5,12.5,36.2,18.6,59.5c0,0,38.9,10.6,33.5,13.7
					C424.9,763.4,385.6,751.4,385.6,751.4z"/>
			</g>
		</g>
	</g>
	<g>
		<path class="st6" d="M18.6,634.1c0,0-12.2-2.4-14,9.7c-1.8,12.1-5.1,46.6,2,48.6c5.3,1.4,11.8-18.5,15.1-31.4
			C25,648,28,634.9,18.6,634.1z"/>
		<g>
			<g>
				<path class="st5" d="M16.1,637.3c21.2-10.4,55.3-30,55.7-30.2l6,10c-1.3,0.8-32.9,19.5-54.5,30.1c0,0-7.8,35-11.4,35
					C8.7,682.3,16.1,637.3,16.1,637.3z"/>
			</g>
		</g>
	</g>
	<g>
		<g>
			<path class="st4" d="M325.7,440.6c18.2-33-47.9-49.8-67.6-23.7c-13.6,18-43.4,78.5-64.1,120.9l24.5,29.7
				C237.9,560.1,325.7,440.6,325.7,440.6z"/>
			<path class="st4" d="M185.8,580.6c10.6-4.1,21.6-8.6,32.6-13.1l-18-42.6c-8.9,6.6-17,12.3-23.6,16.6
				c-27.2,17.4-109.6,55.7-112,64.1c-2.4,8.3,7.3,24.3,9.7,23.9C76.9,629,125.9,604.2,185.8,580.6z"/>
		</g>
	</g>
	<path class="st7" d="M289.5,264.9c0,0,21,9.3,24.2,13.4c12.6,16,24.4,81.1,31,136.5c6.1,50.6,1.9,70.8,1.9,70.8
		s-17.5,25.3-86.4,15.9c-65.8-9-64.1-32.3-64.1-32.3L289.5,264.9z"/>
	<path class="st4" d="M329.5,436.3c0,0,27.5,102.6,40.1,165.7c12.6,63.1,19.9,92.8,19.9,95.2c0,2.4-17.5,9.2-25.3,5.3
		c-7.8-3.9-32.6-97.1-34.8-98.6c-2.1-1.5-74.1-146.2-77-173.9C249.5,402.4,316.6,403,329.5,436.3z"/>
	<path class="st0" d="M306.6,275.1c0,0,11,4.3,13.6,44.4c2.6,40.1,7.1,80.3,10.4,111.4c1.5,14.8-30.8,22.3-58.4,11.6
		c-14.2-5.5-25.9-16.4-25.1-22.7c3.9-33,25.3-148.9,42.4-154.8C306.6,259.3,306.6,275.1,306.6,275.1z"/>
	<path class="st2" d="M289.5,264.9c0,0-12.7-1.4-18.6,20.9c-5.8,22.3-39.3,82.1-70.4,114.6c-31.1,32.5-38.8,40.4-38.8,40.4
		s8.9,36.4,60.4,64c37.9,20.4,64.4,11.6,64.4,11.6s13.6-100.8,19.4-169.5c5.8-68.6,7.6-66,0.6-71.9
		C299.6,269.3,289.5,264.9,289.5,264.9z"/>
	<path class="st5" d="M335.4,210c0,0,7.8,35-2.9,49.2c-10.7,14.2-24.9-2.3-25.9,0c-1,2.3,0,13.6,0,15.9c0,2.3-17.2-4.9-17.2-8.1
		c0-3.2,2.6-24.2,2.6-24.2S314.6,233.3,335.4,210z"/>
	<g>
		<path class="st5" d="M183.1,248.4c-2.9-61.6,5.3-119.4,5.3-119.4l-9-3.7c0,0-17,61.4-18.6,123.9c0,0,0.2,7.5,11.4,7.8
			c10.6,0.3,10.9-8,10.9-8C183.1,248.8,183.1,248.6,183.1,248.4z"/>
		<path class="st5" d="M282.4,280.3c0,0-51.2-14.6-105.4-43.6c0,0-9.1-4.3-14.4,4.8c-5.6,9.7,3.1,14.5,3.1,14.5
			c0.2,0.1,0.4,0.3,0.6,0.4c48.9,30.8,102.1,47.6,113,42.7C290.3,294.2,290.4,283.7,282.4,280.3z"/>
		<path class="st2" d="M230.1,252.8l-20.4,36.9c0,0,43.7,22.2,65.4,24.3c21.6,2.1,39.2-35.5,9.9-44.1
			C253.8,260.8,230.1,252.8,230.1,252.8z"/>
		<path class="st5" d="M174.1,118.2c0,0-2.9,8.4,4.2,11.4c7.1,3,9.6,3.3,9.6,3.3s2.9,0,5.1-1.1c2.3-1.1,2.8-3.5,2.8-3.5L174.1,118.2
			z"/>
	</g>
	<path class="st5" d="M503,270.5c0,0-2.9,8.4,4.2,11.4c7.1,3,9.6,3.3,9.6,3.3s2.9,0,5.1-1.1c2.3-1.1,2.8-3.5,2.8-3.5L503,270.5z"/>
	<path class="st7" d="M262.6,452.1l-13.2,15.6c-2.5-0.3-8.8-1.4-16.8-5.7c-10.8-5.9-16.6-12.1-18.6-14.6l9.8-17.1l-15.4,16.5l0,1.5
		l0.4,0.7c0.2,0.4,6,9.2,21.4,17.5c11.6,6.3,20.1,6.4,20.4,6.4h0.7l1.1-0.6L262.6,452.1z"/>
	<g>
		<polygon class="st3" points="536.8,286.2 143.8,104.4 156.6,76.8 549.5,258.7 578.4,287.8 		"/>
		<polygon class="st8" points="563.4,287.2 578.4,287.8 567.8,277.2 		"/>
		<linearGradient id="SVGID_1_" gradientUnits="userSpaceOnUse" x1="-266.9849" y1="-107.1893" x2="645.9773" y2="323.3839">
			<stop  offset="0" style="stop-color:#F5B327"/>
			<stop  offset="0.1149" style="stop-color:#F6B938"/>
			<stop  offset="0.3427" style="stop-color:#F8C964"/>
			<stop  offset="0.662" style="stop-color:#FBE2AC"/>
			<stop  offset="1" style="stop-color:#FFFFFF"/>
		</linearGradient>
		<polygon class="st9" points="147.7,96 540.7,277.8 545.1,268.2 152.2,86.4 		"/>
		<polygon class="st10" points="155.1,76.2 130.5,63.9 117.8,92.8 142.8,104.4 		"/>
		<polygon class="st8" points="160.8,76.9 150.4,71.6 136.5,103.3 147,108.2 		"/>
	</g>
	<path class="st5" d="M191.5,126.3c-0.4-3.1,5.9-10.9,0.4-14.3c-5.5-3.4-13-7.6-14.6-4c-1.6,3.6-5,11.6-3.9,16.1
		c1.1,4.5,14.9,4.5,14.9,4.5L191.5,126.3z"/>
</g>
<path class="st11" d="M685.8,438.5c-0.1,0.4-10.6,5.3-15.6,6.9c-4.5,1.4-5.9-2.2-1.7-7.8c4.7-6.2,11.9-8.2,17.2-11.5
	C690.9,422.9,686.6,436.6,685.8,438.5z"/>
<g>
	<path class="st11" d="M948.7,427.4c0.2,0.3-2.1,14.5-5,18.9c-3,4.4-6.7,1.4-6.7-5.5c0-6.9,1.1-13.2,1-19.4
		C937.8,415.1,947.5,425.8,948.7,427.4z"/>
	<path d="M781.7,224.7c0,0-19.5-7.3-17.5-40c2-32.7,58.1-38.4,74.4-10.2c16.3,28.2-9,45.3-3.1,57.7c6.2,12.9-20.9,23.3-31.6-1.3
		C793.2,206.2,781.7,224.7,781.7,224.7z"/>
	<path class="st12" d="M683.9,427l2.9,12.8c0,0,169.5-52.1,116.6-174.1c-8.9-20.6-52.1,2.8-37.5,30.6C804.1,369,683.9,427,683.9,427
		z"/>
	<g>
		<path class="st11" d="M706.2,748.8c6.6-23.5,17-53.5,17.4-54.9l11.4,3.9c-0.1,0.3-9.3,28.1-15.8,50.9H706.2z"/>
		<path class="st6" d="M723.4,744.2c-2.2-1.8-30.6,6.1-47.4,10.2c-16.8,4.1-20.9,15,0.9,15c21.8,0,36.2,0,36.2,0s6.1,1,8.9-6.1
			C724.2,758,725.4,745.8,723.4,744.2z"/>
	</g>
	<g>
		<path class="st11" d="M974.6,743.2c-14.9-19.3-32.8-45.5-33.7-46.7l9.9-6.8c0.2,0.3,17.1,24.2,31.5,43.1L974.6,743.2z"/>
		<path class="st6" d="M981.2,726.6c-2.1,0.5-12.8,26-12.8,26s-1.8,0.8-8.8,1.8c-16.9,3.8-21.2,14.5,0.6,15c4.3,0.1,20,0.5,22.2-2.5
			c9-12,12.9-17,12.9-17s4.5-4.3,0.5-10.8C992.8,734.2,983.7,726,981.2,726.6z"/>
	</g>
	<path class="st4" d="M761.9,440.5c-4.4,32.6-56.9,289.1-56.9,289.1s20.6,0.7,25.2-1.3c4.6-2,54.6-120.9,77.1-195.5
		c22.5-74.6,33.7-106.3,13.9-122.2C801.4,394.8,766.1,409.2,761.9,440.5z"/>
	<g>
		<g>
			<path class="st4" d="M955.8,728.4c0,0,13.1-15.9,14.4-20.8c1.1-4.1-43.5-83.7-84.6-146.6c0,0-16.8-15.7-37.8,1.5
				c-19.6,16-5.6,34.8-5.6,34.8C895.8,658.9,955.8,728.4,955.8,728.4z"/>
			<path class="st4" d="M866.9,416.8c0,0-68,2.2-59.4,32.6c3.6,12.9,18.9,84.4,30.8,139.4c0,0,4.6,21.4,28.7,16.9
				c28.2-5.3,26.8-27.6,26.8-27.6c-1.1-14.4-2.3-28.3-3.8-40.8C881,459.8,866.9,416.8,866.9,416.8z"/>
		</g>
	</g>
	<path class="st13" d="M826.2,258.9c20.5,1.5,26.1,5.2,29.8,23.5c3.6,18.2,19.4,152.9,19.4,152.9s-19.3,18.5-66.4,18.4
		c-47.1-0.2-49.3-17.6-49.3-17.6s9.5-119,12.6-143.3c2.7-21,7.3-34.4,32.3-35.9C818.6,255.9,826.2,258.9,826.2,258.9z"/>
	<path class="st11" d="M777.3,199.2c0,0-2.8,36.3,5.4,43.6c8.3,7.3,21.8,0,21.8,0s0.3,11.4,0,14c-0.3,2.6-27.5,28.8-7.8,31.1
		c19.7,2.3,29.6-27.2,29.6-27.2l-4.1-47.7c0,0,8.3-8.2,3.4-15.3c-4.9-7.1-12.1,5.1-12.1,5.1l0.4-19.8
		C813.9,182.9,789.5,200.9,777.3,199.2z"/>
	<path class="st14" d="M831.7,257.8c0,0-13.7,26.7-17.2,48.1c-6.7,41-23.8,179.3-21.8,183.3c2,4,33.8,7.9,61.4,0
		c27.6-7.9,30.4-26.4,30.4-26.4s-24.4-166.7-27.3-183.4C854.4,262.7,848.6,258.3,831.7,257.8z"/>
	<path class="st14" d="M798.7,256.5c0,0-12.8,14.1-20,44.5c-7.3,30.4-9.3,94.1-14.6,124.2c-5.3,30.1-6.8,43.9-7,41.8
		c-1-11.4-0.4-17.6,2.5-56.7c3-39.2,9.8-115.1,13.7-135C777.3,255.4,790.1,257.4,798.7,256.5z"/>
	<path class="st14" d="M936.4,429.1l12.9,2.5c0,0,19.2-93.7,5-119.6c-11.8-21.5-36.7-50.4-110.6-52.8c-11.2-0.4-18.3,43.3,12.9,46.7
		c44.9,4.8,51.3,7.8,64.4,19.8C940.1,343.2,936.4,429.1,936.4,429.1z"/>
	<path class="st13" d="M722.2,422c-30.7,0-55.5,24.8-55.5,55.5s24.9,55.5,55.5,55.5h59.4V422H722.2z"/>
	<rect x="727.5" y="422" class="st12" width="54.1" height="111"/>
	<rect x="739.2" y="422" class="st15" width="196.8" height="111"/>
	<rect x="739.2" y="458.6" class="st16" width="196.8" height="37.9"/>
	<path class="st11" d="M934,429c0,0,9.2,0,9.6,8c0.5,8-0.1,10.5-0.1,10.5s-1,2.8-2.8,4.6c-1.8,1.8-4.4,1.5-4.4,1.5L934,429z"/>
	<path class="st11" d="M935.8,448.8c-2.9-1.4-12.7,2-14.1-4.5c-1.4-6.5-3-15.2,1.1-15.6c4-0.3,13-0.8,17,1.8c4,2.6-0.8,16-0.8,16
		L935.8,448.8z"/>
</g>
<path class="st11" d="M670.9,434.9c-6.6,7.6-13.2,15.9-14.2,22.4c-1.1,6.5,0.9,11.9,4.2,4.1c3.3-7.8,7.3-13.1,8.5-12.5
	c1.2,0.5,2.3,4.4,4.3,3.5c2.3-1-0.7-8.3,1.4-12.3C677.1,436.1,670.9,434.9,670.9,434.9z"/>
<g>
	<path class="st2" d="M351.6,105.6l8.6,2.7c-1.3,4.8-3.5,8.3-6.6,10.7c-3.1,2.3-6.9,3.5-11.7,3.5c-5.8,0-10.6-2-14.4-6
		c-3.8-4-5.6-9.4-5.6-16.3c0-7.3,1.9-13,5.7-17c3.8-4,8.7-6.1,14.9-6.1c5.4,0,9.7,1.6,13.1,4.8c2,1.9,3.5,4.6,4.5,8.1l-8.8,2.1
		c-0.5-2.3-1.6-4.1-3.2-5.4c-1.6-1.3-3.6-2-6-2c-3.3,0-5.9,1.2-7.9,3.5c-2,2.3-3,6.1-3,11.3c0,5.5,1,9.5,3,11.9
		c2,2.4,4.6,3.5,7.8,3.5c2.4,0,4.4-0.7,6.1-2.2C349.6,111.1,350.8,108.8,351.6,105.6z"/>
	<path class="st2" d="M407.3,121.7h-9.6l-3.8-10h-17.5l-3.6,10h-9.4l17.1-43.9h9.4L407.3,121.7z M391,104.3l-6-16.3l-5.9,16.3H391z"
		/>
	<path class="st2" d="M411.9,121.7V77.8h13.3l8,29.9l7.9-29.9h13.3v43.9H446V87.2l-8.7,34.5h-8.5l-8.7-34.5v34.5H411.9z"/>
	<path class="st2" d="M463.1,121.7V77.8h14.2c5.4,0,8.9,0.2,10.5,0.7c2.5,0.7,4.6,2.1,6.3,4.3c1.7,2.2,2.5,5.1,2.5,8.5
		c0,2.7-0.5,5-1.5,6.8c-1,1.8-2.2,3.3-3.7,4.3c-1.5,1-3,1.7-4.6,2.1c-2.1,0.4-5.2,0.6-9.2,0.6h-5.8v16.6H463.1z M471.9,85.2v12.5
		h4.8c3.5,0,5.8-0.2,7-0.7c1.2-0.5,2.1-1.2,2.8-2.2c0.7-1,1-2.1,1-3.4c0-1.6-0.5-2.9-1.4-4c-0.9-1-2.1-1.7-3.6-1.9
		c-1.1-0.2-3.2-0.3-6.4-0.3H471.9z"/>
	<path class="st2" d="M539,121.7h-9.6l-3.8-10H508l-3.6,10h-9.4L512,77.8h9.4L539,121.7z M522.7,104.3l-6-16.3l-5.9,16.3H522.7z"/>
	<path class="st2" d="M543.7,121.7V77.8h8.6l18,29.3V77.8h8.2v43.9h-8.9L552,93.1v28.6H543.7z"/>
	<path class="st2" d="M588,121.7V77.8h8.9v17.3h17.4V77.8h8.9v43.9h-8.9v-19.2h-17.4v19.2H588z"/>
	<path class="st2" d="M671.7,121.7h-9.6l-3.8-10h-17.5l-3.6,10h-9.4l17.1-43.9h9.4L671.7,121.7z M655.4,104.3l-6-16.3l-5.9,16.3
		H655.4z"/>
</g>
</svg>
