<?xml version="1.0" encoding="utf-8"?>
<!-- Generator: Adobe Illustrator 25.4.1, SVG Export Plug-In . SVG Version: 6.00 Build 0)  -->
<svg version="1.1" id="Camada_1" xmlns="http://www.w3.org/2000/svg" xmlns:xlink="http://www.w3.org/1999/xlink" x="0px" y="0px"
	 viewBox="0 0 427 53" style="enable-background:new 0 0 427 53;" xml:space="preserve">
<style type="text/css">
	.st0{fill:#E5E5E5;}
	.st1{fill:#F8B34C;}
	.st2{fill:#FEFEFE;}
	.st3{fill:#E2133A;}
</style>
<ellipse class="st0" cx="213.7" cy="40.2" rx="19.2" ry="3.1"/>
<path class="st1" d="M231.2,12.6c-0.3,0.1-0.6,0.2-0.9,0.2c-10.9,0-21.8,0-32.8,0c-1.1,0-1.6-0.5-1.6-1.6c0-0.5,0-1,0-1.6
	c0.2-1.4,1.3-2.4,2.8-2.4c2.6,0,5.2,0,7.9,0c0.3,0,0.4-0.1,0.4-0.4c0-0.8-0.1-1.6,0.2-2.4c0.6-1.6,2.1-2.7,3.8-2.8
	c1.9,0,3.8,0,5.7,0c2.2,0,4,1.8,4.1,4.1c0,0.4,0,0.7,0,1.1c0,0.3,0.1,0.4,0.4,0.4c2.4,0,4.7,0,7.1,0c1.1,0,2.1,0.1,2.9,0.9
	C231.2,9.6,231.2,11.1,231.2,12.6z"/>
<path class="st1" d="M213.7,15.5c4.5,0,8.9,0,13.4,0c0.4,0,0.4,0.1,0.4,0.4c0,6.7,0,13.4,0,20.1c0,2.6-1.8,4.4-4.4,4.4
	c-6.3,0-12.6,0-18.9,0c-2.6,0-4.4-1.8-4.4-4.4c0-6.7,0-13.4,0-20.1c0-0.4,0.1-0.4,0.4-0.4C204.8,15.5,209.2,15.5,213.7,15.5z"/>
<path class="st2" d="M213.9,7.2c-1.3,0-2.5,0-3.8,0c-0.3,0-0.4-0.1-0.3-0.3c0-0.3,0-0.7,0-1c0-0.8,0.6-1.4,1.4-1.4
	c1.8,0,3.7,0,5.5,0c0.8,0,1.4,0.6,1.4,1.4c0,0.3,0,0.7,0,1c0,0.3-0.1,0.3-0.3,0.3C216.4,7.2,215.1,7.2,213.9,7.2z"/>
<path class="st2" d="M205.6,27.3c0-2.1,0-4.1,0-6.2c0-0.7,0.5-1.3,1.2-1.4c0.7-0.1,1.3,0.4,1.5,1c0,0.1,0,0.3,0,0.4
	c0,4.1,0,8.2,0,12.4c0,0.6-0.3,1.1-0.9,1.3c-0.5,0.2-1.1,0.1-1.5-0.4c-0.3-0.3-0.3-0.6-0.3-1C205.6,31.3,205.6,29.3,205.6,27.3z"/>
<path class="st2" d="M212.5,27.3c0-2.1,0-4.1,0-6.2c0-0.7,0.5-1.3,1.2-1.4c0.7-0.1,1.3,0.4,1.5,1c0,0.1,0,0.2,0,0.3
	c0,4.1,0,8.3,0,12.4c0,0.7-0.5,1.3-1.2,1.4c-0.7,0.1-1.4-0.4-1.5-1.1c0-0.2,0-0.3,0-0.5C212.5,31.3,212.5,29.3,212.5,27.3z"/>
<path class="st2" d="M219.4,27.2c0-2,0-4,0-6c0-0.9,0.6-1.5,1.4-1.5c0.8,0,1.4,0.6,1.4,1.5c0,4,0,8.1,0,12.1c0,0.9-0.6,1.5-1.4,1.5
	c-0.8,0-1.4-0.6-1.4-1.5C219.4,31.3,219.4,29.3,219.4,27.2z"/>
<g>
	<path class="st3" d="M234.4,15.6c6,0,10.9,4.9,10.9,10.9c0,6-4.9,10.9-10.9,10.9c-6,0-10.9-4.9-10.9-10.9
		C223.5,20.5,228.4,15.6,234.4,15.6z"/>
	<path class="st2" d="M229.3,30.1c0-0.4,0.2-0.8,0.5-1.1c0.8-0.8,1.6-1.6,2.4-2.4c0.1-0.1,0.1-0.2,0-0.3c-0.8-0.8-1.6-1.6-2.5-2.5
		c-0.8-0.8-0.5-2.1,0.6-2.4c0.6-0.2,1.1,0,1.5,0.4c0.8,0.8,1.6,1.6,2.4,2.4c0.1,0.1,0.2,0.1,0.3,0c0.8-0.8,1.6-1.6,2.4-2.4
		c0.8-0.8,2.1-0.5,2.4,0.6c0.2,0.6,0,1.1-0.4,1.5c-0.8,0.8-1.6,1.6-2.4,2.4c-0.1,0.1-0.1,0.2,0,0.3c0.8,0.8,1.6,1.6,2.4,2.4
		c0.4,0.4,0.5,0.9,0.4,1.5c-0.2,0.6-0.6,0.9-1.2,1c-0.5,0.1-0.9-0.1-1.3-0.4c-0.8-0.8-1.6-1.6-2.4-2.4c-0.1-0.2-0.2-0.1-0.3,0
		c-0.8,0.8-1.6,1.6-2.4,2.4c-0.8,0.8-2.1,0.5-2.4-0.6C229.4,30.4,229.3,30.3,229.3,30.1z"/>
</g>
</svg>
