<?xml version="1.0" encoding="utf-8"?>
<!-- Generator: Adobe Illustrator 25.4.1, SVG Export Plug-In . SVG Version: 6.00 Build 0)  -->
<svg version="1.1" id="Camada_1" xmlns="http://www.w3.org/2000/svg" xmlns:xlink="http://www.w3.org/1999/xlink" x="0px" y="0px"
	 viewBox="0 0 342.38 94.1" style="enable-background:new 0 0 342.38 94.1;" xml:space="preserve">
<style type="text/css">
	.st0{fill:#F8B34C;}
	.st1{fill:#9C3586;}
	.st2{fill:#202020;}
	.st3{fill:#77666F;}
	.st4{fill:#EA5575;}
	.st5{fill:#FFFFFF;}
	.st6{fill:url(#SVGID_1_);}
</style>
<g>
	<path class="st0" d="M342.38,22.17c0,0.91-0.05,1.81-0.16,2.68c0,0,0,0.01,0,0.04c0,0.01,0,0.02,0,0.02
		c-0.02,0.25-0.11,1.25-0.56,2.9c-0.08,0.29-0.17,0.61-0.27,0.94c0,0.02-0.01,0.03-0.01,0.05c-0.68,2.22-1.92,5.32-4.16,9.12
		c-0.54,0.92-1.15,1.89-1.81,2.9C331.39,25.03,320.49,12,306.09,5.09c0.69-0.57,1.42-1.1,2.17-1.59c3.45-2.22,7.55-3.5,11.96-3.5
		c3.72,0,7.22,0.91,10.3,2.54c3.02,1.58,5.62,3.84,7.62,6.58C340.81,12.77,342.38,17.29,342.38,22.17z"/>
	<g>
		<path class="st1" d="M288.08,32.16c0.27,0.16-0.53,0-0.79-1.14c-0.08-0.34,0.06-1.57,1.16-1.96c0.01,0,0.01-0.01,0.02-0.01
			c0.15-0.07,0.31-0.11,0.49-0.13c0.02,0,0.04-0.01,0.06-0.01c0.01,0,0.01,0,0.02,0l5.97-1.34l4.23-0.95l0.64-0.16l0.75-0.18
			l3.44-0.84c-6.01-4.49-13.46-7.15-21.54-7.15c-9.42,0-18.01,3.62-24.42,9.55c0.65,2.47,1.72,4.77,3.13,6.83
			c3.99,5.83,10.7,9.66,18.3,9.66c0,0,7.55,0,11.46-5.9C293.35,32.28,288.08,32.16,288.08,32.16z"/>
		<path class="st1" d="M311.64,33.09l-1.53,5.99l-0.02,0.1l-0.54,2.11v0l-1.8,7.06c0,0,0,0.01,0,0.01
			c-0.02,0.17-0.06,0.33-0.12,0.48c0,0,0,0.01,0,0.01c-0.24,0.58-0.78,1.02-1.45,1.1c-0.44,0.05-0.86-0.05-1.2-0.27l0,0
			c0,0,0,0-0.01-0.01c-0.32-0.31-0.55-0.72-0.64-1.16c-0.25-1.25-1.17-3.93-4.35-3.12c-0.02,0.01-0.63,0.09-1.52,0.83
			c-3.97,3.66-5.96,10.82-5.4,16.71c0.03,0.3,0.27,1.72,0.34,2.01c0.37,1.51,1.35,4.94,4.59,7.54c0.59,0.47,1.26,0.85,1.9,1.27
			c0,0,0,0,0,0c3.9-2.59,7.44-5.12,10.65-7.58c2.77-2.12,5.29-4.2,7.6-6.21c0.29-1.84,0.44-3.72,0.44-5.64
			C318.55,46.37,315.98,39.03,311.64,33.09z"/>
	</g>
	<path class="st2" d="M164.09,49.9h1.82c1.48,0,2.68,1.2,2.68,2.68v32.88c0,1.48-1.2,2.68-2.68,2.68h-1.82
		c-1.48,0-2.68-1.2-2.68-2.68v-1.75c-3.59,3.01-8.1,5.26-12.86,5.26c-5.34,0-10.35-2-14.19-5.76c-3.76-3.84-5.84-8.85-5.84-14.19
		s2.09-10.35,5.84-14.19c3.84-3.76,8.85-5.76,14.19-5.76c4.76,0,9.27,2.25,12.86,5.26v-1.75C161.41,51.1,162.61,49.9,164.09,49.9z
		 M161.41,69.02c0-7.1-5.76-12.94-12.86-12.94c-7.1,0-12.86,5.84-12.86,12.94c0,7.1,5.76,12.94,12.86,12.94
		C155.65,81.96,161.41,76.12,161.41,69.02z"/>
	<path class="st3" d="M118.58,50.01h1.82c1.48,0,2.68,1.2,2.68,2.68v32.88c0,1.48-1.2,2.68-2.68,2.68h-1.82
		c-1.48,0-2.68-1.2-2.68-2.68v-1.75c-3.59,3.01-8.1,5.26-12.86,5.26c-5.34,0-10.35-2-14.19-5.76c-3.76-3.84-5.84-8.85-5.84-14.19
		s2.09-10.35,5.84-14.19c3.84-3.76,8.85-5.76,14.19-5.76c4.76,0,9.27,2.25,12.86,5.26v-1.75C115.9,51.21,117.1,50.01,118.58,50.01z
		 M115.9,69.13c0-7.1-5.76-12.94-12.86-12.94c-7.1,0-12.86,5.84-12.86,12.94c0,7.1,5.76,12.94,12.86,12.94
		C110.14,82.07,115.9,76.22,115.9,69.13z"/>
	<path class="st2" d="M241.17,49.82H243c1.48,0,2.68,1.2,2.68,2.68v32.88c0,1.48-1.2,2.68-2.68,2.68h-1.82
		c-1.48,0-2.68-1.2-2.68-2.68v-1.75c-3.59,3.01-8.1,5.26-12.86,5.26c-5.34,0-10.35-2-14.19-5.76c-3.76-3.84-5.84-8.85-5.84-14.19
		s2.09-10.35,5.84-14.19c3.84-3.76,8.85-5.76,14.19-5.76c4.76,0,9.27,2.25,12.86,5.26V52.5C238.5,51.02,239.7,49.82,241.17,49.82z
		 M238.5,68.94c0-7.1-5.76-12.94-12.86-12.94c-7.1,0-12.86,5.84-12.86,12.94c0,7.1,5.76,12.94,12.86,12.94
		C232.73,81.88,238.5,76.04,238.5,68.94z"/>
	<path class="st2" d="M286.99,69.02c0,5.34-2.09,10.35-5.93,14.19c-3.76,3.76-8.77,5.84-14.11,5.84s-10.35-2.09-14.19-5.84
		c-3.76-3.84-5.84-8.85-5.84-14.19s2.09-10.35,5.84-14.19c3.84-3.76,8.85-5.76,14.19-5.76s10.35,2,14.11,5.76
		C284.9,58.67,286.99,63.68,286.99,69.02z M279.81,69.02c0-7.1-5.76-12.77-12.86-12.77c-7.1,0-12.86,5.68-12.86,12.77
		c0,7.1,5.76,12.86,12.86,12.86C274.05,81.88,279.81,76.12,279.81,69.02z"/>
	<path class="st3" d="M35.69,26.92h1.59c1.54,0,2.79,1.25,2.79,2.79v55.84c0,1.46-1.18,2.64-2.64,2.64h-1.9
		c-1.46,0-2.64-1.18-2.64-2.64v-1.78c-3.59,3.01-8.1,5.26-12.86,5.26c-5.34,0-10.35-2-14.19-5.76C2.09,79.44,0,74.43,0,69.08
		s2.09-10.35,5.84-14.19c3.84-3.76,8.85-5.76,14.19-5.76c4.76,0,9.27,2.25,12.86,5.26V29.72C32.89,28.17,34.15,26.92,35.69,26.92z
		 M32.79,70.73c1.03-8.23-5.78-15.3-13.98-14.53c-5.96,0.56-10.79,5.29-11.53,11.23c-1.03,8.23,5.78,15.3,13.98,14.53
		C27.22,81.41,32.05,76.68,32.79,70.73z"/>
	<path class="st3" d="M81.6,69.08c0,5.34-2.09,10.35-5.93,14.19c-3.76,3.76-8.77,5.84-14.11,5.84s-10.35-2.09-14.19-5.84
		c-3.76-3.84-5.84-8.85-5.84-14.19s2.09-10.35,5.84-14.19c3.84-3.76,8.85-5.76,14.19-5.76s10.35,2,14.11,5.76
		C79.51,58.73,81.6,63.74,81.6,69.08z M74.42,69.08c0-7.1-5.76-12.77-12.86-12.77S48.7,61.99,48.7,69.08
		c0,7.1,5.76,12.86,12.86,12.86S74.42,76.18,74.42,69.08z"/>
	<path class="st2" d="M204.08,79.14c1.39,1.01,1.59,3.04,0.38,4.25c-0.01,0.01-0.02,0.02-0.02,0.02c-3.83,3.83-8.94,5.87-14.38,5.87
		c-5.45,0-10.64-2.04-14.47-5.87c-3.83-3.92-5.96-9.02-5.96-14.47s2.13-10.55,5.96-14.47c3.83-3.83,9.02-5.87,14.47-5.87
		c5.45,0,10.55,2.04,14.38,5.87c0.01,0.01,0.02,0.02,0.02,0.02c1.17,1.17,1,3.11-0.33,4.1l-1.49,1.1c-1.09,0.81-2.6,0.68-3.58-0.26
		c-2.34-2.25-5.51-3.68-9.01-3.68c-7.23,0-13.11,5.96-13.11,13.19c0,7.23,5.87,13.19,13.11,13.19c3.47,0,6.62-1.42,8.96-3.68
		c1.02-0.98,2.58-1.14,3.72-0.3L204.08,79.14z"/>
	<path class="st2" d="M179.33,93.51l-1.11-1.11c-0.78-0.78-0.78-2.04,0-2.82l5.49-5.49l3.93,3.93l-5.49,5.49
		C181.38,94.29,180.11,94.29,179.33,93.51z"/>
	<path class="st2" d="M225.82,44.06c-0.67-0.47-1.34-1.06-2.1-1.18c-0.72-0.13-1.4,0.32-1.96,0.93c-0.76,0.83-2.03,0.92-2.91,0.22
		l0,0c-0.87-0.7-1.07-1.95-0.44-2.87c1.12-1.64,2.77-3.12,5.32-3.12c1.43,0,2.77,0.95,3.92,1.89v-0.12c0,0,1.62,1.3,2.29,1.42
		c0.71,0.13,1.39-0.31,1.94-0.89c0.77-0.8,2.01-0.89,2.88-0.21v0c0.95,0.74,1.1,2.11,0.36,3.06c-1.19,1.52-2.87,2.89-5.19,2.89
		C228.59,46.07,227.06,45.13,225.82,44.06z"/>
	<path class="st4" d="M306.09,5.09c-2.67,2.21-4.81,5.03-6.21,8.25c-3.54-8.15-11.83-13.76-21.38-13.32
		c-11.37,0.52-20.59,9.76-21.1,21.13c-0.1,2.32,0.15,4.57,0.71,6.69c6.42-5.93,15-9.55,24.42-9.55c8.08,0,15.53,2.66,21.54,7.15
		l1.09-0.27l3.35-0.82l0.89-0.22l1.69-0.42c0.13-0.05,0.27-0.09,0.42-0.11c0.01,0,0.01,0,0.02,0l1.83-0.45
		c0.41-0.1,0.78,0.28,0.67,0.69l-0.87,3.23l-1.47,5.76l-0.06,0.25c4.34,5.95,6.91,13.28,6.91,21.21c0,1.92-0.15,3.8-0.44,5.64
		c5.18-4.53,9.25-8.77,12.44-12.62c1.91-2.31,3.52-4.48,4.85-6.49C331.39,25.03,320.49,12,306.09,5.09z"/>
	<polygon class="st5" points="324.3,20.48 329.92,18.3 324.37,15.99 322.49,9.47 320.49,15.9 314.86,18.08 320.42,20.4 322.3,26.92 
			"/>
	<linearGradient id="SVGID_1_" gradientUnits="userSpaceOnUse" x1="294.7661" y1="67.8008" x2="313.3054" y2="29.7038">
		<stop  offset="0" style="stop-color:#201220"/>
		<stop  offset="0.4153" style="stop-color:#261425;stop-opacity:0.6"/>
		<stop  offset="1" style="stop-color:#9C3586;stop-opacity:0.4"/>
	</linearGradient>
	<path class="st6" d="M314,24c-0.07,0.58-2.24,12.06-4.68,25.07c-1.33,7.1-6.7,5-7.72,2.16c-1.89-5.26-12.91,10.92-1.82,22.45
		c-0.62-0.4-1.25-0.77-1.82-1.22c-3.25-2.6-4.22-6.02-4.6-7.54c-0.07-0.3-0.3-1.71-0.34-2.01c-0.55-5.89,1.43-13.05,5.4-16.71
		c0.89-0.74,1.5-0.82,1.52-0.82c3.19-0.8,4.1,1.87,4.35,3.12c0.09,0.44,0.31,0.85,0.64,1.16c0,0,0,0,0,0.01h0
		c0.34,0.22,0.76,0.33,1.2,0.27c0.67-0.08,1.21-0.52,1.45-1.1c0,0,0,0,0-0.01c0.07-0.15,0.11-0.32,0.12-0.48c0,0,0,0,0-0.01
		l1.8-7.06l0.54-2.11l0.02-0.1l1.53-5.99v0l0.06-0.25l1.47-5.76L314,24z"/>
</g>
</svg>
