<?xml version="1.0" encoding="utf-8"?>
<!-- Generator: Adobe Illustrator 25.4.1, SVG Export Plug-In . SVG Version: 6.00 Build 0)  -->
<svg version="1.1" id="Camada_1" xmlns="http://www.w3.org/2000/svg" xmlns:xlink="http://www.w3.org/1999/xlink" x="0px" y="0px"
	 viewBox="0 0 197.09 85.58" style="enable-background:new 0 0 197.09 85.58;" xml:space="preserve">
<style type="text/css">
	.st0{fill:#B197A7;}
	.st1{fill:#77666F;}
	.st2{fill:#9C3586;}
	.st3{fill:#EA5575;}
	.st4{fill:url(#SVGID_1_);}
	.st5{fill:#F8B34C;}
</style>
<g>
	<path class="st0" d="M112.4,54.94h1.22c1,0,1.8,0.81,1.8,1.8v22.11c0,1-0.81,1.8-1.8,1.8h-1.22c-1,0-1.8-0.81-1.8-1.8v-1.17
		c-2.41,2.02-5.45,3.54-8.65,3.54c-3.59,0-6.96-1.35-9.54-3.87c-2.53-2.58-3.93-5.95-3.93-9.54c0-3.59,1.4-6.96,3.93-9.54
		c2.58-2.53,5.95-3.87,9.54-3.87c3.2,0,6.23,1.52,8.65,3.54v-1.17C110.59,55.75,111.4,54.94,112.4,54.94z M110.59,67.8
		c0-4.77-3.87-8.7-8.65-8.7c-4.77,0-8.65,3.93-8.65,8.7c0,4.77,3.87,8.7,8.65,8.7C106.72,76.5,110.59,72.57,110.59,67.8z"/>
	<path class="st1" d="M81.79,55.01h1.22c1,0,1.8,0.81,1.8,1.8v22.11c0,1-0.81,1.8-1.8,1.8h-1.22c-1,0-1.8-0.81-1.8-1.8v-1.17
		c-2.41,2.02-5.45,3.54-8.65,3.54c-3.59,0-6.96-1.35-9.54-3.87c-2.53-2.58-3.93-5.95-3.93-9.54c0-3.59,1.4-6.96,3.93-9.54
		c2.58-2.53,5.95-3.87,9.54-3.87c3.2,0,6.23,1.52,8.65,3.54v-1.17C79.99,55.82,80.79,55.01,81.79,55.01z M79.99,67.87
		c0-4.77-3.87-8.7-8.65-8.7c-4.77,0-8.65,3.93-8.65,8.7c0,4.77,3.87,8.7,8.65,8.7C76.11,76.57,79.99,72.64,79.99,67.87z"/>
	<path class="st0" d="M164.23,54.89h1.22c1,0,1.8,0.81,1.8,1.8V78.8c0,1-0.81,1.8-1.8,1.8h-1.22c-1,0-1.8-0.81-1.8-1.8v-1.17
		c-2.41,2.02-5.45,3.54-8.65,3.54c-3.59,0-6.96-1.35-9.54-3.87c-2.53-2.58-3.93-5.95-3.93-9.54c0-3.59,1.4-6.96,3.93-9.54
		c2.58-2.53,5.95-3.87,9.54-3.87c3.2,0,6.23,1.52,8.65,3.54v-1.17C162.43,55.7,163.24,54.89,164.23,54.89z M162.43,67.75
		c0-4.77-3.87-8.7-8.65-8.7c-4.77,0-8.65,3.93-8.65,8.7c0,4.77,3.87,8.7,8.65,8.7C158.56,76.45,162.43,72.52,162.43,67.75z"/>
	<path class="st0" d="M195.04,67.8c0,3.59-1.4,6.96-3.99,9.54c-2.53,2.53-5.9,3.93-9.49,3.93c-3.59,0-6.96-1.4-9.54-3.93
		c-2.53-2.58-3.93-5.95-3.93-9.54c0-3.59,1.4-6.96,3.93-9.54c2.58-2.53,5.95-3.87,9.54-3.87c3.59,0,6.96,1.35,9.49,3.87
		C193.64,60.84,195.04,64.21,195.04,67.8z M190.22,67.8c0-4.77-3.87-8.59-8.65-8.59c-4.77,0-8.65,3.82-8.65,8.59
		c0,4.77,3.87,8.65,8.65,8.65C186.34,76.45,190.22,72.57,190.22,67.8z"/>
	<path class="st1" d="M26.04,39.49h1.07c1.04,0,1.88,0.84,1.88,1.88v37.56c0,0.98-0.8,1.78-1.78,1.78h-1.27
		c-0.98,0-1.78-0.8-1.78-1.78v-1.2c-2.41,2.02-5.45,3.54-8.65,3.54c-3.59,0-6.96-1.35-9.54-3.87c-2.53-2.58-3.93-5.95-3.93-9.54
		c0-3.59,1.4-6.96,3.93-9.54c2.58-2.53,5.95-3.87,9.54-3.87c3.2,0,6.23,1.52,8.65,3.54V41.37C24.17,40.33,25.01,39.49,26.04,39.49z
		 M24.1,68.95c0.69-5.54-3.89-10.29-9.4-9.77c-4.01,0.38-7.25,3.56-7.75,7.55c-0.69,5.53,3.89,10.29,9.4,9.77
		C20.35,76.13,23.6,72.95,24.1,68.95z"/>
	<path class="st1" d="M56.92,67.84c0,3.59-1.4,6.96-3.99,9.54c-2.53,2.53-5.9,3.93-9.49,3.93s-6.96-1.4-9.54-3.93
		c-2.53-2.58-3.93-5.95-3.93-9.54c0-3.59,1.4-6.96,3.93-9.54c2.58-2.53,5.95-3.87,9.54-3.87s6.96,1.35,9.49,3.87
		C55.51,60.88,56.92,64.25,56.92,67.84z M52.09,67.84c0-4.77-3.87-8.59-8.65-8.59s-8.65,3.82-8.65,8.59c0,4.77,3.87,8.65,8.65,8.65
		S52.09,72.61,52.09,67.84z"/>
	<path class="st0" d="M139.29,74.6c0.93,0.68,1.07,2.04,0.25,2.86c-0.01,0.01-0.01,0.01-0.02,0.02c-2.58,2.58-6.01,3.95-9.67,3.95
		c-3.66,0-7.15-1.37-9.73-3.95c-2.58-2.63-4.01-6.07-4.01-9.73s1.43-7.1,4.01-9.73c2.58-2.58,6.07-3.95,9.73-3.95
		c3.66,0,7.1,1.37,9.67,3.95c0.01,0.01,0.01,0.01,0.02,0.02c0.79,0.79,0.67,2.09-0.22,2.76l-1,0.74c-0.74,0.54-1.75,0.46-2.41-0.18
		c-1.58-1.51-3.71-2.48-6.06-2.48c-4.86,0-8.81,4.01-8.81,8.87c0,4.86,3.95,8.87,8.81,8.87c2.34,0,4.45-0.95,6.02-2.48
		c0.68-0.66,1.73-0.76,2.5-0.2L139.29,74.6z"/>
	<path class="st0" d="M122.64,84.27l-0.74-0.74c-0.52-0.52-0.52-1.37,0-1.9l3.69-3.69l2.64,2.64l-3.69,3.69
		C124.02,84.8,123.17,84.8,122.64,84.27z"/>
	<path class="st0" d="M153.91,51.02c-0.45-0.32-0.9-0.72-1.41-0.79c-0.48-0.08-0.94,0.22-1.32,0.62c-0.51,0.56-1.37,0.62-1.96,0.15
		l0,0c-0.59-0.47-0.72-1.31-0.3-1.93c0.75-1.1,1.86-2.1,3.57-2.1c0.96,0,1.86,0.64,2.64,1.27v-0.08c0,0,1.09,0.87,1.54,0.95
		c0.48,0.08,0.93-0.21,1.31-0.6c0.52-0.54,1.35-0.6,1.94-0.14v0c0.64,0.5,0.74,1.42,0.24,2.06c-0.8,1.02-1.93,1.95-3.49,1.95
		C155.77,52.37,154.74,51.73,153.91,51.02z"/>
	<path class="st2" d="M90.61,23.24c0.18,0.11-0.36,0-0.53-0.77c-0.05-0.23,0.04-1.05,0.78-1.32c0,0,0.01,0,0.01-0.01
		c0.1-0.04,0.21-0.07,0.33-0.09c0.01,0,0.03,0,0.04,0c0,0,0.01,0,0.01,0l4.01-0.9l2.84-0.64l0.43-0.11l0.51-0.12l2.31-0.57
		c-4.04-3.02-9.05-4.81-14.48-4.81c-6.34,0-12.11,2.44-16.42,6.42c0.44,1.66,1.16,3.21,2.1,4.59c2.69,3.92,7.2,6.5,12.31,6.5
		c0,0,5.08,0,7.71-3.97C94.15,23.32,90.61,23.24,90.61,23.24z"/>
	<path class="st2" d="M106.45,23.87l-1.03,4.03l-0.02,0.06l-0.36,1.42v0l-1.21,4.74c0,0,0,0,0,0.01c-0.01,0.11-0.04,0.22-0.08,0.32
		c0,0,0,0,0,0.01c-0.16,0.39-0.53,0.69-0.98,0.74c-0.29,0.04-0.58-0.03-0.81-0.18l0,0c0,0,0,0,0,0c-0.22-0.21-0.37-0.48-0.43-0.78
		c-0.17-0.84-0.78-2.64-2.93-2.1c-0.02,0-0.42,0.06-1.02,0.55c-2.67,2.46-4.01,7.28-3.63,11.23c0.02,0.2,0.18,1.15,0.23,1.35
		c0.25,1.02,0.91,3.32,3.09,5.07c0.4,0.32,0.85,0.57,1.28,0.86c0,0,0,0,0,0c2.62-1.74,5-3.44,7.16-5.1
		c1.86-1.43,3.56-2.82,5.11-4.18c0.2-1.24,0.3-2.5,0.3-3.79C111.1,32.8,109.37,27.87,106.45,23.87z"/>
	<path class="st3" d="M115.47,15.19l-0.51,0.2l-1.34,4.32l-1.26-4.38l-3.74-1.56l3.79-1.47l0.12-0.39
		c-2.86-2.79-6.17-5.13-9.81-6.88c-1.79,1.49-3.23,3.38-4.17,5.55c-2.38-5.48-7.96-9.25-14.38-8.96
		C76.52,1.98,70.32,8.2,69.98,15.84c-0.07,1.56,0.1,3.07,0.48,4.5c4.32-3.99,10.09-6.42,16.42-6.42c5.43,0,10.44,1.79,14.48,4.81
		l0.74-0.18l2.25-0.55l0.6-0.15l1.14-0.28c0.09-0.04,0.18-0.06,0.28-0.07c0,0,0.01,0,0.01,0l1.23-0.3c0.28-0.07,0.53,0.19,0.45,0.46
		l-0.58,2.17l-0.99,3.88l-0.04,0.17c2.92,4,4.65,8.93,4.65,14.26c0,1.29-0.1,2.56-0.3,3.79c3.48-3.04,6.22-5.89,8.37-8.49
		c1.29-1.55,2.36-3.01,3.26-4.37C121.12,23.92,118.7,19.22,115.47,15.19z"/>
	<linearGradient id="SVGID_1_" gradientUnits="userSpaceOnUse" x1="95.1035" y1="47.2128" x2="107.5711" y2="21.5926">
		<stop  offset="0" style="stop-color:#201220"/>
		<stop  offset="0.4153" style="stop-color:#261425;stop-opacity:0.6"/>
		<stop  offset="1" style="stop-color:#9C3586;stop-opacity:0.4"/>
	</linearGradient>
	<path class="st4" d="M108.04,17.76c-0.05,0.39-1.5,8.11-3.15,16.86c-0.9,4.77-4.5,3.36-5.19,1.45c-1.27-3.54-8.68,7.35-1.23,15.1
		c-0.41-0.27-0.84-0.51-1.22-0.82c-2.18-1.75-2.84-4.05-3.09-5.07c-0.05-0.2-0.2-1.15-0.23-1.35c-0.37-3.96,0.96-8.77,3.63-11.24
		c0.6-0.5,1.01-0.55,1.02-0.55c2.14-0.54,2.76,1.26,2.93,2.1c0.06,0.3,0.21,0.57,0.43,0.78c0,0,0,0,0,0.01h0
		c0.23,0.15,0.51,0.22,0.81,0.18c0.45-0.05,0.81-0.35,0.98-0.74c0,0,0,0,0-0.01c0.04-0.1,0.07-0.21,0.08-0.33c0,0,0,0,0-0.01
		l1.21-4.75l0.36-1.42l0.02-0.07l1.03-4.03v0l0.04-0.17l0.99-3.88L108.04,17.76z"/>
	<path class="st5" d="M124.27,7.75c-1.34-1.84-3.09-3.36-5.12-4.43c-2.07-1.09-4.42-1.71-6.92-1.71c-2.96,0-5.72,0.86-8.04,2.35
		c-0.51,0.33-1,0.68-1.46,1.07c3.64,1.75,6.95,4.08,9.81,6.88l1.22-3.93l1.27,4.38l3.73,1.56l-3.27,1.27
		c3.23,4.02,5.65,8.72,6.96,13.88c0.45-0.68,0.85-1.33,1.22-1.95c1.5-2.56,2.34-4.64,2.8-6.14c0-0.01,0.01-0.02,0.01-0.03
		c0.07-0.23,0.13-0.44,0.18-0.64c0.3-1.11,0.36-1.78,0.37-1.95c0-0.01,0-0.01,0-0.02c0-0.01,0-0.02,0-0.02
		c0.07-0.59,0.11-1.19,0.11-1.81C127.13,13.24,126.07,10.21,124.27,7.75z"/>
</g>
</svg>
