<?xml version="1.0" encoding="utf-8"?>
<!-- Generator: Adobe Illustrator 25.4.1, SVG Export Plug-In . SVG Version: 6.00 Build 0)  -->
<svg version="1.1" id="Camada_1" xmlns="http://www.w3.org/2000/svg" xmlns:xlink="http://www.w3.org/1999/xlink" x="0px" y="0px"
	 viewBox="0 0 427 53" style="enable-background:new 0 0 427 53;" xml:space="preserve">
<style type="text/css">
	.st0{fill:#E5E5E5;}
	.st1{fill:#F8B34C;}
</style>
<ellipse class="st0" cx="212.84" cy="40.19" rx="19.2" ry="3.07"/>
<path class="st1" d="M231.91,13.14c-0.64-6.14-5.61-10.96-11.78-11.37c-4.29-0.29-7.92,1.22-10.7,4.5
	c-3.11,3.67-3.93,7.85-2.4,12.44c0.21,0.63,0.11,1.08-0.36,1.55c-4.21,4.19-8.41,8.4-12.61,12.59c-0.32,0.32-0.51,0.66-0.51,1.13
	c0.01,1.73,0,3.47,0,5.2c0,0.72,0.29,1.01,1.01,1.01c1.73,0.01,3.47,0,5.2,0c0.36,0,0.65-0.11,0.91-0.37
	c0.71-0.73,1.43-1.45,2.16-2.16c0.26-0.26,0.37-0.55,0.37-0.91c-0.01-0.87,0-1.73,0-2.6c0-0.84,0-1.68,0-2.52
	c0-0.82,0.27-1.08,1.09-1.08c1.66,0,3.32-0.01,4.97,0c0.47,0,0.84-0.14,1.17-0.48c1.07-1.1,2.17-2.17,3.24-3.26
	c0.31-0.31,0.65-0.4,1.06-0.27c0.17,0.05,0.33,0.11,0.5,0.16c1.81,0.58,3.65,0.81,5.54,0.56c2.93-0.39,5.44-1.62,7.5-3.75
	C231.08,20.62,232.33,17.15,231.91,13.14z M222.38,14.55c-1.71-0.01-3.19-1.51-3.19-3.23c0-1.73,1.5-3.23,3.23-3.23
	c1.72,0,3.22,1.48,3.23,3.19C225.65,13.06,224.15,14.56,222.38,14.55z"/>
</svg>
