<?xml version="1.0" encoding="utf-8"?>
<!-- Generator: Adobe Illustrator 25.4.1, SVG Export Plug-In . SVG Version: 6.00 Build 0)  -->
<svg version="1.1" id="Camada_1" xmlns="http://www.w3.org/2000/svg" xmlns:xlink="http://www.w3.org/1999/xlink" x="0px" y="0px"
	 viewBox="0 0 200 200" style="enable-background:new 0 0 200 200;" xml:space="preserve">
<style type="text/css">
	.st0{fill:#E95374;}
	.st1{fill:#FFFFFF;}
</style>
<rect x="-14.5" y="-14.5" class="st0" width="229" height="229"/>
<path class="st1" d="M63.5,51.1c4.3,0,7.5,1.4,10.1,4.1c8.5,8.5,17.1,17.1,25.6,25.6c0.6,0.6,0.9,0.6,1.5,0
	c8.5-8.6,17.1-17.1,25.7-25.7c4.9-4.9,12.3-5.4,17.6-1.1c5.8,4.6,6.6,13.1,1.8,18.7c-0.4,0.5-0.9,1-1.4,1.5
	c-8.4,8.4-16.8,16.8-25.2,25.2c-0.6,0.6-0.6,0.9,0,1.5c8.6,8.5,17.1,17.1,25.7,25.7c2.1,2,3.3,4.5,3.9,7.3c1.4,7.5-4.6,15-12.3,15.2
	c-4,0.1-7.4-1.2-10.2-4.1c-8.5-8.5-17-17-25.5-25.5c-0.6-0.6-0.9-0.6-1.5,0c-8.5,8.6-17.1,17.1-25.7,25.7
	c-4.8,4.8-12.1,5.3-17.3,1.3c-6.4-4.8-7-14-1.3-19.8c8.5-8.6,17.1-17.1,25.7-25.7c0.8-0.7,0.6-1.1,0-1.8c-8.5-8.5-17-17-25.5-25.5
	c-4.3-4.3-5.3-10.4-2.5-15.5C55,53.6,59,51.3,63.5,51.1z"/>
</svg>
