<?xml version="1.0" encoding="utf-8"?>
<!-- Generator: Adobe Illustrator 25.4.1, SVG Export Plug-In . SVG Version: 6.00 Build 0)  -->
<svg version="1.1" id="Camada_1" xmlns="http://www.w3.org/2000/svg" xmlns:xlink="http://www.w3.org/1999/xlink" x="0px" y="0px"
	 viewBox="0 0 200 200" style="enable-background:new 0 0 200 200;" xml:space="preserve">
<style type="text/css">
	.st0{fill:#8596A3;}
	.st1{fill:#FFFFFF;}
</style>
<rect x="-14" y="-14" class="st0" width="229" height="229"/>
<g>
	<path class="st1" d="M56,115c-8.3,0-15-6.6-15-14.9c0-8.3,6.7-15,15-15c8.3,0,15,6.8,15,15C70.9,108.2,64.2,114.9,56,115z"/>
	<path class="st1" d="M143.9,115c-8.2-0.1-14.9-6.8-14.9-15c0-8.2,6.8-15,15.1-14.9c8.3,0.1,14.9,6.8,14.9,15.1
		C158.9,108.4,152.2,115,143.9,115z"/>
	<path class="st1" d="M100,115c-8.3,0-15-6.7-15-15c0-8.3,6.7-15,15-14.9c8.2,0,14.9,6.7,14.9,14.9C115,108.2,108.3,115,100,115z"/>
</g>
</svg>
