<?xml version="1.0" encoding="utf-8"?>
<!-- Generator: Adobe Illustrator 25.4.1, SVG Export Plug-In . SVG Version: 6.00 Build 0)  -->
<svg version="1.1" id="Camada_1" xmlns="http://www.w3.org/2000/svg" xmlns:xlink="http://www.w3.org/1999/xlink" x="0px" y="0px"
	 viewBox="0 0 200 200" style="enable-background:new 0 0 200 200;" xml:space="preserve">
<style type="text/css">
	.st0{fill:#6EB398;}
	.st1{fill:#FFFFFF;}
</style>
<rect x="-14.5" y="-14.5" class="st0" width="229" height="229"/>
<path class="st1" d="M53,84.5c4.9,0,8,1.4,10.6,4.1c7.2,7.3,14.4,14.5,21.6,21.8c0.9,0.9,1.3,0.8,2.2,0
	c16.3-16.3,32.5-32.6,48.8-48.9c2.8-2.8,6.1-4.4,10.1-4.2c5.4,0.2,9.4,2.8,11.6,7.8c2.2,4.9,1.3,9.6-2.1,13.8
	c-0.3,0.4-0.7,0.8-1.1,1.1C135.1,99.5,115.5,119,96,138.6c-3.2,3.2-7,4.7-11.5,4.1c-3-0.4-5.5-1.8-7.7-4c-7.3-7.4-14.7-14.7-22-22
	c-3.3-3.3-6.6-6.5-9.8-9.9c-6.2-6.4-4.9-16.4,2.8-20.8C49.7,85,51.8,84.4,53,84.5z"/>
</svg>
