<?xml version="1.0" encoding="utf-8"?>
<!-- Generator: Adobe Illustrator 25.4.1, SVG Export Plug-In . SVG Version: 6.00 Build 0)  -->
<svg version="1.1" id="Camada_1" xmlns="http://www.w3.org/2000/svg" xmlns:xlink="http://www.w3.org/1999/xlink" x="0px" y="0px"
	 viewBox="0 0 2399 351" style="enable-background:new 0 0 2399 351;" xml:space="preserve">
<style type="text/css">
	.st0{fill:#E4E6EA;}
	.st1{fill:#BEC4CE;}
	.st2{fill:#FFFFFF;}
	.st3{fill:#D3D3D3;}
	.st4{fill:#CACCCE;}
	.st5{fill:#ACB1B7;}
	.st6{fill:#9A3585;}
	.st7{fill:#E4E6EA;fill-opacity:0.6;}
	.st8{opacity:0.31;fill:url(#SVGID_1_);enable-background:new    ;}
	.st9{opacity:0.31;fill:url(#SVGID_00000135656178484265911510000012128368629055969950_);enable-background:new    ;}
	.st10{opacity:0.31;fill:url(#SVGID_00000013872455432617955050000009952737177165971639_);enable-background:new    ;}
	.st11{opacity:0.31;fill:url(#SVGID_00000084503949010639134070000013397053583335912344_);enable-background:new    ;}
	.st12{opacity:0.31;fill:url(#SVGID_00000071547746388660047910000005685581685955519423_);enable-background:new    ;}
	.st13{opacity:0.31;fill:url(#SVGID_00000054950515655097428990000003012617887534381954_);enable-background:new    ;}
	.st14{fill:#F8B24C;}
	.st15{fill:#F7DA4D;}
	.st16{fill:#6BAF95;}
	.st17{fill:#FFFFFF;fill-opacity:0.1;}
</style>
<rect x="-13.9" y="-6.4" class="st0" width="2430.5" height="366.2"/>
<path class="st1" d="M1732.1,128.6c4.4-5.1,9.9-10.7,11.7-16.5c1.8-5.9,1.3-10.6-0.8-14.7c-2.1-4.1-5.8-7.3-10.5-9.7
	c-4.5-2.3-9-3.2-12.7-1.7c-3.6,1.5-6.3,5.5-7.4,12.6c-1,7.3,1.8,17.6,5,25.6c0.3,1,0.7,1.9,1.1,2.8c-10.4-8.8-21.9-16.6-33.9-23.1
	c0.9-2,2.1-4.5,3.3-7.1c2.9-6.2,6.6-12.9,6.7-19.1c0-6.1-1.7-10.7-4.8-14.1c-3.1-3.4-7.5-5.5-12.6-6.6c-4.9-1-9.4-0.6-12.4,1.8
	c-3,2.5-4.5,7-3.5,14.3c1,7.2,6.4,16.5,11.5,23.5c0.5,0.8,1.1,1.6,1.7,2.3c-12-5.6-24.6-10-37.3-13c-8.5-5.8-22-12.9-33.6-13.3
	c-18.9-0.7-24.3,6.3-23.8,13.1c0.5,7.3,5.9,12,22.2,12.6c9.6,0.3,23.1-2,33-3.5c6.2,1.5,12.3,3.3,18.4,5.4
	c-8.1,1.7-16.7,6.3-20.6,12c-4,5.7-5.1,10.3-4.6,13.9c0.5,3.4,2.6,5.9,5.3,7.6c2.8,1.7,5.8,2.6,9,1.8c3.2-0.7,6.6-2.9,10.6-7.2
	c4-4.2,7.1-11.4,10-17.4c1-2.1,1.9-4,2.7-5.6c11.1,4.9,21.6,10.6,31.6,17.5c-8.2-0.5-17.6,1.8-22.7,6.2c-5.4,4.5-7.5,8.9-7.9,12.3
	c-0.3,3.6,1.1,6.4,3.4,8.8s5,4,8.3,4.1c3.3,0.1,7.1-1.2,11.9-4.3c4.9-3.1,9.7-9.2,14-14.4c1.4-1.7,2.8-3.3,4-4.7
	c9.5,7.5,18.2,16,26,25.1c-7.8-2.5-17.3-2.8-23.5,0.1c-6.3,3-9.3,6.8-10.6,10.1c-1.1,3.4-0.6,6.6,1.1,9.5c1.6,2.9,3.8,5.1,6.9,6
	c3.1,1,7.1,0.6,12.5-1.2c5.5-1.9,11.6-6.6,17.2-10.5c1.8-1.4,3.5-2.4,5-3.4c7.1,9.6,13.5,20,18.5,30.7c-6.8-4.4-16-7.1-22.6-5.7
	c-6.8,1.4-10.7,4.2-12.6,7.3c-2,3-2.2,6.3-1.4,9.6c0.8,3.3,2.3,5.9,5,7.5c2.7,1.6,6.5,2.3,12.2,1.7c5.6-0.4,12.8-3.6,19.1-6
	c2.1-0.8,4.1-1.6,5.8-2.1c6.4,16.1,10.3,33,11.7,49.7c3-0.4,6.1-0.7,9.1-1.1c-1-12.3-3.3-24.5-6.9-36.5c2.1-0.8,4.6-1.6,7.4-2.6
	c6.4-2.1,14-4,18.6-7.9c4.5-4,6.7-8.1,7-12.4c0.3-4.4-1.2-9-3.9-13.3c-2.8-4.2-6.2-7.4-10.2-8c-4-0.6-8.4,1.3-13,6.7
	c-4.6,5.5-7.5,15.7-8.9,24.1c-0.1,0.9-0.3,2-0.4,2.8c-4.5-12.6-10.4-24.7-17.6-36.3c1.8-1.3,4-2.8,6.5-4.4
	c5.6-3.8,12.5-7.6,15.8-12.6c3.3-5,4.2-9.7,3.3-14.2c-1-4.4-3.7-8.6-7.4-12c-3.8-3.4-8-5.5-11.8-5.1c-3.9,0.5-7.6,3.5-10.6,10.1
	s-2.9,17.3-2.1,25.8c0.1,1,0.2,2.1,0.3,3c-7.8-11.1-16.8-21.6-26.8-31C1728.3,132.9,1730.1,130.9,1732.1,128.6z"/>
<path class="st2" d="M2288.8,193.4c63.2-22.5,10.8-67.1,82.2-103.9s121.3-94.4,73.7-145.7c-47.6-51.4-223,68.6-268.4,0
	s-186.2-70.2-264.2-13.2c-77.9,57.1-214.5-18.7-199.2,80.9s130,30.3,194.8,93.2c65,62.8,162.3,88.8,207.9,60.7
	C2161,137.1,2227.8,215.1,2288.8,193.4z"/>
<path class="st2" d="M8.1-76.1C-40.6-58.8-0.2-24.4-55.3,4s-93.4,72.7-56.7,112.3s171.9-52.9,206.9,0s143.5,54.2,203.6,10.2
	S463.7,140.9,452,64.1S351.8,40.7,301.8-7.7C251.7-56,176.6-76.1,141.6-54.4S55.1-92.8,8.1-76.1z"/>
<path class="st2" d="M886.4-101.9C810.8-75,873.5-21.6,788,22.5s-145.1,112.9-88.1,174.4c57,61.5,267-82.2,321.3,0
	c54.4,82.2,222.9,84.2,316.2,15.8c93.3-68.3,256.6,22.4,238.4-96.9S1420.2,79.5,1342.6,4.3c-77.8-75-194.4-106.2-248.8-72.5
	C1039.4-34.5,959.4-127.8,886.4-101.9z"/>
<path class="st3" d="M621.4,177.4c-23.9,46.5-35.9,91.9-41.7,112.9c-12-30.3-27.2-58.9-44-85.1c11.2-15.1,35.1-50.8,41.7-100.8
	c9.5-67.4-20.7-132-21-131.5c-0.4,0-24.9,51.5-30.9,117.6c-3.9,41.3-1,78.6,1.2,101.2c-20.1-29.3-42.1-54.8-63.7-76.4
	c6.4-13.1,18.5-41.9,16.6-77.8c-2.3-49.8-32.2-91.7-32.4-91.5c-0.2,0-14.1,40.5-10.4,88.8c2.3,28.4,9.3,53.3,14.7,69.5
	c-21.6-20.3-42.3-36.5-59.5-48.5c4.1-10.8,10-30.9,4.6-53.3c-8.1-33.2-38.4-56.2-38.4-56c-0.2,0-11.2,30.5-2.5,62.7
	c3.3,12.4,9.1,23.4,14.9,32.4C354.6,31.2,344.4,26,344,25.8c0.2,0-34.2-30.7-66-41.7c-45-16-86.7-2.7-86.5-2.9
	c0.4,0.2,30.7,29,72.4,43.8c29,10,73,12.7,73.2,12.9c1,0.6,2.1,1.2,3.3,1.9c7.7,4.1,15.1,8.7,22.8,13.5c-11.2-2.7-25.3-3.9-39.6-0.4
	c-30.9,7.9-49.8,34.4-49.8,34.4c0.2,0,28,10.8,58.5,3.9c22.8-5.2,41.1-19.3,49-26.3c12.2,8.3,24.7,17.6,37.1,28
	c6,5.2,12.2,10.4,18.7,16.4c-15.6-5.6-38-10.8-62-9.1c-46.1,3.3-79.3,29.7-79.3,29.5c0.2,0,35.9,11.8,80.7,9.5
	c32.4-1.7,61.2-10.8,75.1-16.2c8.3,8.1,16.6,17,24.9,26.3c0,0,0,0.2,0.2,0.2c1.9,2.1,3.7,4.4,5.8,6.6c9.5,11.2,18.9,23.2,28.2,36.3
	c-18.7-12.9-48.5-28.6-83-34.2c-61.8-10-111.8,15.1-111.6,14.7c0.2,0.2,42.7,21.6,101.7,32.2c44.2,7.7,86.7,7.1,105.8,6
	c8.7,13.3,17,27.8,25.1,42.7c4.8,9.3,9.3,18.7,13.5,28.4c-17.4-16.6-51.2-42.5-94.2-53.9c-66-17.6-122.4,4.4-122.2,4.1
	c0.2,0.2,43.4,25.9,105.8,44c49.2,13.7,97.5,18.9,116.6,20.3c7.5,19.1,13.9,38.6,18.7,58.5c4.6-0.2,9.3-0.2,13.9-0.2
	c-2.9-12-6.2-23.9-10-35.5c0,0,0.2,0,0.4,0c-1-2.7-2.1-5.4-3.1-8.1c-1.5-4.1-2.9-8.3-4.6-12.2c15.4-9.5,57.3-36.3,86.5-85.5
	c37.6-62,33-138,32.6-137.8C701.9,75.6,654,113.7,621.4,177.4z"/>
<path class="st4" d="M1213,256.4c20.3,46.5,30.6,91.9,35.6,112.9c10.3-30.3,23.2-58.9,37.5-85.1c-9.6-15.1-29.9-50.8-35.6-100.8
	c-8.1-67.4,17.7-132,17.9-131.5c0.4,0,21.2,51.5,26.4,117.6c3.4,41.3,0.9,78.6-1.1,101.2c17.2-29.3,35.9-54.8,54.3-76.4
	c-5.5-13.1-15.7-41.9-14.2-77.8c1.9-49.8,27.4-91.7,27.6-91.5c0.2,0,12,40.5,8.8,88.8c-1.9,28.4-8,53.3-12.6,69.5
	c18.4-20.3,36.1-36.5,50.8-48.5c-3.5-10.8-8.5-30.9-3.9-53.3c6.9-33.2,32.7-56.2,32.7-56c0.2,0,9.6,30.5,2.1,62.7
	c-2.8,12.4-7.8,23.4-12.7,32.4c13.8-10.4,22.5-15.6,22.8-15.8c-0.2,0,29.2-30.7,56.3-41.7c38.4-16,74-2.7,73.8-2.9
	c-0.4,0.2-26.2,29-61.8,43.8c-24.8,10-62.3,12.7-62.5,12.9c-0.9,0.6-1.8,1.2-2.8,1.9c-6.5,4.1-12.9,8.7-19.5,13.5
	c9.6-2.7,21.6-3.9,33.8-0.4c26.4,7.9,42.5,34.4,42.5,34.4c-0.2,0-23.9,10.8-49.9,3.9c-19.5-5.2-35-19.3-41.8-26.3
	c-10.4,8.3-21.1,17.6-31.7,28c-5.1,5.2-10.4,10.4-15.9,16.4c13.3-5.6,32.4-10.8,52.9-9.1c39.3,3.3,67.6,29.7,67.6,29.5
	c-0.2,0-30.6,11.8-68.8,9.5c-27.6-1.7-52.2-10.8-64.1-16.2c-7.1,8.1-14.2,17-21.2,26.3c0,0,0,0.2-0.2,0.2c-1.6,2.1-3.2,4.4-5,6.6
	c-8.1,11.2-16.1,23.2-24.1,36.3c15.9-12.9,41.4-28.6,70.8-34.2c52.7-10,95.4,15.1,95.2,14.7c-0.2,0.2-36.5,21.6-86.7,32.2
	c-37.7,7.7-74,7.1-90.2,6c-7.4,13.3-14.5,27.8-21.4,42.7c-4.1,9.3-8,18.7-11.5,28.4c14.9-16.6,43.7-42.5,80.3-53.9
	c56.3-17.6,104.4,4.4,104.2,4.1c-0.2,0.2-37,25.9-90.2,44c-41.9,13.7-83.2,18.9-99.4,20.3c-6.4,19.1-11.9,38.6-15.9,58.5
	c-3.9-0.2-8-0.2-11.9-0.2c2.5-12,5.3-23.9,8.5-35.5c0,0-0.2,0-0.4,0c0.9-2.7,1.8-5.4,2.7-8.1c1.2-4.1,2.5-8.3,3.9-12.2
	c-13.1-9.5-48.8-36.3-73.8-85.5c-32-62-28.1-138-27.8-137.8C1144.4,154.5,1185.3,192.7,1213,256.4z"/>
<path class="st5" d="M732.2,239.9c-6-0.5-13.2-0.6-18.1-3.3c-5.1-2.9-8.1-6.4-9.7-10.6c-1.6-4.1-1.6-9-0.6-13.7
	c1.1-4.8,3-8.4,6.2-9.7c3.2-1.4,7.5-0.5,13,3.8c5.6,4.3,11.1,13.3,14.8,21c0.5,1,1,1.7,1.3,2.7c0-13.2,1.3-26.4,3.7-38.9
	c-1.9-0.8-4.3-1.7-6.8-2.5c-5.9-2.2-12.9-4.4-17-8.6c-4.3-4.3-6.4-8.6-7-13c-0.5-4.4,0.5-8.9,2.7-13c2.2-4.1,5.1-6.8,8.4-7.3
	c3.5-0.3,7.5,1.7,11.9,7.5c4.4,5.7,7.6,15.7,9.5,24c0.2,1,0.5,1.9,0.6,2.7c3-12.1,7.3-23.7,12.5-34.3c0.8-9.8,3.8-23.8,10.2-31.9
	c10.5-13.3,18.4-12.2,22.9-7.1c4.8,5.2,4.9,12.2-4.1,23.8c-5.4,6.7-14.8,14.4-21.4,20c-2.5,5.2-4.9,10.6-6.8,16.2
	c5.9-4.3,14-7,20.2-5.9c6.4,1.1,10.2,3.7,12.2,6.4c2.1,2.7,2.5,5.7,2.1,8.9c-0.5,3-1.6,5.7-4,7.3c-2.4,1.7-5.9,2.5-11.1,2.4
	c-5.2-0.2-11.9-3-17.8-5.1c-1.9-0.8-3.8-1.4-5.4-2.1c-3,10.8-5.1,22.1-6.2,33.5c4.4-5.9,11.4-10.8,17.5-11.3c6.2-0.6,10.5,1,13,3.2
	c2.7,2.2,3.8,5.1,4.1,8.4c0.3,3.2-0.2,6-1.9,8.4c-1.7,2.4-4.9,4-9.8,5.2c-4.9,1.3-11.9,0.2-18.1-0.3c-2.1-0.2-4-0.3-5.6-0.5
	c-0.3,11.6,0.5,23.3,2.2,34.9c2.7-7,8.1-13.7,13.7-15.9c5.7-2.2,10-1.7,13-0.3c3,1.6,4.8,4.1,6,7.3c1.1,3.2,1.3,6,0.2,8.7
	s-3.7,5.2-8.1,7.6c-4.4,2.4-11.3,3.3-17.1,4.4c-1.9,0.3-3.7,0.8-5.2,1.1c2.5,11.6,6,22.9,10.5,33.7c1-7.6,4.4-15.7,9.2-19.4
	c4.8-3.7,9-4.3,12.4-3.7c3.2,0.6,5.6,2.9,7.5,5.6c1.9,2.9,2.7,5.6,2.4,8.6c-0.5,3-2.2,6-5.9,9.5s-9.8,6.2-15.1,8.9
	c-1.7,0.8-3.3,1.7-4.8,2.5c7.5,15.4,16.8,29.5,27.6,42.1c-2.1,1.7-4,3.7-6,5.6c-7.9-9-14.9-19.1-21.3-29.8c-1.7,0.8-3.8,1.9-6,3.3
	c-5.2,2.9-11,6.8-16.2,7.1s-9.5-1-12.7-3.8c-3.2-2.9-5.6-7-6.8-11.7c-1.3-4.8-1.4-9.2,0.5-12.4s5.7-4.9,12.2-4.3
	c6.5,0.6,15.1,5.7,21.8,10.5c0.8,0.5,1.6,1.1,2.2,1.6c-6-11.7-11.1-24.1-14.9-36.8c-1.9,0.3-4.3,0.8-6.8,1.4
	c-5.9,1.3-12.4,3.3-17.8,2.1c-5.4-1.3-9.2-3.8-11.6-7.5c-2.5-3.7-3.8-8.3-4-13.3c-0.2-4.9,0.8-9.2,3.5-11.4
	c2.5-2.4,6.8-2.9,13.2-0.3c6.2,2.5,13.7,9.8,19.1,16.4c0.6,0.8,1.3,1.6,1.9,2.2c-3.2-13-5.1-26.2-5.9-39.5
	C737.3,240.4,734.9,240.2,732.2,239.9z"/>
<path class="st6" d="M1981.4,121.5c-2.7-3.4-6-7.2-7-11.1c-1-4-0.6-7.3,0.9-10.2c1.4-2.8,4-5.2,6.8-6.9c3-1.7,5.9-2.5,8-1.4
	c2.3,1,3.8,3.7,4.3,8.6c0.4,5-1.6,12.2-3.8,17.8c-0.3,0.7-0.5,1.3-0.8,2c6.9-6.4,14.4-12.1,22.1-16.9c-0.5-1.4-1.2-3.1-2-4.8
	c-1.7-4.1-3.9-8.9-3.7-13c0.2-4.3,1.4-7.5,3.4-9.9c2.1-2.4,4.9-4,8.1-4.9c3.2-0.8,6-0.6,7.9,0.9c1.9,1.7,2.7,4.7,1.8,9.8
	c-0.8,5.1-4.5,11.6-7.9,16.5c-0.4,0.5-0.8,1.2-1.1,1.6c7.8-4.2,15.9-7.6,24-10c5.5-4.3,14.3-9.5,21.6-10.1c12-1,15.3,3.7,14.8,8.5
	c-0.4,5-4,8.5-14.4,9.3c-6.1,0.4-14.7-0.7-20.8-1.5c-4,1.2-7.9,2.6-11.8,4.2c5.1,1,10.4,3.9,12.8,7.7c2.5,3.9,3,7.1,2.6,9.5
	s-1.8,4.1-3.7,5.4c-1.8,1.2-3.8,1.9-5.7,1.4c-2.1-0.4-4.2-1.8-6.6-4.7c-2.4-2.8-4.2-7.7-5.9-11.7c-0.5-1.4-1.1-2.7-1.5-3.8
	c-7.1,3.6-14,8-20.5,12.9c5.2-0.5,11.2,0.8,14.3,3.7c3.3,2.9,4.6,5.9,4.6,8.3c0.1,2.5-0.8,4.4-2.4,6.2c-1.5,1.7-3.2,2.8-5.3,3.1
	c-2.1,0.2-4.4-0.7-7.5-2.6c-3-2-5.8-6.1-8.6-9.6c-0.9-1.2-1.7-2.2-2.4-3.1c-6.2,5.4-12,11.5-17.2,18c5-2,11-2.4,14.9-0.5
	c3.9,1.9,5.7,4.4,6.4,6.6c0.6,2.3,0.1,4.5-0.9,6.7c-1.1,2.1-2.5,3.6-4.5,4.3s-4.5,0.6-7.9-0.6s-7.2-4.3-10.6-6.8
	c-1.1-0.8-2.2-1.5-3.1-2.2c-4.8,6.9-9,14.2-12.5,21.7c4.4-3.2,10.4-5.3,14.6-4.5c4.2,0.7,6.6,2.7,7.9,4.7c1.2,2,1.2,4.3,0.7,6.6
	c-0.6,2.4-1.6,4.1-3.3,5.4c-1.8,1.2-4.2,1.7-7.8,1.5s-8-2.2-11.9-3.6c-1.3-0.5-2.5-0.9-3.6-1.3c-4.4,11.3-7.3,23-8.7,34.7
	c-1.9-0.2-3.8-0.3-5.8-0.5c0.9-8.5,2.8-17,5.3-25.5c-1.3-0.5-2.8-1.1-4.7-1.5c-4-1.4-8.9-2.4-11.5-5s-4.1-5.4-4.1-8.5
	c0-3,1-6.3,2.8-9.2s4.1-5.2,6.7-5.7c2.6-0.5,5.3,0.6,8.1,4.3c2.8,3.7,4.3,10.6,5,16.4c0.1,0.6,0.2,1.4,0.2,1.9
	c3.2-8.8,7.2-17.5,12-25.6c-1.1-0.8-2.5-1.9-4-2.9c-3.5-2.5-7.7-4.9-9.7-8.3c-1.9-3.4-2.5-6.7-1.7-9.7c0.7-3.1,2.5-6,5.1-8.5
	c2.5-2.5,5.2-4,7.7-3.7c2.5,0.2,4.8,2.2,6.5,6.7c1.7,4.5,1.4,11.9,0.6,17.8c-0.1,0.7-0.2,1.4-0.2,2.1c5.3-7.9,11.2-15.3,17.8-22.1
	C1983.6,124.4,1982.5,123.1,1981.4,121.5z"/>
<path class="st6" d="M2322.6,332.8c4.9-4.4,11-9.4,13.6-14.8c2.6-5.7,3.1-10.5,1.9-14.9c-1.2-4.3-4.2-8.2-7.8-11.2
	c-3.9-3-7.8-4.6-11.3-3.5c-3.6,1-6.8,4.7-8.9,11.8c-2.2,7.1-1.4,18,0.1,26.5c0.2,1.1,0.2,2,0.6,3c-8.1-10.4-17.3-19.9-27.1-28.2
	c1.2-1.9,2.6-4.3,4.4-6.6c3.7-5.7,8.4-12.2,9.5-18.2c1.1-6.3,0.2-11-1.9-15c-2.3-3.8-5.9-6.7-10.3-8.5c-4.5-1.8-8.6-2-11.8-0.1
	c-3.2,2.1-5.4,6.4-5.7,13.9c-0.3,7.5,3,17.5,6.5,25.3c0.4,0.9,0.8,1.8,1.1,2.6c-10-7.5-20.9-13.7-31.9-18.6
	c-6.7-7.2-17.9-16.2-28.4-18.3c-17.3-3.5-23.5,2.8-24.2,9.8c-0.9,7.3,3.2,13,18.2,16c8.8,1.6,21.7,1.4,30.9,1.3
	c5.4,2.4,10.8,5.1,15.9,8.2c-7.7,0.6-16.4,3.9-21.1,9c-4.8,5.2-6.6,9.7-6.7,13.3c-0.1,3.5,1.3,6.2,3.7,8.4c2.3,2.1,4.9,3.4,7.9,3.1
	c3.1-0.2,6.7-2,11.1-5.6c4.4-3.7,8.5-10.4,12.3-16c1.2-1.9,2.4-3.7,3.4-5.3c9.2,6.5,18,14,25.9,22.3c-7.5-1.6-16.5-0.8-22.1,2.9
	c-5.8,3.7-8.5,7.8-9.3,11.3c-1,3.6-0.2,6.6,1.6,9.4c1.7,2.7,3.8,4.7,6.8,5.4c3,0.7,6.7-0.2,11.8-2.5c5-2.3,10.4-7.9,15.5-12.5
	c1.7-1.5,3.2-2.9,4.5-4.1c7.4,8.9,13.9,18.7,19.5,29.1c-6.6-3.7-15.4-5.3-21.6-3.3c-6.3,2.1-9.7,5.4-11.5,8.5
	c-1.6,3.3-1.6,6.5-0.7,9.8c1,3.3,2.6,5.6,5.2,7c2.6,1.4,6.4,1.7,11.7,0.6s11.8-5,17.6-8.1c1.8-1,3.7-1.8,5.2-2.7
	c4.9,10.9,8.8,22.1,11.6,33.6c-5.5-5.4-13.5-9.4-19.9-9.1c-6.4,0.3-10.5,2.7-13,5.5c-2.4,2.6-3.1,6-3.1,9.4c0.1,3.5,1.1,6.2,3.2,8.4
	c2.3,2.1,5.6,3.3,10.9,3.6c5.3,0.3,12.3-1.8,18.5-3.2c2-0.6,4-0.9,5.7-1.2c3,17.2,3.5,34.7,1.9,51.8c2.9,0,5.7,0.2,8.6,0.3
	c1.3-12.5,1.2-25.1,0.1-37.9c2-0.6,4.5-1.1,7.3-1.4c6.3-1.3,13.7-2,18.4-5.3c4.7-3.3,7.7-7.2,8.7-11.6s0.5-9.3-1.3-13.9
	s-4.4-8.2-8-9.5s-8,0-13.2,4.9c-5.3,4.9-9.6,14.7-12.4,22.9c-0.4,0.9-0.7,1.9-1,2.8c-2-13.3-5.2-26.5-9.7-39.1
	c1.8-1,4.2-2.3,6.8-3.5c5.9-3,12.8-5.7,16.7-10.4c3.9-4.6,5.6-9.2,5.5-13.7c0-4.6-1.8-9.1-4.7-13.2c-2.9-4-6.3-6.7-10-6.7
	c-3.7-0.2-7.7,2.3-11.6,8.6c-3.8,6.2-5.8,17-6.5,25.8c-0.1,1.1-0.1,2.1-0.3,3c-5.2-12.4-11.7-24.1-19.2-35.2
	C2318.4,336.6,2320.4,334.9,2322.6,332.8z"/>
<path class="st6" d="M1560.5,280.9c-5.3-0.8-11.6-1.5-15.8-3.9c-4.3-2.5-6.8-5.4-7.9-8.7c-1.1-3.2-0.8-6.9,0.3-10.3
	c1.3-3.5,3.2-6.1,6.1-6.8c2.9-0.8,6.6,0.2,11.3,3.9c4.6,3.6,9,10.9,11.7,16.9c0.4,0.8,0.7,1.4,0.9,2.1c0.9-9.9,2.9-19.7,5.8-28.9
	c-1.6-0.7-3.7-1.6-5.9-2.4c-5.1-2.1-11.1-4.3-14.5-7.8c-3.5-3.6-5.1-6.9-5.3-10.3c-0.1-3.4,1-6.6,3.2-9.6c2.2-2.9,5-4.7,7.9-4.8
	c3.1,0,6.5,1.9,10.1,6.5c3.6,4.6,5.7,12.4,6.9,18.7c0.1,0.7,0.3,1.5,0.4,2.1c3.5-8.8,8-17.2,13.4-24.8c1.4-7.3,4.9-17.6,11.1-23.2
	c10.2-9.2,17.1-7.7,20.7-3.6c3.9,4.3,3.6,9.6-5.2,17.6c-5.2,4.6-14,9.7-20.3,13.4c-2.6,3.7-5.1,7.6-7.1,11.6
	c5.5-2.8,12.8-4.2,18.3-2.8c5.6,1.3,8.8,3.5,10.4,5.7c1.7,2.2,1.9,4.5,1.2,6.8c-0.6,2.2-1.8,4.2-4,5.2c-2.2,1.1-5.4,1.5-10,0.9
	c-4.6-0.5-10.4-3.2-15.4-5.2c-1.6-0.7-3.3-1.4-4.7-2c-3.4,7.9-6,16.2-7.7,24.7c4.3-4.1,10.8-7.2,16.2-7.1c5.5,0,9.2,1.5,11.3,3.4
	c2.2,1.9,3,4.1,3.1,6.6c0.1,2.4-0.5,4.5-2.2,6.2c-1.7,1.7-4.6,2.6-9.1,3.2c-4.4,0.6-10.6-0.8-16-1.6c-1.8-0.3-3.5-0.5-4.9-0.8
	c-1,8.7-1.1,17.6-0.3,26.4c2.9-5,8.1-9.6,13.2-10.9c5.2-1.2,9-0.5,11.6,0.8c2.6,1.4,4,3.5,4.9,5.9c0.8,2.5,0.7,4.6-0.4,6.6
	c-1.2,1.9-3.6,3.6-7.7,5.1c-4.1,1.4-10.2,1.6-15.5,2c-1.7,0.1-3.3,0.3-4.7,0.4c1.5,8.9,3.8,17.6,7.1,26.1c1.3-5.6,5-11.5,9.4-13.8
	c4.5-2.4,8.3-2.5,11.2-1.8c2.8,0.7,4.7,2.6,6.3,4.7c1.5,2.3,2,4.4,1.5,6.6c-0.6,2.2-2.4,4.4-5.8,6.7c-3.5,2.3-9.1,3.9-14,5.5
	c-1.6,0.5-3.1,1.1-4.4,1.5c5.6,12.1,13,23.5,21.7,33.7c-1.9,1.2-3.8,2.4-5.7,3.7c-6.4-7.4-12-15.5-16.9-24.1c-1.6,0.5-3.5,1.1-5.6,2
	c-4.8,1.7-10.2,4.3-14.8,4.1c-4.7-0.2-8.4-1.5-11-3.8s-4.5-5.7-5.3-9.3s-0.7-7,1.2-9.3c1.9-2.2,5.4-3.3,11.1-2.3
	c5.7,1,13,5.5,18.6,9.6c0.7,0.4,1.3,1,1.9,1.4c-4.6-9.3-8.3-19-10.8-28.8c-1.7,0.1-3.9,0.3-6.1,0.5c-5.3,0.5-11.2,1.5-15.9,0.2
	c-4.7-1.4-7.9-3.6-9.8-6.5c-2-2.9-2.8-6.5-2.6-10.3c0.2-3.7,1.3-6.9,3.8-8.3c2.4-1.6,6.2-1.6,11.7,0.8c5.3,2.4,11.5,8.4,15.8,13.8
	c0.5,0.6,1,1.3,1.5,1.8c-2-10-2.8-20.1-2.6-30.1C1564.9,281.7,1562.8,281.4,1560.5,280.9z"/>
<path class="st3" d="M930.8,162.7c-6-8.3-13.8-17.1-15.7-26.7c-1.9-9.5-0.8-17.5,2.9-24.1c3.5-6.7,9.5-12.2,16.7-16.2
	c7.1-4,13.8-5.6,19.1-3.2c5.2,2.4,8.7,8.7,9.5,20.6c0.8,11.7-4.6,28.9-10.2,42.2c-0.6,1.6-1.3,3.2-1.9,4.6
	c16.7-14.9,34.5-27.9,53.2-39.1c-1.1-3.2-2.5-7.3-4.3-11.6c-3.7-10-8.6-21.1-7.9-31.1c0.6-10.2,3.7-17.6,8.7-23.3
	c5.1-5.7,11.9-9.4,19.5-11.3c7.5-1.9,14.1-1.4,18.4,2.5c4.3,4,5.9,11.4,3.7,23.3s-11.4,27.3-19.7,39.1c-1,1.3-1.9,2.5-2.9,3.8
	c18.6-9.7,37.8-17.3,57.2-22.7c13.3-9.8,34.3-21.9,51.4-22.9c28.3-1.9,35.7,9.4,34.3,20.8c-1.4,11.9-10,19.8-34.5,21.6
	c-14.3,0.8-34.5-2.5-48.9-4.6c-9.4,2.5-18.7,5.7-27.9,9.5c11.9,2.4,24.3,9.7,29.5,18.9c5.6,9.2,6.5,16.8,5.4,22.5
	c-1.1,5.7-4.4,9.7-8.7,12.7c-4.3,3-8.9,4.3-13.7,3.3c-4.8-1.1-9.7-4.6-15.1-11.4c-5.6-6.8-9.4-18.4-13.2-28.3
	c-1.3-3.3-2.4-6.5-3.5-9c-17,8.3-33.5,18.3-49.1,29.8c12.4-1.1,26.2,2.2,33.3,9.4c7.6,7.1,10.3,14.3,10.3,20
	c0.2,5.9-2.4,10.6-6,14.6c-3.7,4-7.8,6.7-12.7,7s-10.5-1.7-17.5-6.7c-7-4.9-13.5-14.9-19.4-23.2c-1.9-2.7-3.8-5.4-5.6-7.5
	c-14.9,12.5-28.9,26.7-41.4,41.9c11.9-4.4,26.2-5.2,35.1-0.5c9,4.8,13.3,10.8,14.8,16.2c1.4,5.6,0,10.8-2.5,15.7
	c-2.7,4.9-6.2,8.6-10.8,10.2c-4.8,1.6-10.6,1.3-18.6-1.6s-16.7-10.5-24.5-16.7c-2.5-2.1-5.1-4-7.1-5.6c-11.7,16-22.2,33.2-31,51
	c10.6-7.5,24.8-12.2,34.5-10.2c10,1.9,15.4,6.7,18.1,11.4c2.7,4.9,2.5,10.3,1.1,15.7c-1.4,5.4-4,9.7-8.3,12.5
	c-4.3,2.9-10,4-18.4,3.3c-8.3-0.6-18.6-5.6-27.8-9.2c-3-1.3-5.9-2.4-8.4-3.2c-11.1,26.7-18.9,54.5-22.7,81.9c-4.4-0.6-9-1-13.5-1.4
	c2.9-20.2,7.6-40.3,14.1-60.2c-2.9-1.3-6.7-2.5-10.8-4c-9.4-3.3-20.6-6-27-12.4c-6.4-6.4-9.2-13-9.2-20.2c0-7.1,2.7-14.8,7.3-21.9
	s10-12.2,16-13.3c6-1.1,12.4,1.7,18.7,10.6c6.4,8.9,9.5,25.6,10.8,39.2c0.2,1.6,0.3,3.2,0.3,4.6c8.1-20.8,18.3-41,30.2-60.2
	c-2.5-2.1-5.7-4.4-9.4-7.1c-8.1-6-17.8-12.1-22.2-20.2c-4.3-8.1-5.2-15.7-3.3-23c1.9-7.3,6.4-14.1,12.4-19.8
	c6-5.7,12.4-9.2,18.3-8.6c5.9,0.6,11.1,5.6,14.8,16.2c3.7,10.8,2.5,28.3,0.3,42.2c-0.3,1.7-0.5,3.3-0.8,4.9
	c12.9-18.6,27.3-35.9,43.3-51.8C936,169.7,933.7,166.4,930.8,162.7z"/>
<rect x="-13.9" y="-15.8" class="st7" width="2439" height="378.3"/>
<path class="st3" d="M13.4,350.4c0,0-35.2-12.1-58.2-36.6C-57.9,299.9-61,286.3-61,286.3s1.2-9.8,8.8-25.1
	c7.6-15.3,14.3-20.3,14.3-20.3s20.6,29.5,42.2,42.8c21.7,13.2,33.3,14.3,33.3,14.3S9,267.7-3.1,247.3c-14-23.4-13.8-37.2-13.8-37.2
	s-1.2-13.2,16-27.6c12.7-10.8,26.2-9.4,26.2-9.4s-4.6,27.1,5.9,51.3c9.2,20.9,16.7,25.5,16.7,25.5s-15.1-68.6,9.3-94.7
	s68.8-18,68.8-18s7.9,37,4.2,74.3c-3.4,34.1-7.1,48.9-7.1,48.9s17.4-17.3,25.5-54.9c8.1-37.7,9.4-77.1,9.4-77.1s22.7-3.9,49.2,10
	c23.9,12.4,34.5,29.2,34.5,29.2s-7.4,25.6-31.4,60.5c-17.4,25.3-35.6,40.4-35.6,40.4s34.3-10.2,60.1-39.4
	c24.2-27.3,33.4-44.3,33.4-44.3s13.9,5.2,23.2,21.8c6,10.8,4.2,21.1,4.2,21.1s-10.4,19.7-39.6,42.9c-22.7,18-53,31.6-53,31.6
	s32.4-3.6,59.1-21.8c29.4-20,45.3-41.8,45.3-41.8s12.1,33.5,1.7,57c-17.1,39.4-63.3,54.9-63.3,54.9L13.4,350.4L13.4,350.4z"/>
<linearGradient id="SVGID_1_" gradientUnits="userSpaceOnUse" x1="-8.2499" y1="59.8205" x2="76.7918" y2="19.5084" gradientTransform="matrix(1 0 0 -1 0 354)">
	<stop  offset="0" style="stop-color:#F2F5F9"/>
	<stop  offset="1" style="stop-color:#BEC4CE"/>
</linearGradient>
<path class="st8" d="M96.8,337.8C96.8,337.8,96.7,337.8,96.8,337.8c-86.1-2.7-124.7-58.1-125-58.6c-0.7-1-0.5-2.4,0.6-3.1
	c1-0.7,2.4-0.5,3.1,0.6c0.3,0.6,37.8,54.1,121.4,56.7c1.2,0,2.2,1,2.1,2.3C99,336.7,97.9,337.8,96.8,337.8z"/>
<linearGradient id="SVGID_00000052066346310917745060000011894057388373561750_" gradientUnits="userSpaceOnUse" x1="45.3313" y1="104.3283" x2="76.348" y2="69.3093" gradientTransform="matrix(1 0 0 -1 0 354)">
	<stop  offset="0" style="stop-color:#F2F5F9"/>
	<stop  offset="1" style="stop-color:#BEC4CE"/>
</linearGradient>
<path style="opacity:0.31;fill:url(#SVGID_00000052066346310917745060000011894057388373561750_);enable-background:new    ;" d="
	M85.4,296.9c-0.3,0-0.7-0.1-0.9-0.2c-63.7-34.6-73.9-96.4-74-97.1c-0.2-1,0.6-2.1,1.7-2.3c1.2-0.2,2.1,0.6,2.3,1.6
	c0.1,0.6,10,60.5,72,94.1c1,0.6,1.3,1.7,0.8,2.8C86.8,296.5,86.1,296.9,85.4,296.9z"/>
<linearGradient id="SVGID_00000110429679552265746790000012400728709560961691_" gradientUnits="userSpaceOnUse" x1="91.5789" y1="150.8877" x2="86.5758" y2="81.3433" gradientTransform="matrix(1 0 0 -1 0 354)">
	<stop  offset="0" style="stop-color:#F2F5F9"/>
	<stop  offset="1" style="stop-color:#BEC4CE"/>
</linearGradient>
<path style="opacity:0.31;fill:url(#SVGID_00000110429679552265746790000012400728709560961691_);enable-background:new    ;" d="
	M89.5,283.6L89.5,283.6c-1.2,0-2-0.9-2-2.1l1.9-126.3c0-1,0.9-2,2.1-2c1.2,0,2,0.9,2,2.1l-1.9,126.4
	C91.5,282.7,90.5,283.6,89.5,283.6z"/>
<linearGradient id="SVGID_00000157302670705475572080000001607116570510855068_" gradientUnits="userSpaceOnUse" x1="185.5218" y1="139.2935" x2="135.2697" y2="86.8323" gradientTransform="matrix(1 0 0 -1 0 354)">
	<stop  offset="0" style="stop-color:#F2F5F9"/>
	<stop  offset="1" style="stop-color:#BEC4CE"/>
</linearGradient>
<path style="opacity:0.31;fill:url(#SVGID_00000157302670705475572080000001607116570510855068_);enable-background:new    ;" d="
	M134.3,295.5c-0.7,0-1.4-0.3-1.7-0.9c-0.7-0.9-0.5-2.3,0.5-3.1c55-39.9,80.1-135.6,80.3-136.5c0.3-1.2,1.5-1.9,2.7-1.6
	c1.2,0.2,1.9,1.5,1.6,2.7c-0.2,0.9-25.7,98.3-82,139C135.3,295.2,134.8,295.5,134.3,295.5z"/>
<linearGradient id="SVGID_00000049194354667050051190000008010784254658865566_" gradientUnits="userSpaceOnUse" x1="237.3067" y1="98.8007" x2="147.8494" y2="63.4596" gradientTransform="matrix(1 0 0 -1 0 354)">
	<stop  offset="0" style="stop-color:#F2F5F9"/>
	<stop  offset="1" style="stop-color:#BEC4CE"/>
</linearGradient>
<path style="opacity:0.31;fill:url(#SVGID_00000049194354667050051190000008010784254658865566_);enable-background:new    ;" d="
	M151,309c-0.9,0-1.9-0.6-2.1-1.6c-0.3-1.2,0.3-2.4,1.5-2.8c105.1-29.8,141.7-91.7,142.1-92.4c0.6-1,2-1.4,3-0.8c1,0.6,1.4,2,0.8,3
	c-0.3,0.7-37.8,64.1-144.7,94.3C151.5,309,151.2,309,151,309z"/>
<linearGradient id="SVGID_00000057867443998596785780000009947306054547161744_" gradientUnits="userSpaceOnUse" x1="231.1194" y1="38.8741" x2="154.9153" y2="28.9345" gradientTransform="matrix(1 0 0 -1 0 354)">
	<stop  offset="0" style="stop-color:#F2F5F9"/>
	<stop  offset="1" style="stop-color:#BEC4CE"/>
</linearGradient>
<path style="opacity:0.31;fill:url(#SVGID_00000057867443998596785780000009947306054547161744_);enable-background:new    ;" d="
	M159.8,335.1c-2.9,0-5.9,0-8.9-0.1c-1.3,0-2.2-1-2.2-2.3c0-1.2,1-2.2,2.2-2.2l0,0c112.2,2.1,155.7-38.5,156.2-38.9
	c0.9-0.8,2.3-0.8,3.1,0c0.8,0.9,0.8,2.3-0.1,3.1C308.6,296.5,267.4,335.1,159.8,335.1z"/>
<g>
	<path class="st14" d="M1600.2,237c13.4-22.8,39.8-32.6,74.6-21.2c-14.4-50.4-1.5-86.2,26.8-101.1c14.3-7.5,30.1-8.7,46.2-2.4
		c0.5-39.3,21.1-62.4,45.9-67.7c30-6.3,59.1,15.7,71.8,69.8c17.8-8.6,35.6-8.1,51.4,0.2c28.3,14.9,41.1,50.7,26.8,101.1
		c34.8-11.4,61.3-1.6,74.6,21.2c17.7,30.2,5.9,71.7-46.8,106c-9.2,6-19.2,11.4-29.3,16.1h-113.9h-38h-114
		c-10.2-4.7-20.1-10-29.3-16.1C1594.4,308.7,1582.6,267.3,1600.2,237z"/>
	<path class="st15" d="M1637.1,251c0.2,0.3,15.9,17.1,46.9,42.3c0.1,0.1,0.2,0.2,0.3,0.3h0.1c5.7,4.6,11.9,9.5,18.6,14.6
		c-5.8,3.4-19.4,10.4-34.7,12c-1.4,0.1-2.4,1.4-2.3,2.9c0.1,1.3,1.3,2.3,2.6,2.3c0.1,0,0.2,0,0.2,0c18.4-1.8,33.8-10.7,38.6-13.7
		c6.8,5.1,14.2,10.5,22,16c0.1,0.1,0.2,0.2,0.3,0.2c14.2,9.9,29.9,20.4,47.4,31.2h9.9c-19.6-12-37.4-23.6-53.2-34.6
		c0.7-4.2,2.1-15.6-0.2-28c-0.2-1.4-1.7-2.3-3.1-2.1c-1.4,0.2-2.3,1.6-2.1,3.1c1.8,9.6,1.3,18.6,0.6,23.6
		c-15.4-11-28.8-21.2-40.2-30.4c13.1-22.6,6-48.5,5.7-49.6c-0.3-1.4-1.8-2.2-3.2-1.7c-1.4,0.3-2.2,1.8-1.7,3.2
		c0.1,0.2,6.7,24.4-4.8,45c-29.2-24-43.9-39.7-44.2-40.1c-0.9-1-2.6-1.1-3.7-0.1C1636.2,248.2,1636.1,249.9,1637.1,251z
		 M1891.4,327.9c-14.2,9.9-30,20.4-47.5,31.2h9.7c15.3-9.6,29.3-18.8,41.9-27.8c0.1-0.1,0.2-0.1,0.3-0.2c7.9-5.6,15.2-10.8,22-16
		c4.8,3,20.2,11.8,38.6,13.7c0.1,0,0.2,0,0.2,0c1.4,0,2.4-1,2.5-2.3c0.1-1.4-0.9-2.6-2.3-2.9c-15.3-1.6-28.9-8.6-34.6-12
		c6.7-5.1,12.9-10,18.6-14.6c0,0,0,0,0.1,0c0.1-0.1,0.2-0.2,0.3-0.3c31-25.2,46.7-42,46.9-42.3c0.9-1,0.9-2.7-0.1-3.7
		c-1-0.9-2.6-0.9-3.7,0.1c-0.2,0.2-14.9,16.1-44.2,40.1c-11.5-20.5-4.9-44.6-4.8-45c0.3-1.4-0.3-2.7-1.7-3.2s-2.9,0.5-3.2,1.8
		c-0.3,1.1-7.4,27,5.7,49.6c-11.4,9.1-24.8,19.4-40.2,30.4c-0.6-5-1.3-14.2,0.6-23.6c0.2-1.4-0.7-2.7-2.1-3
		c-1.4-0.2-2.7,0.6-3.1,2.1C1889.3,312.3,1890.7,323.6,1891.4,327.9z M1796.2,278.5c0.2,0.1,6.5,3.3,12.7,5.2
		c1.9,24.4,4.3,49.8,7.3,75.4h5.2c-1.9-17.1-3.8-34.2-5.2-51c6.3-1.9,12.8-5.2,13-5.4c1.3-0.7,1.7-2.2,1.1-3.5
		c-0.7-1.3-2.3-1.7-3.4-1.1c0,0-5.6,2.9-11.2,4.7c-1.7-19.2-3.1-37.8-4.1-55.7c9-3.5,18.3-9.8,18.6-10.2c1.1-0.8,1.5-2.4,0.7-3.5
		c-0.8-1.1-2.4-1.5-3.5-0.7c-0.1,0.1-8.1,5.6-16.1,9c-0.9-15.4-1.7-30.2-2.4-44.4c12-5.4,24.3-14.7,24.8-15.1
		c1.1-0.9,1.4-2.5,0.5-3.7c-0.9-1.1-2.5-1.4-3.7-0.5c-0.1,0.1-11.1,8.3-21.9,13.6c-0.8-18.9-1.4-36.4-1.7-51.8
		c17-8.2,34.9-24.1,35.7-24.8c1-0.9,1.1-2.6,0.2-3.7c-0.9-1-2.6-1.1-3.7-0.2c-0.2,0.1-16.7,14.7-32.5,22.9
		c-0.9-41.1-0.5-67.1-0.5-67.8c0-1.4-1.1-2.6-2.5-2.6s-2.6,1.1-2.6,2.5c0,0.6-0.2,16.7,0,43.3c-15.7-8.1-32.4-22.8-32.5-22.9
		c-1-0.9-2.7-0.9-3.7,0.2c-0.9,1-0.9,2.7,0.2,3.7c0.8,0.7,18.9,16.8,36.1,24.9c0.1,7,0.2,14.6,0.5,22.7c0,0.1,0,0.3,0,0.5
		c0.2,8.7,0.5,17.9,0.8,27.7c-11-5.2-22.3-13.8-22.4-13.8c-1.1-0.8-2.7-0.7-3.7,0.5c-0.9,1.1-0.7,2.7,0.5,3.7
		c0.6,0.5,13.4,10.2,25.6,15.5l0,0c0.6,15.1,1.3,31.4,2.2,48.5c-7.9-3.4-15.6-8.8-15.7-8.8c-1.1-0.8-2.7-0.6-3.5,0.7
		c-0.8,1.1-0.6,2.7,0.7,3.5c0.5,0.2,9.8,6.7,18.9,10.3c0.9,16.5,2.1,34,3.4,51.8c-5.1-1.8-9.8-4.2-9.9-4.3c-1.3-0.7-2.9-0.2-3.4,1.1
		C1794.5,276.2,1794.9,277.8,1796.2,278.5z M1860.2,290.5c-9.5,23.3-20.3,46.8-32.3,68.6h5.8c5.5-10,10.7-20.4,15.7-31
		c2.2,0.2,6,0.7,9.9,0.7c3.2,0,6.3-0.2,8.8-1c1.4-0.5,2.1-1.8,1.7-3.2c-0.5-1.4-1.9-2.1-3.2-1.7c-3.7,1.1-10.4,0.8-14.8,0.3
		c5-11,9.8-22,14.2-33.1c0,0,0.1,0,0.1-0.1v-0.1c4.7-11.6,9-23.1,13-34.2c1.8,0.3,4.8,0.8,8.6,0.8c6.2,0,14.5-1.1,24.4-5.1
		c1.3-0.6,1.9-2.1,1.4-3.3c-0.6-1.4-2.1-1.9-3.3-1.4c-14.2,5.7-24.8,4.9-29.3,4.2c4.3-12.4,8.3-24.5,11.9-35.7l0.1-0.1
		c0-0.1,0-0.2,0.1-0.5c3.2-10,5.9-19.3,8.3-27.8c3.4,0.7,10.3,1.9,18.8,1.9c6.2,0,13.1-0.7,20.4-2.5c1.4-0.3,2.2-1.7,1.8-3.2
		c-0.3-1.4-1.7-2.3-3.2-1.8c-15.7,4.1-30.7,1.8-36.5,0.6c7.2-25.6,11-42.2,11.1-42.7c0.3-1.4-0.6-2.7-1.9-3.1
		c-1.4-0.3-2.7,0.6-3.1,1.9c-0.1,0.7-7,30.8-19.9,72.5c-5.7-3-19.9-11.5-26.5-27.8c-0.6-1.3-2.1-1.9-3.4-1.4
		c-1.3,0.6-1.9,2.1-1.4,3.3c7.6,18.7,23.7,28,29.7,30.8c-6.7,21.5-15.2,45.8-25,70.4c-3.3-1.9-9.8-7.2-14-19.7
		c-0.5-1.4-1.9-2.1-3.3-1.6c-1.4,0.5-2.1,1.9-1.6,3.3C1848.1,282.2,1856.1,288.3,1860.2,290.5z M1776,324.7
		c5.5,11.8,11.4,23.3,17.6,34.5h5.7c0-0.2-0.1-0.5-0.2-0.7c-12.7-22.6-24-47.1-33.8-71.3c4.1-2.3,12-8.2,17-22.8
		c0.5-1.4-0.2-2.9-1.6-3.3s-2.9,0.2-3.3,1.6c-4.2,12.6-10.7,17.8-14,19.7c-9.8-24.6-18.3-49-25-70.4c5.9-2.9,22-12.1,29.7-30.8
		c0.6-1.4-0.1-2.9-1.4-3.3c-1.3-0.6-2.9,0.1-3.4,1.4c-6.6,16.2-20.8,24.9-26.5,27.7c-13-41.7-19.7-71.9-20-72.5
		c-0.3-1.4-1.7-2.3-3.1-1.9c-1.4,0.3-2.3,1.7-1.9,3.1c0.1,0.5,3.9,17.1,11.1,42.7c-5.7,1.3-20.8,3.5-36.4-0.6
		c-1.4-0.3-2.7,0.5-3.2,1.8c-0.3,1.4,0.5,2.7,1.8,3.2c7.2,1.9,14.3,2.5,20.4,2.5c8.6,0,15.3-1.3,18.8-1.9c2.4,8.6,5.2,17.9,8.3,27.8
		c0,0.1,0,0.2,0.1,0.5c0,0,0,0,0.1,0.1c3.5,11.3,7.5,23.3,11.9,35.7c-4.7,0.8-15.3,1.5-29.4-4.1c-1.3-0.6-2.9,0.1-3.4,1.4
		c-0.6,1.4,0.1,2.9,1.4,3.3c9.9,4,18.4,5.1,24.4,5.1c3.9,0,6.7-0.5,8.6-0.8c4,11.2,8.3,22.7,13,34.2c0,0,0,0,0,0.1c0,0,0,0,0.1,0.1
		c4.5,11,9.1,22.1,14.3,33.1c-4.5,0.5-11.2,0.8-14.8-0.3c-1.4-0.5-2.9,0.3-3.2,1.7c-0.5,1.4,0.3,2.9,1.7,3.2c2.4,0.8,5.6,1,8.7,1
		C1769.9,325.4,1773.8,324.9,1776,324.7z"/>
</g>
<g>
	<g>
		<path class="st2" d="M2376,150.3c-1.8-2.5-4.2-4.5-6.9-6c-2.8-1.5-6-2.3-9.4-2.3c-4,0-7.7,1.2-10.9,3.2c-0.7,0.4-1.3,0.9-2,1.4
			c-2.4,2-4.4,4.6-5.6,7.5c-3.2-7.4-10.8-12.5-19.4-12.1c-10.3,0.5-18.7,8.9-19.2,19.2c-0.1,2.1,0.1,4.2,0.7,6.1
			c5.8-5.4,13.6-8.7,22.2-8.7c7.3,0,14.1,2.4,19.6,6.5l1-0.2l3-0.8l0.8-0.2l1.5-0.4c0.1-0.1,0.2-0.1,0.4-0.1l0,0l1.7-0.4
			c0.4-0.1,0.7,0.2,0.6,0.6l-0.8,2.9l-1.3,5.2l-0.1,0.2c4,5.4,6.3,12.1,6.3,19.3c0,1.8-0.1,3.5-0.4,5.1c4.7-4.1,8.4-8,11.3-11.5
			c1.7-2.1,3.2-4.1,4.4-5.9c0.6-0.9,1.2-1.8,1.7-2.6c2-3.5,3.2-6.3,3.8-8.3l0,0c0.1-0.3,0.2-0.6,0.2-0.9c0.4-1.5,0.5-2.4,0.5-2.6
			l0,0l0,0c0.1-0.8,0.2-1.6,0.2-2.4C2379.9,157.7,2378.4,153.6,2376,150.3z"/>
		<path class="st2" d="M2330.5,171.2c0.2,0.1-0.5,0-0.7-1c-0.1-0.3,0-1.4,1-1.8l0,0c0.1-0.1,0.3-0.1,0.4-0.1c0,0,0,0,0.1,0l0,0
			l5.4-1.2l3.8-0.9l0.6-0.1l0.7-0.2l3.1-0.8c-5.5-4.1-12.2-6.5-19.6-6.5c-8.6,0-16.4,3.3-22.2,8.7c0.6,2.2,1.6,4.3,2.8,6.2
			c3.6,5.3,9.7,8.8,16.6,8.8c0,0,6.9,0,10.4-5.4C2335.3,171.3,2330.5,171.2,2330.5,171.2z"/>
		<path class="st2" d="M2351.9,172.1l-1.4,5.4v0.1l-0.5,1.9l0,0l-1.6,6.4l0,0c0,0.1,0,0.3-0.1,0.4l0,0c-0.2,0.5-0.7,0.9-1.3,1
			c-0.4,0.1-0.8-0.1-1.1-0.2l0,0l0,0c-0.3-0.3-0.5-0.6-0.6-1.1c-0.2-1.1-1.1-3.6-4-2.8c0,0-0.6,0.1-1.4,0.8
			c-3.6,3.3-5.4,9.8-4.9,15.2c0,0.3,0.2,1.6,0.3,1.8c0.3,1.4,1.2,4.5,4.2,6.9c0.5,0.4,1.1,0.8,1.7,1.2l0,0c3.5-2.4,6.8-4.6,9.7-6.9
			c2.5-1.9,4.8-3.8,6.9-5.6c0.3-1.7,0.4-3.4,0.4-5.1C2358.2,184.1,2355.9,177.5,2351.9,172.1z"/>
	</g>
</g>
<g>
	<path class="st16" d="M1916.6,358.1c-4.2-33.3,79.8-37.3,109.9-30.3c-20.5-10.9-69.8-9.1-101.4-2.7c-31.5,6.4-31.2-34.8-0.6-38.8
		c48.5-6.3,102.2,25,102.2,25s-34-30.5-87.9-36.3c-26.7-2.9-32.3-6.7-33.9-17.4c-1.6-10.7,1.8-28.7,35.2-21.9
		c33.4,6.8,56.2,20.4,93.5,50.4c-26.1-37.1-117.1-69.5-93.4-91.6c23.7-22.1,74.7,25,97.3,70.8c-9.4-36.7-77.2-98.7-42-102.5
		c31.6-3.4,49.8,56.9,58,94c3.4-49-23-124.3,10-122.5c41,2.2,11.7,137.9,11.7,137.9s37.5-115.4,58.8-93.1
		c21.3,22.3-13.7,80-35.5,110.9c26.6-24.6,56.9-69.6,66.3-47.7c9.4,22-39.8,59.1-55.1,70.7c30.1-17,60.9-48,69.6-25.4
		c11.1,28.7-62.2,51.3-70.3,53.7c0.6-0.2,1.5-0.4,2.6-0.7c30.1-8.7,76.4-11.7,75.4,14.8c0,1-0.2,1.9-0.3,2.8H1916.6z"/>
	<path class="st17" d="M2064.4,146.5c-0.1-0.6,0.4-1.2,1-1.3c0.7-0.1,1.2,0.4,1.3,1c0.1,1,11.8,98.2-3.7,163.7
		c-0.1,0.5-0.6,0.9-1.1,0.9c-0.1,0-0.2,0-0.3,0c-0.6-0.2-1-0.8-0.9-1.4C2076.2,244.3,2064.5,147.4,2064.4,146.5z"/>
	<path class="st17" d="M2128.8,191c0.2-0.6,0.9-1,1.5-0.7c0.6,0.2,0.9,0.9,0.7,1.5c-0.3,0.8-25.4,75.3-60.2,118.6
		c-0.2,0.3-0.6,0.4-0.9,0.4c-0.3,0-0.5-0.1-0.7-0.3c-0.5-0.4-0.6-1.1-0.2-1.7C2103.5,265.8,2128.6,191.7,2128.8,191z"/>
	<path class="st17" d="M2075.9,317.6c-0.2,0.1-0.4,0.1-0.6,0.1c-0.4,0-0.8-0.3-1-0.7c-0.3-0.6,0-1.3,0.5-1.6
		c52.8-25.6,82.9-68.3,83.2-68.8c0.4-0.5,1.1-0.7,1.6-0.3c0.5,0.4,0.7,1.1,0.3,1.6C2159.7,248.5,2129.3,291.7,2075.9,317.6z"/>
	<path class="st17" d="M2076.4,333.4c47.3-3.6,91.8-39.3,92.2-39.7c0.5-0.4,1.2-0.3,1.7,0.2c0.4,0.5,0.3,1.3-0.2,1.7
		c-0.4,0.4-45.5,36.6-93.5,40.2c0,0-0.1,0-0.1,0c-0.6,0-1.1-0.5-1.2-1.1C2075.3,334,2075.8,333.5,2076.4,333.4z"/>
	<path class="st17" d="M2076.8,344.9c40.3,10.7,96.5,5.7,97.1,5.7c0.7-0.1,1.2,0.4,1.3,1.1c0.1,0.6-0.4,1.2-1.1,1.3
		c-0.3,0-13.6,1.2-32,1.2c-19.6,0-44.9-1.4-66-7c-0.6-0.2-1-0.8-0.8-1.4C2075.5,345.1,2076.2,344.7,2076.8,344.9z"/>
	<path class="st17" d="M2055.5,311.6c5.2-50.4-51.5-135.5-52.1-136.3c-0.4-0.6-0.2-1.3,0.3-1.7c0.6-0.4,1.3-0.2,1.7,0.3
		c2.4,3.5,57.8,86.6,52.5,138c-0.1,0.6-0.6,1.1-1.2,1.1c0,0-0.1,0-0.1,0C2055.9,312.9,2055.4,312.3,2055.5,311.6z"/>
	<path class="st17" d="M2051.9,300.2c0.3,0.6,0,1.3-0.7,1.6c-0.1,0.1-0.3,0.1-0.5,0.1c-0.5,0-0.9-0.3-1.1-0.7
		c-20.4-48.7-96.9-97.1-97.7-97.6c-0.6-0.4-0.7-1.1-0.4-1.7c0.4-0.6,1.1-0.7,1.7-0.4C1954.1,202,2031.2,250.8,2051.9,300.2z"/>
	<path class="st17" d="M2051.9,328.6c0.3,0.6,0,1.3-0.6,1.6c-0.2,0.1-0.4,0.1-0.5,0.1c-0.4,0-0.9-0.2-1.1-0.7
		c-32.4-65.6-132.4-72.1-133.4-72.1c-0.7,0-1.2-0.6-1.1-1.3c0-0.7,0.6-1.2,1.3-1.1C1917.5,255.2,2018.9,261.7,2051.9,328.6z"/>
	<path class="st17" d="M1912.3,310.6c0.8-0.3,84-25.6,139.3,27.6c0.5,0.5,0.5,1.2,0,1.7c-0.2,0.2-0.6,0.4-0.9,0.4
		c-0.3,0-0.6-0.1-0.8-0.3c-54.3-52.2-136.1-27.3-136.9-27c-0.6,0.2-1.3-0.2-1.5-0.8C1911.3,311.5,1911.7,310.8,1912.3,310.6z"/>
	<path class="st17" d="M1932.4,351.8c3.3-1.1,80.3-25.8,120.8-3.4c0.6,0.3,0.8,1,0.5,1.6c-0.3,0.6-1,0.8-1.6,0.5
		c-39.5-22-118.1,3.3-118.9,3.6c-0.1,0-0.2,0.1-0.4,0.1c-0.5,0-1-0.3-1.1-0.8C1931.5,352.7,1931.8,352,1932.4,351.8z"/>
</g>
</svg>
