<?xml version="1.0" encoding="utf-8"?>
<!-- Generator: Adobe Illustrator 25.4.1, SVG Export Plug-In . SVG Version: 6.00 Build 0)  -->
<svg version="1.1" id="Camada_1" xmlns="http://www.w3.org/2000/svg" xmlns:xlink="http://www.w3.org/1999/xlink" x="0px" y="0px"
	 viewBox="0 0 200 200" style="enable-background:new 0 0 200 200;" xml:space="preserve">
<style type="text/css">
	.st0{fill:#FFFFFF;}
	.st1{fill:#E95374;}
	.st2{fill:#FEFEFE;}
</style>
<g>
	<rect x="-5.5" y="-5.5" class="st0" width="211" height="211"/>
</g>
<g>
	<g>
		<g>
			<path class="st1" d="M141.6,141.6c-23,23-60.2,23-83.2,0c-22.9-23.1-22.9-60,0-83c22.9-22.9,60.1-22.9,83,0
				C164.5,81.5,164.5,118.6,141.6,141.6z"/>
		</g>
	</g>
	<path class="st2" d="M119.2,94.6c-1.6,1.6-3,3-4.6,4.6c-0.6,0.6-0.6,0.9,0,1.6c3,3,5.9,5.9,8.9,8.9c3.4,3.5,3.5,8.8,0.3,12.6
		c-3.4,4-8.8,4.9-12.8,2.2c-2-1.4-3.5-3.3-5.3-5c-1.6-1.6-3.2-3.2-4.7-4.9c-0.8-0.8-1.2-0.9-2,0c-2.8,2.9-5.7,5.8-8.6,8.6
		c-3.6,3.5-8.7,3.7-12.6,0.6c-4-3.2-5.1-8.3-2.6-12.7c0.6-0.8,1.1-1.6,1.8-2.3c2.7-2.7,5.3-5.4,8.1-8.1c0.8-0.8,0.7-1.3-0.1-2.1
		c-2.9-2.8-5.7-5.7-8.6-8.6c-3.3-3.4-3.6-8.6-0.8-12.2c3.3-4.2,8.3-5.4,12.5-3.2c1,0.6,1.8,1.3,2.6,2.1c2.7,2.7,5.4,5.4,8.1,8.2
		c0.8,0.8,1.1,0.8,1.9,0.1c2.8-2.9,5.6-5.7,8.5-8.5c3-2.9,6.6-3.6,10.5-2c3.7,1.5,6.2,5.4,6.2,9.3c0,2.4-0.8,4.5-2.5,6.2
		C122.2,91.7,120.7,93.1,119.2,94.6L119.2,94.6z"/>
</g>
</svg>
