<?xml version="1.0" encoding="utf-8"?>
<!-- Generator: Adobe Illustrator 25.4.1, SVG Export Plug-In . SVG Version: 6.00 Build 0)  -->
<svg version="1.1" id="Camada_1" xmlns="http://www.w3.org/2000/svg" xmlns:xlink="http://www.w3.org/1999/xlink" x="0px" y="0px"
	 viewBox="0 0 200 200" style="enable-background:new 0 0 200 200;" xml:space="preserve">
<style type="text/css">
	.st0{fill:#FFFFFF;}
	.st1{fill:#9C3586;}
</style>
<g>
	<rect x="-5.5" y="-5.5" class="st0" width="211" height="211"/>
</g>
<g>
	<g>
		<path class="st1" d="M99.9,150.2c-13.1,0-26.1,0-39.2,0c-4.1,0-7.3-1.6-9.5-5c-1.9-2.9-1.9-6-0.3-9.1c4.2-8.1,10.6-14,18.6-18.4
			c2.5-1.4,5.1-2.8,8-3.4c2.5-0.5,4.9-0.1,7.2,1.1c10.4,5.7,20.7,5.7,31-0.1c3.1-1.8,6.4-2,9.6-0.7c9.6,3.9,17.6,10,23,19.1
			c1.7,2.8,2.7,5.7,1.8,9c-1.2,4-5,7.1-9.1,7.4c-0.7,0.1-1.5,0.1-2.2,0.1C125.7,150.2,112.8,150.2,99.9,150.2z"/>
	</g>
	<g>
		<path class="st1" d="M125.1,80.4c-0.1,7.5-2.3,14.9-7.6,21.1c-9.8,11.4-25.1,11.4-35,0c-10.4-12-10.1-32.2,0.6-43.9
			c10-10.9,25.5-10.4,34.8,1.2C122.6,64.6,125.1,72.1,125.1,80.4z"/>
	</g>
</g>
</svg>
