<?xml version="1.0" encoding="utf-8"?>
<!-- Generator: Adobe Illustrator 25.4.1, SVG Export Plug-In . SVG Version: 6.00 Build 0)  -->
<svg version="1.1" id="Camada_1" xmlns="http://www.w3.org/2000/svg" xmlns:xlink="http://www.w3.org/1999/xlink" x="0px" y="0px"
	 viewBox="0 0 200 200" style="enable-background:new 0 0 200 200;" xml:space="preserve">
<style type="text/css">
	.st0{fill:#FFFFFF;}
	.st1{fill:#9C3586;}
</style>
<g>
	<rect x="-5.5" y="-5.5" class="st0" width="211" height="211"/>
</g>
<g>
	<g>
		<path class="st1" d="M100,88.2c15.4,0,30.9,0,46.3,0c5.9,0,10.6,3.5,11.9,8.9c1.8,7.4-3.4,14.3-11.2,14.6c-0.4,0-0.7,0-1.1,0
			c-30.7,0-61.4,0-92.1,0c-5.7,0-10.1-2.9-11.9-7.8c-2.8-7.7,2.9-15.6,11.4-15.7c7.8-0.1,15.7,0,23.5,0
			C84.6,88.2,92.3,88.2,100,88.2z"/>
	</g>
	<g>
		<path class="st1" d="M88.4,53c11.5,0,23,0,34.5,0c6.4,0,11.1,3.9,12.2,10c1.1,6-3.5,12.3-9.6,13.3c-0.9,0.1-1.8,0.2-2.7,0.2
			c-23,0-46,0-69,0c-6,0-10.7-3.5-12-8.9c-1.9-7.6,3.8-14.6,11.9-14.6C65.2,53,76.8,53,88.4,53z"/>
	</g>
	<g>
		<path class="st1" d="M88.3,147c-11.5,0-23.1,0-34.6,0c-5.9,0-10.6-3.5-11.9-8.9c-1.8-7.3,3.4-14.2,11-14.6c0.4,0,0.7,0,1.1,0
			c23,0,45.9,0,68.9,0c6,0,10.6,3.3,12.1,8.7c1.9,6.8-2.7,13.8-9.7,14.7c-0.9,0.1-1.8,0.2-2.7,0.2C111,147,99.7,147,88.3,147z"/>
	</g>
</g>
</svg>
