<?xml version="1.0" encoding="utf-8"?>
<!-- Generator: Adobe Illustrator 25.4.1, SVG Export Plug-In . SVG Version: 6.00 Build 0)  -->
<svg version="1.1" id="Camada_1" xmlns="http://www.w3.org/2000/svg" xmlns:xlink="http://www.w3.org/1999/xlink" x="0px" y="0px"
	 viewBox="0 0 200 200" style="enable-background:new 0 0 200 200;" xml:space="preserve">
<style type="text/css">
	.st0{fill:#FFFFFF;}
	.st1{fill:#9C3586;}
</style>
<g>
	<rect x="-5.5" y="-5.5" class="st0" width="211" height="211"/>
</g>
<g>
	<path class="st1" d="M47.9,80.3c0.5-10.7,5.1-20,15.5-25.7c10.5-5.8,23.3-3.8,31.8,4.7c1.4,1.4,2.7,2.8,4.1,4.3
		c0.5,0.6,0.8,0.7,1.4,0c2.2-2.3,4.2-4.8,6.8-6.7c12.3-9.2,29.1-6.8,38.4,5.6c9.1,12.1,8.1,29.1-2.3,40.1
		c-14.3,15.2-28.6,30.3-42.8,45.5c-0.6,0.6-0.9,0.7-1.5,0C85,133,70.7,117.8,56.5,102.7C50.8,96.6,48.1,89.4,47.9,80.3z"/>
</g>
</svg>
