<?xml version="1.0" encoding="utf-8"?>
<!-- Generator: Adobe Illustrator 25.4.1, SVG Export Plug-In . SVG Version: 6.00 Build 0)  -->
<svg version="1.1" id="Camada_1" xmlns="http://www.w3.org/2000/svg" xmlns:xlink="http://www.w3.org/1999/xlink" x="0px" y="0px"
	 viewBox="0 0 200 200" style="enable-background:new 0 0 200 200;" xml:space="preserve">
<style type="text/css">
	.st0{fill:#FFFFFF;}
	.st1{fill:#9C3586;}
	.st2{fill:#FEFEFE;}
</style>
<g>
	<rect x="-5.5" y="-5.5" class="st0" width="211" height="211"/>
</g>
<g>
	<g>
		<path class="st1" d="M158.7,100c0,32.5-26.3,58.8-58.8,58.8c-32.5-0.1-58.6-26.2-58.7-58.7c0-32.4,26.3-58.7,58.7-58.7
			C132.4,41.3,158.7,67.5,158.7,100z"/>
	</g>
	<path class="st2" d="M109.7,82.6c0,2.2,0,4.3,0,6.5c0,0.9,0.2,1.1,1.1,1.1c4.2,0,8.4,0,12.6,0c4.9,0.1,8.7,3.8,9.1,8.7
		c0.4,5.2-2.7,9.7-7.5,10.6c-2.4,0.4-4.8,0.2-7.3,0.2c-2.3,0-4.5,0-6.8-0.1c-1.1,0-1.5,0.2-1.4,1.4c0.1,4,0.1,8.1,0,12.1
		c-0.1,5-3.5,8.8-8.5,9.3c-5.1,0.6-9.5-2.3-10.8-7.1c-0.2-1-0.3-1.9-0.3-2.9c0-3.8-0.1-7.6,0-11.5c0-1.2-0.4-1.4-1.5-1.4
		c-4,0.1-8.1,0-12.1,0c-4.7-0.1-8.6-3.5-9.2-8.1c-0.7-5.3,2-9.7,6.6-11.1c1.1-0.3,2.2-0.4,3.3-0.4c3.8,0,7.6,0,11.5,0.1
		c1.1,0,1.4-0.2,1.4-1.3c-0.1-4-0.1-8,0-12c0.1-4.2,2.1-7.2,6-8.8c3.7-1.6,8.2-0.6,11,2.2c1.7,1.7,2.6,3.8,2.6,6.2
		C109.7,78.4,109.7,80.5,109.7,82.6C109.7,82.6,109.7,82.6,109.7,82.6z"/>
</g>
</svg>
