<?xml version="1.0" encoding="utf-8"?>
<!-- Generator: Adobe Illustrator 25.4.1, SVG Export Plug-In . SVG Version: 6.00 Build 0)  -->
<svg version="1.1" id="Camada_1" xmlns="http://www.w3.org/2000/svg" xmlns:xlink="http://www.w3.org/1999/xlink" x="0px" y="0px"
	 viewBox="0 0 200 200" style="enable-background:new 0 0 200 200;" xml:space="preserve">
<style type="text/css">
	.st0{fill:#6BAF95;}
	.st1{fill:url(#SVGID_1_);}
	.st2{fill:url(#SVGID_00000022524765877081858520000011354973088605035197_);}
	.st3{fill:#E95374;}
	.st4{fill:#7F4E2D;}
	.st5{fill:url(#SVGID_00000093153042815944647870000010447976773951017891_);}
	.st6{fill:#082947;}
</style>
<g>
	<g>
		<g>
			<rect x="-25.6" y="-9.2" class="st0" width="246" height="233"/>
			<path class="st0" d="M219.9-8.7v232h-245v-232H219.9 M220.9-9.7h-247v234h247V-9.7L220.9-9.7z"/>
		</g>
	</g>
</g>
<g>
	<path d="M74.1,52.9c4.4-12-20.4-35.8-39.6-14.7c-20,21.9-8.3,57.8-29.4,75.6c-21.1,17.8-36.2,19.6-39.3,58.7
		C-38.9,232,46.9,248,74.5,203.5C102.2,159,56.7,100.3,74.1,52.9z"/>
	<linearGradient id="SVGID_1_" gradientUnits="userSpaceOnUse" x1="80.1558" y1="54.4328" x2="70.4449" y2="86.7075">
		<stop  offset="0" style="stop-color:#F8B24C"/>
		<stop  offset="1" style="stop-color:#F49E37"/>
	</linearGradient>
	<path class="st1" d="M85.3,53.9c0,0-11.1-3.7-13.4-4.4c-2.3-0.6-9.7,5.3-11.7,16.1c-2.1,10.8,0.6,19.6,3.9,20.9
		c3.3,1.2,13,3.9,13,3.9S88.6,87.2,90.5,75C92.5,62.8,85.3,53.9,85.3,53.9z"/>
	<path d="M146.6,105.3c7.3-14.9,15.3-64.5-21.1-68c-32.3-3.1-51.3,10.5-51.6,45.5C73.4,124.4,135.2,128.7,146.6,105.3z"/>
	
		<linearGradient id="SVGID_00000102537299682484919140000015192880351172299673_" gradientUnits="userSpaceOnUse" x1="147.48" y1="168.8155" x2="162.7126" y2="241.9338">
		<stop  offset="0" style="stop-color:#E95374"/>
		<stop  offset="1" style="stop-color:#FF6695"/>
	</linearGradient>
	<path style="fill:url(#SVGID_00000102537299682484919140000015192880351172299673_);" d="M121.1,184.1
		c5.8,47.2,32.4,83.2,32.4,83.2s12.1,1.7,25.2-7.3c12-8.2,14.5-15.6,14.5-15.6s-13.5-30.1-20.9-71.6c-2.8-15.8-12.8-37.2-25.9-42.3
		C131.7,124.8,118,158.3,121.1,184.1z"/>
	<path class="st3" d="M156.4,154.3c1-21.9-3.8-25.5-35.4-28.3c-9.4-0.8-16.4-0.3-25.3-0.6c-30.8-1-42.3,4.2-51.7,36.6
		c-17.4,59.7-29.2,145.3-29.2,145.3S28.5,330.1,101,333c60.5,2.4,74.4-28.4,74.4-28.4s-16-10.9-14.7-55.3
		c13.9-3.6,22.3-16.5,23.5-27.4C186.7,199.3,154.7,191.8,156.4,154.3z"/>
	<path class="st4" d="M9.9,198.2c0,0-22,2.3-30.8,1.2c-6.3-0.8-12.1-10-11-15.3c1-5.3,19.3-14.2,36.3-16.4
		C17.3,166.1,12,196.7,9.9,198.2z"/>
	
		<linearGradient id="SVGID_00000052804897498365342210000016176024106091491257_" gradientUnits="userSpaceOnUse" x1="69.6886" y1="158.1733" x2="-25.5165" y2="195.4944">
		<stop  offset="0" style="stop-color:#E95374"/>
		<stop  offset="1" style="stop-color:#FF6695"/>
	</linearGradient>
	<path style="fill:url(#SVGID_00000052804897498365342210000016176024106091491257_);" d="M79.7,180.4C40.3,207-4.4,210.4-4.4,210.4
		s-9.2-8-11-23.9c-1.6-14.4,2.2-21.2,2.2-21.2s40.7-14.3,67.7-31.2c7.6-4.8,30.4-11.6,38.4,0C104.8,151.1,101.2,165.8,79.7,180.4z"
		/>
	<path class="st6" d="M110.9,122.8c-13.5-0.2-28.4-7.7-30.2,1.6c-1.8,9.3,5.8,45,26.5,56.4c20.7,11.3,38,3.5,37.4-8
		c-0.6-11.5-4.5-23.9-6.2-33c-1.7-9.1,2.4-17.8-7.1-18.1C121.7,121.3,118.4,122.9,110.9,122.8z"/>
	<path class="st4" d="M120.9,126c-9.4-0.8-16.4-0.3-25.3-0.6c-2.7-0.1-5.1-0.1-7.5-0.1c1.5,13.5,7.7,56,38,53.6
		c23-1.8,7.8-10.1,5.4-51.7C128.4,126.7,124.9,126.4,120.9,126z"/>
	<path class="st4" d="M96.8,129.2c0.9-17.3,10-28.6,17-45.2c0-0.6,27.2,1.5,34.1-11.2c0,0,1.4,16.8-1.3,30.6
		c-2.5,13-6.6,20-19.2,13.5c-3,7.4-4,9.2-3.9,10.2c1.1,11.3-4.9,21.1-10.3,21.7C107.8,149.5,95.7,150.2,96.8,129.2z"/>
	<path class="st4" d="M101.9,85.9c-2,3.1,0.1,8,4.7,10.9c4.6,2.9,9.9,2.8,11.8-0.3c2-3.1-0.1-8-4.7-10.9
		C109.2,82.7,103.9,82.8,101.9,85.9z"/>
</g>
</svg>
