<?xml version="1.0" encoding="utf-8"?>
<!-- Generator: Adobe Illustrator 25.4.1, SVG Export Plug-In . SVG Version: 6.00 Build 0)  -->
<svg version="1.1" id="Camada_1" xmlns="http://www.w3.org/2000/svg" xmlns:xlink="http://www.w3.org/1999/xlink" x="0px" y="0px"
	 viewBox="0 0 427 53" style="enable-background:new 0 0 427 53;" xml:space="preserve">
<style type="text/css">
	.st0{fill:#E5E5E5;}
	.st1{fill:#F8B34C;}
	.st2{fill:#FEFEFE;}
</style>
<ellipse class="st0" cx="212.8" cy="40.2" rx="19.2" ry="3.1"/>
<g>
	<g>
		<path class="st1" d="M232.7,20.9c0,10.6-8.6,19.3-19.3,19.3c-10.6,0-19.2-8.6-19.2-19.2c0-10.6,8.6-19.2,19.2-19.2
			C224.1,1.7,232.7,10.3,232.7,20.9z"/>
	</g>
	<path class="st2" d="M216.7,15.2c0,0.7,0,1.4,0,2.1c0,0.3,0.1,0.4,0.4,0.4c1.4,0,2.8,0,4.1,0c1.6,0,2.8,1.2,3,2.8
		c0.1,1.7-0.9,3.2-2.5,3.5c-0.8,0.1-1.6,0.1-2.4,0.1c-0.8,0-1.5,0-2.2,0c-0.4,0-0.5,0.1-0.5,0.5c0,1.3,0,2.7,0,4
		c0,1.6-1.1,2.9-2.8,3c-1.7,0.2-3.1-0.8-3.5-2.3c-0.1-0.3-0.1-0.6-0.1-0.9c0-1.2,0-2.5,0-3.8c0-0.4-0.1-0.5-0.5-0.5
		c-1.3,0-2.7,0-4,0c-1.5,0-2.8-1.1-3-2.7c-0.2-1.7,0.7-3.2,2.2-3.6c0.4-0.1,0.7-0.1,1.1-0.1c1.2,0,2.5,0,3.8,0
		c0.4,0,0.5-0.1,0.5-0.4c0-1.3,0-2.6,0-3.9c0-1.4,0.7-2.4,2-2.9c1.2-0.5,2.7-0.2,3.6,0.7c0.6,0.6,0.9,1.2,0.9,2
		C216.7,13.9,216.7,14.5,216.7,15.2L216.7,15.2z"/>
</g>
</svg>
