<?xml version="1.0" encoding="utf-8"?>
<!-- Generator: Adobe Illustrator 25.4.1, SVG Export Plug-In . SVG Version: 6.00 Build 0)  -->
<svg version="1.1" id="Camada_1" xmlns="http://www.w3.org/2000/svg" xmlns:xlink="http://www.w3.org/1999/xlink" x="0px" y="0px"
	 viewBox="0 0 427 57" style="enable-background:new 0 0 427 57;" xml:space="preserve">
<style type="text/css">
	.st0{fill:#E5E5E5;}
	.st1{fill:#F8B34C;}
	.st2{fill:#898989;}
</style>
<ellipse class="st0" cx="213.5" cy="41.2" rx="26.9" ry="3.1"/>
<g>
	<path class="st1" d="M234,36.2c0,0.7-0.1,1.3-0.1,2c-0.2,1.6-1.6,2.8-3.4,2.8c-3.9,0-7.7,0-11.6,0c-7.4,0-14.8,0-22.2,0
		c-2.4,0-3.9-1.5-3.7-3.9c0.1-2.2,0.7-4.2,1.7-6.2c0.6-1.1,1.4-1.8,2.5-2.4c2.6-1.2,5.4-2,8.1-2.9c0.3-0.1,0.5,0.1,0.6,0.2
		c2.2,2.1,4.8,3.1,7.9,3c2.7-0.1,5.1-1.2,7.1-3c0.3-0.3,0.5-0.3,0.8-0.2c2.6,0.8,5.3,1.6,7.8,2.7c1.4,0.6,2.2,1.6,2.9,2.9
		c0.7,1.5,1.1,3,1.4,4.6C233.9,36,233.8,36.2,234,36.2z"/>
	<path class="st1" d="M223.7,10.9c-0.2,3.5-1.1,7.3-3.4,10.6c-1.2,1.8-2.8,3.3-5,3.8c-2.6,0.6-4.9,0-6.9-1.8
		c-1.4-1.2-2.3-2.8-3.1-4.4c-1.3-2.9-2-5.9-2-9c0-5.1,3.9-9.4,8.9-10C218.4-0.7,223.8,4.1,223.7,10.9z"/>
</g>
<path class="st2" d="M224,23.7c0.2-0.1,0.1-0.2,0.2-0.4c0.5-1.5,1.8-2.3,3.3-2.3c1,0,1.9,0,2.9,0c0.3,0,0.4-0.1,0.4-0.4
	c0-1,0-2,0-2.9c0-2,1.5-3.5,3.4-3.5c1.9,0,3.4,1.5,3.4,3.5c0,1,0,2,0,3c0,0.3,0.1,0.4,0.4,0.4c1,0,2,0,3,0c2,0,3.5,1.5,3.5,3.4
	c0,1.9-1.5,3.4-3.4,3.4c-1,0-1.9,0-2.9,0c-0.4,0-0.5,0.1-0.5,0.5c0,1,0,1.9,0,2.9c0,2-1.5,3.5-3.4,3.5s-3.4-1.5-3.4-3.5c0-1,0-2,0-3
	c0-0.3-0.1-0.4-0.4-0.4c-0.9,0-1.9,0-2.8,0c-1.8,0-2.9-0.8-3.5-2.5c0-0.1,0-0.2-0.1-0.2C224,24.7,224,24.2,224,23.7z"/>
</svg>
