<?xml version="1.0" encoding="utf-8"?>
<!-- Generator: Adobe Illustrator 25.4.1, SVG Export Plug-In . SVG Version: 6.00 Build 0)  -->
<svg version="1.1" id="Camada_1" xmlns="http://www.w3.org/2000/svg" xmlns:xlink="http://www.w3.org/1999/xlink" x="0px" y="0px"
	 viewBox="0 0 427 57" style="enable-background:new 0 0 427 57;" xml:space="preserve">
<style type="text/css">
	.st0{fill:#E5E5E5;}
	.st1{fill:#F8B34C;}
	.st2{fill:#898989;}
</style>
<ellipse class="st0" cx="222.88" cy="41.19" rx="26.88" ry="3.07"/>
<g>
	<path class="st1" d="M243.35,36.24c-0.03,0.65-0.06,1.3-0.09,1.95c-0.22,1.57-1.64,2.75-3.35,2.75c-3.85,0.01-7.71,0-11.56,0
		c-7.41,0-14.81,0-22.22,0c-2.37,0-3.85-1.52-3.69-3.88c0.15-2.16,0.66-4.24,1.69-6.16c0.57-1.07,1.4-1.84,2.52-2.35
		c2.62-1.18,5.37-2.01,8.11-2.85c0.3-0.09,0.46,0.07,0.64,0.24c2.22,2.06,4.82,3.14,7.87,3.04c2.74-0.09,5.09-1.16,7.08-3.02
		c0.27-0.26,0.49-0.3,0.84-0.19c2.65,0.79,5.28,1.63,7.82,2.73c1.35,0.58,2.25,1.56,2.87,2.85c0.7,1.45,1.09,2.99,1.35,4.57
		C243.24,36.03,243.17,36.19,243.35,36.24z"/>
	<path class="st1" d="M233.11,10.92c-0.18,3.49-1.12,7.27-3.4,10.63c-1.24,1.83-2.82,3.26-5.02,3.8c-2.63,0.65-4.95-0.04-6.94-1.84
		c-1.37-1.23-2.34-2.75-3.09-4.42c-1.3-2.86-2.01-5.87-2-9.02c0.02-5.06,3.92-9.39,8.94-10C227.83-0.67,233.15,4.09,233.11,10.92z"
		/>
</g>
<path class="st2" d="M233,23.67c0.17-0.06,0.14-0.24,0.18-0.36c0.54-1.45,1.75-2.3,3.3-2.31c0.98,0,1.95-0.01,2.93,0.01
	c0.32,0.01,0.42-0.06,0.42-0.4c-0.03-0.98-0.01-1.95-0.01-2.93c0.01-1.97,1.49-3.49,3.4-3.5c1.91,0,3.41,1.51,3.42,3.47
	c0.01,1,0.01,1.99-0.01,2.99c-0.01,0.31,0.09,0.38,0.39,0.38c0.99-0.02,1.99-0.01,2.98,0c1.96,0.02,3.47,1.52,3.46,3.44
	c-0.01,1.88-1.52,3.37-3.45,3.39c-0.96,0.01-1.92,0.02-2.88-0.01c-0.38-0.01-0.52,0.06-0.5,0.48c0.04,0.96,0.02,1.92,0.01,2.88
	c-0.01,1.96-1.51,3.48-3.42,3.47c-1.91-0.01-3.39-1.52-3.4-3.49c-0.01-1-0.01-1.99,0.01-2.99c0-0.28-0.08-0.36-0.36-0.35
	c-0.94,0.02-1.88,0.01-2.82,0.01c-1.76,0-2.91-0.81-3.52-2.46c-0.03-0.08-0.02-0.18-0.13-0.2C233,24.66,233,24.17,233,23.67z"/>
</svg>
