<?xml version="1.0" encoding="utf-8"?>
<!-- Generator: Adobe Illustrator 25.4.1, SVG Export Plug-In . SVG Version: 6.00 Build 0)  -->
<svg version="1.1" id="Camada_1" xmlns="http://www.w3.org/2000/svg" xmlns:xlink="http://www.w3.org/1999/xlink" x="0px" y="0px"
	 viewBox="0 0 427 57" style="enable-background:new 0 0 427 57;" xml:space="preserve">
<g>
	<path d="M213.9,47.3c-3.1,0-6.2,0-9.3,0c-0.9,0-1.1-0.2-1.1-1.1c0-0.6,0-1.2,0-1.8c0-0.7,0.3-0.9,1-0.9c1.5,0,3,0,4.5,0
		c0.3,0,0.4,0,0.4-0.4c0.1-1.6,0.9-2.8,2.3-3.6c0.3-0.2,0.4-0.4,0.4-0.7c0-6.1,0-12.2,0-18.2c0-0.6,0-0.6,0.6-0.5
		c0.9,0.2,1.9,0.2,2.8,0c0.5-0.1,0.5,0.1,0.5,0.4c0,3.7,0,7.5,0,11.2c0,2.4,0,4.7,0,7.1c0,0.3,0.1,0.5,0.4,0.7
		c1.3,0.8,2.1,2,2.3,3.5c0,0.5,0.2,0.5,0.6,0.5c1.4,0,2.8,0,4.2,0c0.8,0,1.1,0.3,1.1,1.1c0,0.6,0,1.2,0,1.8c0,0.8-0.3,1-1,1
		C220.1,47.3,217,47.3,213.9,47.3z"/>
	<path d="M210.8,13.7c-0.3-1.7,0.3-3,1.9-3.8c1.1-0.5,2.5-0.1,3.3,0.8c1,1,1.1,2.3,0.4,3.9c0.8-0.3,1.6-0.6,2.5-0.7
		c1.6-0.3,3.2,0,4.8,0.4c2,0.6,3.8,1.5,5.5,2.7c0.7,0.4,0.9,1.1,0.7,1.8c-0.3,1-1.4,1.4-2.4,0.8c-1.3-0.8-2.7-1.5-4.2-2.1
		c-2.1-0.8-4.2-0.8-6.2,0.3c-1.2,0.6-2.5,1-3.9,0.8c-1-0.2-1.8-0.6-2.6-1.1c-0.3-0.2-0.7-0.4-1-0.7c-1.7-1.3-3.6-1.5-5.7-1.2
		c-1.5,0.3-3,0.7-4.5,1.3c-0.9,0.4-1.8,0-2.1-0.8c-0.3-0.8,0.1-1.7,1-2c0.5-0.2,1.1-0.4,1.6-0.6c1.9-0.6,3.9-1,5.9-1
		c1.6,0,3.1,0.4,4.6,1.2c0.1,0.1,0.2,0.1,0.3,0.2C210.7,13.7,210.8,13.7,210.8,13.7z"/>
	<path d="M206.7,33c-2.3-4.8-4.6-9.5-7-14.3c-0.2-0.5-0.6-0.8-1.1-0.8c-0.6,0-0.9,0.3-1.1,0.8c-0.4,0.8-0.8,1.6-1.1,2.3
		c-1.9,3.9-3.8,7.9-5.7,11.8c-0.3,0.6-0.3,1.1,0,1.7c0.4,0.7,0.8,1.4,1.4,2c1.9,1.8,4.1,2.4,6.6,2.5c1,0,2-0.1,2.9-0.4
		c2.3-0.7,4.2-1.9,5.2-4.2C207,33.9,207,33.5,206.7,33z M193.2,33c1.8-3.7,3.6-7.4,5.5-11.2c1.8,3.8,3.6,7.5,5.5,11.2
		C200.5,33,196.9,33,193.2,33z"/>
	<path d="M236.4,36.4c-0.4-0.7-0.7-1.5-1.1-2.2c-1.9-4-3.9-8-5.8-12c-0.2-0.5-0.5-0.8-1.1-0.8c-0.5,0-0.9,0.3-1.1,0.7
		c-2.3,4.8-4.7,9.6-7,14.4c-0.2,0.4-0.2,0.8,0,1.2c0.3,0.7,0.7,1.4,1.2,2c1.9,2,4.3,2.6,6.8,2.7c1.1,0,2.1-0.1,3.1-0.4
		c2.3-0.7,4.1-1.9,5.1-4.2C236.6,37.3,236.6,36.9,236.4,36.4z M233.3,36.5c-3.4,0-6.8,0-10.3,0c0,0-0.1,0-0.2,0
		c1.8-3.8,3.6-7.5,5.5-11.2c0.9,1.8,1.7,3.5,2.5,5.2c0.9,1.9,1.8,3.8,2.7,5.6C233.8,36.3,233.7,36.5,233.3,36.5z"/>
</g>
</svg>
