<?xml version="1.0" encoding="utf-8"?>
<!-- Generator: Adobe Illustrator 25.4.1, SVG Export Plug-In . SVG Version: 6.00 Build 0)  -->
<svg version="1.1" id="Camada_1" xmlns="http://www.w3.org/2000/svg" xmlns:xlink="http://www.w3.org/1999/xlink" x="0px" y="0px"
	 viewBox="0 0 200 200" style="enable-background:new 0 0 200 200;" xml:space="preserve">
<style type="text/css">
	.st0{fill:#D1D1D1;}
	.st1{fill:#F8B24C;}
	.st2{fill:#7C627A;}
	.st3{font-family:'Heavitas';}
	.st4{font-size:45.1839px;}
	.st5{fill:#FFFFFF;}
	.st6{fill:#E95374;}
</style>
<circle class="st0" cx="100" cy="100" r="93"/>
<circle class="st1" cx="166" cy="34" r="34"/>
<g>
	<text transform="matrix(1 0 0 1 151.4961 49.4761)" class="st2 st3 st4">3</text>
</g>
<g>
	<path class="st5" d="M77.5,55.5c2.4,0.1,4.5,0.6,6.6,1.1c3,0.6,5.6,0,7.8-2.1c1.2-1.1,2.4-2.2,3.6-3.2c3.2-2.6,5.6-2.6,8.9,0
		c1,0.8,2,1.6,2.9,2.5c2.7,2.8,5.9,3.5,9.6,2.6c1.7-0.4,3.4-0.8,5.1-0.9c2.6-0.2,4.4,0.9,5.5,3.1c0.7,1.5,1.3,3.1,1.7,4.7
		c1,4,3.5,6.4,7.5,7.4c1.1,0.3,2.2,0.7,3.2,1.1c3.9,1.5,5.1,3.7,4.3,7.8c-0.4,2-0.9,3.9-1.1,5.9c-0.2,2,0.2,3.8,1.5,5.3
		c1,1.3,2.1,2.5,3.2,3.8c0.4,0.5,0.8,0.9,1.2,1.5c2,2.7,2,4.9,0,7.6c-0.9,1.2-1.9,2.4-3,3.5c-2.8,2.7-3.5,5.9-2.5,9.6
		c0.4,1.6,0.7,3.2,0.9,4.9c0.2,2.9-0.7,4.6-3.4,5.9c-1.7,0.8-3.6,1.4-5.5,2c-3,0.9-5,2.8-5.9,5.9c-0.4,1.5-0.9,2.9-1.5,4.3
		c-1.6,4.1-3.7,5.2-7.9,4.4c-2-0.4-3.9-0.9-5.9-1.1c-1.9-0.2-3.6,0.2-5,1.4c-1.1,0.8-2.1,1.7-3.1,2.6c-0.8,0.7-1.6,1.4-2.5,2
		c-2.6,1.8-4.6,1.8-7.3,0c-1.3-0.9-2.5-1.9-3.6-3c-2.8-2.9-6-3.6-9.8-2.6c-1.6,0.4-3.3,0.7-5,0.9c-2.6,0.2-4.4-0.9-5.5-3.1
		c-0.9-1.8-1.5-3.8-2.1-5.8c-0.9-3-2.9-5-5.9-5.9c-1.5-0.4-2.9-0.9-4.3-1.5c-4.1-1.6-5.2-3.7-4.4-7.9c0.4-1.9,0.8-3.9,1.1-5.8
		c0.2-2-0.3-3.9-1.6-5.4c-1.1-1.3-2.2-2.5-3.3-3.8c-0.6-0.7-1.1-1.4-1.6-2.2c-1.2-2-1.2-3.9,0-5.9c0.7-1.1,1.5-2,2.3-2.9
		c0.4-0.4,0.8-0.9,1.2-1.3c2.9-2.7,3.6-6,2.6-9.8c-0.4-1.6-0.7-3.3-0.9-5c-0.2-2.5,0.8-4.3,3.1-5.5c1.7-0.9,3.4-1.4,5.2-1.9
		c3.6-1,5.8-3.2,6.8-6.7c0.5-1.8,1.1-3.6,1.9-5.2C73.6,56.4,75.3,55.3,77.5,55.5z"/>
	<path class="st6" d="M79.1,102.6c2.1-2.1,4.3-4.2,6.5-6.4c0.5-0.5,0.7-0.3,1.1,0.1c2.1,2.1,4.2,4.1,6.2,6.3c0.6,0.7,1,0.8,1.7,0
		c6.3-6.4,12.6-12.7,18.9-19.1c0.6-0.6,0.9-0.7,1.6,0c1.7,1.9,3.6,3.7,5.4,5.5c0.4,0.4,0.6,0.6,0.1,1.2
		c-8.8,8.8-17.6,17.7-26.3,26.5c-0.4,0.4-0.6,0.6-1.1,0.1c-4.5-4.6-9.1-9.2-13.7-13.8C79.2,102.9,79.2,102.8,79.1,102.6z"/>
</g>
</svg>
