<?xml version="1.0" encoding="utf-8"?>
<!-- Generator: Adobe Illustrator 25.4.1, SVG Export Plug-In . SVG Version: 6.00 Build 0)  -->
<svg version="1.1" id="Camada_1" xmlns="http://www.w3.org/2000/svg" xmlns:xlink="http://www.w3.org/1999/xlink" x="0px" y="0px"
	 viewBox="0 0 200 200" style="enable-background:new 0 0 200 200;" xml:space="preserve">
<style type="text/css">
	.st0{fill:#D1D1D1;}
	.st1{fill:#F8B24C;}
	.st2{enable-background:new    ;}
	.st3{fill:#7C627A;}
	.st4{fill:#FFFFFF;}
	.st5{fill:#E95374;}
</style>
<g>
	<circle class="st0" cx="100" cy="100" r="93"/>
</g>
<g>
	<circle class="st1" cx="166" cy="34" r="34"/>
</g>
<g>
	<g class="st2">
		<path class="st3" d="M177.7,35.6v6.1c0,0.3-0.1,0.6-0.3,0.8c-0.2,0.2-0.5,0.3-0.8,0.3h-1.5c-0.3,0-0.6,0.1-0.8,0.3
			s-0.3,0.5-0.3,0.8v4.4c0,0.3-0.1,0.6-0.3,0.8c-0.2,0.2-0.5,0.3-0.8,0.3h-6.8c-0.3,0-0.6-0.1-0.8-0.3c-0.2-0.2-0.3-0.5-0.3-0.8V44
			c0-0.3-0.1-0.6-0.3-0.8c-0.2-0.2-0.5-0.3-0.8-0.3h-12.1c-0.3,0-0.6-0.1-0.8-0.3c-0.2-0.2-0.3-0.5-0.3-0.8v-4.9
			c0-0.3,0.1-0.6,0.2-1c0.1-0.4,0.3-0.7,0.5-0.9l15.2-17.8c0.2-0.2,0.4-0.4,0.8-0.6c0.3-0.2,0.7-0.2,1-0.2h4.5
			c0.3,0,0.6,0.1,0.8,0.3c0.2,0.2,0.3,0.5,0.3,0.8v16c0,0.3,0.1,0.6,0.3,0.8s0.5,0.3,0.8,0.3h1.5c0.3,0,0.6,0.1,0.8,0.3
			C177.6,35.1,177.7,35.3,177.7,35.6z M164.4,30.2l-2.3,3.3c-0.2,0.3-0.3,0.5-0.1,0.7c0.1,0.2,0.3,0.3,0.7,0.3h1.3
			c0.3,0,0.6-0.1,0.9-0.4c0.2-0.3,0.4-0.5,0.4-0.9v-2.8c0-0.3-0.1-0.5-0.2-0.6C164.8,29.8,164.6,29.9,164.4,30.2z"/>
	</g>
</g>
<g>
	<g>
		<path class="st4" d="M154.2,102.6c0,10.6,0,21.3,0,31.9c0,1.4-0.4,2-1.8,2.3c-15.7,3.9-31.4,7.8-47.1,11.8
			c-1.9,0.5-2.4,0.2-2.4-1.9c0.1-20.7,0.1-41.4,0-62c0-1.4,0.1-2.2,1.7-2.6c15.9-4.3,31.7-8.6,47.5-13c1.7-0.5,2-0.2,2,1.5
			C154.2,81.3,154.2,91.9,154.2,102.6z"/>
	</g>
	<g>
		<path class="st4" d="M45.8,102.5c0-10.6,0-21.1,0-31.7c0-1.8,0.3-2.1,2.1-1.6c15.8,4.4,31.7,8.7,47.5,13c1.3,0.4,1.6,1,1.6,2.2
			c0,21,0,42,0,62.9c0,1.5-0.3,1.8-1.8,1.4c-16-4.1-32-8.1-48-12c-1.5-0.4-1.4-1.2-1.4-2.3C45.8,123.8,45.8,113.1,45.8,102.5z"/>
	</g>
	<g>
		<path class="st4" d="M149.1,63.5c-16.2,4.5-32.1,8.8-47.9,13.1c-0.7,0.2-1.5,0.3-2.2,0.1C83.1,72.3,67.3,68,51.2,63.6
			c1.5-1,3-1.1,4.5-1.4C70,58.6,84.3,55,98.5,51.4c1.2-0.3,2.2-0.2,3.3,0.1c15.3,3.8,30.6,7.7,46,11.5
			C148.1,62.9,148.3,63.1,149.1,63.5z"/>
	</g>
	<g>
		<path class="st5" d="M53.1,120.8c10.7,2.6,21.1,5.3,31.6,7.8c2.5,0.6,3.2,1.6,3.2,4.1c-0.1,4.8,0,4.8-4.6,3.7
			c-9.5-2.4-18.9-4.8-28.4-7.1c-1.3-0.3-1.7-0.8-1.7-2.1C53.2,125.1,53.1,123.1,53.1,120.8z"/>
	</g>
	<g>
		<path class="st5" d="M88.3,101.8c-0.6,0.1-0.7,0.1-0.9,0.1c-3.8-0.8-3.8-0.8-3.7,3c0.1,4.8,0.1,9.6,0.2,14.4c0,1.4,0,2.1-1.8,1.6
			c-4.7-1.3-4.7-1.2-4.8-6.1c-0.1-4.1-0.3-8.2-0.2-12.4c0-2.2-0.5-3.5-2.9-3.5c-0.5,0-1-0.3-2-0.5c2.6-1.9,5.1-3.6,7.5-5.4
			c0.7-0.5,0.9,0,1.3,0.4C83.5,96.2,85.8,98.9,88.3,101.8z"/>
	</g>
	<g>
		<path class="st5" d="M52.3,93.9c2.4-1.7,4.7-3.2,6.9-4.8c0.8-0.5,1.2-0.3,1.7,0.3c2.3,2.6,4.6,5.1,6.8,7.6c0,0.5-0.3,0.4-0.5,0.4
			c-3.9-0.5-3.9-0.5-3.8,3.5c0.1,4.7,0.1,9.5,0.3,14.2c0,1.5,0.1,2.2-1.9,1.7c-4.6-1.3-4.6-1.2-4.7-5.9c-0.1-4.4-0.3-8.7-0.2-13.1
			c0.1-2.1-0.5-3.1-2.6-3.2C53.7,94.5,53.1,94.2,52.3,93.9z"/>
	</g>
</g>
</svg>
