<?xml version="1.0" encoding="utf-8"?>
<!-- Generator: Adobe Illustrator 25.4.1, SVG Export Plug-In . SVG Version: 6.00 Build 0)  -->
<svg version="1.1" id="Camada_1" xmlns="http://www.w3.org/2000/svg" xmlns:xlink="http://www.w3.org/1999/xlink" x="0px" y="0px"
	 viewBox="0 0 200 200" style="enable-background:new 0 0 200 200;" xml:space="preserve">
<style type="text/css">
	.st0{fill:#D1D1D1;}
	.st1{fill:#F8B24C;}
	.st2{fill:#FFFFFF;}
	.st3{fill:#E95374;}
	.st4{fill:#7C627A;}
	.st5{font-family:'Heavitas';}
	.st6{font-size:45.1839px;}
</style>
<circle class="st0" cx="100" cy="100" r="93"/>
<circle class="st1" cx="166" cy="34" r="34"/>
<g>
	<path class="st2" d="M99.9,150c-13.6,0-27.3,0-40.9,0c-5.7,0-9.3-3.7-9-9.4c0.3-5.3,1.6-10.4,4.2-15.2c1.4-2.6,3.4-4.5,6.2-5.7
		c6.4-2.9,13.1-4.9,19.8-7c0.7-0.2,1.1,0.2,1.6,0.6c4.1,3.8,8.8,6.3,14.3,7.1c8.4,1.2,15.8-1.2,22-6.9c0.8-0.7,1.5-0.9,2.5-0.6
		c6.4,2,12.8,4,19,6.7c3.2,1.4,5.3,3.7,6.8,6.7c2.2,4.6,3.4,9.4,3.7,14.5c0.3,5.5-3.4,9.1-8.8,9.1C127.4,150,113.6,150,99.9,150z"/>
	<path class="st2" d="M125,75.4c-0.5,9.8-2.8,19-8.4,27.2c-3.1,4.5-7,8-12.4,9.3c-7.1,1.7-13-0.6-18-5.6c-3.6-3.7-5.9-8.1-7.7-12.8
		C76.2,87.2,74.9,80.8,75,74c0.2-12,9.8-22.5,21.7-23.9c13.6-1.6,25.4,7.1,27.9,20.6C124.9,72.3,125.1,73.9,125,75.4z"/>
</g>
<path class="st3" d="M42.6,125.3c0-1.1-0.1-2.2,0-3.2c0.1-1.1-0.3-1.3-1.3-1.3c-2.1,0.1-4.2,0-6.3,0c-4.4,0-7.9-3.4-7.9-7.7
	c0-4.3,3.4-7.7,7.9-7.7c2.1,0,4.2-0.1,6.3,0c1.2,0.1,1.4-0.4,1.3-1.4c-0.1-2.1,0-4.2,0-6.3c0-4.4,3.4-7.8,7.6-7.8
	c4.3,0,7.7,3.4,7.8,7.8c0,2.2,0.1,4.3,0,6.5c0,1,0.3,1.2,1.2,1.1c2.2-0.1,4.3,0,6.5,0c4.3,0,7.7,3.4,7.7,7.7c0,4.3-3.4,7.7-7.7,7.7
	c-2.2,0-4.3,0.1-6.5,0c-1.1,0-1.2,0.3-1.2,1.3c0.1,2.1,0,4.3,0,6.4c0,4.4-3.4,7.8-7.6,7.8c-4.3,0-7.7-3.4-7.8-7.8
	C42.6,127.4,42.6,126.4,42.6,125.3z"/>
<g>
	<text transform="matrix(1 0 0 1 154.834 50.5645)" class="st4 st5 st6">1</text>
</g>
</svg>
