<?xml version="1.0" encoding="utf-8"?>
<!-- Generator: Adobe Illustrator 25.4.1, SVG Export Plug-In . SVG Version: 6.00 Build 0)  -->
<svg version="1.1" id="Camada_1" xmlns="http://www.w3.org/2000/svg" xmlns:xlink="http://www.w3.org/1999/xlink" x="0px" y="0px"
	 viewBox="0 0 200 200" style="enable-background:new 0 0 200 200;" xml:space="preserve">
<style type="text/css">
	.st0{fill:#D1D1D1;}
	.st1{fill:#F8B24C;}
	.st2{fill:#7C627A;}
	.st3{font-family:'Heavitas';}
	.st4{font-size:45.1839px;}
	.st5{fill:#FFFFFF;}
	.st6{fill:#E95374;}
</style>
<circle class="st0" cx="100" cy="100" r="93"/>
<circle class="st1" cx="166" cy="34" r="34"/>
<g>
	<text transform="matrix(1 0 0 1 151.4961 49.4761)" class="st2 st3 st4">2</text>
</g>
<g>
	<path class="st5" d="M71.8,143.9c-6.8,0-13.6,0-20.4,0c-2.1,0-3.8-0.7-4.9-2.4c-1.1-1.7-1.2-3.5-0.2-5.3c1-1.8,2.5-3,4.7-3
		c8.9,0,17.8-0.1,26.7-0.1c2.9,0,5.7-0.7,8.1-2.2c6.3-4,12.6-8.2,18.9-12.3c1-0.6,1.8-1.5,2.4-2.5c1-1.8,0.7-3.5-0.6-4.8
		c-1.5-1.4-3.2-1.7-5-0.6c-2.3,1.4-4.5,2.8-6.8,4.3c-5.3,3.5-10.7,6.9-16,10.4c-2.1,1.4-4.3,2-6.7,0.5c-2.6-1.7-3.2-5.2-1.4-7.7
		c0.5-0.7,1.2-1.3,1.9-1.9c9.6-7.2,19.1-14.4,28.7-21.5c2.3-1.7,5.1-2.2,7.9-2.3c9.2-0.1,18.5,0,27.7-0.1c4,0,7.9,0,11.9,0
		c3.5,0,5.7,2.2,5.7,5.6c0,5.9,0,11.8,0,17.6c0,3.4-2.3,5.6-5.7,5.6c-4.2,0-8.5,0-12.7,0c-3.2,0-6.1,0.8-8.7,2.6
		c-8.1,5.4-16.3,10.7-24.4,16.1c-3.9,2.6-8.1,3.9-12.8,3.8C84,143.9,77.9,143.9,71.8,143.9z"/>
	<path class="st6" d="M72.7,67.8c0.7-4.9,3.1-8.6,7.6-10.6c7.1-3.2,15.6,1,17.4,8.6c0.7,2.9,0.3,5.6-0.8,8.2
		c-3.3,8.6-8.9,15.7-15.8,21.7c-2.4,2.1-5.1,4-7.7,5.9c-0.4,0.3-0.7,0.4-1.2,0.1C62.9,95.4,55,87.7,50,77.5
		c-1.3-2.7-2.7-5.4-2.6-8.5c0.1-6.9,4.8-12.1,11.1-12.8c6.9-0.8,12.8,3.7,13.9,10.3C72.5,66.9,72.6,67.3,72.7,67.8z"/>
</g>
</svg>
