<?xml version="1.0" encoding="utf-8"?>
<!-- Generator: Adobe Illustrator 25.4.1, SVG Export Plug-In . SVG Version: 6.00 Build 0)  -->
<svg version="1.1" id="Layer_1" xmlns="http://www.w3.org/2000/svg" xmlns:xlink="http://www.w3.org/1999/xlink" x="0px" y="0px"
	 viewBox="0 0 2133 1656" style="enable-background:new 0 0 2133 1656;" xml:space="preserve">
<style type="text/css">
	.st0{fill:#667C73;}
	.st1{fill:#8F8FFF;}
	.st2{fill:#ABABFF;}
	.st3{fill:#6BAF95;}
	.st4{fill:#D895A7;}
	.st5{fill:#6A90C6;}
	.st6{fill:#587BA5;}
	.st7{fill:#446382;}
	.st8{fill:url(#SVGID_1_);}
	.st9{fill:#E95374;}
	.st10{fill:#FFFFFF;}
	.st11{fill:#FFB680;}
	.st12{fill:#DB9B45;}
	.st13{fill:#071B2B;}
	.st14{fill:#082947;}
	.st15{fill:#1F163C;}
	.st16{fill:#F6A740;}
	.st17{fill:#7F4E2D;}
	.st18{fill:#636363;}
	.st19{fill:#FFA76C;}
	.st20{fill:#DD5B86;}
	.st21{fill:url(#SVGID_00000161596117184180830260000014238844224393965209_);}
	.st22{fill:url(#SVGID_00000042009702715745549350000003693779464857291403_);}
	.st23{fill:#FB628F;}
</style>
<image style="overflow:visible;opacity:0.4;" width="1937" height="72" xlink:href="1758EFDF.png"  transform="matrix(1 0 0 1 98 1508)">
</image>
<g>
	<g>
		<path class="st0" d="M1149,969.3c-21,0-42.2-1.8-63.3-5.6c-3.6-0.6-6-4-5.3-7.6c0.6-3.6,4-6,7.6-5.3c94.3,16.6,188.5-5.6,265-62.5
			c76.5-56.9,126.8-143,137.9-236.3c0.4-3.6,3.7-6.2,7.3-5.7c3.6,0.4,6.2,3.7,5.7,7.3c-11.5,96.9-63.7,186.3-143.1,245.3
			C1298.5,945.1,1225.1,969.3,1149,969.3z"/>
	</g>
</g>
<g>
	<path class="st1" d="M1250,1029.1c-12.1,15.6-43.1,18.4-64.5,4.4c-21.9-13.7-31.2-63.5-31-63.4c0.2,1.2,56.2,2.7,76.8,12.3
		C1251.8,993.4,1262.2,1013.4,1250,1029.1z"/>
	<g>
		<path class="st2" d="M1220.5,1017.4c-0.9,0-1.9-0.2-2.8-0.6c-27.9-13.3-53.7-29.7-76.8-48.6c-2.8-2.3-3.2-6.4-0.9-9.2
			c2.3-2.8,6.4-3.2,9.2-0.9c22.3,18.3,47.3,34.1,74.2,46.9c3.3,1.6,4.7,5.5,3.1,8.8C1225.3,1016,1223,1017.4,1220.5,1017.4z"/>
	</g>
</g>
<g>
	<path class="st1" d="M1374.3,976.6c-6.3,18.4-34.1,30.3-58,23.6c-24.3-6.4-48.4-50.8-48.3-50.7c0.4,1,52-14.6,74.3-11.6
		C1364.7,942.2,1380.7,958.1,1374.3,976.6z"/>
	<g>
		<path class="st2" d="M1341.2,974.8c-0.3,0-0.6,0-0.9-0.1c-29.9-4.2-58.7-11.9-85.6-22.8c-3.4-1.4-5-5.2-3.6-8.6
			c1.4-3.4,5.2-5,8.6-3.6c25.9,10.5,53.6,17.9,82.5,22c3.6,0.5,6.1,3.8,5.6,7.4C1347.2,972.4,1344.4,974.8,1341.2,974.8z"/>
	</g>
</g>
<g>
	<path class="st1" d="M1477,887.6c-0.3,19.4-22.9,39.2-47.6,40.1c-24.9,1.4-61.6-33.3-61.4-33.3c0.6,0.8,44.3-29.6,66.5-33.7
		C1457.3,857.9,1477.4,868.1,1477,887.6z"/>
	<g>
		<path class="st2" d="M1381.6,901.6c-8.5,0-17-0.3-25.3-0.9c-3.6-0.3-6.3-3.4-6.1-7c0.3-3.6,3.4-6.3,7-6.1
			c27.6,2,56.1,0.6,84.7-4.4c3.6-0.6,7,1.8,7.6,5.4c0.6,3.6-1.8,7-5.3,7.6C1423.2,899.8,1402.2,901.6,1381.6,901.6z"/>
	</g>
</g>
<g>
	<g>
		<path class="st3" d="M1545.9,774.6c5.5,18.8-10.2,44.6-33.6,53c-23.4,8.9-68.9-13.1-68.8-13.1c0.8,0.6,33.6-41.6,53.6-52.4
			C1518.1,752.2,1540.4,755.8,1545.9,774.6z"/>
		<g>
			<g>
				<path class="st0" d="M1432.7,824.2c-3,0-5.7-2-6.4-5.1c-0.8-3.5,1.4-7.1,4.9-7.9c27.2-6.4,54-16.4,79.7-29.9
					c3.2-1.7,7.2-0.4,8.9,2.8c1.7,3.2,0.4,7.2-2.8,8.9c-26.7,14-54.6,24.4-82.8,31C1433.7,824.1,1433.2,824.2,1432.7,824.2z"/>
			</g>
		</g>
	</g>
</g>
<g>
	<g>
		<path class="st3" d="M1576.9,647.4c11,16.8,3.6,47.1-16.3,62.4c-19.8,15.8-69.8,8.4-69.7,8.3c1,0.5,20-50.7,35.7-67.8
			C1543.6,634,1565.9,630.4,1576.9,647.4z"/>
		<g>
			<g>
				<path class="st0" d="M1481.4,731c-2.2,0-4.4-1.1-5.7-3.2c-1.9-3.1-0.8-7.1,2.3-9c24.3-14.5,47-32.5,67.4-53.6
					c2.5-2.6,6.7-2.7,9.3-0.1c2.6,2.5,2.7,6.7,0.1,9.3c-21.2,21.9-44.8,40.7-70.1,55.7C1483.7,730.7,1482.6,731,1481.4,731z"/>
			</g>
		</g>
	</g>
</g>
<g>
	<path class="st1" d="M1212.8,877.2c-12.5-9.2-28.3-3.6-40.2,12.8c-11.4,16.5-18.3,65.9-18.4,66c0.4,1.2,54.2-9.3,64.6-29.1
		C1230.1,908.4,1225.2,886.4,1212.8,877.2z"/>
	<g>
		<path class="st2" d="M1145,969.6c-1.9,0-3.9-0.9-5.2-2.5c-2.2-2.9-1.8-7,1.1-9.2c21.3-16.8,39.7-36.2,54.8-57.5
			c2.1-3,6.2-3.7,9.2-1.6c3,2.1,3.7,6.2,1.6,9.2c-15.8,22.4-35.1,42.6-57.4,60.2C1147.9,969.2,1146.4,969.6,1145,969.6z"/>
	</g>
</g>
<g>
	<path class="st1" d="M1292,843.8c-14.5-5-27.3,5.1-33,24.3c-5.2,19.1,4.3,68.1,4.2,68.2c0.5,1,46.4-25.3,50-47.1
		C1317.9,868.2,1306.4,848.8,1292,843.8z"/>
	<g>
		<path class="st2" d="M1257.2,952.4c-1.2,0-2.4-0.3-3.4-1c-3.1-1.9-4.1-5.9-2.2-9c14-22.7,24.6-46.7,31.8-71.2
			c1-3.5,4.6-5.5,8.1-4.5c3.5,1,5.5,4.7,4.5,8.1c-7.4,25.7-18.6,50.8-33.2,74.5C1261.5,951.2,1259.4,952.4,1257.2,952.4z"/>
	</g>
</g>
<g>
	<g>
		<path class="st3" d="M1357.5,787c-15.4-0.3-24.3,13.2-23.6,33.1c1.1,19.6,25.6,63.1,25.5,63.2c0.7,0.7,35.6-38.1,32.4-59.9
			C1389.7,802.2,1372.8,787.4,1357.5,787z"/>
		<g>
			<path class="st3" d="M1356.7,900.7c-0.5,0-1-0.1-1.5-0.2c-3.5-0.8-5.8-4.3-5-7.9c5.9-25.9,8.4-51.8,7.4-77.1
				c-0.1-3.6,2.7-6.7,6.3-6.8c3.6-0.2,6.7,2.7,6.8,6.3c1,26.4-1.6,53.5-7.8,80.5C1362.5,898.7,1359.7,900.7,1356.7,900.7z"/>
		</g>
	</g>
</g>
<g>
	<g>
		<path class="st3" d="M1401.4,715.1c-14.8,4.5-19.4,20.1-12.8,38.9c7,18.4,43.4,52.4,43.4,52.5c0.9,0.5,22.7-47.1,13.1-67.1
			C1436.7,719.6,1416.1,710.6,1401.4,715.1z"/>
		<g>
			<g>
				<path class="st0" d="M1432.7,824.2c-3.4,0-6.3-2.6-6.5-6c-2.2-26.5-7.5-52-16-75.8c-1.2-3.4,0.6-7.2,4-8.4
					c3.4-1.2,7.2,0.6,8.4,4c8.8,24.9,14.4,51.6,16.7,79.2c0.3,3.6-2.4,6.8-6,7.1C1433.1,824.2,1432.9,824.2,1432.7,824.2z"/>
			</g>
		</g>
	</g>
</g>
<g>
	<g>
		<path class="st3" d="M1421.1,634c-12.7,9.1-12.4,25.9-0.6,42.1c12.1,15.7,56.9,37.6,56.9,37.7c1.1,0.3,8-52.7-7.3-69.5
			C1456.2,627.4,1433.8,625,1421.1,634z"/>
		<g>
			<g>
				<path class="st0" d="M1481.4,731c-2.6,0-5.1-1.6-6.1-4.2c-9.8-25-22.5-48.2-37.6-69c-2.1-2.9-1.5-7,1.4-9.2
					c2.9-2.1,7-1.5,9.2,1.4c15.8,21.7,29,45.9,39.2,71.9c1.3,3.4-0.3,7.2-3.7,8.5C1483,730.8,1482.2,731,1481.4,731z"/>
			</g>
		</g>
	</g>
</g>
<path class="st3" d="M1496.7,534.7c16.8-2.7,34.4,17.9,35.1,44.9c1.7,28.3-34,69.1-34.4,67.9c0.7-0.9-25.6-46-27.3-67.2
	C1469.5,558.3,1479.9,537.4,1496.7,534.7z"/>
<g>
	<g>
		<path class="st0" d="M1496.4,665.9c-0.3,0-0.6,0-0.9-0.1c-3.6-0.5-6.1-3.8-5.6-7.4c4.1-28.7,4.6-58.1,1.3-87.3
			c-0.4-3.6,2.2-6.9,5.8-7.3c3.6-0.4,6.9,2.2,7.3,5.8c3.4,30.3,3,60.8-1.3,90.7C1502.4,663.5,1499.6,665.9,1496.4,665.9z"/>
	</g>
</g>
<g>
	<path class="st3" d="M730.6,1132.8c0,0-41.1-6.3-73.5-14.4c-32.5-8.1-60.6-21.4-60.6-21.4l54.2-22.4l-81.7,11.8
		c0,0-53.5-18.3-95.5-87.6c-42-69.3-40.5-97.1-40.5-97.1l77.3-33.9l-80.1,7.3c0,0-4.2-21.4-7.8-52.9c-3.6-31.5,0.3-51.4,0.3-51.4
		l74.4-30.8l-73.4,6.6c0,0,1.2-32.8,7.2-63.6c6-30.7,7.1-51.6,7.1-51.6l36.3-10.9l-33.8-1.8c0,0,4.3-27.7,11.3-51.9
		c7-24.2,8.7-36.6,8.7-36.6l79.2,42.2l-13.2,17.3l24.8-9.4c0,0,49.6,30.8,73.4,49c23.8,18.2,26.1,20.1,26.1,20.1l-60.8,49l72.2-26.5
		c0,0,20.3,16.9,43.5,49.2c23.2,32.3,27.5,46,27.5,46l-58.4,40.1l74.9-26.1c0,0,43.9,59.7,54.3,115.8c10.4,56.1,4.2,80.1,4.2,80.1
		l-57.9,50.2l46.6-13.8C796.9,1013.6,772.6,1089.6,730.6,1132.8z"/>
	<g>
		<path class="st0" d="M725,1126.7c-2.5,0-4.9-1.4-6-3.8c-89-195.1-252.7-563.7-254.4-567.4c-1.5-3.3,0-7.2,3.3-8.7
			c3.3-1.5,7.2,0,8.7,3.3c1.6,3.7,165.4,372.2,254.3,567.3c1.5,3.3,0.1,7.2-3.3,8.7C726.8,1126.6,725.9,1126.7,725,1126.7z"/>
	</g>
</g>
<path class="st4" d="M1378.3,1429.2C1378.3,1429.2,1378.3,1429.2,1378.3,1429.2c-7.7,0-15.2-0.9-22.3-2.5
	c-21.5-4.8-35.5-15.3-41.8-31c-11.2-28.2,6.8-64.9,15.5-79.9c-16.8-7.4-57-28-67.6-60.8c-4.6-14.2-2.3-28.7,6.5-40.8
	c12.4-17.1,36.4-27.3,64.1-27.3c12,0,24.6,1.9,37.4,5.5c45.8,13.2,94.4,14.6,141.4,16c19.3,0.6,37.5,1.1,55.2,2.5
	c31,2.3,46.6,8.7,51.9,21.1c7,16.3-7.3,38.7-30.9,67.2c-24,29-57.7,60.1-90.2,82.9C1453.9,1412.9,1412.6,1429.2,1378.3,1429.2z
	 M1332.7,1200.1c-23.5,0-43.5,8.2-53.4,21.8c-6.3,8.7-8,18.7-4.6,29c11.2,34.9,66.4,55.3,66.9,55.5c1.9,0.7,3.4,2.2,4,4.1
	c0.6,1.9,0.3,4-0.8,5.7c-0.3,0.4-30,45.4-18.4,74.5c4.6,11.4,15.5,19.2,32.5,23c6.1,1.4,12.7,2.1,19.4,2.1
	c70.4,0,157.7-74.7,199.3-124.9c14.7-17.7,33.6-42.6,28.9-53.6c-2.9-6.9-16.7-11.3-40.8-13.2c-17.4-1.3-35.5-1.9-54.7-2.4
	c-47.8-1.5-97.2-2.9-144.6-16.6C1354.8,1201.8,1343.5,1200.1,1332.7,1200.1z"/>
<g>
	<path class="st4" d="M1346.6,1320.8c-2.6,0-5.2,0-7.9-0.1c-58.2-1.6-112.8-18.9-157.7-50.1c-43.7-30.3-77.2-72.8-97.1-123
		c-1.3-3.4,0.3-7.2,3.7-8.5c3.4-1.3,7.2,0.3,8.5,3.7c39.1,98.7,132.1,161.8,242.9,164.8c91,2.5,184.7-41.9,185.6-42.3
		c3.3-1.6,7.2-0.2,8.8,3.1c1.6,3.3,0.2,7.2-3.1,8.8C1526.5,1278.9,1438,1320.8,1346.6,1320.8z"/>
</g>
<path class="st3" d="M1104.9,1378.8c0,0-97-76.5-9.8-134.3c87.2-57.8,114-13.8,174.9-26.1s104.3,2,65.2,52.5
	c-39,50.5-87.1,107-153.4,148.1c-66.3,41.1-101.7,58.3-117.1,23.4C1049.4,1407.5,1104.9,1378.8,1104.9,1378.8z"/>
<g>
	<path class="st0" d="M1102.1,1387.5c-87,0-157.2-21.9-201-40.5c-48.2-20.4-75.1-40.7-76.2-41.6c-2.9-2.2-3.4-6.3-1.2-9.2
		c2.2-2.9,6.3-3.4,9.2-1.2c1.1,0.8,107.7,80.5,272.3,79.4c105.2-0.7,219.9-133.7,221-135.1c2.4-2.8,6.5-3.1,9.3-0.7
		c2.8,2.4,3.1,6.5,0.7,9.3c-1.2,1.4-30,35-72.8,69.3c-58,46.4-111.2,70.1-158.1,70.4C1104.3,1387.5,1103.2,1387.5,1102.1,1387.5z"/>
</g>
<path class="st4" d="M480.1,1458.4c-43,0-88.3-20.3-131-58.8c-32-28.8-51.1-57.2-51.9-58.4c-1.5-2.2-1.5-5.1,0-7.3
	c1.5-2.2,4.2-3.3,6.8-2.8c0.2,0,22.2,4.5,43.5,4.5c17,0,28.9-2.9,33.7-8.2c2-2.2,2.7-4.9,2.4-8.4c-2.3-22.6-82.3-42.3-138.4-49
	c-2-0.2-3.7-1.3-4.8-3l-53.7-84.9c-1.2-2-1.4-4.5-0.3-6.5c1.1-2.1,3.2-3.4,5.5-3.5c0.1,0,13-0.9,20.2-9.1c3.7-4.3,5.2-9.8,4.7-16.9
	c-1.5-19.4-52.7-40.9-84.6-49.8c-0.9-0.2-1.7-0.7-2.4-1.3c-0.9-0.7-22.9-19.4-75.2-108.2C27.2,940.5,10.7,904.8,4,877.5
	c-7.5-30.5-3.1-51.9,13.3-65.3c12.3-10.1,26.9-14.7,46-14.7c27,0,62.1,9.2,116.8,24.4c86.1,23.9,165.5,61.7,166.3,62.1
	c2.3,1.1,3.8,3.5,3.7,6.1c0,0.2-0.5,25.5,13.2,34.4c1.7,1.1,3.6,1.7,5.6,1.7c9.6,0,21.4-11.5,24.7-15.5c1.9-2.3,5.1-3,7.8-1.7
	c0.9,0.4,91,43.2,151.8,82.2l0.9,0.6c60.3,38.6,151.5,97.1,159.3,201.8c3.3,44.6-19.8,79.9-66.9,102.1
	c-24.1,11.3-48.3,16.4-61.3,18.5c20.9,40.7,24.1,74,9.6,99.2c-16.4,28.6-55.3,44.1-112.4,45.1
	C481.6,1458.4,480.9,1458.4,480.1,1458.4z M317.6,1346.7c23.1,29.2,86,98.6,162.5,98.6c0.7,0,1.4,0,2.1,0
	c52.2-0.9,87.2-14.2,101.2-38.5c12.9-22.3,7.9-55.1-14.3-94.7c-1.1-1.9-1.1-4.3-0.1-6.3c1-2,3-3.3,5.2-3.5c0.3,0,34.4-3.3,66.9-18.7
	c42.1-19.9,62-49.9,59.1-89.1c-7.3-98.2-91.6-152.2-153.3-191.7l-0.9-0.6c-52.5-33.6-127.4-70.3-146-79.3
	c-5.9,5.9-18.1,16.4-31.3,16.4c-4.6,0-9-1.3-12.8-3.8c-15.6-10.2-18.5-32-19-41.4c-16.4-7.6-85.9-38.9-160.5-59.6
	c-53.6-14.9-87.9-23.9-113.2-23.9c-16.1,0-27.7,3.6-37.7,11.8c-24.3,19.8-11.6,70,40.1,157.8c44.8,76.1,66.8,99.5,71.4,103.9
	c14.5,4.2,90,27.6,92.7,61c0.8,10.7-1.8,19.6-7.9,26.6c-5.6,6.4-13,9.8-19,11.6l46.9,74.1c9.4,1.3,38.9,5.5,68.4,13
	c50.9,12.8,76.5,28.3,78.5,47.4c0.7,7.2-1.2,13.6-5.7,18.5c-7.6,8.4-21.8,12.5-43.4,12.5C336.8,1348.8,326,1347.8,317.6,1346.7z
	 M620.2,1157c-14.1,0-36.6-7.6-50.7-21.8c-9.8-9.9-14.9-22.1-14.8-35.4c0-6.4,4.2-13.8,15.8-13.8c12.5,0,31.8,8.9,45.1,20.7
	c13.4,11.9,20.7,23.4,21.2,33.4c0.3,5.1-1.3,9.6-4.5,13.1C629.8,1155.7,625.9,1157,620.2,1157z M567.9,1099.5c0,0.1,0,0.2,0,0.4
	c-0.1,9.9,3.6,18.6,11,26.1c12.3,12.4,31.6,17.9,41.3,17.9c1.4,0,2.3-0.1,2.8-0.2c0.4-0.6,0.7-1.5,0.6-3
	c-0.1-2.3-1.7-10.8-16.8-24.2c-12-10.7-28.2-17.3-36.4-17.3C569,1099.1,568.2,1099.4,567.9,1099.5z"/>
<g>
	<g>
		<path class="st4" d="M574.9,1315.4c-1.8,0-3.6-0.7-4.9-2.2c-2.6-2.9-258.7-287.5-517.8-465.1c-3-2.1-3.8-6.1-1.7-9.1
			c2.1-3,6.1-3.8,9.1-1.7c260.4,178.5,517.6,464.3,520.2,467.1c2.4,2.7,2.2,6.9-0.5,9.3C578,1314.8,576.5,1315.4,574.9,1315.4z"/>
	</g>
</g>
<path class="st5" d="M1486.9,927.9c0,0,0-120.9-113.3-120.9c-113.3,0-245.4-1.8-402.2-1.8c-129.3,0-133.6,32.9-177.2,117.9
	c-43.6,84.9-270.1,480.9-270.1,480.9h464.7c0,0,74.1-125.9,95.8-165.1c21.8-39.2,34.8-49.9,106.7-49.9c71.9,0,160.4,2.3,228,2.3
	c67.5,0,93.7-15.2,130.7-89.2c37-74.1,150.3-272.2,206.9-363.7c56.6-91.5-41.4-141.6-106.7-47.9L1486.9,927.9z"/>
<path class="st6" d="M1067,1517.2c0,13.7-11.1,24.8-24.8,24.8H462.9c-13.7,0-24.8-11.1-24.8-24.8v-88.4c0-13.7,11.1-24.8,24.8-24.8
	h579.2c13.7,0,24.8,11.1,24.8,24.8V1517.2z"/>
<path class="st7" d="M1041.1,1404h-6.5v82.3c0,13.6-12.1,23.3-25.7,23.3H438.2v8.9c0,13.6,11.9,25.9,25.5,25.9h577.4
	c13.6,0,24.7-12.2,24.7-25.9v-89.2C1065.8,1415.7,1054.7,1404,1041.1,1404z"/>
<linearGradient id="SVGID_1_" gradientUnits="userSpaceOnUse" x1="1686.9982" y1="578.5869" x2="822.9982" y2="1293.8912">
	<stop  offset="0" style="stop-color:#587BA5"/>
	<stop  offset="0.3488" style="stop-color:#5C7FAC"/>
	<stop  offset="0.8514" style="stop-color:#668CBF"/>
	<stop  offset="1" style="stop-color:#6A90C6"/>
</linearGradient>
<path class="st8" d="M1711.2,642.7c29.8,9.4,56.7,26.2,26.2,75.4c-56.6,91.5-141.1,244.1-188.5,317.2c-45,69.5-74.6,89.3-142.1,89.3
	c-67.5,0-180.7-2.2-252.6-2.2c-71.9,0-84.9,11-106.7,50.2c-21.8,39.2-95.8,165.5-95.8,165.5H635.9c70.5-123.6,177-312.3,205.5-367.8
	c43.6-84.9,47.9-118,177.2-118c156.8,0,242.2,0.9,355.4,0.9c57.7,0,63.5,32.5,67.3,61.3h-256.7h-148.8c-15.8,0-34.3,11.1-42.1,24.8
	l-140.2,248.1c-2,3.5-0.7,7.9,2.7,9.9c1.1,0.6,2.3,1,3.5,1c2.5,0,5-1.3,6.3-3.6l140.2-247.6c5.2-9.2,19-16.9,29.5-16.9h148.8h280.1
	h22.2c-0.1-2.4-0.2-4.8-0.5-8.4h0.2c-2-26.4-15.8-114.4-112.9-114.4c-113.3,0-245.4-1.9-402.2-1.9c-129.3,0-133.6,32.9-177.2,117.8
	c-41.3,80.6-247.4,441.3-268.4,477.8c-1.1,2-1.7,3-1.7,3h74h390.7c0,0,74.1-125.9,95.8-165.1c21.8-39.2,34.8-49.9,106.7-49.9
	c71.9,0,160.4,2.3,228,2.3c67.5,0,93.7-15.2,130.7-89.2c37-74.1,150.3-272.2,206.9-363.7C1797.1,673.6,1759.7,629.6,1711.2,642.7z"
	/>
<path class="st9" d="M1596.7,105.1C1461-66.8,1287.3,64.9,1254.5,91.3c-32.9-26.2-207-157.3-342.2,15.1
	c-127.1,162.3,7.5,318.5,227.4,530.3c36.6,35.2,75.8,56.7,115.9,56.6c40.1-0.1,79.2-21.7,115.7-57
	C1590.5,423.7,1724.5,266.9,1596.7,105.1z"/>
<path class="st10" d="M1405.7,298.8h-101.1v-101c0-14-10.1-25-24.1-25h-50.8c-14,0-23.5,11-23.5,25v101h-103.4
	c-14,0-27.4,11.9-27.4,25.9v50.8c0,14,13.4,25.3,27.4,25.3h103.4v99.9c0,14,9.6,24.9,23.5,24.9h50.8c14,0,24.1-10.9,24.1-24.9v-99.9
	h101.1c14,0,26.1-11.3,26.1-25.3v-50.8C1431.8,310.7,1419.7,298.8,1405.7,298.8z"/>
<g>
	<path class="st11" d="M1913.5,998c0,0,18.9-11.2,25.9-16c6.9-4.8,1.1-14.7-4.4-19.3c-5.5-4.6-21.5-0.1-36.6,8.5
		C1883.2,979.7,1910.1,998.2,1913.5,998z"/>
	<g>
		<g>
			<path class="st11" d="M1947,963.6c5.8-18.4,24.2-96.5,29.2-112.9c5.1-16.4,1.1-10.9,15.9-19.5c19.8-11.5,17.2-26.8,15.8-31.4
				c-2.3-7.6-22.8-15.7-30.3-6.5c-3.6,4.4,0.6,13.6-9.9,30.2c-0.8,1.3-3.2,17.8-3.8,19.8c-4.7,15.6-15.3,39.9-27.1,62.5
				c-11.7,22.5-19.3,39.3-22.7,54c-2.7,11.8,0.8,25.6,11.3,26.1C1943.4,987,1944.4,971.8,1947,963.6z"/>
		</g>
		<path class="st11" d="M1964.5,840.2c-0.7-5.9-3.7-11.8-5.2-21.6c-1.6-10.6,0.8-12.5,5.2-13.9c2.9-0.9,2.9,9,6.4,15.3
			C1974.5,826.3,1964.5,840.2,1964.5,840.2z"/>
	</g>
	<path class="st12" d="M1808,1070.1c59.8-8.1,122.5-61.9,122.5-61.9s-2.3-18-12.8-32.6c-8-11.1-15.1-13-15.1-13
		s-79.7,26.7-110.2,21.4c-33.4-5.8-26.3,36.1-21.9,55C1776.6,1065.9,1789.8,1072.6,1808,1070.1z"/>
</g>
<path class="st13" d="M1698.4,1116.5c0,0,25.9,0.9,56.5,20.2c58,36.7,140.3,94.3,155.1,105.2c22.9,16.9-2,65.9-41,58.5
	c-39-7.5-88.4-20.9-124.2-37.8c-41.1-19.3-57.8-32.8-63-64C1675.5,1160.2,1685.6,1137.3,1698.4,1116.5z"/>
<path d="M1958.7,1522.4c0,0-42.1-11.3-45.2-12.3c-3.4-1.1-8.7-3.1-9.5,8.1c-0.8,11.2-1.2,14.7-1.2,14.7s48.9,0.6,54.2,0
	C1962.2,1532.3,1966.4,1528.4,1958.7,1522.4z"/>
<path class="st13" d="M1918.6,1257.2c-0.2,33,0.4,55.1,1.1,97.3c0.7,42.2,3.1,160.4,3.1,160.4s-1.8,3.4-6.5,3.1
	c-6-0.4-6.7-3.6-6.7-3.6s-2.4-25.7-9.9-44.8c-7.5-19.1-32.9-108.8-39.3-133.1c-6.4-24.2-22.7-63.3,2.9-79.1
	C1887.6,1242.3,1918.6,1249.9,1918.6,1257.2z"/>
<path d="M1505.2,1417.2c0,0,27.2-34.1,29.3-36.5c2.4-2.7,6.3-6.8-3.6-11.9c-9.9-5.2-12.9-7-12.9-7s-20.1,44.6-21.8,49.6
	C1494.6,1416.4,1496.6,1421.8,1505.2,1417.2z"/>
<g>
	<g>
		<g>
			<path class="st14" d="M1780.4,1381c-32.9,2.7-50.7,0.1-92.8,1.5c-42.2,1.4-164.2,6.7-164.2,6.7s-3.3-2-0.3-7.6
				c2.8-5.3,5.8-6.2,5.8-6.2s24.4-3.2,43.4-11c19-7.8,108.3-34.6,132.4-41.4c24.1-6.8,62.9-23.7,79.1,1.6
				C1799.2,1348.6,1792.8,1380,1780.4,1381z"/>
		</g>
		<g>
			<path class="st14" d="M1775.5,1110.1c0,0,14,21.8,15.5,57.9c2.9,68.5,2.3,169,1.8,187.4c-0.9,28.4-55.3,35.9-71.4-0.4
				c-16.1-36.3-33.1-84.6-39.6-123.6c-7.5-44.8-5.9-66.2,16.8-88.2C1726.5,1116.1,1751.2,1111.4,1775.5,1110.1z"/>
		</g>
	</g>
</g>
<path class="st15" d="M1814.7,931.3c14.9-2.9,21.9-36,10-63.8c-12-27.7-41.5-49.1-66.7-20.6c-23.9,27-51.8,38.9-51.8,58.3
	c-0.1,20.2,39.7,49.8,45.2,66c5.4,16.2,28.4-16.7,28.4-16.7L1814.7,931.3z"/>
<path class="st16" d="M1823.9,1181.8c0,0-21-61.6-3.8-161.9c5-29-35.8-40.9-75.2-44.8c-38.4-3.8-48.2,13.8-55.7,53.1
	c-15.5,80.4-14,158.2-14,158.2s3.2,20.9,71.8,24.7C1805.9,1214.4,1823.9,1181.8,1823.9,1181.8z"/>
<path class="st11" d="M1751.6,940.2c-5.1,10.4,1.1,15.5,0.6,33.2c-0.3,9.1,5.1,25.3,31.5,28c16.9,1.7,8.5-7.8,7.1-16.8
	c-1.4-9-6.7-50.5-6.7-50.5S1755.5,932,1751.6,940.2z"/>
<path class="st11" d="M1746.6,914.8c-2.8,3.7-0.7,10.1,4.8,14.3c5.5,4.2,12.2,4.6,15,0.9c2.8-3.7,0.7-10.1-4.8-14.3
	C1756.2,911.5,1749.4,911.1,1746.6,914.8z"/>
<path class="st11" d="M1759.1,914c0-0.7,32.3-9.4,44.1-32.2c6-0.6,8.8,6.2,9.8,15.4c1.3,12.2,3.8,21.3,0.5,44
	c-3.2,21.4-9.3,33.1-30.4,23.3c-13.8-9.8-23.2-13.8-31.6-24.5C1758.5,928.6,1756.1,922.3,1759.1,914z"/>
<g>
	<path class="st11" d="M1606.5,966c0,0-16.5-14.6-22.4-20.6c-5.9-6,1.7-14.6,8-18.1c6.3-3.5,21.2,3.9,34.4,15.2
		C1639.6,953.8,1609.8,966.9,1606.5,966z"/>
	<g>
		<g>
			<path class="st11" d="M1586.8,919.4c6.7-18.1,39.9-91.1,45.9-107.2c6-16.1,5.7-9.3-0.7-25.2c-8.6-21.2,2.8-31.7,6.7-34.5
				c6.5-4.6,27.7,1.5,28,13.4c0.2,5.7-8.8,10.4-10.6,30c-0.1,1.5-8.3,16-9.1,18c-5.9,15.2-12.3,41-16.8,66
				c-4.5,25-8.8,42.9-15.1,56.6c-5.1,11-16.3,19.8-24.9,13.8C1575.3,940.1,1583.8,927.5,1586.8,919.4z"/>
		</g>
		<path class="st11" d="M1648.3,811c4.1-4.3,10.2-7.1,17.3-13.9c7.8-7.4,7-10.4,4.4-14.2c-1.7-2.5-7.8,5.3-14.5,8.2
			C1648.9,793.9,1648.3,811,1648.3,811z"/>
	</g>
	<path class="st16" d="M1707.4,1061c-81.6-32.8-120.7-91.8-120.7-91.8s10.3-19.6,19.9-25.9c11.5-7.5,17.2-9.9,17.2-9.9
		s73.3,41.2,104.2,41.7c33.8,0.6,19,40.4,11.2,58.1C1728.1,1058.4,1724.4,1067.8,1707.4,1061z"/>
</g>
<path d="M237,931c4.2-25.2,15.9-63.9,0-100.4c0,0,0,0,0,0c-0.6-1.4-1.2-2.7-1.9-4c0-0.1-0.1-0.1-0.1-0.2c-2.9-5.7-6.2-9.8-9.8-12.7
	c-26.6-24.7-75.2-15.8-107.8,29.8c-13.6,19.1-30.3,38.8-43.1,79c-3.6,11.3-2.1,16.1,3,19.1c30.3,17.5,78.3,28.4,153.4-3
	C234,937.2,236.2,935.5,237,931z"/>
<g>
	<g>
		<g>
			<path class="st17" d="M339.1,1042.5c14.8-12.4,77.4-73,90.5-84.1c13.1-11.1,14.3,0.8,24.2-13.2c14.6-20.7,44.3-24.5,41.6-30.7
				c-3.2-7.3-24-12.3-51.2,12.3c-12.1,10.9-8.6,7.9-21.1,18.7c-12.3,10.7-39.7,30-61.7,42.7c-22,12.7-37.4,22.8-48.1,33.5
				c-8.6,8.5-13.1,22-4.5,28.1C323.6,1060.4,332.5,1048.1,339.1,1042.5z"/>
		</g>
	</g>
	<g>
		<path class="st17" d="M287.6,1038.5c0,0,19.1,11,26.7,14.6c7.6,3.7,13.9-7.2,17.8-13.2c5-7.5-13.6-19-28.5-27.9
			C288.7,1003.2,285.8,1035.6,287.6,1038.5z"/>
		<path class="st12" d="M193.4,992.8c25.1,18.8,97.9,60.3,97.9,60.3s12.5-7.5,17.8-22c4.6-12.9-0.8-21.2-0.8-21.2l-77.1-61.5
			c0,0-35.4-27.4-49.6-14.3C161.3,952.7,172.5,977.2,193.4,992.8z"/>
	</g>
	<path class="st17" d="M433.2,937c4.4-3.9,7.8-15.2,15.9-22.2c8.1-7.1,13.5-10.1,14.9-8.7c1.4,1.4-3,8.8-8.1,13.9
		C450.9,925,433.2,937,433.2,937z"/>
</g>
<g>
	<path d="M607.7,1236.1c0,0-30.6,31.1-32.9,33.3c-2.6,2.4-7,6.1,2.3,12.2c9.3,6.2,12.2,8.3,12.2,8.3s24.6-42.2,26.7-47.1
		C618.2,1237.9,616.8,1232.3,607.7,1236.1z"/>
	<path class="st13" d="M183.2,1106.3c0,0,18.7-18,53.8-26.4c66.7-16,165.4-34.9,183.6-37.9c28.1-4.6,45.9,47.4,13.4,70.2
		c-32.5,22.8-98.9,59.8-135.9,73.7c-42.5,16-52.1,10.3-78.1-7.7C187.9,1155.9,189.1,1129.9,183.2,1106.3z"/>
	<path class="st13" d="M440.4,1048.8c17.8,27.8,29.9,46.3,53.4,81.3c23.5,35,92.6,134.7,92.6,134.7s-1.4,3.5-4.5,5.1
		c-5.6,2.8-8.4-1.1-8.4-1.1s-17.1-19.4-33.8-31.4c-16.7-12-86.8-73.4-105.4-90.3c-18.6-16.8-53.4-40.8-40.6-67.9
		C405.9,1053.5,436.5,1042.7,440.4,1048.8z"/>
</g>
<g>
	<path d="M258.8,1527.9c-0.1-1.4-0.3-2.6-0.5-3.6c-1.7-7.9-6.5-6.1-9.8-5.1c-0.5,0.2-2.1,0.6-4.3,1.2c-2.2-0.6-3.8-1.1-4.3-1.2
		c-3.2-1.1-8.1-2.8-9.8,5.1c-0.2,1-0.4,2.2-0.5,3.6c-0.8,12-1.3,15.8-1.3,15.8s6.8,0.1,15.8,0.2c9-0.1,15.8-0.2,15.8-0.2
		S259.6,1540,258.8,1527.9z"/>
	<path class="st14" d="M251,1046.1c0,0,12.8,22.5,12.3,58.7c-1,68.6-7.1,168.9-8.7,187.2c-2.5,28.4-50.5,66.1-64.5,29
		c-14-37.2-36.4-133-40.7-172.3c-5-45.2-1-64,22.9-84.7C201.7,1038.5,226.6,1046.1,251,1046.1z"/>
	<path class="st14" d="M256.4,1264.4c-1.6,32.9-2.4,55.1-3.4,97.2c-1,42.2-3.5,161.7-3.5,161.7s-3.1,2.1-6.6,1.5
		c-6.2-0.9-6.2-5.8-6.2-5.8s-1.6-23.9-8.3-43.3c-6.7-19.4-28.4-110.1-33.8-134.6c-5.4-24.5-20.1-64.1,6.2-78.9
		C225.6,1248.3,256.8,1257.2,256.4,1264.4z"/>
</g>
<path class="st16" d="M148.1,1155.6c0,0-23.7-101.4-4.1-180.6c3.8-15.4,6.3-35.5,20.9-41.3c7.2-2.8,12.3-2.6,28.1-3.6
	c25.7-1.6,45.7,42.9,52.2,70.5c11.7,49.8,28.8,68.7,28.8,68.7s30,50.8-41.2,92.8C182.6,1191.9,148.1,1155.6,148.1,1155.6z"/>
<g>
	<g>
		<path class="st17" d="M47.1,1016.1c0,0-17.4,13.6-23.6,19.2c-6.2,5.7,0.8,14.7,6.8,18.6c6.1,3.9,21.4-2.6,35.2-13.1
			C79.5,1030.3,50.5,1015.4,47.1,1016.1z"/>
		<path class="st16" d="M161.2,935.3c-37.6,12-126.8,84.9-126.8,84.9s2.2,11.6,11.4,18.5c11,8.2,21,11.4,21,11.4l90.4-43.6
			c0,0,37.9-23.4,31.2-41.6C178.9,939.1,176.3,930.5,161.2,935.3z"/>
	</g>
	<g>
		<g>
			<g>
				<path class="st17" d="M28.9,1072.2c15.4,11.7,90.3,61.6,104,71.9c13.7,10.3,9.4,0.6,11.5,17.6c1.5,12.2,12.6,12.4,17.4,12.6
					c8,0.4,14.5-42.8-1.1-44.6c-16.2-1.9-10,9.6-23.4-0.2c-13.1-9.7-43.3-36.1-60.6-54.7c-17.2-18.6-20.6-24.2-33.3-32.3
					c-10.2-6.5-14-13.4-21.1-5.7C3.2,1057.8,22,1067,28.9,1072.2z"/>
			</g>
		</g>
		<path class="st17" d="M139,1142.2c3.1-2.4-2.2-5.3,3.5-9.6c5.6-4.3,16.2-11.7,17.4-10.2c1.3,1.5-1.4,6.9-4.8,10.2
			C151.6,1135.8,139,1142.2,139,1142.2z"/>
	</g>
</g>
<g>
	<path class="st17" d="M167.6,891.6c-5.7,10.1-1.8,24.5-2.6,42.1c-0.2,4.3,0.1,13.7,25.1,17c14.1,1.9,26.5-2.8,29.6-6.1
		c-8-14.9-22.1-13.1-22.7-19.3c-0.8-9.1,3.3-37.7,3.3-37.7S172,883.8,167.6,891.6z"/>
	<path class="st17" d="M168.9,877.3c2.6-6.9,25.3-18.8,31-43.8c5.7-2.1,24.2,32.7,26.6,55.5c2.3,21.5-2.3,33.8-25.2,29.6
		c-15.8-6-26.1-4-36.9-12.3C165.9,889.9,165.3,886.5,168.9,877.3z"/>
	<path class="st17" d="M156.1,873c3.3-3.3,9.9-1.9,14.8,3c4.8,4.9,6,11.6,2.7,14.8c-3.3,3.3-9.9,1.9-14.8-3
		C154,882.9,152.8,876.2,156.1,873z"/>
</g>
<path class="st15" d="M825.8,387c-14.8-9.9-34.9-15.8-49.8,8.3c-29.2,47.2-20.5,94.3-59.7,113.7c-95,46.9-145.5,130.1-52.3,200.6
	c43.7,33.1,251.8,29.9,274.2-114.2c12.1-77.7-9-131.6-24.8-170.2C893.4,376.5,854.8,369.2,825.8,387z"/>
<path class="st18" d="M703.6,518.7c-0.7,1.3-2.4,2.1-3.9,2.1h-4.8c-1.5,0-2.3-0.9-1.9-2.3l9.1-33.4c0.4-1.4,1.9-2.7,3.3-2.7h14
	c1.5,0,2.1,1.2,1.4,2.5L703.6,518.7z"/>
<path class="st16" d="M650.6,499.2c0,1.5-2.1,2.2-3.4,1.6l-18.5-7.6c-1.3-0.6-3.3-2.2-3.3-3.7v-27.8c0-1.5,1.5-3.1,2.8-3.7l18.8-7.6
	c1.3-0.6,3.6,0.1,3.6,1.6V499.2z"/>
<path class="st18" d="M726.2,485.6c0,2.2-1.8,4-4,4h-5.3c-2.2,0-4-1.8-4-4v-18.5c0-2.2,1.8-4,4-4h5.3c2.2,0,4,1.8,4,4V485.6z"/>
<path class="st18" d="M705.8,485.6c0,2.2-1.2,4.4-3.3,5l-63.1,16.5c-2.1,0.5-3.2-0.8-3.2-3v-56.9c0-2.2,1.3-3.5,3.4-3l63,16.5
	c2.1,0.5,3.1,2.8,3.1,5V485.6z"/>
<path class="st16" d="M717.4,489.5c0,3.7-3,6.6-6.6,6.6h-1.3c-3.7,0-6.6-3-6.6-6.6v-27.8c0-3.7,3-6.6,6.6-6.6h1.3
	c3.7,0,6.6,3,6.6,6.6V489.5z"/>
<g>
	<g>
		<path class="st19" d="M771.4,637c-6.7-18.1-35.7-73.7-41.7-89.8c-6-16.1-4-7.8-8.1-25.4c-5.8-24.8-9.9-21.1-19.3-21.1
			c-8,0-13.6-5.2-15.4,29.4c-0.8,16.3,22.5,3.5,28.5,18.9c5.9,15.2,8,23.6,12.6,48.6c4.5,25,8.8,42.9,15.1,56.6
			c5.1,11,16.3,19.8,24.9,13.8C782.9,657.7,774.4,645.1,771.4,637z"/>
	</g>
	<g>
		<path class="st19" d="M767.2,624c0,0-13.4,17.4-18.1,24.5c-4.6,7,5.2,14.7,10.6,19.4c6.8,5.9,20.7-10.9,31.5-24.5
			C802,629.8,770.3,622.6,767.2,624z"/>
		<path class="st20" d="M825.2,536.9c-22,22.4-58.6,78.8-58.6,78.8s-0.6,17,7.6,25.2c11.2,11.2,18.5,7.5,18.5,7.5l71.4-68.1
			c0,0,31.9-31.3,20.9-47.3C869.3,510.4,843.5,518.2,825.2,536.9z"/>
	</g>
	<path class="st19" d="M721.5,544.5c-1-5.8,2.5-22.7,0.6-33.3c-1.9-10.6-4.2-16.3-6.2-16.1c-1.9,0.2-3.1,8.8-2.3,15.9
		C714.3,518,721.5,544.5,721.5,544.5z"/>
</g>
<g>
	<path class="st13" d="M979.6,703.1c0,0-20.8-12.3-56.9-11.2c-68.5,2.2-168.7,10.1-187.1,12c-28.3,3-31.7,57.8,5.7,71.2
		c37.4,13.3,111.2,31.5,150.5,35.1c45.3,4.2,53-3.8,73.3-28.1C990.1,752.3,980.1,727.5,979.6,703.1z"/>
	<g>
		
			<linearGradient id="SVGID_00000156581071587032174970000001128973446764413321_" gradientUnits="userSpaceOnUse" x1="-7766.4873" y1="3634.0608" x2="-7758.147" y2="3963.5078" gradientTransform="matrix(0.7381 0.6747 -0.6747 0.7381 8874.0986 3399.2556)">
			<stop  offset="0" style="stop-color:#FF3B73"/>
			<stop  offset="1" style="stop-color:#2E1158"/>
		</linearGradient>
		<path style="fill:url(#SVGID_00000156581071587032174970000001128973446764413321_);" d="M583.1,925.3c0,0,38.6,20.3,41.5,21.7
			c3.2,1.5,8.5,3.7,1.5,12.4c-7,8.7-9.1,11.6-9.1,11.6s-36.3-32.8-39.8-36.8C573.8,930.2,573.3,924.5,583.1,925.3z"/>
		<path class="st13" d="M720.5,712.8c-13.2,30.2-22.2,50.4-39.9,88.7c-17.7,38.3-68.3,146.6-68.3,146.6s1.9,3.2,5.2,4.3
			c6,1.9,8.2-2.4,8.2-2.4s12-20.8,26.6-35.2c14.6-14.4,74.1-86.2,89.8-105.8c15.7-19.6,46.3-48.7,29.4-73.5
			C755.3,711.9,723.4,706.1,720.5,712.8z"/>
	</g>
</g>
<g>
	<path class="st14" d="M970.2,679.2c0,0-25.6-3.9-59.2,9.4c-63.7,25.3-155.3,66.8-171.9,74.8c-25.6,12.4-10.2,65.2,29.5,65
		c39.7-0.1,115.3-8.2,153.5-18.1c44-11.4,48.6-21.6,59.4-51.3C994.9,722.5,979,701.9,970.2,679.2z"/>
	<g>
		
			<linearGradient id="SVGID_00000028326155477769663630000017095107271856637880_" gradientUnits="userSpaceOnUse" x1="-7616.7915" y1="2203.5325" x2="-7608.4507" y2="2532.9937" gradientTransform="matrix(0.9233 0.384 -0.384 0.9233 8621.459 1798.6964)">
			<stop  offset="0" style="stop-color:#FF3B73"/>
			<stop  offset="1" style="stop-color:#2E1158"/>
		</linearGradient>
		<path style="fill:url(#SVGID_00000028326155477769663630000017095107271856637880_);" d="M670.9,1023.4c0,0,43.2,6,46.4,6.3
			c3.6,0.3,9.3,0.6,5.6,11.1c-3.7,10.6-4.6,14-4.6,14s-45.3-18.5-49.9-21.1C663.7,1031.2,661.4,1025.9,670.9,1023.4z"/>
		<path class="st14" d="M728,776.8c-2.1,32.9-3.8,55-7.4,97c-3.6,42-14.5,161-14.5,161s2.9,2.4,6.4,2.3c6.3-0.2,6.9-5,6.9-5
			s4.2-23.6,13-42.1c8.8-18.5,40.4-106.3,48.5-130c8.1-23.7,27.1-61.5,2.7-79.1C760.4,764.3,728.4,769.6,728,776.8z"/>
	</g>
</g>
<path class="st23" d="M977.6,692.5c0,0-29.8-93.7-81.9-164c-9.4-12.8-22.2-33.8-37.6-31.2c-7.6,1.3-23.1,10-37.2,17.3
	c-22.8,11.9-18.9,61-8.4,87.3c27.6,69,18.9,98.1,18.9,98.1s21.9,37.3,85.9,22.1C974.2,708.6,977.6,692.5,977.6,692.5z"/>
<g>
	<path class="st11" d="M830.5,451.1c-4.5-5.9-29.6-10.9-42.1-33.3c-6-0.4-13.9,38.2-9.9,60.8c3.9,21.3,11.8,31.8,32.6,21.3
		c13.5-10.3,23.9-11.2,31.9-22.2C836.8,462.4,836.5,459,830.5,451.1z"/>
	<path class="st11" d="M841.5,443.4c-4.1-2.2-10.1,1-13.3,7c-3.2,6.1-2.5,12.8,1.6,15c4.1,2.2,10.1-1,13.3-7.1
		C846.3,452.3,845.6,445.6,841.5,443.4z"/>
	<path class="st11" d="M835.8,464.6c8.4,8.1,11.1,18.3,21.2,32.8c4.4,6.3-9.2,19-15.1,22.3c-11.2,6.4-29,11.1-33.3,9.9
		c1.9-14.4,9.8-18.2,8.6-24.3c-1.8-8.9-13.9-35.3-13.9-35.3S829.3,458.3,835.8,464.6z"/>
</g>
<g>
	<path class="st18" d="M764.3,671.4c0,3.1-3.1,6.6-6.9,6.6H653.8c-3.8,0-6.9-3.5-6.9-6.6c0-3.1,3.1-6.6,6.9-6.6h103.6
		C761.2,664.8,764.3,668.3,764.3,671.4z"/>
	<path class="st18" d="M654.8,676c-2.9,1.1-6.3-0.9-7.7-4.4L609.6,575c-1.4-3.5-0.1-7.3,2.7-8.4c2.9-1.1,6.3,0.9,7.7,4.4l37.5,96.6
		C658.9,671.1,657.7,674.9,654.8,676z"/>
</g>
<g>
	<g>
		<path class="st19" d="M812.6,676.2c-19.3-1.6-101.6,1.4-118.8,0.1c-17.1-1.3-11.7-8.4-27.9-2.8c-17.5,6-25.7-3-27.3,0.9
			c-1.1,2.8,5.7,12.4,42.4,14.1c16.3,0.8,11.6,0.5,28.2,1.6c16.3,1.1,24.8,2.6,49.4,9.1c24.6,6.4,42.6,10.1,57.7,10.1
			c12.1,0,24.8-6.4,23-16.8C836.2,674.5,821.2,676.9,812.6,676.2z"/>
	</g>
	<g>
		<path class="st19" d="M815.5,661.1c0,0-3.1,21.8-3.7,30.2c-0.6,8.4,11.8,10.2,18.8,11.6c8.8,1.8,12.6-19.7,15.3-36.9
			C848.7,648.9,817.5,658.3,815.5,661.1z"/>
		<path class="st23" d="M822.9,556.7c-8.1,30.3-13.6,116.2-13.6,116.2s9.6,6.9,21.1,5.4c13.6-1.7,19.3-8.7,19.3-8.7l28.4-94.4
			c0,0,7.4-36.7-5.2-51.4c-9.2-10.7-24.8-10.7-33.6-3.1C831.6,527.4,826,544.8,822.9,556.7z"/>
	</g>
	<path class="st19" d="M702.6,687.6c-5.9-0.3-22.3,5.1-33,4.4c-10.7-0.7-16.7-2.3-16.7-4.3c0-2,8.4-4.1,15.5-4.2
		C675.5,683.5,702.6,687.6,702.6,687.6z"/>
</g>
</svg>
