<?xml version="1.0" encoding="utf-8"?>
<!-- Generator: Adobe Illustrator 25.4.1, SVG Export Plug-In . SVG Version: 6.00 Build 0)  -->
<svg version="1.1" id="Camada_1" xmlns="http://www.w3.org/2000/svg" xmlns:xlink="http://www.w3.org/1999/xlink" x="0px" y="0px"
	 viewBox="0 0 200 200" style="enable-background:new 0 0 200 200;" xml:space="preserve">
<style type="text/css">
	.st0{fill:#D1D1D1;}
	.st1{fill:#F8B24C;}
	.st2{fill:#7C627A;}
	.st3{font-family:'Heavitas';}
	.st4{font-size:45.1839px;}
	.st5{fill:#FFFFFF;}
	.st6{fill:#E95374;}
</style>
<circle class="st0" cx="100" cy="100" r="93"/>
<circle class="st1" cx="166" cy="34" r="34"/>
<g>
	<text transform="matrix(1 0 0 1 151.4961 49.4761)" class="st2 st3 st4">3</text>
</g>
<g>
	<path class="st5" d="M63.3,98c0,0.6,0,1.2,0,1.8c-0.1,1.6-0.7,2.9-2.2,3.7c-1.5,0.8-3,0.6-4.3-0.3c-2.1-1.5-4.2-3-6.3-4.5
		c-3.1-2.2-6.1-4.4-9.2-6.6c-2.9-2.1-2.9-5.2,0-7.3c5.1-3.7,10.2-7.4,15.4-11c2.4-1.7,5.5-0.8,6.4,1.9c0.3,0.9,0.2,1.8,0.2,2.8
		c0,1-0.3,2.4,0.2,3.1c0.5,0.7,2,0.3,3,0.4c18.2,2.4,30.8,12,37.6,29.2c0.8,2,1.6,3.1,3.7,3.9c9.1,3.3,15.3,12.1,14.5,22.8
		c-0.7,10.1-8.5,18.3-18.5,20c-10.9,1.8-21.5-4.6-24.9-15.1c-3.4-10.5,1.4-21.9,11.3-26.8c1-0.5,1.1-0.8,0.6-1.8
		c-5.2-11.3-14.1-17.5-26.4-18.8c-0.9-0.1-1.2,0.2-1.1,1.1C63.3,96.8,63.3,97.4,63.3,98z"/>
	<path class="st6" d="M136.7,98c0-0.3,0-0.6,0-1c0-1.9,0-1.9-1.9-1.7c-8.8,1-16,4.8-21.5,11.7c-0.6,0.8-1.2,0.6-1.7-0.5
		c-1.3-3.2-2.8-6.2-4.7-9c-1.4-2.2-1.4-2.2,0.6-4c8-7.2,17.3-11.2,28.1-11.7c0.9,0,1.1-0.3,1.1-1.1c-0.1-1.2,0-2.4,0-3.6
		c0-1.6,0.7-2.9,2.1-3.7c1.5-0.8,3-0.6,4.3,0.3c5.3,3.8,10.7,7.6,15.9,11.4c2.3,1.7,2.3,4.8,0.1,6.4c-5.4,4-10.8,7.8-16.2,11.6
		c-2.6,1.8-6,0.1-6.2-3.1C136.7,99.4,136.7,98.7,136.7,98C136.7,98,136.7,98,136.7,98z"/>
	<path class="st5" d="M106.8,74.7c0,2.5,0,4.9,0,7.4c0,0.6-0.1,1-0.7,1.4c-2,1.4-3.8,3-5.5,4.7c-0.5,0.5-0.8,0.4-1.2,0
		c-1.7-1.7-3.5-3.2-5.4-4.6c-0.6-0.4-0.7-0.9-0.7-1.5c0-4.9,0-9.9,0-14.8c0-0.9-0.2-1.2-1.1-1.1c-1.1,0.1-2.2,0-3.3,0
		c-1.7,0-3.1-0.6-3.9-2.2c-0.8-1.6-0.5-3.1,0.5-4.5c3.4-4.7,6.7-9.3,10-14c0.3-0.4,0.6-0.9,0.9-1.3c2.1-2.9,5.2-2.9,7.2,0
		c3,4.2,6,8.3,9,12.5c0.7,1,1.5,2,2.2,3.1c1,1.4,1.1,2.9,0.3,4.3c-0.8,1.4-2,2.1-3.7,2.1c-1.1,0-2.3,0.1-3.4,0
		c-0.9-0.1-1.3,0.2-1.2,1.2C106.8,69.7,106.8,72.2,106.8,74.7z"/>
	<path class="st0" d="M91.3,135.7c0-4.9,4-8.8,8.9-8.8c4.6,0,8.7,4,8.7,8.4c0,5.2-4,9.3-8.9,9.2C95.1,144.4,91.2,140.5,91.3,135.7z"
		/>
</g>
</svg>
