<?xml version="1.0" encoding="utf-8"?>
<!-- Generator: Adobe Illustrator 25.4.1, SVG Export Plug-In . SVG Version: 6.00 Build 0)  -->
<svg version="1.1" id="Camada_1" xmlns="http://www.w3.org/2000/svg" xmlns:xlink="http://www.w3.org/1999/xlink" x="0px" y="0px"
	 viewBox="0 0 200 200" style="enable-background:new 0 0 200 200;" xml:space="preserve">
<style type="text/css">
	.st0{fill:#D1D1D1;}
	.st1{fill:#FFFFFF;}
	.st2{fill:#E95374;}
	.st3{fill:#DADCDE;}
	.st4{fill:#FEFEFE;}
	.st5{fill:#F8B24C;}
	.st6{fill:#7C627A;}
	.st7{font-family:'Heavitas';}
	.st8{font-size:45.1839px;}
</style>
<circle class="st0" cx="100" cy="100" r="93"/>
<path class="st1" d="M68,100c0-13.8,0-27.7,0-41.5c0-4.2,2.2-7.3,6-8.4c0.9-0.2,1.7-0.3,2.6-0.3c16,0,31.9,0,47.9,0
	c5.2,0,8.6,3.5,8.6,8.6c0,9.6,0,19.1,0,28.7c0,2.3-0.9,3.3-3.2,3.4c-13,0.4-23.1,11.2-22.5,24.3c0.5,11.2,9.6,20.7,20.8,21.7
	c0.8,0.1,1.6,0.1,2.4,0.2c1.1,0.1,2.2,0.8,2.3,1.8c0.4,3.2,0.4,6.4-1.9,9c-1.6,1.8-3.7,2.7-6.1,2.7c-16.2,0-32.5,0-48.7,0
	c-4.8,0-8.2-3.6-8.2-8.5c0-9.7,0-19.3,0-29C68,108.4,68,104.2,68,100z"/>
<path class="st2" d="M130.4,95.9c9.7,0,17.6,7.9,17.6,17.7c0,9.7-7.9,17.6-17.7,17.5c-9.7,0-17.6-7.9-17.5-17.7
	C112.8,103.7,120.7,95.9,130.4,95.9z"/>
<g>
	<g>
		<path class="st3" d="M98.5,90.5c-5.6,0-11.1,0-16.7,0c-1.4,0-2.5-0.8-2.8-2c-0.3-1.3,0.3-2.5,1.4-3.1c0.5-0.2,0.9-0.3,1.4-0.3
			c11.1,0,22.3,0,33.4,0c1.8,0,2.9,1.1,2.9,2.7c0,1.6-1.2,2.7-3,2.7C109.6,90.5,104,90.5,98.5,90.5z"/>
		<path class="st3" d="M92.4,104c-3.6,0-7.2,0-10.8,0c-1.4,0-2.4-0.9-2.7-2.1c-0.2-1.3,0.4-2.5,1.6-3c0.4-0.2,0.8-0.2,1.2-0.2
			c7.1,0,14.2,0,21.3,0c1.8,0,2.9,1.1,2.9,2.7c0,1.6-1.2,2.7-3,2.7C99.5,104.1,95.9,104,92.4,104C92.4,104,92.4,104,92.4,104z"/>
		<path class="st3" d="M91.1,117.6c-3.2,0-6.4,0-9.5,0c-1.4,0-2.4-0.9-2.6-2.2c-0.2-1.3,0.4-2.5,1.6-3c0.4-0.2,0.9-0.2,1.4-0.2
			c6.1,0,12.2,0,18.3,0c1.8,0,3,1.1,3,2.7c0,1.6-1.2,2.7-3.1,2.7C97.1,117.6,94.1,117.6,91.1,117.6
			C91.1,117.6,91.1,117.6,91.1,117.6z"/>
		<path class="st3" d="M89.7,131.2c-2.6,0-5.2,0-7.8,0c-1.8,0-3-1.1-3-2.7c0-1.6,1.1-2.7,3-2.7c5.2,0,10.4,0,15.7,0
			c1.8,0,3,1.1,3,2.7c0,1.6-1.2,2.7-3,2.7C94.9,131.2,92.3,131.2,89.7,131.2z"/>
		<path class="st3" d="M89.7,76.9c-1.5,0-2.7-1.2-2.7-2.6c0-1.5,1.2-2.7,2.7-2.7c1.5,0,2.7,1.2,2.7,2.7
			C92.4,75.7,91.2,76.9,89.7,76.9z"/>
		<path class="st3" d="M97.9,71.6c1.5,0,2.7,1.2,2.7,2.7c0,1.5-1.3,2.7-2.8,2.7c-1.5,0-2.7-1.3-2.6-2.7
			C95.2,72.7,96.4,71.5,97.9,71.6z"/>
		<path class="st3" d="M81.6,76.9c-1.5,0-2.7-1.1-2.7-2.6c0-1.6,1.1-2.8,2.7-2.8c1.5,0,2.7,1.2,2.7,2.7
			C84.3,75.7,83.1,76.9,81.6,76.9z"/>
	</g>
</g>
<path class="st4" d="M127.7,118.7c0-2.4,0-2.4-2.5-2.4c-0.6,0-1.1,0-1.7,0c-1.5-0.1-2.7-1.3-2.6-2.8c0-1.4,1.1-2.6,2.6-2.6
	c1.2-0.1,2.3,0,3.5,0c0.5,0,0.7-0.1,0.7-0.6c0-1.1,0-2.2,0-3.3c0-1.6,1.1-2.8,2.6-2.9c1.5,0,2.7,1.1,2.8,2.7c0.1,1.1,0,2.3,0,3.4
	c0,0.5,0.1,0.7,0.7,0.7c1.1,0,2.1,0,3.2,0c1.7,0,2.9,1.1,2.9,2.7c0,1.6-1.2,2.7-3,2.8c-1,0-2,0-3.1,0c-0.6,0-0.8,0.2-0.7,0.8
	c0,1.1,0,2.1,0,3.2c-0.1,1.7-1.3,2.9-2.8,2.8c-1.5-0.1-2.6-1.3-2.6-3C127.7,119.6,127.7,119.2,127.7,118.7z"/>
<circle class="st5" cx="166" cy="34" r="34"/>
<g>
	<text transform="matrix(1 0 0 1 151.4961 49.4761)" class="st6 st7 st8">2</text>
</g>
</svg>
