<?xml version="1.0" encoding="utf-8"?>
<!-- Generator: Adobe Illustrator 25.4.1, SVG Export Plug-In . SVG Version: 6.00 Build 0)  -->
<svg version="1.1" id="Camada_1" xmlns="http://www.w3.org/2000/svg" xmlns:xlink="http://www.w3.org/1999/xlink" x="0px" y="0px"
	 viewBox="0 0 427 53" style="enable-background:new 0 0 427 53;" xml:space="preserve">
<style type="text/css">
	.st0{fill:#E5E5E5;}
	.st1{fill:#969696;}
	.st2{fill:#F8B34C;}
</style>
<ellipse class="st0" cx="213.5" cy="40.2" rx="19.2" ry="3.1"/>
<path class="st1" d="M213.5,40.3c-3.9,0-7.9,0-11.8,0c-2.7,0-4.9-1.7-5.5-4.4c-0.1-0.4-0.1-0.8-0.1-1.2c0-7.8,0-15.7,0-23.5
	c0-3.3,2.4-5.7,5.7-5.7c3.3,0,6.7,0,10,0c0.7,0,1.2,0.3,1.6,0.9c0.3,0.6,0.2,1.1-0.1,1.6c-0.4,0.5-0.9,0.7-1.5,0.7
	c-3.2,0-6.5,0-9.7,0c-0.4,0-0.7,0-1.1,0.1c-1.1,0.3-1.7,1.2-1.7,2.5c0,4.5,0,8.9,0,13.4c0,3.3,0,6.6,0,9.9c0,1.7,1,2.7,2.7,2.7
	c7.7,0,15.5,0,23.2,0c1.7,0,2.6-1,2.6-2.7c0-3.3,0-6.5,0-9.8c0-0.4,0-0.8,0.3-1.2c0.4-0.5,1.1-0.8,1.7-0.6c0.7,0.2,1.1,0.8,1.1,1.6
	c0,2,0,4.1,0,6.1c0,1.6,0.1,3.2-0.1,4.7c-0.3,2.8-2.6,4.9-5.5,5C221.4,40.3,217.5,40.3,213.5,40.3z"/>
<path class="st2" d="M210.7,27.6c-1.3,0-2-0.9-1.7-2c0.5-2.4,1-4.7,1.4-7.1c0.2-0.9,0.6-1.6,1.2-2.2c3-3,6-6,9.1-9
	c0.3-0.3,0.4-0.3,0.6,0c2.6,2.7,5.3,5.3,8,8c0.2,0.2,0.3,0.4,0,0.6c-3.1,3.1-6.3,6.3-9.4,9.4c-0.7,0.7-1.5,0.8-2.3,0.9
	c-2.1,0.4-4.3,0.9-6.4,1.3C210.9,27.6,210.7,27.6,210.7,27.6z"/>
<path class="st2" d="M234.8,8.7c0,1-0.4,1.9-1.1,2.7c-0.6,0.6-1.2,1.2-1.8,1.8c-0.2,0.2-0.3,0.2-0.5,0c-2.7-2.7-5.4-5.4-8.1-8.1
	c-0.2-0.2-0.2-0.3,0-0.5c0.6-0.5,1.1-1.1,1.7-1.7c1.6-1.5,4.1-1.5,5.7,0c1,1,2,1.9,2.9,2.9C234.4,6.6,234.8,7.6,234.8,8.7z"/>
<rect x="201.7" y="38.2" class="st1" width="23.2" height="2.1"/>
</svg>
