<?xml version="1.0" encoding="utf-8"?>
<!-- Generator: Adobe Illustrator 25.4.1, SVG Export Plug-In . SVG Version: 6.00 Build 0)  -->
<svg version="1.1" id="Camada_1" xmlns="http://www.w3.org/2000/svg" xmlns:xlink="http://www.w3.org/1999/xlink" x="0px" y="0px"
	 viewBox="0 0 609 59" style="enable-background:new 0 0 609 59;" xml:space="preserve">
<style type="text/css">
	.st0{fill:url(#SVGID_1_);}
	.st1{fill:url(#SVGID_00000014599774193910397160000016489008055071277461_);}
	.st2{fill:url(#SVGID_00000133514069427399774410000011866153547683870883_);}
	.st3{fill:url(#SVGID_00000152246264990731632330000005284774910073977276_);}
	.st4{fill:url(#SVGID_00000000918935966507623350000004835385836391059364_);}
	.st5{fill:url(#SVGID_00000105421291953008034080000006878909004294718876_);}
	.st6{fill:url(#SVGID_00000126324977626152170650000005307361849721088641_);}
	.st7{fill:url(#SVGID_00000078737875823093217170000005152194879071942297_);}
	.st8{fill:url(#SVGID_00000053505536232522784850000006665416558521917357_);}
</style>
<g>
	<linearGradient id="SVGID_1_" gradientUnits="userSpaceOnUse" x1="175.4449" y1="273.9838" x2="94.8478" y2="139.6555">
		<stop  offset="0" style="stop-color:#FFFFFF"/>
		<stop  offset="0.4201" style="stop-color:#737373"/>
		<stop  offset="0.5" style="stop-color:#E8E8E8"/>
		<stop  offset="0.5747" style="stop-color:#BABABA"/>
		<stop  offset="0.8711" style="stop-color:#737373"/>
		<stop  offset="1" style="stop-color:#D4D4D4"/>
	</linearGradient>
	<path class="st0" d="M44.15,22.06H27.16c-8.42,0-11.59-2.52-11.59-5.62v-2.81c0-3.17,3.17-5.62,11.59-5.62h7.42
		c2.3,0,2.81-1.3,2.81-3.89c0-2.59-0.5-3.89-2.81-3.89h-7.2c-14.19,0-21.31,4.39-21.31,13.39v2.81c0,8.93,7.13,13.39,21.31,13.39
		h16.99c8.42,0,11.59,2.52,11.59,5.62v3.6c0,3.17-3.17,5.62-11.59,5.62H8.87c-2.3,0-2.81,1.3-2.81,3.89c0,2.59,0.5,3.89,2.81,3.89
		h35.28c14.19,0,21.31-4.39,21.31-13.39v-3.6C65.47,26.52,58.34,22.06,44.15,22.06z"/>
	
		<linearGradient id="SVGID_00000031914392363107052300000004998555256517278878_" gradientUnits="userSpaceOnUse" x1="231.2817" y1="240.4817" x2="150.6847" y2="106.1534">
		<stop  offset="0" style="stop-color:#FFFFFF"/>
		<stop  offset="0.4201" style="stop-color:#737373"/>
		<stop  offset="0.5" style="stop-color:#E8E8E8"/>
		<stop  offset="0.5747" style="stop-color:#BABABA"/>
		<stop  offset="0.8711" style="stop-color:#737373"/>
		<stop  offset="1" style="stop-color:#D4D4D4"/>
	</linearGradient>
	<path style="fill:url(#SVGID_00000031914392363107052300000004998555256517278878_);" d="M113.92,0.24H91.53
		c-14.19,0-21.31,4.39-21.31,13.39v25.2c0,8.93,7.13,13.39,21.31,13.39h21.24l10.87,6.12c1.37,0.72,3.02,1.01,4.82,1.01
		c3.46,0,4.9-1.08,4.9-3.24c0-1.51-0.72-2.52-2.3-3.38l-4.61-2.45c5.62-2.09,8.78-5.83,8.78-11.45v-25.2
		C135.23,4.63,128.1,0.24,113.92,0.24z M125.73,39.05c0,3.1-2.74,5.62-12.1,5.62H91.81c-8.42,0-12.1-2.52-12.1-5.62V13.63
		c0-3.17,3.67-5.62,12.1-5.62h21.82c8.42,0,12.1,2.45,12.1,5.62V39.05z"/>
	
		<linearGradient id="SVGID_00000049189355447216857450000002961598564841335196_" gradientUnits="userSpaceOnUse" x1="284.9706" y1="208.2684" x2="204.3735" y2="73.9401">
		<stop  offset="0" style="stop-color:#FFFFFF"/>
		<stop  offset="0.4201" style="stop-color:#737373"/>
		<stop  offset="0.5" style="stop-color:#E8E8E8"/>
		<stop  offset="0.5747" style="stop-color:#BABABA"/>
		<stop  offset="0.8711" style="stop-color:#737373"/>
		<stop  offset="1" style="stop-color:#D4D4D4"/>
	</linearGradient>
	<path style="fill:url(#SVGID_00000049189355447216857450000002961598564841335196_);" d="M201.11-0.05c-3.17,0-4.82,0.65-4.82,3.38
		v35.71c0,3.1-3.6,5.62-12.03,5.62h-21.6c-8.42,0-12.03-2.52-12.03-5.62V3.33c0-2.74-1.66-3.38-4.82-3.38
		c-3.1,0-4.75,0.65-4.75,3.38v35.71c0,8.93,7.13,13.39,21.31,13.39h22.18c14.19,0,21.31-4.46,21.31-13.39V3.33
		C205.86,0.6,204.21-0.05,201.11-0.05z"/>
	
		<linearGradient id="SVGID_00000119075236240387324120000004513053221815942076_" gradientUnits="userSpaceOnUse" x1="325.6113" y1="183.8839" x2="245.0143" y2="49.5556">
		<stop  offset="0" style="stop-color:#FFFFFF"/>
		<stop  offset="0.4201" style="stop-color:#737373"/>
		<stop  offset="0.5" style="stop-color:#E8E8E8"/>
		<stop  offset="0.5747" style="stop-color:#BABABA"/>
		<stop  offset="0.8711" style="stop-color:#737373"/>
		<stop  offset="1" style="stop-color:#D4D4D4"/>
	</linearGradient>
	<path style="fill:url(#SVGID_00000119075236240387324120000004513053221815942076_);" d="M249.35,2.54
		c-1.15-1.58-2.81-2.52-5.62-2.52c-2.88,0-4.61,0.94-5.69,2.52l-29.52,44.79c-0.29,0.5-0.5,1.01-0.5,1.58
		c0,2.23,2.81,3.89,5.18,3.89c1.22,0,2.45-0.43,3.1-1.44l7.99-12.39h40.04l8.5,12.39c0.72,1.01,1.87,1.44,3.17,1.44
		c2.45,0,5.26-1.66,5.26-3.82c0-0.5-0.14-1.08-0.5-1.66L249.35,2.54z M229.26,31.2l14.47-22.39L259,31.2H229.26z"/>
	
		<linearGradient id="SVGID_00000082327957135971464310000000779545807316032927_" gradientUnits="userSpaceOnUse" x1="388.0056" y1="146.4474" x2="307.4086" y2="12.119">
		<stop  offset="0" style="stop-color:#FFFFFF"/>
		<stop  offset="0.4201" style="stop-color:#737373"/>
		<stop  offset="0.5" style="stop-color:#E8E8E8"/>
		<stop  offset="0.5747" style="stop-color:#BABABA"/>
		<stop  offset="0.8711" style="stop-color:#737373"/>
		<stop  offset="1" style="stop-color:#D4D4D4"/>
	</linearGradient>
	<path style="fill:url(#SVGID_00000082327957135971464310000000779545807316032927_);" d="M329.63,0.24H288.8
		c-2.23,0-3.31,1.08-3.31,3.31v45.51c0,2.23,1.08,3.38,3.31,3.38h40.83c14.26,0,21.31-4.46,21.31-13.39V13.63
		C350.94,4.63,343.89,0.24,329.63,0.24z M341.51,39.05c0,3.1-3.75,5.62-12.17,5.62h-34.28V8.01h34.28c8.42,0,12.17,2.45,12.17,5.62
		V39.05z"/>
	
		<linearGradient id="SVGID_00000063619481951439590080000017133283387771159197_" gradientUnits="userSpaceOnUse" x1="445.8816" y1="111.7218" x2="365.2846" y2="-22.6066">
		<stop  offset="0" style="stop-color:#FFFFFF"/>
		<stop  offset="0.4201" style="stop-color:#737373"/>
		<stop  offset="0.5" style="stop-color:#E8E8E8"/>
		<stop  offset="0.5747" style="stop-color:#BABABA"/>
		<stop  offset="0.8711" style="stop-color:#737373"/>
		<stop  offset="1" style="stop-color:#D4D4D4"/>
	</linearGradient>
	<path style="fill:url(#SVGID_00000063619481951439590080000017133283387771159197_);" d="M408.9,0.24h-53
		c-2.3,0-2.81,1.3-2.81,3.89c0,2.59,0.5,3.89,2.81,3.89h21.67v41.33c0,2.74,1.66,3.38,4.75,3.38c3.17,0,4.82-0.65,4.82-3.38V8.01
		h21.75c2.3,0,2.81-1.3,2.81-3.89C411.71,1.53,411.21,0.24,408.9,0.24z"/>
	
		<linearGradient id="SVGID_00000145756405122258125470000017411917923743905976_" gradientUnits="userSpaceOnUse" x1="478.4644" y1="92.1721" x2="397.8674" y2="-42.1563">
		<stop  offset="0" style="stop-color:#FFFFFF"/>
		<stop  offset="0.4201" style="stop-color:#737373"/>
		<stop  offset="0.5" style="stop-color:#E8E8E8"/>
		<stop  offset="0.5747" style="stop-color:#BABABA"/>
		<stop  offset="0.8711" style="stop-color:#737373"/>
		<stop  offset="1" style="stop-color:#D4D4D4"/>
	</linearGradient>
	<path style="fill:url(#SVGID_00000145756405122258125470000017411917923743905976_);" d="M470.1,30.62c2.3,0,2.81-1.3,2.81-3.89
		s-0.5-3.89-2.81-3.89h-46.73v-9.22c0-3.17,3.67-5.62,12.1-5.62h10.44c2.23,0,2.74-1.3,2.74-3.89c0-2.59-0.5-3.89-2.74-3.89h-10.73
		c-14.19,0-21.31,4.39-21.31,13.39v25.42c0,8.93,7.13,13.39,21.31,13.39h34.71c2.3,0,2.81-1.37,2.81-3.89c0-2.59-0.5-3.89-2.81-3.89
		h-34.42c-8.42,0-12.1-2.52-12.1-5.62v-8.42H470.1z"/>
	
		<linearGradient id="SVGID_00000030467298058697408190000017245755732941143998_" gradientUnits="userSpaceOnUse" x1="530.8076" y1="60.7662" x2="450.2106" y2="-73.5622">
		<stop  offset="0" style="stop-color:#FFFFFF"/>
		<stop  offset="0.4201" style="stop-color:#737373"/>
		<stop  offset="0.5" style="stop-color:#E8E8E8"/>
		<stop  offset="0.5747" style="stop-color:#BABABA"/>
		<stop  offset="0.8711" style="stop-color:#737373"/>
		<stop  offset="1" style="stop-color:#D4D4D4"/>
	</linearGradient>
	<path style="fill:url(#SVGID_00000030467298058697408190000017245755732941143998_);" d="M499.69,8.01h35c2.3,0,2.81-1.3,2.81-3.89
		c0-2.59-0.5-3.89-2.81-3.89H499.4c-14.19,0-21.31,4.39-21.31,13.39v25.42c0,8.93,7.13,13.39,21.31,13.39h35.36
		c2.3,0,2.74-1.37,2.74-3.89c0-2.59-0.43-3.89-2.74-3.89h-35.07c-8.42,0-12.1-2.52-12.1-5.62V13.63
		C487.6,10.46,491.27,8.01,499.69,8.01z"/>
	
		<linearGradient id="SVGID_00000058564831967151818160000015474071697012518034_" gradientUnits="userSpaceOnUse" x1="579.2351" y1="31.7097" x2="498.6381" y2="-102.6187">
		<stop  offset="0" style="stop-color:#FFFFFF"/>
		<stop  offset="0.4201" style="stop-color:#737373"/>
		<stop  offset="0.5" style="stop-color:#E8E8E8"/>
		<stop  offset="0.5747" style="stop-color:#BABABA"/>
		<stop  offset="0.8711" style="stop-color:#737373"/>
		<stop  offset="1" style="stop-color:#D4D4D4"/>
	</linearGradient>
	<path style="fill:url(#SVGID_00000058564831967151818160000015474071697012518034_);" d="M604.02-0.05c-3.17,0-4.82,0.65-4.82,3.38
		v19.51h-46.37V3.33c0-2.74-1.66-3.38-4.82-3.38c-3.1,0-4.75,0.65-4.75,3.38v46.01c0,2.74,1.66,3.38,4.75,3.38
		c3.17,0,4.82-0.65,4.82-3.38V30.62h46.37v18.72c0,2.74,1.66,3.38,4.82,3.38c3.1,0,4.75-0.65,4.75-3.38V3.33
		C608.78,0.6,607.12-0.05,604.02-0.05z"/>
</g>
</svg>
